<?xml version="1.0" encoding="utf-8"?>
<!-- Generator: Adobe Illustrator 23.1.1, SVG Export Plug-In . SVG Version: 6.00 Build 0)  -->
<svg version="1.1" id="Calque_1" xmlns="http://www.w3.org/2000/svg" xmlns:xlink="http://www.w3.org/1999/xlink" x="0px" y="0px"
	 viewBox="0 0 335 375" style="enable-background:new 0 0 335 375;" xml:space="preserve">
<style type="text/css">
	.st0{fill:#FFFFFF;}
	.st1{fill:#D7715A;}
	.st2{fill:#F26841;}
	.st3{fill:#EE3455;}
	.st4{fill:#3A3938;}
	.st5{fill:none;}
	.st6{fill:#121010;}
	.st7{fill:#EE4439;}
	.st8{fill:#ECECEC;}
	.st9{fill:#141112;}
	.st10{fill:#F2F2F2;}
</style>
<path class="st0" d="M125.26,145.5c-7.6-3.26-12.66-9.29-17.5-16.35c0.34,2.32,0.73,4.05,0.84,5.79c0.45,6.85-1.79,12.45-7.79,16.22
	c-5.82,3.66-11.58,2.73-17.22-0.41c-7.15-3.98-12.46-9.94-17.23-16.42c-6.56-8.91-12.14-18.37-15.29-29.07
	c-1.12-3.79-1.7-7.67-1.38-11.65c0.71-8.68,6.08-13.3,14.76-12.73c0.81,0.05,1.63,0.15,2.69,0.26c-1.5-1.93-2.94-3.63-4.22-5.44
	c-2.16-3.06-3.83-6.36-4.49-10.11c-0.38-2.15-0.28-4.26,0.4-6.33c1.91-5.83,6.46-8.27,12.31-6.44c5.93,1.86,10.35,5.95,14.38,10.44
	c8.83,9.83,14.68,21.39,19.07,33.74c0.25,0.7,0.49,1.41,0.83,2.36c1-1.05,1.8-2.05,2.75-2.85c5.26-4.42,12.27-3.6,17.77,1.97
	c4.37,4.42,7.52,9.64,10.12,15.22c0.77,1.67,1.46,3.38,2.21,5.12c2.94-2.79,5.89-2.92,9.18-0.47c5.12,3.81,6.88,9.08,6.45,15.41
	c3.67-0.78,7-0.34,9.84,2.28c4.86,4.48,4.11,12.61-1.78,15.62c-2.54,1.3-4.18,3.21-5.9,5.24c-1.7,1.68-3.37,3.4-5.12,5.03
	c-0.47,0.43-1.1,1.45-1.8,0.63c-0.59-0.69,0.41-1.11,0.88-1.56c2.53-2.4,5.13-4.73,7.19-7.58c1.18-1.08,1.94-2.45,2.67-3.83
	c0.27-0.51,0.58-1.17,0.06-1.7c-0.43-0.43-1.02-0.28-1.55-0.12c-0.52,0.16-1.05,0.33-1.38,0.81c-2.5,0.99-4.23,3.01-6.17,4.73
	c-0.55,0.48-0.91,1.44-1.79,1.16c-0.78-0.25-0.51-1.18-0.64-1.83c-0.21-1.04-0.38-2.09-0.65-3.61c-2.71,4.55-6.34,6.25-11.08,5.54
	c-3.78-1.1-6.29-3.43-7.48-7.28C128.66,145.46,127.01,145.19,125.26,145.5z M150.68,137.7c-2.76,3.21-2.79,7.88-0.11,11.09
	c0.97,1.16,1.85,1.62,3.16,0.36c0.92-0.88,2.1-1.51,3.16-2.24c0.26-0.08,0.53-0.15,0.79-0.24c1.15-0.38,2.33-0.66,3.29,0.31
	c0.92,0.93,0.55,2.04,0.19,3.1c-0.06,0.18-0.05,0.38-0.08,0.61c3.18-1.76,4.82-4.75,4.52-8.16c-0.3-3.43-2.67-6.46-5.99-7.41
	C156.15,134.13,153.09,134.87,150.68,137.7z M144.3,138.46c-3.65-3.12-8.9-2.74-11.98,0.88c-3.03,3.55-2.61,9.02,0.93,12.04
	c3.61,3.08,8.88,2.66,12.01-0.96C148.38,146.79,147.96,141.6,144.3,138.46z M149.79,152.38c2.07-1.33,0.67-1.93-0.31-2.76
	C149.22,150.61,149.56,151.37,149.79,152.38z"/>
<path class="st0" d="M251.66,272.2c0.27-0.59,0.97-0.5,1.67-0.48c1.93,0.05,3.86,0.01,5.78,0.12c5.53,0.3,10-2.05,14-5.56
	c0.89-0.78,1.77-1.52,2.88-0.64c1.17,0.92,0.54,1.96-0.11,2.9c-2.88,4.2-5.8,8.37-8.63,12.61c-0.67,1-1.18,0.62-1.81,0.12
	c-1.24-0.99-2.54-1.89-4.05-2.42c-0.85-0.3-1.73-0.67-2.47,0.19c-0.78,0.92-0.34,1.85,0.15,2.68c0.88,1.5,2.11,2.73,3.5,3.75
	c0.83,0.61,0.88,1.11,0.34,2.01c-2.55,4.3-2.52,4.33-6.7,1.65c-3.36-2.16-6.69-4.35-10.04-6.52c-0.59-0.38-1.21-0.6-0.56-1.53
	C247.62,278.22,249.56,275.29,251.66,272.2z"/>
<path class="st1" d="M125.26,145.5c1.74-0.31,3.4-0.04,3.97,1.81c1.19,3.85,3.7,6.17,7.48,7.28c-0.46,1.04,0.51,1.31,1.01,1.75
	c3.53,3.08,7.1,6.11,10.65,9.16c-6.05,2.99-11.95,2.52-17.29-1.42c-5.36-3.96-7.45-9.53-6.42-16.17
	C124.8,147.09,125.06,146.3,125.26,145.5z M135,161.62c1.23,0.81,2.56,1.51,4.07,1.8c0.4,0.08,0.89,0.17,1.06-0.33
	c0.22-0.62-0.22-0.87-0.73-1c-2.49-0.6-4.38-1.93-5.33-4.41c-0.15-0.39-0.5-0.73-0.97-0.5c-0.46,0.23-0.33,0.71-0.22,1.11
	C133.22,159.61,134.1,160.59,135,161.62z"/>
<path class="st2" d="M148.38,165.5c-3.55-3.05-7.12-6.08-10.65-9.16c-0.51-0.44-1.48-0.71-1.01-1.75c4.74,0.71,8.37-1,11.08-5.54
	c0.27,1.52,0.43,2.57,0.65,3.61c0.13,0.65-0.14,1.58,0.64,1.83c0.87,0.28,1.24-0.68,1.79-1.16c1.95-1.72,3.67-3.74,6.17-4.73
	c0.45,1.6,0.1,3.23,0.2,4.84c-2.06,2.85-4.67,5.18-7.19,7.58c-0.47,0.45-1.47,0.87-0.88,1.56c0.7,0.82,1.34-0.2,1.8-0.63
	c1.75-1.63,3.42-3.35,5.12-5.03C154.75,160.87,152.03,163.6,148.38,165.5z"/>
<path class="st0" d="M289.31,206.28c-0.33,0.35-0.61,0.78-1,1.03c-1.61,1.02-2.87,1.9-0.74,3.82c0.94,0.84,0.27,1.91-1,2.26
	c-2.24,0.61-6.62-1.56-7.51-3.69c-0.57-1.37-0.06-2.59,0.67-3.68c1.79-2.65,4.24-4.47,7.32-5.34c1.33-0.38,2.86-0.7,3.78,0.64
	c0.9,1.31,0.08,2.63-0.64,3.82c-0.25,0.4-0.62,0.73-0.93,1.1C289.28,206.25,289.3,206.27,289.31,206.28z"/>
<path class="st2" d="M260.35,184.72c2.59-1.87,5.85-3.08,9.59-2.53c0.74,0.11,1.53,0.35,1.77,1.2c0.23,0.81-0.16,1.53-0.75,2.02
	c-2.88,2.38-6.2,3.43-9.93,2.97c-0.72-0.09-1.51-0.27-1.84-1.11C258.95,186.6,259.2,185.93,260.35,184.72z"/>
<path class="st0" d="M267.21,255.96c2.65-2.01,6.09-3.19,9.95-2.6c1.88,0.29,2.27,1.59,0.85,2.89c-2.96,2.7-6.53,3.73-10.47,3.07
	C265.7,259.03,265.49,257.81,267.21,255.96z"/>
<path class="st0" d="M319.51,295.08c-1.98,2.37-8.62,4.13-11.54,3.06c-1.83-0.67-2.24-2.23-0.97-3.75c2.07-2.48,8.54-4.31,11.69-3.3
	C320.71,291.73,321.03,293.26,319.51,295.08z M318.52,294.14c0.74-0.88,0.66-1.31-0.31-1.7c-2.34-0.92-8.55,0.86-10.17,2.87
	c-0.66,0.83-0.49,1.33,0.47,1.68C310.7,297.78,316.93,296.02,318.52,294.14z"/>
<path class="st2" d="M317.65,271.02c-1.84,1.46-4.24,2.27-6.99,1.84c-0.86-0.13-1.63-0.54-1.9-1.4c-0.27-0.88,0.2-1.64,0.85-2.18
	c2.05-1.72,4.42-2.48,7.1-2.16c0.92,0.11,1.79,0.47,2.1,1.43C319.09,269.46,318.53,270.13,317.65,271.02z"/>
<path class="st2" d="M224.62,329.86c0.94-1.14,1.85-1.84,2.96-2.28c0.59-0.24,1.22-0.4,1.75,0.06c0.61,0.53,0.49,1.26,0.24,1.91
	c-0.22,0.57-0.48,1.16-0.85,1.64c-0.62,0.79-1.19,1.33-0.04,2.29c0.95,0.8,0.25,1.51-0.76,1.62c-1.64,0.17-3.33-0.12-4.21-1.56
	C222.82,332.09,223.98,330.82,224.62,329.86z"/>
<path class="st2" d="M275.91,301.91c1.85-1.37,4.05-2.21,6.56-1.75c1.34,0.25,1.61,1.31,0.54,2.23c-1.84,1.6-4.06,2.28-6.48,1.89
	C275.16,304.05,274.9,303.07,275.91,301.91z"/>
<path class="st2" d="M283.44,162.32c0.88,0.71,0.72,1.52,0.26,2.14c-1.19,1.47-3.7,1.86-4.79,0.91c-0.78-0.68-0.69-1.4-0.12-2.16
	C279.75,161.96,282.34,161.44,283.44,162.32"/>
<path class="st1" d="M163.88,315.32c0.25,0.27,0.51,0.54,0.76,0.81c-1.57,0.68-2.38-1.04-3.73-1.23c-0.52-0.08,0.7-0.9,0.25-1.53
	c0,0-0.01,0.05-0.01,0.05C161.67,314.63,162.82,314.92,163.88,315.32z"/>
<path class="st1" d="M197.96,314.45c0.02,0.33,0.04,0.66,0.06,0.99c-0.96-0.48-1.71-1.22-2.46-1.95c-0.29-0.39-0.44-1.05-0.17-1.22
	c0.63-0.41,0.72,0.57,1.2,0.71C196.4,314.06,197.6,313.87,197.96,314.45z"/>
<path class="st0" d="M45.39,137.59c0.19-0.03,0.39-0.06,0.58-0.1c0,0.16,0,0.32,0,0.47c-0.17,0.01-0.33,0.02-0.5,0.03
	C45.45,137.86,45.42,137.72,45.39,137.59z"/>
<path class="st3" d="M194.72,208.72c7.88-5.17,19.27-4.74,26.8,1.03c-0.48-0.02-0.96-0.03-1.44-0.07
	c-4.06-0.31-7.36,0.99-10.01,4.22c-3.23,3.95-4.75,8.5-5.3,13.45c-0.52,4.79-0.91,9.6-1.35,14.41c-0.21,2.28-0.69,4.49-1.76,6.54
	c-2.11,4.04-6.09,6.04-9.88,4.96c-4.39-1.25-6.93-5.09-6.47-9.8c0.16-1.58,0.56-3.1,1.06-4.61c1.41-4.22,3.83-7.92,5.89-11.81
	C195.35,221.24,197.6,215.31,194.72,208.72z M199.06,246.1c1.97-2.27,2.21-6.48,0.49-8.84c-1.37-1.89-3.7-1.95-4.94,0
	c-1.6,2.51-1.88,5.29-0.78,8.07C194.82,247.81,197.31,248.12,199.06,246.1z"/>
<path class="st0" d="M194.72,208.72c2.88,6.6,0.63,12.53-2.44,18.31c-2.06,3.89-4.49,7.59-5.89,11.81c-0.5,1.51-0.91,3.03-1.06,4.61
	c-0.47,4.71,2.07,8.55,6.47,9.8c3.79,1.08,7.77-0.92,9.88-4.96c1.07-2.05,1.55-4.26,1.76-6.54c0.44-4.8,0.82-9.61,1.35-14.41
	c0.54-4.94,2.06-9.5,5.3-13.45c2.65-3.23,5.94-4.53,10.01-4.22c0.48,0.04,0.96,0.04,1.44,0.07c1.21,0.51,2.28,1.22,3.16,2.2
	c-0.21-0.01-0.42,0-0.62-0.04c-8.52-1.82-12.5,1.12-15.51,10.12c-1.28,3.81-1.24,7.87-1.56,11.85c-0.27,3.43-0.44,6.87-0.89,10.28
	c-0.63,4.74-2.77,8.66-7.1,11.03c-6.91,3.78-15.74-1.09-16.41-9.03c-0.42-4.97,1.61-9.28,3.86-13.5c1.84-3.46,4.29-6.58,5.92-10.16
	c1.92-4.22,3.15-8.55,1.36-13.17C194.06,209.12,194.39,208.92,194.72,208.72z"/>
<path class="st2" d="M127.31,177.43c0.4,0.48-0.17,0.83-0.15,1.26c-0.47-0.06-0.63-0.35-0.81-0.78c-0.32-0.75-1.4-1.25-1.8-1.06
	c-1.21,0.58-2.28-1.63-3.45-0.02c-0.21,0.29-1.41,0.63-1.39,0.39c0.1-0.87-1.15-1.22-0.64-2.21c0.36-0.69,0.55-1.74-0.78-0.6
	c-0.08,0.07-0.84,0.11-0.94-0.37c-0.04-0.18,0.35-0.44,0.62-0.75c-1.44,0.23-2.01,0.68-0.39,1.78c-1.28,0.16-1.69-0.72-2.4-1.03
	c-0.51-0.89-1.29-1.35-2.45-1.48c1.41,0.92,1.11,1.81,0.21,2.72c-0.78-0.19-0.91-0.72-0.73-1.57c-0.99,1.36-2.95,1-3.72,2.53
	c-0.08,0.16-0.83,0.23-0.92,0.11c-1.29-1.93-2.06,0.22-3.06,0.39c-0.43,0.07-0.34,0.19-0.12,0.97c0.09,0.33-0.04,0.81-0.24,1.1
	c-0.27,0.39-0.61,0.07-0.83-0.16c-0.28-0.29-0.57-0.33-0.92-0.22c-0.68-0.73-1.29-0.91-1.75,0.22c-0.16,0.05-0.31,0.1-0.46,0.16
	c-0.13,0.1-0.15,0.21-0.05,0.33c-0.29,1.24-1.55,0.15-2.06,0.86c-0.94,1-1.76-0.72-2.68-0.11c-0.57,0.14-1.18,0.19-1.7,0.44
	c-0.28,0.14-0.45,0.6-0.59,0.94c-0.24,0.61,0.35,0.42,0.57,0.47c1.74,0.41-0.19,0.83,0.01,1.23l0.02,0.01
	c-0.14-0.57-0.62-0.59-0.97-0.39c-0.68,0.4,0.03,0.67,0.22,0.87c0.31,0.33,0.38,0.71,0.47,1.1c-0.95,0.57-2.51,0.2-2.8,1.81
	c-0.01,0.08-0.24,0.2-0.34,0.18c-2.59-0.66-1.43,1.1-1.38,2.14c0.02,0.42,0.23,1.03-0.58,0.87c-2.07-0.42-1.57,1.48-2,2.37
	c-0.5,1.05-0.31,1.14,1.48,1.81c-2.25,0.8-2.27,3.09-3.5,4.52c-0.61-1.08-1.06-2.29-1.85-3.2c-2.16-2.49-1.49-4.7,0.14-7.17
	c7.77-11.77,18.74-17.07,32.7-16.19c3.73,0.23,7.42,1.07,10.8,2.86c-0.03,0.13-0.05,0.25-0.07,0.37c0.09-0.08,0.17-0.17,0.26-0.25
	c0,0,0.17,0.09,0.17,0.09C126.56,175.7,126.32,176.77,127.31,177.43z M97.54,179.54c-0.05-0.11-0.08-0.28-0.17-0.31
	c-0.08-0.03-0.28,0.07-0.3,0.15c-0.03,0.08,0.09,0.21,0.14,0.32C97.32,179.65,97.43,179.6,97.54,179.54z"/>
<path class="st3" d="M245.16,243.15c2.29,8.21,3.74,16.51,2.43,25.07c-2.29-1.1-4.73-0.85-7.15-0.84c0.23-3.41-0.5-6.68-1.49-9.91
	c-0.76-2.49-1.59-4.97-1.9-7.57c-0.67-5.63,1.7-7.84,7.29-6.83C244.61,243.12,244.89,243.13,245.16,243.15z"/>
<path class="st1" d="M240.44,267.38c2.42-0.01,4.86-0.27,7.15,0.84c-0.37,3.58-1.51,6.89-4.09,9.46c-3.75,3.74-8.34,3.93-13.1,2.55
	c-5.22-1.51-9.46-4.68-13.37-8.34c1.73-0.87,3.54-0.92,5.41-0.57c2.03,0.39,3.92,1.18,5.83,1.95
	C233.16,275.25,238.71,275.04,240.44,267.38z"/>
<path class="st0" d="M240.44,267.38c-1.72,7.65-7.27,7.87-12.17,5.9c-1.91-0.77-3.79-1.56-5.83-1.95c-1.87-0.36-3.68-0.3-5.41,0.57
	c-0.29-0.27-0.58-0.54-0.88-0.8c2.49-2.05,5.37-1.92,8.25-1.36c1.88,0.36,3.69,1.08,5.55,1.58c4.96,1.32,7.8-0.98,7.52-6.11
	c-0.2-3.74-1.58-7.2-2.65-10.72c-0.76-2.52-0.9-5.07-0.45-7.65c0.79-4.57,3.94-6.74,8.48-5.9c0.6,0.11,1.2,0.25,1.81,0.38
	c0.16,0.62,0.33,1.23,0.49,1.85c-0.27-0.03-0.54-0.04-0.81-0.09c-5.6-1.01-7.96,1.2-7.29,6.83c0.31,2.6,1.14,5.08,1.9,7.57
	C239.94,260.7,240.67,263.97,240.44,267.38z"/>
<path class="st0" d="M162.54,206.11c-0.83,2.54-0.81,5.14-0.61,7.75c0.47,6.32,1.9,12.5,2.72,18.77c0.89,6.83-0.09,13.26-4.24,18.98
	c-1.1,1.52-2.51,2.71-4.01,3.82c-1.04-0.41-1.84-1.17-2.65-1.9c5.75-3.44,7.98-8.89,8.45-15.22c0.44-5.87-0.99-11.62-1.57-17.42
	c-0.53-5.22-1.05-10.43,0.67-15.55C161.84,205.37,162.17,205.78,162.54,206.11z"/>
<path class="st0" d="M206.7,152.74c3.88-1.65,7.3-1.22,10.46,1.82c1.39,1.34,3.24,2.22,4.56,3.65c-0.17,0.66-0.67,0.56-1.04,0.63
	c-6.91,1.18-13.82,2.31-20.72,3.55c-1.35,0.24-1.78-0.1-1.9-1.4c-0.15-1.56-3.11-10.34-2.31-12.83c0.78,4.08,0.19-2.73,2.41-3.62
	C200.36,143.64,206.83,155.68,206.7,152.74z"/>
<path class="st0" d="M139.64,242.39c0.58-7.9,3.13-15.32,5.77-22.68c1.88-5.23,2.16-10.44,0.75-15.78c0.41-0.1,0.81-0.19,1.22-0.29
	c1.9,5.52,1.92,11.01,0.2,16.63c-2.2,7.23-4.6,14.43-4.98,22.08c-0.04,0.76-0.03,1.51-0.04,2.27
	C141.37,244.16,140.52,243.25,139.64,242.39z"/>
<path class="st0" d="M196.53,152.23c-0.86-4.47-1.71-8.94-2.67-13.95c5.98,4.2,11.46,8.05,17.18,12.07
	c-1.74,0.74-3.25,1.02-4.8,1.16c-2.29-3.58-6.04-3.81-8.65-0.55C197.23,151.39,196.88,151.81,196.53,152.23z"/>
<path class="st0" d="M154.81,256.14c-6.23,2.79-12.86-0.37-14.57-6.94c-0.42-1.6-0.68-3.22-0.51-4.89c0.99,0.78,1.98,1.56,2.97,2.34
	c0.18,0.73,0.31,1.47,0.54,2.18c1.31,3.98,4.72,5.94,8.79,5.09C152.96,254.66,153.88,255.4,154.81,256.14z"/>
<path class="st1" d="M171.73,234.67c-0.52-0.14-1-0.51-0.7-1c0.67-1.12,0.06-2.85,0.76-3.44c1.9-1.59,2.17-4.04,3.65-5.78
	c0.95,1.23,0.4,2.48-0.26,3.46C173.75,230.04,173.42,232.7,171.73,234.67z"/>
<path class="st1" d="M127.31,177.43c-0.99-0.66-0.75-1.73-0.87-2.68c1.64,0.43,3.08,1.22,4.38,2.3c-0.36,0.3-0.53,0.89-1.26,0.52
	C128.87,177.21,128.09,176.99,127.31,177.43z"/>
<path class="st1" d="M169.82,238.83c-0.34,0.01-0.92,0.12-0.98,0.01c-0.2-0.46-0.02-0.89,0.4-1.24c0.86-0.72,1.36-1.5-0.03-2.39
	c0.79,0.04,1.39,0.07,1.98,0.1C171.63,236.83,170.67,237.81,169.82,238.83z"/>
<path class="st1" d="M169.21,240.7c-0.19-0.27-0.73-0.31-0.56-0.81c0.01-0.04,0.23-0.02,0.35-0.02
	C169.09,240.14,169.96,240.23,169.21,240.7z"/>
<path class="st0" d="M42.18,144.34c-0.01,0.24-0.03,0.47-0.04,0.71c-0.38-0.07-0.51-0.33-0.51-0.68
	C41.81,144.35,41.99,144.34,42.18,144.34z"/>
<path class="st1" d="M168.59,241.5c0.12-0.18,0.24-0.35,0.36-0.53c0.11,0.16,0.34,0.37,0.3,0.47
	C169.1,241.78,168.82,241.56,168.59,241.5z"/>
<path class="st0" d="M33.78,149.35c-0.03,0.14-0.07,0.28-0.1,0.43c-0.11-0.12-0.22-0.24-0.34-0.36
	C33.49,149.39,33.64,149.37,33.78,149.35z"/>
<path class="st1" d="M126.27,174.66c-0.09,0.08-0.17,0.17-0.26,0.25c0.02-0.12,0.05-0.25,0.07-0.37
	C126.18,174.53,126.24,174.57,126.27,174.66z"/>
<path class="st0" d="M195.41,172.63c-0.01-0.11-0.02-0.22-0.03-0.33c0.05,0.03,0.13,0.06,0.16,0.11c0.08,0.18,0.01,0.25-0.18,0.22
	C195.35,172.62,195.41,172.63,195.41,172.63z"/>
<path class="st2" d="M144.3,138.46c3.66,3.14,4.08,8.33,0.95,11.96c-3.12,3.62-8.39,4.05-12.01,0.96c-3.54-3.02-3.96-8.5-0.93-12.04
	C135.4,135.73,140.66,135.34,144.3,138.46z M134.55,145.66c2.72,2.34,7.27,1.8,9.53-1.13c0.33-0.43,0.81-0.95,0.23-1.41
	c-0.57-0.45-0.97,0.15-1.36,0.51c-3.05,2.74-3.86,2.84-7.61,0.92c-0.44-0.22-0.91-0.55-1.27-0.04
	C133.71,145.01,134.13,145.37,134.55,145.66z"/>
<path class="st2" d="M150.68,137.7c1.59,1.47,3.29,2.85,4.19,4.91c-0.59,0.04-1.44-0.8-1.73,0.2c-0.27,0.95,0.84,0.85,1.37,1.15
	c0.41,0.22,0.9,0.3,1.35,0.44c0.34,0.84,0.69,1.68,1.03,2.52c-1.06,0.74-2.24,1.36-3.16,2.24c-1.31,1.26-2.2,0.8-3.16-0.36
	C147.9,145.58,147.93,140.91,150.68,137.7z"/>
<path class="st2" d="M149.79,152.38c-0.23-1.01-0.57-1.77-0.31-2.76C150.46,150.46,151.86,151.05,149.79,152.38z"/>
<path class="st0" d="M135,161.62c-0.9-1.04-1.78-2.01-2.12-3.33c-0.1-0.4-0.23-0.87,0.22-1.11c0.46-0.23,0.82,0.11,0.97,0.5
	c0.95,2.48,2.83,3.81,5.33,4.41c0.51,0.12,0.95,0.38,0.73,1c-0.18,0.51-0.66,0.41-1.06,0.33C137.56,163.13,136.23,162.44,135,161.62
	z"/>
<path class="st2" d="M78.63,254.59c0.75,0.4,1.22,0.91,0.57,1.77"/>
<path class="st1" d="M112.93,175.26c0.9-0.91,1.19-1.8-0.21-2.72c1.17,0.13,1.94,0.59,2.45,1.48c-0.24,0.67,0.4,1.69-0.41,1.99
	C114.32,176.18,113.32,176.07,112.93,175.26z"/>
<path class="st1" d="M95.39,179.88c0.92-0.61,1.75,1.11,2.68,0.11c1.27,1.54-0.61,1.25-1.05,1.79
	C96.45,181.17,95.21,181.13,95.39,179.88z"/>
<path class="st1" d="M100.64,178.64c0.45-1.13,1.07-0.94,1.75-0.22C101.99,179.95,101.35,179.53,100.64,178.64z"/>
<path class="st1" d="M116.18,175.68c-0.05,0.04-0.1,0.08-0.15,0.12c0.02-0.08,0.01-0.2,0.06-0.23
	C116.3,175.44,116.34,175.49,116.18,175.68z"/>
<path class="st2" d="M93.68,182.96c0.05,0.08,0.09,0.16,0.14,0.24c0.01-0.04,0.04-0.1,0.03-0.13c-0.03-0.04-0.09-0.07-0.14-0.1
	C93.7,182.97,93.68,182.96,93.68,182.96z"/>
<path class="st1" d="M100.13,179.13c-0.1-0.13-0.08-0.24,0.05-0.33C100.18,178.91,100.17,179.02,100.13,179.13z"/>
<path class="st0" d="M211.65,284.02c-0.42,0.73-0.84,1.53-1.33,2.28c-0.42,0.64-0.25,1.97-1.23,1.84c-1.47-0.19-2.9-0.77-4.3-1.31
	c-0.44-0.17-0.07-0.76,0.03-1.12c1.05-3.91,2.17-7.81,3.18-11.73c0.26-1,0.63-1.16,1.58-0.85c2.54,0.83,5.11,1.6,7.69,2.31
	c0.8,0.22,1.07,0.68,1.24,1.41c0.27,1.13,0.71,2.23,0.97,3.36c1.13,4.79,4.1,8.15,8.23,10.6c0.87,0.52,1.78,1.02,1.23,2.21
	c-0.49,1.07-1.43,0.8-2.33,0.53c-3.81-1.16-7.6-2.37-11.44-3.43c-1.26-0.35-1.5-0.85-1.05-2.01c0.35-0.89,0.55-1.84,0.7-2.79
	c0.13-0.86,0.31-1.91-0.68-2.38C213.05,282.42,212.38,283.32,211.65,284.02z"/>
<path class="st0" d="M199.06,246.1c-1.75,2.01-4.24,1.7-5.22-0.76c-1.1-2.78-0.82-5.55,0.78-8.07c1.25-1.96,3.57-1.89,4.94,0
	C201.27,239.63,201.04,243.83,199.06,246.1z M197.04,238.34c-1.64,1.52-2.17,3.99-1.33,5.68c0.15,0.31,0.26,0.67,0.65,0.7
	c0.4,0.02,0.56-0.32,0.69-0.64C197.79,242.18,198.06,240.31,197.04,238.34z"/>
<path class="st1" d="M97.54,179.54c-0.11,0.05-0.22,0.11-0.33,0.16c-0.05-0.11-0.17-0.24-0.14-0.32c0.03-0.08,0.22-0.18,0.3-0.15
	C97.46,179.26,97.49,179.43,97.54,179.54z"/>
<path class="st4" d="M198.16,313.82c-0.44,0.19-0.68-0.08-0.69-0.44c-0.01-0.28,0.26-0.43,0.57-0.25
	C198.08,313.36,198.12,313.59,198.16,313.82z"/>
<path class="st0" d="M134.54,145.66c-0.42-0.28-0.83-0.65-0.48-1.16c0.36-0.51,0.83-0.18,1.27,0.04c3.75,1.92,4.56,1.82,7.61-0.92
	c0.4-0.36,0.8-0.96,1.36-0.51c0.58,0.46,0.1,0.98-0.23,1.41C141.82,147.46,137.26,148,134.54,145.66z"/>
<path class="st0" d="M155.86,144.39c-0.45-0.14-0.94-0.21-1.35-0.44c-0.53-0.29-1.64-0.19-1.37-1.15c0.29-1,1.13-0.15,1.73-0.2
	c2.38,0.91,4.45,0.52,6.13-1.47c0.35-0.42,0.73-1.03,1.29-0.49c0.5,0.48,0.04,1.03-0.32,1.44
	C160.36,143.96,158.25,144.55,155.86,144.39z"/>
<path class="st2" d="M197.04,238.34c1.02,1.97,0.75,3.84,0.01,5.73c-0.13,0.33-0.29,0.67-0.69,0.64c-0.39-0.02-0.5-0.39-0.65-0.7
	C194.87,242.33,195.39,239.86,197.04,238.34z"/>
<g>
	<path class="st5" d="M184.35,180.23c-1.11-0.58-2.25-1.1-3.07,0.19c-0.79,1.23-0.48,2.5,0.55,3.57c1.49,1.56,3.45,1.93,5.46,2.1
		c3.64,0.3,5.34-1.11,5.92-4.92C190.01,181.8,187.09,181.67,184.35,180.23z"/>
	<path class="st5" d="M195.53,172.4c-0.02-0.05-0.1-0.07-0.16-0.11c0.01,0.11,0.02,0.22,0.03,0.33
		C195.55,172.63,195.6,172.55,195.53,172.4z"/>
	<path class="st5" d="M85.97,181.71c2.27-2.56,5.03-4.54,7.96-6.64c-8.83-4.92-17.35-9.76-27.24-13.14
		c3.59,10.13,8.25,19.17,13.22,28.46C81.64,187,83.68,184.28,85.97,181.71z"/>
	<path class="st5" d="M187.72,174.77c-0.44-0.19-0.88-0.39-1.3-0.63c-1.23-0.7-2.53-1.15-3.44,0.33c-0.89,1.46-0.68,2.85,0.75,4.02
		c2.58,2.11,7.74,2.56,10.57,0.85c2.45-1.48,2.97-4.73,1.09-6.68C193.2,175.87,191.38,176.37,187.72,174.77z"/>
	<path class="st5" d="M199.96,162.39c6.9-1.24,13.81-2.37,20.72-3.55c0.37-0.06,0.87,0.03,1.04-0.63c-1.32-1.42-3.17-2.3-4.56-3.65
		c-3.16-3.05-6.58-3.48-10.46-1.82c-0.94,0.18-1.88,0.37-2.83,0.53c-0.42,0.07-0.88,0.06-0.93-0.5c-0.04-0.46,0.41-0.47,0.71-0.56
		c0.85-0.25,1.71-0.47,2.57-0.71c1.55-0.14,3.06-0.42,4.8-1.16c-5.72-4.02-11.19-7.86-17.18-12.07c0.96,5.01,1.82,9.48,2.67,13.95
		c0.03,1.41,0.17,2.8,0.79,4.1c0.26,1.55,0.59,3.1,0.74,4.66C198.18,162.29,198.61,162.63,199.96,162.39z"/>
	<path class="st5" d="M147.37,203.65c-0.41,0.1-0.81,0.19-1.22,0.29c-1.87,0.3-3.53,1.15-5.09,2.13
		c-8.55,5.34-12.86,13.66-15.91,22.84c-0.23,0.69-0.08,1.17,0.46,1.63c4.66,3.97,9.17,8.11,14.03,11.85
		c0.88,0.86,1.73,1.77,2.91,2.24c3.54,3.2,7.35,6.07,11.19,8.89c0.81,0.73,1.61,1.49,2.65,1.9c2.2,1.95,4.61,3.62,7.05,5.24
		c1.62-2.05,1.24-4.62,1.64-6.8c0.78-4.28,3.16-8.03,3.51-12.36c0.23,0.06,0.51,0.28,0.65-0.06c0.04-0.1-0.19-0.31-0.29-0.47
		c0.11-0.07,0.2-0.16,0.27-0.27c0.75-0.48-0.12-0.56-0.2-0.83c0.27-0.35,0.54-0.69,0.81-1.04c0.85-1.02,1.81-2,1.37-3.52
		c0.18-0.21,0.36-0.43,0.54-0.64c1.69-1.97,2.02-4.63,3.45-6.76c0.66-0.98,1.21-2.23,0.26-3.46c-0.64-1.59-1.17-3.24-1.94-4.76
		c-2.68-5.3-5.68-10.37-10.96-13.58c-0.37-0.33-0.7-0.74-1.25-0.78C156.89,202.76,152.22,202.44,147.37,203.65z"/>
	<path class="st5" d="M187.81,187.67c-0.21-0.72-1.04-0.42-1.6-0.52c-1.36-0.24-2.69-0.57-3.9-1.27c-0.78-0.45-1.47-1.5-2.42-0.28
		c-0.8,1.02-0.94,2.11-0.23,3.25c1.27,2.04,5.79,2.44,7.51,0.53C187.45,188.96,188,188.36,187.81,187.67z"/>
	<path class="st5" d="M234.43,281.81c-6.92-0.49-12.19-4.29-17.24-8.57c-3.05-2.58-5.74-5.52-8.59-8.55
		c-2.37,6.76-5,13.18-8.47,19.22c-0.71,1.24,0.2,1.37,0.85,1.79c6.38,4.21,12.88,8.24,19.47,12.1c8.97,5.25,18,10.38,27.78,14.05
		c2.58,0.97,5.21,1.84,8.02,1.75c2.07-0.07,2.72-0.94,2.28-2.94c-0.39-1.77-1.25-3.36-2.24-4.85c-5.78-8.74-13.17-16.06-20.6-23.34
		C235.33,282.11,234.95,281.85,234.43,281.81z"/>
	<path class="st5" d="M162.84,263.51c0.22-0.81,0.26-1.43-0.52-1.97c-2.52-1.78-5.01-3.6-7.52-5.4c-0.92-0.74-1.85-1.48-2.77-2.22
		c-3.11-2.42-6.22-4.85-9.33-7.27c-0.99-0.78-1.98-1.56-2.97-2.34c-4.69-4.03-9.39-8.05-14.06-12.11c-0.88-0.76-1.36-0.79-1.61,0.47
		c-0.49,2.49-1.11,4.96-1.52,7.47c-1.55,9.54-1.21,19.01,1.33,28.37c1.37,6.69,4,12.91,7.61,18.64c4.22,6.69,9.61,12.15,17.24,15.1
		c18.74,7.25,38.54,0.89,48.82-15.74c0.64-1.04,0.53-1.47-0.47-2.07c-2.84-1.68-5.63-3.44-8.43-5.2c-3.83-2.4-7.65-4.83-11.47-7.24
		c-3.26-2.29-6.51-4.57-9.77-6.86c-0.95-0.67-1.83-1.76-2.86-1.93c-1.51-0.25-0.6,2.05-1.89,2.43
		C162.11,264.87,162.66,264.18,162.84,263.51z"/>
	<path class="st5" d="M176.61,313.21c-1.48-1.79-1.06,0.55-1.24,0.76c2.63-0.04,2.64-0.06,2.93-2.04
		C177.62,312.19,177.29,314.03,176.61,313.21z"/>
	<path class="st5" d="M172.35,240.08c-2.62,6.64-5.28,13.27-7.5,20.06c-0.27,0.83-0.2,1.41,0.55,1.96
		c5.19,3.74,10.4,7.46,15.87,10.79c0.88,1.01,2.12,1.52,3.21,2.22c4.41,2.8,8.85,5.53,13.27,8.3c0.68,0.43,1.29,0.87,1.82-0.19
		c1.42-2.82,3.1-5.5,4.09-8.53c0.16-0.3,0.34-0.59,0.47-0.91c4.89-11.34,7.91-23.22,10.37-35.28c0.12-0.58-0.09-1.37,0.8-1.67
		c0.39,0.85,0.02,1.58-0.11,2.29c-1.46,7.78-3.38,15.44-5.78,22.99c-0.23,0.73-0.77,1.45,0.04,2.27c2.22,2.24,4.25,4.68,6.68,6.71
		c0.29,0.27,0.58,0.54,0.88,0.8c3.91,3.65,8.15,6.82,13.37,8.34c4.76,1.38,9.35,1.18,13.1-2.55c2.58-2.57,3.72-5.88,4.09-9.46
		c1.31-8.56-0.14-16.86-2.43-25.07c-0.16-0.62-0.33-1.23-0.49-1.85c-2.43-8.53-6.53-16.17-12.45-22.77
		c-2.23-2.49-4.45-5.06-7.54-6.59c-0.88-0.98-1.95-1.68-3.15-2.2c-7.53-5.76-18.92-6.2-26.8-1.03c-0.33,0.2-0.66,0.4-0.99,0.6
		c-6.23,3.69-10.5,9.22-14.24,15.22C176.45,229.41,174.45,234.78,172.35,240.08z"/>
	<path class="st5" d="M36.35,158.96c-1.18-3.66-2.5-7.25-4.81-9.87c-1.35-1.23-1.99-1.49-2.68-1.2c-1.01,0.42-1.1,1.38-1.11,2.25
		c-0.04,4.07,1.38,7.8,2.76,11.53c0.16,0.44,0.41,0.69,0.92,0.44c1.53-0.76,3.08-1.5,4.61-2.27
		C36.41,159.66,36.46,159.31,36.35,158.96z"/>
	<path class="st5" d="M179.23,316.68c0.14-0.05,0.36-0.31,0.33-0.37c-0.43-0.9-1.22-0.89-2.05-0.76c-0.05,0.01-0.1,0.01-0.15,0.01
		C177.68,316.42,178.15,317.05,179.23,316.68z"/>
	<path class="st5" d="M83.5,240.25c-2.94-0.25-5.85-0.91-5.85-0.91s-1.25-4.47,2.77-3.75c0,0,0.01,0,0.01,0
		c-6.02-1.05-10.68-4.49-14.75-8.89c-4.43-4.8-7.54-10.5-10.63-16.17c-1.03-1.89-1.77-1.78-3.35-0.82"/>
	<path class="st5" d="M39.74,158.07c4.76-2.5,4.82-2.43,3.09-7.62c-1-3-2.14-5.95-3.96-8.04c-1-0.95-1.71-1.52-2.71-1.25
		c-1.05,0.29-1.27,1.21-1.39,2.09c-0.12,0.88-0.14,1.79-0.08,2.67c0.26,3.73,1.25,7.3,2.27,10.88
		C37.46,158.6,37.97,159,39.74,158.07z"/>
	<path class="st0" d="M177.36,315.56c-0.01-0.02-0.02-0.04-0.02-0.06c-0.02,0.01-0.04,0.03-0.05,0.05c0.01,0.01,0.02,0.01,0.02,0.02
		C177.32,315.56,177.34,315.56,177.36,315.56z"/>
	<path class="st0" d="M175.37,313.97c-0.02,0-0.04,0-0.06,0C175.33,313.99,175.36,313.99,175.37,313.97z"/>
	<path class="st0" d="M195.38,172.66c0.01-0.01,0.02-0.02,0.02-0.03c0,0,0,0,0,0c-0.02,0-0.04,0-0.06-0.01
		C195.36,172.63,195.37,172.65,195.38,172.66z"/>
</g>
<g>
	<path class="st5" d="M176.61,313.21c-1.48-1.79-1.06,0.55-1.24,0.76c2.63-0.04,2.64-0.06,2.93-2.04
		C177.62,312.19,177.29,314.03,176.61,313.21z"/>
	<path class="st5" d="M184.35,180.23c-1.11-0.58-2.25-1.1-3.07,0.19c-0.79,1.23-0.48,2.5,0.55,3.57c1.49,1.56,3.45,1.93,5.46,2.1
		c3.64,0.3,5.34-1.11,5.92-4.92C190.01,181.8,187.09,181.67,184.35,180.23z"/>
	<path class="st5" d="M175.37,313.97c-0.02,0-0.04,0-0.06,0C175.33,313.99,175.36,313.99,175.37,313.97z"/>
	<path class="st5" d="M187.81,187.67c-0.21-0.72-1.04-0.42-1.6-0.52c-1.36-0.24-2.69-0.57-3.9-1.27c-0.78-0.45-1.47-1.5-2.42-0.28
		c-0.8,1.02-0.94,2.11-0.23,3.25c1.27,2.04,5.79,2.44,7.51,0.53C187.45,188.96,188,188.36,187.81,187.67z"/>
	<path class="st5" d="M197.06,284.44c-2.84-1.68-5.63-3.44-8.43-5.2c-3.83-2.4-7.65-4.83-11.47-7.24c-3.26-2.29-6.51-4.57-9.77-6.86
		c-0.95-0.67-1.83-1.76-2.86-1.93c-1.51-0.25-0.6,2.05-1.89,2.43c-0.54-0.77,0.01-1.46,0.2-2.13c0.22-0.81,0.26-1.43-0.52-1.97
		c-2.52-1.78-5.01-3.6-7.52-5.4c-0.92-0.74-1.85-1.48-2.77-2.22c-3.11-2.42-6.22-4.85-9.33-7.27c-0.99-0.78-1.98-1.56-2.97-2.34
		c-4.69-4.03-9.39-8.05-14.06-12.11c-0.88-0.76-1.36-0.79-1.61,0.47c-0.49,2.49-1.11,4.96-1.52,7.47
		c-1.55,9.54-1.21,19.01,1.33,28.37c1.37,6.69,4,12.91,7.61,18.64c4.22,6.69,9.61,12.15,17.24,15.1
		c18.74,7.25,38.54,0.89,48.82-15.74C198.17,285.47,198.07,285.04,197.06,284.44z"/>
	<path class="st5" d="M147.37,203.65c-0.41,0.1-0.81,0.19-1.22,0.29c-1.87,0.3-3.53,1.15-5.09,2.13
		c-8.55,5.34-12.86,13.66-15.91,22.84c-0.23,0.69-0.08,1.17,0.46,1.63c4.66,3.97,9.17,8.11,14.03,11.85
		c0.88,0.86,1.73,1.77,2.91,2.24c3.54,3.2,7.35,6.07,11.19,8.89c0.81,0.73,1.61,1.49,2.65,1.9c2.2,1.95,4.61,3.62,7.05,5.24
		c1.62-2.05,1.24-4.62,1.64-6.8c0.78-4.28,3.16-8.03,3.51-12.36c0.23,0.06,0.51,0.28,0.65-0.06c0.04-0.1-0.19-0.31-0.29-0.47
		c0.11-0.07,0.2-0.16,0.27-0.27c0.75-0.48-0.12-0.56-0.2-0.83c0.27-0.35,0.54-0.69,0.81-1.04c0.85-1.02,1.81-2,1.37-3.52
		c0.18-0.21,0.36-0.43,0.54-0.64c1.69-1.97,2.02-4.63,3.45-6.76c0.66-0.98,1.21-2.23,0.26-3.46c-0.64-1.59-1.17-3.24-1.94-4.76
		c-2.68-5.3-5.68-10.37-10.96-13.58c-0.37-0.33-0.7-0.74-1.25-0.78C156.89,202.76,152.22,202.44,147.37,203.65z"/>
	<path class="st5" d="M172.35,240.08c-2.62,6.64-5.28,13.27-7.5,20.06c-0.27,0.83-0.2,1.41,0.55,1.96
		c5.19,3.74,10.4,7.46,15.87,10.79c0.88,1.01,2.12,1.52,3.21,2.22c4.41,2.8,8.85,5.53,13.27,8.3c0.68,0.43,1.29,0.87,1.82-0.19
		c1.42-2.82,3.1-5.5,4.09-8.53c0.16-0.3,0.34-0.59,0.47-0.91c4.89-11.34,7.91-23.22,10.37-35.28c0.12-0.58-0.09-1.37,0.8-1.67
		c0.39,0.85,0.02,1.58-0.11,2.29c-1.46,7.78-3.38,15.44-5.78,22.99c-0.23,0.73-0.77,1.45,0.04,2.27c2.22,2.24,4.25,4.68,6.68,6.71
		c0.29,0.27,0.58,0.54,0.88,0.8c3.91,3.65,8.15,6.82,13.37,8.34c4.76,1.38,9.35,1.18,13.1-2.55c2.58-2.57,3.72-5.88,4.09-9.46
		c1.31-8.56-0.14-16.86-2.43-25.07c-0.16-0.62-0.33-1.23-0.49-1.85c-2.43-8.53-6.53-16.17-12.45-22.77
		c-2.23-2.49-4.45-5.06-7.54-6.59c-0.88-0.98-1.95-1.68-3.15-2.2c-7.53-5.76-18.92-6.2-26.8-1.03c-0.33,0.2-0.66,0.4-0.99,0.6
		c-6.23,3.69-10.5,9.22-14.24,15.22C176.45,229.41,174.45,234.78,172.35,240.08z"/>
	<path class="st5" d="M177.36,315.56c-0.01-0.02-0.02-0.04-0.02-0.06c-0.02,0.01-0.04,0.03-0.05,0.05c0.01,0.01,0.02,0.01,0.02,0.02
		C177.32,315.56,177.34,315.56,177.36,315.56z"/>
	<path class="st5" d="M233.91,281.76c0.14,0.01,0.27,0.02,0.39,0.03c-6.86-0.53-12.1-4.3-17.12-8.56c-3.05-2.58-5.74-5.52-8.59-8.55
		c-2.37,6.76-5,13.18-8.47,19.22c-0.71,1.24,0.2,1.37,0.85,1.79c6.38,4.21,12.88,8.24,19.47,12.1c8.97,5.25,18,10.38,27.78,14.05
		c2.58,0.97,5.21,1.84,8.02,1.75c2.07-0.07,2.72-0.94,2.28-2.94c-0.39-1.77-1.25-3.36-2.24-4.85c-5.59-8.45-12.69-15.58-19.88-22.63
		l-2.88,3.7C233.53,286.87,233.53,286.87,233.91,281.76z"/>
	<path class="st5" d="M237.57,281.67c-0.11,0.03-0.22,0.05-0.33,0.07C237.47,281.7,237.57,281.67,237.57,281.67z"/>
	<path class="st5" d="M179.23,316.68c0.14-0.05,0.36-0.31,0.33-0.37c-0.43-0.9-1.22-0.89-2.05-0.76c-0.05,0.01-0.1,0.01-0.15,0.01
		C177.68,316.42,178.15,317.05,179.23,316.68z"/>
	<path class="st5" d="M195.53,172.4c-0.02-0.05-0.1-0.07-0.16-0.11c0.01,0.11,0.02,0.22,0.03,0.33
		C195.55,172.63,195.6,172.55,195.53,172.4z"/>
	<path class="st5" d="M83.5,240.25c2.14,0.19,4.29,0.16,5.34-0.48"/>
	<path class="st5" d="M199.96,162.39c6.9-1.24,13.81-2.37,20.72-3.55c0.37-0.06,0.87,0.03,1.04-0.63c-1.32-1.42-3.17-2.3-4.56-3.65
		c-3.16-3.05-6.58-3.48-10.46-1.82c-0.94,0.18-1.88,0.37-2.83,0.53c-0.42,0.07-0.88,0.06-0.93-0.5c-0.04-0.46,0.41-0.47,0.71-0.56
		c0.85-0.25,1.71-0.47,2.57-0.71c1.55-0.14,3.06-0.42,4.8-1.16c-5.72-4.02-11.19-7.86-17.18-12.07c0.96,5.01,1.82,9.48,2.67,13.95
		c0.03,1.41,0.17,2.8,0.79,4.1c0.26,1.55,0.59,3.1,0.74,4.66C198.18,162.29,198.61,162.63,199.96,162.39z"/>
	<path class="st5" d="M195.38,172.66c0.01-0.01,0.02-0.02,0.02-0.03c0,0,0,0,0,0c-0.02,0-0.04,0-0.06-0.01
		C195.36,172.63,195.37,172.65,195.38,172.66z"/>
	<path class="st5" d="M187.72,174.77c-0.44-0.19-0.88-0.39-1.3-0.63c-1.23-0.7-2.53-1.15-3.44,0.33c-0.89,1.46-0.68,2.85,0.75,4.02
		c2.58,2.11,7.74,2.56,10.57,0.85c2.45-1.48,2.97-4.73,1.09-6.68C193.2,175.87,191.38,176.37,187.72,174.77z"/>
	<path class="st5" d="M85.97,181.71c2.27-2.56,5.03-4.54,7.96-6.64c-8.83-4.92-17.35-9.76-27.24-13.14
		c3.59,10.13,8.25,19.17,13.22,28.46C81.64,187,83.68,184.28,85.97,181.71z"/>
	<path class="st5" d="M36.35,158.96c-1.18-3.66-2.5-7.25-4.81-9.87c-1.35-1.23-1.99-1.49-2.68-1.2c-1.01,0.42-1.1,1.38-1.11,2.25
		c-0.04,4.07,1.38,7.8,2.76,11.53c0.16,0.44,0.41,0.69,0.92,0.44c1.53-0.76,3.08-1.5,4.61-2.27
		C36.41,159.66,36.46,159.31,36.35,158.96z"/>
	<path class="st5" d="M39.74,158.07c4.76-2.5,4.82-2.43,3.09-7.62c-1-3-2.14-5.95-3.96-8.04c-1-0.95-1.71-1.52-2.71-1.25
		c-1.05,0.29-1.27,1.21-1.39,2.09c-0.12,0.88-0.14,1.79-0.08,2.67c0.26,3.73,1.25,7.3,2.27,10.88
		C37.46,158.6,37.97,159,39.74,158.07z"/>
	<path class="st0" d="M237.57,281.67c0,0-0.1,0.03-0.33,0.07c-0.14,0.03-0.28,0.06-0.42,0.09"/>
</g>
<g>
	<path class="st5" d="M147.37,203.65c-0.41,0.1-0.81,0.19-1.22,0.29c-1.87,0.3-3.53,1.15-5.09,2.13
		c-8.55,5.34-12.86,13.66-15.91,22.84c-0.23,0.69-0.08,1.17,0.46,1.63c4.66,3.97,9.17,8.11,14.03,11.85
		c0.88,0.86,1.73,1.77,2.91,2.24c3.54,3.2,7.35,6.07,11.19,8.89c0.81,0.73,1.61,1.49,2.65,1.9c2.2,1.95,4.61,3.62,7.05,5.24
		c1.62-2.05,1.24-4.62,1.64-6.8c0.78-4.28,3.16-8.03,3.51-12.36c0.23,0.06,0.51,0.28,0.65-0.06c0.04-0.1-0.19-0.31-0.29-0.47
		c0.11-0.07,0.2-0.16,0.27-0.27c0.75-0.48-0.12-0.56-0.2-0.83c0.27-0.35,0.54-0.69,0.81-1.04c0.85-1.02,1.81-2,1.37-3.52
		c0.18-0.21,0.36-0.43,0.54-0.64c1.69-1.97,2.02-4.63,3.45-6.76c0.66-0.98,1.21-2.23,0.26-3.46c-0.64-1.59-1.17-3.24-1.94-4.76
		c-2.68-5.3-5.68-10.37-10.96-13.58c-0.37-0.33-0.7-0.74-1.25-0.78C156.89,202.76,152.22,202.44,147.37,203.65z"/>
	<path class="st5" d="M172.35,240.08c-2.62,6.64-5.28,13.27-7.5,20.06c-0.27,0.83-0.2,1.41,0.55,1.96
		c5.19,3.74,10.4,7.46,15.87,10.79c0.88,1.01,2.12,1.52,3.21,2.22c4.41,2.8,8.85,5.53,13.27,8.3c0.68,0.43,1.29,0.87,1.82-0.19
		c1.42-2.82,3.1-5.5,4.09-8.53c0.16-0.3,0.34-0.59,0.47-0.91c4.89-11.34,7.91-23.22,10.37-35.28c0.12-0.58-0.09-1.37,0.8-1.67
		c0.39,0.85,0.02,1.58-0.11,2.29c-1.46,7.78-3.38,15.44-5.78,22.99c-0.23,0.73-0.77,1.45,0.04,2.27c2.22,2.24,4.25,4.68,6.68,6.71
		c0.29,0.27,0.58,0.54,0.88,0.8c3.91,3.65,8.15,6.82,13.37,8.34c4.76,1.38,9.35,1.18,13.1-2.55c2.58-2.57,3.72-5.88,4.09-9.46
		c1.31-8.56-0.14-16.86-2.43-25.07c-0.16-0.62-0.33-1.23-0.49-1.85c-2.43-8.53-6.53-16.17-12.45-22.77
		c-2.23-2.49-4.45-5.06-7.54-6.59c-0.88-0.98-1.95-1.68-3.15-2.2c-7.53-5.76-18.92-6.2-26.8-1.03c-0.33,0.2-0.66,0.4-0.99,0.6
		c-6.23,3.69-10.5,9.22-14.24,15.22C176.45,229.41,174.45,234.78,172.35,240.08z"/>
	<path class="st5" d="M187.81,187.67c-0.21-0.72-1.04-0.42-1.6-0.52c-1.36-0.24-2.69-0.57-3.9-1.27c-0.78-0.45-1.47-1.5-2.42-0.28
		c-0.8,1.02-0.94,2.11-0.23,3.25c1.27,2.04,5.79,2.44,7.51,0.53C187.45,188.96,188,188.36,187.81,187.67z"/>
	<path class="st5" d="M187.72,174.77c-0.44-0.19-0.88-0.39-1.3-0.63c-1.23-0.7-2.53-1.15-3.44,0.33c-0.89,1.46-0.68,2.85,0.75,4.02
		c2.58,2.11,7.74,2.56,10.57,0.85c2.45-1.48,2.97-4.73,1.09-6.68C193.2,175.87,191.38,176.37,187.72,174.77z"/>
	<path class="st5" d="M184.35,180.23c-1.11-0.58-2.25-1.1-3.07,0.19c-0.79,1.23-0.48,2.5,0.55,3.57c1.49,1.56,3.45,1.93,5.46,2.1
		c3.64,0.3,5.34-1.11,5.92-4.92C190.01,181.8,187.09,181.67,184.35,180.23z"/>
	<path class="st5" d="M195.38,172.66c0.01-0.01,0.02-0.02,0.02-0.03c0,0,0,0,0,0c-0.02,0-0.04,0-0.06-0.01
		C195.36,172.63,195.37,172.65,195.38,172.66z"/>
	<path class="st5" d="M197.06,284.44c-2.84-1.68-5.63-3.44-8.43-5.2c-3.83-2.4-7.65-4.83-11.47-7.24c-3.26-2.29-6.51-4.57-9.77-6.86
		c-0.95-0.67-1.83-1.76-2.86-1.93c-1.51-0.25-0.6,2.05-1.89,2.43c-0.54-0.77,0.01-1.46,0.2-2.13c0.22-0.81,0.26-1.43-0.52-1.97
		c-2.52-1.78-5.01-3.6-7.52-5.4c-0.92-0.74-1.85-1.48-2.77-2.22c-3.11-2.42-6.22-4.85-9.33-7.27c-0.99-0.78-1.98-1.56-2.97-2.34
		c-4.69-4.03-9.39-8.05-14.06-12.11c-0.88-0.76-1.36-0.79-1.61,0.47c-0.49,2.49-1.11,4.96-1.52,7.47
		c-1.55,9.54-1.21,19.01,1.33,28.37c1.37,6.69,4,12.91,7.61,18.64c4.22,6.69,9.61,12.15,17.24,15.1
		c18.74,7.25,38.54,0.89,48.82-15.74C198.17,285.47,198.07,285.04,197.06,284.44z"/>
	<path class="st5" d="M179.23,316.68c0.14-0.05,0.36-0.31,0.33-0.37c-0.43-0.9-1.22-0.89-2.05-0.76c-0.05,0.01-0.1,0.01-0.15,0.01
		C177.68,316.42,178.15,317.05,179.23,316.68z"/>
	<path class="st5" d="M83.5,240.25c2.14,0.19,4.29,0.16,5.34-0.48"/>
	<path class="st5" d="M177.36,315.56c-0.01-0.02-0.02-0.04-0.02-0.06c-0.02,0.01-0.04,0.03-0.05,0.05c0.01,0.01,0.02,0.01,0.02,0.02
		C177.32,315.56,177.34,315.56,177.36,315.56z"/>
	<path class="st5" d="M199.96,162.39c6.9-1.24,13.81-2.37,20.72-3.55c0.37-0.06,0.87,0.03,1.04-0.63c-1.32-1.42-3.17-2.3-4.56-3.65
		c-3.16-3.05-6.58-3.48-10.46-1.82c-0.94,0.18-1.88,0.37-2.83,0.53c-0.42,0.07-0.88,0.06-0.93-0.5c-0.04-0.46,0.41-0.47,0.71-0.56
		c0.85-0.25,1.71-0.47,2.57-0.71c1.55-0.14,3.06-0.42,4.8-1.16c-5.72-4.02-11.19-7.86-17.18-12.07c0.96,5.01,1.82,9.48,2.67,13.95
		c0.03,1.41,0.17,2.8,0.79,4.1c0.26,1.55,0.59,3.1,0.74,4.66C198.18,162.29,198.61,162.63,199.96,162.39z"/>
	<path class="st5" d="M178.3,311.94c-0.69,0.25-1.01,2.1-1.7,1.27c-1.48-1.79-1.06,0.55-1.24,0.76
		C178,313.93,178.01,313.92,178.3,311.94z"/>
	<path class="st5" d="M175.37,313.97c-0.02,0-0.04,0-0.06,0C175.33,313.99,175.36,313.99,175.37,313.97z"/>
	<path class="st5" d="M195.53,172.4c-0.02-0.05-0.1-0.07-0.16-0.11c0.01,0.11,0.02,0.22,0.03,0.33
		C195.55,172.63,195.6,172.55,195.53,172.4z"/>
	<path class="st5" d="M85.97,181.71c2.27-2.56,5.03-4.54,7.96-6.64c-8.83-4.92-17.35-9.76-27.24-13.14
		c3.59,10.13,8.25,19.17,13.22,28.46C81.64,187,83.68,184.28,85.97,181.71z"/>
	<path class="st5" d="M36.35,158.96c-1.18-3.66-2.5-7.25-4.81-9.87c-1.35-1.23-1.99-1.49-2.68-1.2c-1.01,0.42-1.1,1.38-1.11,2.25
		c-0.04,4.07,1.38,7.8,2.76,11.53c0.16,0.44,0.41,0.69,0.92,0.44c1.53-0.76,3.08-1.5,4.61-2.27
		C36.41,159.66,36.46,159.31,36.35,158.96z"/>
	<path class="st5" d="M39.74,158.07c4.76-2.5,4.82-2.43,3.09-7.62c-1-3-2.14-5.95-3.96-8.04c-1-0.95-1.71-1.52-2.71-1.25
		c-1.05,0.29-1.27,1.21-1.39,2.09c-0.12,0.88-0.14,1.79-0.08,2.67c0.26,3.73,1.25,7.3,2.27,10.88
		C37.46,158.6,37.97,159,39.74,158.07z"/>
</g>
<g>
	<path class="st5" d="M39.74,158.07c4.76-2.5,4.82-2.43,3.09-7.62c-1-3-2.14-5.95-3.96-8.04c-1-0.95-1.71-1.52-2.71-1.25
		c-1.05,0.29-1.27,1.21-1.39,2.09c-0.12,0.88-0.14,1.79-0.08,2.67c0.26,3.73,1.25,7.3,2.27,10.88
		C37.46,158.6,37.97,159,39.74,158.07z"/>
	<path class="st5" d="M195.38,172.66c0.01-0.01,0.02-0.02,0.02-0.03c0,0,0,0,0,0c-0.02,0-0.04,0-0.06-0.01
		C195.36,172.63,195.37,172.65,195.38,172.66z"/>
	<path class="st5" d="M199.96,162.39c6.9-1.24,13.81-2.37,20.72-3.55c0.37-0.06,0.87,0.03,1.04-0.63c-1.32-1.42-3.17-2.3-4.56-3.65
		c-3.16-3.05-6.58-3.48-10.46-1.82c-0.94,0.18-1.88,0.37-2.83,0.53c-0.42,0.07-0.88,0.06-0.93-0.5c-0.04-0.46,0.41-0.47,0.71-0.56
		c0.85-0.25,1.71-0.47,2.57-0.71c1.55-0.14,3.06-0.42,4.8-1.16c-5.72-4.02-11.19-7.86-17.18-12.07c0.96,5.01,1.82,9.48,2.67,13.95
		c0.03,1.41,0.17,2.8,0.79,4.1c0.26,1.55,0.59,3.1,0.74,4.66C198.18,162.29,198.61,162.63,199.96,162.39z"/>
	<path class="st5" d="M179.23,316.68c0.14-0.05,0.36-0.31,0.33-0.37c-0.43-0.9-1.22-0.89-2.05-0.76c-0.05,0.01-0.1,0.01-0.15,0.01
		C177.68,316.42,178.15,317.05,179.23,316.68z"/>
	<path class="st5" d="M36.35,158.96c-1.18-3.66-2.5-7.25-4.81-9.87c-1.35-1.23-1.99-1.49-2.68-1.2c-1.01,0.42-1.1,1.38-1.11,2.25
		c-0.04,4.07,1.38,7.8,2.76,11.53c0.16,0.44,0.41,0.69,0.92,0.44c1.53-0.76,3.08-1.5,4.61-2.27
		C36.41,159.66,36.46,159.31,36.35,158.96z"/>
	<path class="st5" d="M85.97,181.71c2.27-2.56,5.03-4.54,7.96-6.64c-8.83-4.92-17.35-9.76-27.24-13.14
		c3.59,10.13,8.25,19.17,13.22,28.46C81.64,187,83.68,184.28,85.97,181.71z"/>
	<path class="st5" d="M187.72,174.77c-0.44-0.19-0.88-0.39-1.3-0.63c-1.23-0.7-2.53-1.15-3.44,0.33c-0.89,1.46-0.68,2.85,0.75,4.02
		c2.58,2.11,7.74,2.56,10.57,0.85c2.45-1.48,2.97-4.73,1.09-6.68C193.2,175.87,191.38,176.37,187.72,174.77z"/>
	<path class="st5" d="M172.35,240.08c-2.62,6.64-5.28,13.27-7.5,20.06c-0.27,0.83-0.2,1.41,0.55,1.96
		c5.19,3.74,10.4,7.46,15.87,10.79c0.88,1.01,2.12,1.52,3.21,2.22c4.41,2.8,8.85,5.53,13.27,8.3c0.68,0.43,1.29,0.87,1.82-0.19
		c1.42-2.82,3.1-5.5,4.09-8.53c0.16-0.3,0.34-0.59,0.47-0.91c4.89-11.34,7.91-23.22,10.37-35.28c0.12-0.58-0.09-1.37,0.8-1.67
		c0.39,0.85,0.02,1.58-0.11,2.29c-1.46,7.78-3.38,15.44-5.78,22.99c-0.23,0.73-0.77,1.45,0.04,2.27c2.22,2.24,4.25,4.68,6.68,6.71
		c0.29,0.27,0.58,0.54,0.88,0.8c3.91,3.65,8.15,6.82,13.37,8.34c4.76,1.38,9.35,1.18,13.1-2.55c2.58-2.57,3.72-5.88,4.09-9.46
		c1.31-8.56-0.14-16.86-2.43-25.07c-0.16-0.62-0.33-1.23-0.49-1.85c-2.43-8.53-6.53-16.17-12.45-22.77
		c-2.23-2.49-4.45-5.06-7.54-6.59c-0.88-0.98-1.95-1.68-3.15-2.2c-7.53-5.76-18.92-6.2-26.8-1.03c-0.33,0.2-0.66,0.4-0.99,0.6
		c-6.23,3.69-10.5,9.22-14.24,15.22C176.45,229.41,174.45,234.78,172.35,240.08z"/>
	<path class="st5" d="M197.06,284.44c-2.84-1.68-5.63-3.44-8.43-5.2c-3.83-2.4-7.65-4.83-11.47-7.24c-3.26-2.29-6.51-4.57-9.77-6.86
		c-0.95-0.67-1.83-1.76-2.86-1.93c-1.51-0.25-0.6,2.05-1.89,2.43c-0.54-0.77,0.01-1.46,0.2-2.13c0.22-0.81,0.26-1.43-0.52-1.97
		c-2.52-1.78-5.01-3.6-7.52-5.4c-0.92-0.74-1.85-1.48-2.77-2.22c-3.11-2.42-6.22-4.85-9.33-7.27c-0.99-0.78-1.98-1.56-2.97-2.34
		c-4.69-4.03-9.39-8.05-14.06-12.11c-0.88-0.76-1.36-0.79-1.61,0.47c-0.49,2.49-1.11,4.96-1.52,7.47
		c-1.55,9.54-1.21,19.01,1.33,28.37c1.37,6.69,4,12.91,7.61,18.64c4.22,6.69,9.61,12.15,17.24,15.1
		c18.74,7.25,38.54,0.89,48.82-15.74C198.17,285.47,198.07,285.04,197.06,284.44z"/>
	<path class="st5" d="M147.37,203.65c-0.41,0.1-0.81,0.19-1.22,0.29c-1.87,0.3-3.53,1.15-5.09,2.13
		c-8.55,5.34-12.86,13.66-15.91,22.84c-0.23,0.69-0.08,1.17,0.46,1.63c4.66,3.97,9.17,8.11,14.03,11.85
		c0.88,0.86,1.73,1.77,2.91,2.24c3.54,3.2,7.35,6.07,11.19,8.89c0.81,0.73,1.61,1.49,2.65,1.9c2.2,1.95,4.61,3.62,7.05,5.24
		c1.62-2.05,1.24-4.62,1.64-6.8c0.78-4.28,3.16-8.03,3.51-12.36c0.23,0.06,0.51,0.28,0.65-0.06c0.04-0.1-0.19-0.31-0.29-0.47
		c0.11-0.07,0.2-0.16,0.27-0.27c0.75-0.48-0.12-0.56-0.2-0.83c0.27-0.35,0.54-0.69,0.81-1.04c0.85-1.02,1.81-2,1.37-3.52
		c0.18-0.21,0.36-0.43,0.54-0.64c1.69-1.97,2.02-4.63,3.45-6.76c0.66-0.98,1.21-2.23,0.26-3.46c-0.64-1.59-1.17-3.24-1.94-4.76
		c-2.68-5.3-5.68-10.37-10.96-13.58c-0.37-0.33-0.7-0.74-1.25-0.78C156.89,202.76,152.22,202.44,147.37,203.65z"/>
	<path class="st5" d="M195.53,172.4c-0.02-0.05-0.1-0.07-0.16-0.11c0.01,0.11,0.02,0.22,0.03,0.33
		C195.55,172.63,195.6,172.55,195.53,172.4z"/>
	<path class="st5" d="M184.35,180.23c-1.11-0.58-2.25-1.1-3.07,0.19c-0.79,1.23-0.48,2.5,0.55,3.57c1.49,1.56,3.45,1.93,5.46,2.1
		c3.64,0.3,5.34-1.11,5.92-4.92C190.01,181.8,187.09,181.67,184.35,180.23z"/>
	<path class="st5" d="M187.81,187.67c-0.21-0.72-1.04-0.42-1.6-0.52c-1.36-0.24-2.69-0.57-3.9-1.27c-0.78-0.45-1.47-1.5-2.42-0.28
		c-0.8,1.02-0.94,2.11-0.23,3.25c1.27,2.04,5.79,2.44,7.51,0.53C187.45,188.96,188,188.36,187.81,187.67z"/>
	<path class="st5" d="M177.36,315.56c-0.01-0.02-0.02-0.04-0.02-0.06c-0.02,0.01-0.04,0.03-0.05,0.05c0.01,0.01,0.02,0.01,0.02,0.02
		C177.32,315.56,177.34,315.56,177.36,315.56z"/>
	<path class="st5" d="M178.3,311.94c-0.69,0.25-1.01,2.1-1.7,1.27c-1.48-1.79-1.06,0.55-1.24,0.76
		C178,313.93,178.01,313.92,178.3,311.94z"/>
	<path class="st5" d="M175.37,313.97c-0.02,0-0.04,0-0.06,0C175.33,313.99,175.36,313.99,175.37,313.97z"/>
	<path class="st0" d="M46.63,213.05c-0.28-0.31-0.53-0.6-0.74-0.88 M88.84,239.77c-1.05,0.64-3.2,0.67-5.34,0.48"/>
</g>
<g>
	<path class="st5" d="M79.91,190.38c1.73-3.38,3.78-6.1,6.06-8.67c2.27-2.56,5.03-4.54,7.96-6.64c-8.83-4.92-17.35-9.76-27.24-13.14
		C70.27,172.06,74.94,181.1,79.91,190.38z"/>
	<path class="st5" d="M195.53,172.4c-0.02-0.05-0.1-0.07-0.16-0.11c0.01,0.11,0.02,0.22,0.03,0.33
		C195.55,172.63,195.6,172.55,195.53,172.4z"/>
	<path class="st5" d="M220.68,158.84c0.37-0.06,0.87,0.03,1.04-0.63c-1.32-1.42-3.17-2.3-4.56-3.65c-3.16-3.05-6.58-3.48-10.46-1.82
		c-0.94,0.18-1.88,0.37-2.83,0.53c-0.42,0.07-0.88,0.06-0.93-0.5c-0.04-0.46,0.41-0.47,0.71-0.56c0.85-0.25,1.71-0.47,2.57-0.71
		c1.55-0.14,3.06-0.42,4.8-1.16c-5.72-4.02-11.19-7.86-17.18-12.07c0.96,5.01,1.82,9.48,2.67,13.95c0.03,1.41,0.17,2.8,0.79,4.1
		c0.26,1.55,0.59,3.1,0.74,4.66c0.12,1.3,0.56,1.65,1.9,1.4C206.85,161.15,213.77,160.02,220.68,158.84z"/>
	<path class="st5" d="M106.77,211.41c0.08-0.18,0.16-0.36,0.24-0.54C106.94,211.05,106.86,211.23,106.77,211.41z"/>
	<path class="st5" d="M195.41,172.63c-0.02,0-0.04,0-0.06-0.01c0.01,0.01,0.02,0.03,0.04,0.04
		C195.39,172.65,195.4,172.64,195.41,172.63C195.41,172.63,195.41,172.63,195.41,172.63z"/>
	<path class="st5" d="M107.13,210.61c0.11-0.27,0.22-0.54,0.32-0.81C107.35,210.07,107.24,210.34,107.13,210.61z"/>
	<path class="st5" d="M42.83,150.46c-1-3-2.14-5.95-3.96-8.04c-1-0.95-1.71-1.52-2.71-1.25c-1.05,0.29-1.27,1.21-1.39,2.09
		c-0.12,0.88-0.14,1.79-0.08,2.67c0.26,3.73,1.25,7.3,2.27,10.88c0.51,1.79,1.02,2.19,2.79,1.26
		C44.5,155.57,44.56,155.65,42.83,150.46z"/>
	<path class="st5" d="M36.35,158.96c-1.18-3.66-2.5-7.25-4.81-9.87c-1.35-1.23-1.99-1.49-2.68-1.2c-1.01,0.42-1.1,1.38-1.11,2.25
		c-0.04,4.07,1.38,7.8,2.76,11.53c0.16,0.44,0.41,0.69,0.92,0.44c1.53-0.76,3.08-1.5,4.61-2.27
		C36.41,159.66,36.46,159.31,36.35,158.96z"/>
	<path class="st5" d="M139.64,242.39c0.88,0.86,1.73,1.77,2.91,2.24c3.54,3.2,7.35,6.07,11.19,8.89c0.81,0.73,1.61,1.49,2.65,1.9
		c2.2,1.95,4.61,3.62,7.05,5.24c1.62-2.05,1.24-4.62,1.64-6.8c0.78-4.28,3.16-8.03,3.51-12.36c0.23,0.06,0.51,0.28,0.65-0.06
		c0.04-0.1-0.19-0.31-0.29-0.47c0.11-0.07,0.2-0.16,0.27-0.27c0.75-0.48-0.12-0.56-0.2-0.83c0.27-0.35,0.54-0.69,0.81-1.04
		c0.85-1.02,1.81-2,1.37-3.52c0.18-0.21,0.36-0.43,0.54-0.64c1.69-1.97,2.02-4.63,3.45-6.76c0.66-0.98,1.21-2.23,0.26-3.46
		c-0.64-1.59-1.17-3.24-1.94-4.76c-2.68-5.3-5.68-10.37-10.96-13.58c-0.37-0.33-0.7-0.74-1.25-0.78c-4.4-2.57-9.06-2.9-13.92-1.69
		c-0.41,0.1-0.81,0.19-1.22,0.29c-1.87,0.3-3.53,1.15-5.09,2.13c-8.55,5.34-12.86,13.66-15.91,22.84c-0.23,0.69-0.08,1.17,0.46,1.63
		C130.26,234.51,134.78,238.65,139.64,242.39z"/>
	<path class="st5" d="M106.44,212.11c0.04-0.08,0.08-0.16,0.11-0.24C106.51,211.95,106.48,212.03,106.44,212.11z"/>
	<path class="st5" d="M245.16,243.15c-0.16-0.62-0.33-1.23-0.49-1.85c-2.43-8.53-6.53-16.17-12.45-22.77
		c-2.23-2.49-4.45-5.06-7.54-6.59c-0.88-0.98-1.95-1.68-3.15-2.2c-7.53-5.76-18.92-6.2-26.8-1.03c-0.33,0.2-0.66,0.4-0.99,0.6
		c-6.23,3.69-10.5,9.22-14.24,15.22c-3.04,4.87-5.04,10.24-7.14,15.55c-2.62,6.64-5.28,13.27-7.5,20.06
		c-0.27,0.83-0.2,1.41,0.55,1.96c5.19,3.74,10.4,7.46,15.87,10.79c0.88,1.01,2.12,1.52,3.21,2.22c4.41,2.8,8.85,5.53,13.27,8.3
		c0.68,0.43,1.29,0.87,1.82-0.19c1.42-2.82,3.1-5.5,4.09-8.53c0.16-0.3,0.34-0.59,0.47-0.91c4.89-11.34,7.91-23.22,10.37-35.28
		c0.12-0.58-0.09-1.37,0.8-1.67c0.39,0.85,0.02,1.58-0.11,2.29c-1.46,7.78-3.38,15.44-5.78,22.99c-0.23,0.73-0.77,1.45,0.04,2.27
		c2.22,2.24,4.25,4.68,6.68,6.71c0.29,0.27,0.58,0.54,0.88,0.8c3.91,3.65,8.15,6.82,13.37,8.34c4.76,1.38,9.35,1.18,13.1-2.55
		c2.58-2.57,3.72-5.88,4.09-9.46C248.89,259.66,247.45,251.37,245.16,243.15z"/>
	<path class="st5" d="M187.28,186.09c3.64,0.3,5.34-1.11,5.92-4.92c-3.19,0.63-6.11,0.5-8.85-0.94c-1.11-0.58-2.25-1.1-3.07,0.19
		c-0.79,1.23-0.48,2.5,0.55,3.57C183.31,185.55,185.27,185.93,187.28,186.09z"/>
	<path class="st5" d="M194.3,179.34c2.45-1.48,2.97-4.73,1.09-6.68c-2.18,3.21-4.01,3.71-7.67,2.11c-0.44-0.19-0.88-0.39-1.3-0.63
		c-1.23-0.7-2.53-1.15-3.44,0.33c-0.89,1.46-0.68,2.85,0.75,4.02C186.31,180.59,191.47,181.04,194.3,179.34z"/>
	<path class="st5" d="M197.06,284.44c-2.84-1.68-5.63-3.44-8.43-5.2c-3.83-2.4-7.65-4.83-11.47-7.24c-3.26-2.29-6.51-4.57-9.77-6.86
		c-0.95-0.67-1.83-1.76-2.86-1.93c-1.51-0.25-0.6,2.05-1.89,2.43c-0.54-0.77,0.01-1.46,0.2-2.13c0.22-0.81,0.26-1.43-0.52-1.97
		c-2.52-1.78-5.01-3.6-7.52-5.4c-0.92-0.74-1.85-1.48-2.77-2.22c-3.11-2.42-6.22-4.85-9.33-7.27c-0.99-0.78-1.98-1.56-2.97-2.34
		c-4.69-4.03-9.39-8.05-14.06-12.11c-0.88-0.76-1.36-0.79-1.61,0.47c-0.49,2.49-1.11,4.96-1.52,7.47
		c-1.55,9.54-1.21,19.01,1.33,28.37c1.37,6.69,4,12.91,7.61,18.64c4.22,6.69,9.61,12.15,17.24,15.1
		c18.74,7.25,38.54,0.89,48.82-15.74C198.17,285.47,198.07,285.04,197.06,284.44z"/>
	<path class="st5" d="M187.16,189.39c0.29-0.43,0.84-1.03,0.64-1.72c-0.21-0.72-1.04-0.42-1.6-0.52c-1.36-0.24-2.69-0.57-3.9-1.27
		c-0.78-0.45-1.47-1.5-2.42-0.28c-0.8,1.02-0.94,2.11-0.23,3.25C180.92,190.9,185.44,191.3,187.16,189.39z"/>
	<path class="st5" d="M112.86,213.47l11.63,14.77c0.12-0.23,0.23-0.52,0.34-0.87c2.22-6.83,5.54-13.07,10.74-18.13
		c5.56-5.42,12.19-8,19.96-6.78c1.98,0.31,3.28-0.12,4.49-1.49c0.27-0.31,0.56-0.61,0.85-0.91c4.64-4.86,9.9-8.74,16.47-10.61
		c0.31-0.09,0.87-0.3,0.86-0.35c-0.52-2.23,0.31-3.97,1.87-5.5c0.12-0.11-0.17-0.63-0.25-0.96c-0.44-1.9,1.21-2.88,1.75-4.26
		c0.52-1.34-0.58-3.3,0.62-4.84c0.2-0.26,0.5-0.48,0.78-0.66c0.39-0.25,0.7-0.47,0.19-0.91c-0.34-0.29-0.6-0.68-0.12-0.99
		c0.39-0.25,0.79,0.06,1.12,0.32c1.59,1.23,3.29,2.26,5.23,2.86c1.7,0.52,3.35,0.65,4.38-1.12c1.03-1.77,0.07-3.21-1.18-4.39
		c-2.55-2.43-5.67-3.52-9.16-3.78c-17.07-1.27-29.75,6.16-39.44,19.68c-0.8,1.11-0.76,1.83,0.11,2.79c1.66,1.84,3.08,3.88,4.35,6.01
		c0.24,0.4,0.67,0.88,0.08,1.22c-0.58,0.33-0.81-0.25-1.05-0.67c-0.07-0.12-0.14-0.24-0.21-0.35c-3.79-5.8-8.24-10.99-14.11-14.79
		c-0.82-0.53-1.71-0.92-2.33-1.7c-1.3-1.07-2.74-1.87-4.38-2.3l-0.17-0.09c-0.03-0.09-0.09-0.13-0.18-0.13
		c-3.38-1.79-7.07-2.62-10.8-2.86c-13.95-0.88-24.92,4.42-32.7,16.19c-1.63,2.47-2.3,4.68-0.14,7.17c0.79,0.91,1.24,2.13,1.85,3.2
		c0.5,0.9,1.03,1.79,1.47,2.72c0.26,0.55,1.16,1.26,0.25,1.74c-0.69,0.37-0.9-0.63-1.18-1.12c-2.58-4.62-5.24-9.21-7.68-13.9
		c-4.55-8.73-9.05-17.48-12.02-26.92c-0.5-1.58-0.52-2.98,0.15-4.57c1.04-2.47,1.76-5.07,2.01-7.77c0.16-1.66,0.12-3.28-1.67-4.05
		c-1.85-0.8-3.01,0.47-4.02,1.71c-2.2,2.71-3.52,5.89-4.75,9.11c-0.2,0.51-0.08,1.17-0.9,1.46c-4.5,1.59-6.55,4.98-6.87,9.59
		c-0.03,0.44,0.07,1.13-0.63,1.08c-0.68-0.05-0.52-0.7-0.49-1.15c0.26-4.19,1.87-7.71,5.71-9.66c2.04-1.04,0.82-2.02,0.44-3.08
		c-0.59-1.64-1.53-0.49-2.23-0.14c-5.38,2.62-10.73,5.3-16.1,7.95c-4.93,2.43-4.9,2.41-2.04,7.31c2.6,4.45,5.43,8.77,7.71,13.41
		c6.08,12.34,12.27,24.63,19.46,36.37c3.35,5.48,7.39,10.28,12.98,13.63c6.19,3.71,12.96,3.63,18.25-0.32
		c3.1-2.31,5.36-5.33,7.3-8.63c2.59-4.4,4.78-8.99,6.97-13.59c0.3-0.63,0.41-1.9,1.25-1.56c0.97,0.39,0.02,1.29-0.22,1.92
		c-0.1,0.27-0.21,0.54-0.32,0.81c-0.04,0.09-0.08,0.17-0.11,0.26c-0.08,0.18-0.16,0.36-0.24,0.54c-0.01,0.03-0.02,0.05-0.04,0.08
		c-0.06,0.13-0.12,0.25-0.18,0.38c-0.04,0.08-0.08,0.16-0.11,0.24c-0.12,0.23-0.24,0.46-0.37,0.69c-0.14,0.25-0.22,0.46-0.25,0.66
		c0.22-0.47,0.43-0.93,0.62-1.36C113.67,211.35,112.86,213.47,112.86,213.47z"/>
	<path class="st0" d="M248.71,266.82c0.71-6.24-0.08-12.4-1.36-18.49c-3.34-15.93-10.48-29.52-24.33-38.88
		c-8.78-5.93-17.95-6.9-27.55-2.11c-5.48,2.73-9.88,6.74-13.42,11.69c-1.67,2.34-3.18,4.79-4.87,7.36
		c-3.65-9.54-7.88-18.51-17.87-23.14c1.09-1.09,2.1-2.11,3.11-3.13c4.02-4.07,8.57-7.32,14.03-9.2c1.47-0.5,2.76-0.63,4.31,0.17
		c3.62,1.86,6.64,0.61,8.23-3.16c0.22-0.53,0.54-0.72,1.03-0.85c2.67-0.73,3.89-2.66,4.31-5.24c0.1-0.6,0.12-1.15,0.67-1.64
		c3.53-3.16,3.65-6.1,0.44-9.73c-0.37-0.42-0.77-0.81-0.72-1.42c0.13-1.41,3.83-5.33,5.26-5.57c7.55-1.29,15.09-2.55,22.64-3.86
		c0.69-0.12,1.77,0.15,1.93-0.78c0.14-0.85-0.91-1.07-1.5-1.48c-2.87-2.04-5.75-4.04-8.97-6.29c6.4-1.41,12.31-2.71,18.22-4.01
		c0.54-0.12,1.08-0.24,1.61-0.37c0.3-0.07,0.5-0.28,0.47-0.58c-0.04-0.47-0.43-0.5-0.77-0.46c-0.48,0.06-0.94,0.19-1.42,0.29
		c-5.92,1.3-11.85,2.6-17.77,3.92c-0.97,0.21-1.81,0.3-2.73-0.35c-5.73-4.07-11.5-8.09-17.27-12.11c-0.47-0.32-0.89-1.11-1.57-0.61
		c-0.61,0.45-0.17,1.16-0.06,1.74c1.24,6.78,2.26,13.62,3.84,20.32c0.79,3.35,0.05,5.84-2.03,8.28c-0.62,0.73-0.92,0.92-1.74,0.23
		c-2.08-1.75-4.46-3.04-7.2-3.37c-10.18-1.24-19.78,0.37-28.5,6.05c-5.49,3.58-10.1,8.1-13.8,13.51c-0.8,1.16-1.32,1.48-2.4,0.25
		c-1.18-1.34-2.56-2.51-3.93-3.66c-12.27-10.31-25.78-12.68-40.61-6.18c-1.05,0.46-1.77,0.28-2.66-0.24
		c-8.48-4.87-17.03-9.61-26.37-12.68c-1.71-0.56-1.61-1.84-1.46-3.14c0.07-0.6,0.43-1.16,0.63-1.74c1.01-3.01,2.02-6.02,1.89-9.25
		c-0.07-1.76-1-2.99-2.57-3.69c-1.43-0.63-2.67-0.08-3.82,0.81c-0.89,0.69-1.56,1.53-2.2,2.44c-1.65,2.36-2.66,5.06-4.05,7.84
		c-1.6-3.34-2.87-6.45-3.97-9.64c-0.67-1.95-1.2-3.98-2.5-5.63c-0.82-1.05-1.64-2.37-3.37-1.55c0,0.16,0,0.32,0,0.48
		c1.85,0.51,2.82,1.92,3.46,3.56c1.16,2.94,2.22,5.93,3.38,8.87c0.31,0.77,0.1,1.11-0.57,1.43c-2.23,1.07-4.44,2.17-6.74,3.3
		c-1.39-4.61-2.35-9.15-2.13-13.89c0.07-1.53,0.65-2.64,2.09-3.25c-0.03-0.13-0.06-0.27-0.08-0.4c-2.04-0.26-2.83,0.98-3.05,2.69
		c-0.17,1.34-0.12,2.7-0.17,4.05c-0.01,0.24-0.03,0.47-0.04,0.71c-0.38-0.07-0.51-0.33-0.51-0.68c-0.72-0.99-1.38-2.05-2.18-2.97
		c-0.94-1.08-2.14-1.74-3.65-1.33c-1.48,0.41-1.89,1.64-2.16,2.96c-0.43,2.12,0.11,4.22,0.14,6.32c-0.03,0.14-0.07,0.28-0.1,0.43
		c-0.11-0.12-0.22-0.24-0.34-0.36c-0.57-0.6-1.1-1.23-1.7-1.79c-0.91-0.85-2.02-1.29-3.22-0.82c-1.22,0.48-1.64,1.59-1.77,2.82
		c-0.16,1.46,0.02,2.89,0.32,4.31c0.93,4.4,2.21,8.76,4.51,12.59c7.64,12.76,13.82,26.28,20.94,39.31c0,0,0.82,1.43,2.45,4.36
		c0.06,0.1,0.13,0.22,0.19,0.34c3.09,5.67,6.2,11.37,10.63,16.17c4.07,4.4,8.73,7.84,14.75,8.89c4.02,0.72,6.85-0.28,6.85-0.28
		c0.23-0.13,0.53-0.24,0.91-0.37c5.47-1.82,9.03-5.89,11.84-10.69c1.25-2.13,2.43-4.31,3.71-6.65l0,0c0,0,1.11-2.11,2.07-4.14
		c0.03-0.2,0.11-0.42,0.25-0.66c0.13-0.23,0.25-0.46,0.37-0.69c0.04-0.08,0.08-0.16,0.11-0.24c0.08-0.15,0.15-0.31,0.22-0.46
		c0.08-0.18,0.16-0.36,0.24-0.54c0.04-0.09,0.08-0.17,0.11-0.26c0.11-0.27,0.22-0.54,0.32-0.81c0.24-0.63,1.19-1.53,0.22-1.92
		c-0.84-0.34-0.95,0.93-1.25,1.56c-2.18,4.6-4.38,9.2-6.97,13.59c-1.94,3.3-4.2,6.32-7.3,8.63c-5.29,3.94-12.07,4.03-18.25,0.32
		c-5.59-3.35-9.63-8.15-12.98-13.63c-7.19-11.75-13.38-24.03-19.46-36.37c-2.29-4.64-5.11-8.96-7.71-13.41
		c-2.86-4.91-2.89-4.88,2.04-7.31c5.37-2.65,10.72-5.32,16.1-7.95c0.7-0.34,1.64-1.5,2.23,0.14c0.38,1.06,1.6,2.04-0.44,3.08
		c-3.83,1.95-5.45,5.47-5.71,9.66c-0.03,0.45-0.19,1.1,0.49,1.15c0.7,0.05,0.6-0.63,0.63-1.08c0.32-4.61,2.38-8,6.87-9.59
		c0.82-0.29,0.7-0.95,0.9-1.46c1.23-3.22,2.55-6.41,4.75-9.11c1.01-1.24,2.17-2.52,4.02-1.71c1.78,0.77,1.83,2.39,1.67,4.05
		c-0.26,2.7-0.98,5.3-2.01,7.77c-0.67,1.59-0.64,2.99-0.15,4.57c2.97,9.44,7.48,18.19,12.02,26.92c2.45,4.7,5.1,9.28,7.68,13.9
		c0.28,0.5,0.49,1.5,1.18,1.12c0.91-0.49,0.01-1.19-0.25-1.74c-0.44-0.93-0.97-1.82-1.47-2.72c-0.61-1.08-1.06-2.29-1.85-3.2
		c-2.16-2.49-1.49-4.7,0.14-7.17c7.77-11.77,18.74-17.07,32.7-16.19c3.73,0.23,7.42,1.07,10.8,2.86c0.09,0,0.15,0.04,0.18,0.13
		l0.17,0.09c1.64,0.43,3.08,1.23,4.38,2.3c0.63,0.78,1.52,1.17,2.33,1.7c5.86,3.8,10.31,8.99,14.11,14.79
		c0.08,0.12,0.15,0.23,0.21,0.35c0.23,0.42,0.47,1,1.05,0.67c0.59-0.34,0.16-0.82-0.08-1.22c-1.27-2.14-2.69-4.17-4.35-6.01
		c-0.87-0.97-0.91-1.68-0.11-2.79c9.69-13.52,22.38-20.95,39.44-19.68c3.49,0.26,6.61,1.35,9.16,3.78c1.25,1.19,2.21,2.62,1.18,4.39
		c-1.03,1.77-2.69,1.64-4.38,1.12c-1.94-0.59-3.64-1.63-5.23-2.86c-0.33-0.26-0.73-0.57-1.12-0.32c-0.48,0.31-0.22,0.7,0.12,0.99
		c0.51,0.43,0.2,0.65-0.19,0.91c-0.29,0.18-0.58,0.4-0.78,0.66c-1.19,1.54-0.1,3.5-0.62,4.84c-0.53,1.38-2.19,2.36-1.75,4.26
		c0.08,0.33,0.37,0.85,0.25,0.96c-1.56,1.53-2.39,3.26-1.87,5.5c0.01,0.05-0.55,0.26-0.86,0.35c-6.56,1.87-11.83,5.76-16.47,10.61
		c-0.29,0.3-0.58,0.59-0.85,0.91c-1.21,1.38-2.51,1.8-4.49,1.49c-7.76-1.21-14.4,1.37-19.96,6.78c-5.2,5.07-8.52,11.3-10.74,18.13
		c-0.11,0.35-0.22,0.64-0.34,0.87l0,0l-1.18,4.05c-2.88,10.9-3.36,21.89-1.13,32.97c1.57,7.82,4.31,15.19,8.4,22.07
		c6.71,11.27,16.62,17.36,29.56,18.53c16.3,1.47,28.77-5.11,37.8-18.51c0.11-0.16,0.21-0.29,0.31-0.42
		c1.11-1.64,1.88-3.03,1.88-3.03c3.47-6.04,6.1-12.46,8.47-19.22c2.84,3.04,5.54,5.97,8.59,8.55c5.02,4.26,10.26,8.03,17.12,8.56
		c1.55,0.12,2.49,0.02,2.94-0.06c0.11-0.02,0.22-0.05,0.33-0.07c2.07-0.48,3.88-1.14,5.43-2.42
		C246.94,276.03,248.17,271.56,248.71,266.82z M36.04,159.84c-1.53,0.76-3.07,1.51-4.61,2.27c-0.51,0.25-0.76,0-0.92-0.44
		c-1.38-3.74-2.8-7.47-2.76-11.53c0.01-0.87,0.09-1.83,1.11-2.25c0.7-0.29,1.33-0.03,2.68,1.2c2.31,2.62,3.63,6.21,4.81,9.87
		C36.46,159.31,36.41,159.66,36.04,159.84z M39.74,158.07c-1.77,0.93-2.28,0.52-2.79-1.26c-1.02-3.58-2.02-7.15-2.27-10.88
		c-0.06-0.89-0.04-1.79,0.08-2.67c0.12-0.88,0.34-1.81,1.39-2.09c1-0.27,1.71,0.29,2.71,1.25c1.82,2.09,2.96,5.04,3.96,8.04
		C44.56,155.65,44.5,155.57,39.74,158.07z M85.97,181.71c-2.28,2.57-4.33,5.29-6.06,8.67c-4.97-9.28-9.63-18.33-13.22-28.46
		c9.89,3.38,18.41,8.22,27.24,13.14C91,177.17,88.24,179.15,85.97,181.71z M198.05,160.99c-0.15-1.56-0.48-3.11-0.74-4.66
		c-0.62-1.3-0.76-2.69-0.79-4.1c-0.86-4.47-1.71-8.94-2.67-13.95c5.98,4.2,11.46,8.05,17.18,12.07c-1.74,0.74-3.25,1.02-4.8,1.16
		c-0.86,0.23-1.72,0.46-2.57,0.71c-0.31,0.09-0.76,0.1-0.71,0.56c0.05,0.56,0.51,0.57,0.93,0.5c0.94-0.16,1.89-0.35,2.83-0.53
		c3.88-1.65,7.3-1.22,10.46,1.82c1.39,1.34,3.24,2.22,4.56,3.65c-0.17,0.66-0.67,0.56-1.04,0.63c-6.91,1.18-13.82,2.31-20.72,3.55
		C198.61,162.63,198.18,162.29,198.05,160.99z M182.98,174.47c0.9-1.47,2.2-1.03,3.44-0.33c0.42,0.24,0.86,0.44,1.3,0.63
		c3.66,1.6,5.48,1.1,7.67-2.11c-0.01-0.01-0.02-0.03-0.04-0.04c0.02,0,0.04,0.01,0.06,0.01c-0.01-0.11-0.02-0.22-0.03-0.33
		c0.05,0.03,0.13,0.06,0.16,0.11c0.07,0.16,0.02,0.23-0.12,0.23c0,0,0,0,0,0c-0.01,0.01-0.02,0.02-0.02,0.03
		c1.88,1.95,1.36,5.2-1.09,6.68c-2.82,1.7-7.98,1.25-10.57-0.85C182.3,177.32,182.09,175.93,182.98,174.47z M181.28,180.42
		c0.83-1.29,1.97-0.77,3.07-0.19c2.74,1.44,5.66,1.57,8.85,0.94c-0.57,3.82-2.28,5.23-5.92,4.92c-2.01-0.17-3.97-0.54-5.46-2.1
		C180.79,182.92,180.49,181.65,181.28,180.42z M179.89,185.61c0.95-1.22,1.64-0.17,2.42,0.28c1.2,0.69,2.54,1.02,3.9,1.27
		c0.55,0.1,1.39-0.2,1.6,0.52c0.2,0.68-0.36,1.29-0.64,1.72c-1.72,1.91-6.25,1.51-7.51-0.53
		C178.95,187.72,179.09,186.63,179.89,185.61z M125.15,228.91c3.06-9.18,7.37-17.5,15.91-22.84c1.57-0.98,3.23-1.83,5.09-2.13
		c0.41-0.1,0.81-0.19,1.22-0.29c4.85-1.21,9.52-0.88,13.92,1.69c0.55,0.04,0.88,0.45,1.25,0.78c5.27,3.22,8.28,8.28,10.96,13.58
		c0.77,1.52,1.3,3.17,1.94,4.76c0.95,1.23,0.4,2.48-0.26,3.46c-1.43,2.13-1.75,4.79-3.45,6.76c-0.18,0.21-0.36,0.43-0.54,0.64
		c0.44,1.52-0.53,2.5-1.37,3.52c-0.27,0.35-0.54,0.69-0.81,1.04c0.08,0.27,0.95,0.36,0.2,0.83c-0.07,0.11-0.16,0.2-0.27,0.27
		c0.11,0.16,0.34,0.37,0.29,0.47c-0.14,0.34-0.42,0.12-0.65,0.06c-0.35,4.33-2.72,8.09-3.51,12.36c-0.4,2.18-0.01,4.75-1.64,6.8
		c-2.44-1.62-4.85-3.28-7.05-5.24c-1.04-0.41-1.84-1.17-2.65-1.9c-3.84-2.82-7.65-5.69-11.19-8.89c-1.18-0.47-2.03-1.38-2.91-2.24
		c-4.85-3.74-9.37-7.88-14.03-11.85C125.07,230.08,124.92,229.6,125.15,228.91z M197.53,286.51
		c-10.27,16.63-30.07,22.98-48.82,15.74c-7.63-2.95-13.03-8.41-17.24-15.1c-3.61-5.73-6.24-11.95-7.61-18.64
		c-2.54-9.36-2.88-18.83-1.33-28.37c0.41-2.51,1.03-4.98,1.52-7.47c0.25-1.26,0.73-1.23,1.61-0.47c4.67,4.05,9.37,8.08,14.06,12.11
		c0.99,0.78,1.98,1.56,2.97,2.34c3.11,2.42,6.22,4.85,9.33,7.27c0.92,0.74,1.85,1.48,2.77,2.22c2.5,1.8,5,3.62,7.52,5.4
		c0.77,0.55,0.74,1.16,0.52,1.97c-0.18,0.67-0.74,1.36-0.2,2.13c1.29-0.38,0.38-2.68,1.89-2.43c1.03,0.17,1.91,1.26,2.86,1.93
		c3.25,2.29,6.51,4.58,9.77,6.86c3.82,2.41,7.64,4.84,11.47,7.24c2.8,1.75,5.59,3.52,8.43,5.2
		C198.07,285.04,198.17,285.47,197.53,286.51z M243.49,277.68c-3.75,3.74-8.34,3.93-13.1,2.55c-5.22-1.51-9.46-4.68-13.37-8.34
		c-0.29-0.27-0.58-0.54-0.88-0.8c-2.44-2.03-4.46-4.47-6.68-6.71c-0.81-0.82-0.27-1.54-0.04-2.27c2.4-7.54,4.32-15.21,5.78-22.99
		c0.13-0.71,0.5-1.44,0.11-2.29c-0.89,0.3-0.68,1.09-0.8,1.67c-2.46,12.05-5.48,23.94-10.37,35.28c-0.13,0.31-0.31,0.6-0.47,0.91
		c-0.99,3.02-2.67,5.71-4.09,8.53c-0.53,1.06-1.15,0.61-1.82,0.19c-4.42-2.77-8.87-5.5-13.27-8.3c-1.1-0.7-2.33-1.2-3.21-2.22
		c-5.47-3.33-10.68-7.05-15.87-10.79c-0.76-0.54-0.83-1.13-0.55-1.96c2.23-6.79,4.88-13.42,7.5-20.06c2.1-5.31,4.1-10.67,7.14-15.55
		c3.74-6,8.01-11.53,14.24-15.22c0.33-0.2,0.66-0.4,0.99-0.6c7.88-5.17,19.27-4.74,26.8,1.03c1.2,0.51,2.28,1.22,3.15,2.2
		c3.09,1.53,5.31,4.1,7.54,6.59c5.92,6.61,10.02,14.24,12.45,22.77c0.16,0.62,0.33,1.23,0.49,1.85c2.29,8.21,3.74,16.51,2.43,25.07
		C247.21,271.81,246.07,275.11,243.49,277.68z"/>
	<path class="st0" d="M106.07,212.8c0.13-0.23,0.25-0.46,0.37-0.69C106.32,212.34,106.2,212.57,106.07,212.8z"/>
	<path class="st0" d="M107.01,210.87c0.04-0.09,0.08-0.17,0.11-0.26C107.09,210.7,107.05,210.78,107.01,210.87z"/>
	<path class="st0" d="M106.77,211.41c-0.07,0.15-0.15,0.31-0.22,0.46c0.06-0.13,0.13-0.25,0.18-0.38
		C106.75,211.46,106.76,211.44,106.77,211.41z"/>
</g>
<path class="st3" d="M153.74,253.52c5.75-3.44,7.98-8.89,8.45-15.22c0.44-5.87-0.99-11.62-1.57-17.42
	c-0.53-5.22-1.05-10.43,0.67-15.55c-4.4-2.57-9.06-2.9-13.92-1.69c1.9,5.52,1.92,11.01,0.2,16.63c-2.2,7.23-4.6,14.43-4.98,22.08
	c-0.02,0.38-0.03,0.76-0.03,1.14l0,0l0,0c0,0.38,0,0.76-0.01,1.14c0.02,0.02,0.04,0.04,0.06,0.06l0.09,1.96c0,0,0,0,0,0
	c0.18,0.73,0.31,1.47,0.54,2.18c1.31,3.98,4.72,5.94,8.79,5.09c-0.28-0.22-0.56-0.43-0.84-0.65l0.84,0.65L153.74,253.52
	L153.74,253.52C153.74,253.52,153.74,253.52,153.74,253.52z"/>
<path class="st3" d="M237.48,265.2c-0.2-3.74-1.58-7.2-2.65-10.72c-0.76-2.52-0.9-5.07-0.45-7.65c0.79-4.57,3.94-6.74,8.48-5.9
	c0.6,0.11,1.2,0.25,1.81,0.38c-2.43-8.53-6.53-16.17-12.45-22.77c-2.23-2.49-4.45-5.06-7.54-6.59c-0.21-0.01-0.42,0-0.62-0.04
	c-8.52-1.82-12.5,1.12-15.51,10.12c-1.27,3.81-1.24,7.87-1.56,11.85c-0.27,3.43-0.44,6.87-0.89,10.28
	c-0.63,4.74-2.77,8.66-7.1,11.03c-6.91,3.78-15.74-1.09-16.41-9.03c-0.42-4.97,1.61-9.28,3.86-13.5c1.84-3.46,4.29-6.58,5.92-10.16
	c1.92-4.22,3.15-8.55,1.36-13.17c-6.23,3.69-10.5,9.22-14.24,15.22c-3.04,4.87-5.04,10.24-7.14,15.55
	c-2.62,6.64-5.28,13.27-7.5,20.06c0,0,0,0,0,0l-1.23,3.61c-0.22,0.65-0.16,1.64-0.97,1.88c-0.54-0.77,0.01-1.46,0.2-2.13l1.23-3.84
	l0,0c0.9-1.85,0.68-3.96,1.01-5.8c0.78-4.28,3.16-8.03,3.51-12.36c0.12-0.18,0.24-0.35,0.36-0.53c0.11-0.07,0.2-0.16,0.27-0.27
	c-0.19-0.27-0.73-0.31-0.56-0.81c0.01-0.04,0.23-0.02,0.35-0.02c0.27-0.35,0.54-0.69,0.81-1.04c-0.34,0.01-0.92,0.12-0.98,0.01
	c-0.2-0.46-0.02-0.89,0.4-1.24c0.86-0.72,1.36-1.5-0.03-2.39c0.79,0.04,1.39,0.07,1.98,0.1c0.18-0.21,0.36-0.43,0.54-0.64
	c-0.52-0.14-1-0.51-0.7-1c0.67-1.12,0.06-2.85,0.76-3.44c1.9-1.59,2.17-4.04,3.65-5.78c-0.64-1.59-1.17-3.23-1.94-4.76
	c-2.68-5.3-5.68-10.37-10.96-13.58c-0.83,2.54-0.81,5.14-0.61,7.75c0.47,6.32,1.9,12.5,2.72,18.77c0.89,6.83-0.09,13.26-4.24,18.98
	c-1.08,1.49-2.46,2.67-3.93,3.76c-0.32,0.21-0.85,0.5-1.63,0.81c-0.02-0.01-0.03-0.02-0.05-0.03c-0.39,0.17-0.78,0.32-1.16,0.45
	c-0.01,0-0.02,0.01-0.04,0.01c-5.86,1.91-11.77-1.25-13.37-7.4c-0.3-1.16-0.52-2.33-0.55-3.52c0-0.11,0.01-0.54,0.02-1.1
	c0.01-0.09,0.01-0.17,0.02-0.26c0,0-0.01-0.01-0.01-0.01c0.03-1.4,0.08-3.39,0.08-3.66c0.8-7.25,3.16-14.11,5.61-20.93
	c1.88-5.23,2.16-10.44,0.75-15.78c-1.87,0.3-3.53,1.15-5.09,2.13c-8.55,5.34-12.86,13.66-15.91,22.84c0,0-0.36,1.29-0.8,2.96
	c-0.12,0.16-0.22,0.42-0.29,0.8c-0.16,0.8-0.33,1.59-0.5,2.38c-0.17,0.74-0.33,1.45-0.45,2.07c0,0,0,0,0,0
	c-0.21,1-0.41,2.01-0.57,3.02c-1.55,9.54-1.21,19.01,1.33,28.37c1.36,6.69,4,12.91,7.61,18.64c4.22,6.69,9.61,12.15,17.24,15.1
	c18.08,6.99,37.14,1.32,47.69-14.01c0,0,0,0,0,0c0.87-1.21,2.5-3.89,3.02-4.74c0.05-0.08,0.11-0.16,0.16-0.27
	c1.42-2.82,3.1-5.5,4.09-8.53c0.16-0.3,0.34-0.59,0.47-0.91c4.89-11.34,7.91-23.22,10.37-35.28c0.12-0.58-0.09-1.37,0.8-1.67
	c0.39,0.85,0.02,1.58-0.11,2.29c-1.46,7.78-3.38,15.44-5.78,22.99c-0.23,0.73-0.77,1.45,0.04,2.27c2.22,2.24,4.25,4.68,6.68,6.71
	c2.49-2.05,5.37-1.92,8.25-1.36c1.88,0.36,3.69,1.08,5.55,1.58C234.92,272.63,237.76,270.33,237.48,265.2z M203.49,274.58
	c-0.44-0.24-0.91-0.34-1.4-0.4C202.58,274.24,203.05,274.34,203.49,274.58z"/>
<g>
	<path id="contour" class="st6" d="M209.77,157.49c0.97-1.62,0.18-4.46-1.38-5.54c-0.05-0.03-0.09-0.06-0.13-0.08
		c0.04-0.05,0.07-0.11,0.1-0.18c0.79-1.72,0.13-4.54-1.5-5.46c-1.7-0.96-3.82-0.47-4.83,1.17c-1.36,2.2-2.66,4.44-3.98,6.67
		c-0.19,0.32-0.13,0.6,0.18,0.79c2.25,1.34,4.48,2.72,6.76,4C206.67,159.81,208.78,159.16,209.77,157.49z"/>
	<path id="coeur_rouge" class="st7" d="M209.89,156.12c0.19-1.31-0.43-2.8-1.49-3.59c-0.08-0.07-0.16-0.13-0.22-0.18c0,0,0,0,0,0
		c-0.39-0.23-0.18-0.67-0.18-0.67l0,0c0.02-0.04,0.04-0.08,0.06-0.13c0.72-1.57,0.37-4.24-1.43-5.05c-1.52-0.83-3.43-0.36-4.34,1.12
		c-1.33,2.17-2.61,4.37-3.91,6.55c-0.13,0.22-0.09,0.35,0.13,0.47c2.19,1.29,4.37,2.6,6.56,3.89c0.74,0.43,1.54,0.51,2.57,0.26
		C208.8,158.43,209.68,157.56,209.89,156.12z"/>
	<g id="YEUX">
		<path id="contour_noir_2_" class="st6" d="M202.92,153.24c-0.29-1.16,0.44-2.36,1.6-2.64c1.17-0.28,2.34,0.43,2.63,1.6
			c0.29,1.17-0.43,2.36-1.59,2.64C204.39,155.12,203.21,154.4,202.92,153.24z M206.89,152.26c-0.26-1.02-1.28-1.64-2.31-1.39
			c-1.02,0.25-1.65,1.31-1.39,2.33c0.26,1.01,1.3,1.63,2.32,1.38C206.53,154.32,207.14,153.28,206.89,152.26z"/>
		<g id="fond_blanc_2_">
			<path id="grand_fond_blanc" class="st8" d="M206.89,152.26c-0.26-1.02-1.28-1.64-2.31-1.39c-1.02,0.25-1.65,1.31-1.39,2.33
				c0.26,1.01,1.3,1.63,2.32,1.38C206.53,154.32,207.14,153.28,206.89,152.26z M203.91,153.73c-0.42-0.47-0.51-1.16-0.22-1.72
				c0.29-0.56,0.91-0.88,1.53-0.8c0.63,0.08,1.15,0.54,1.29,1.15c0.01,0.06,0.07,0.14,0,0.19c-0.05,0.04-0.09-0.03-0.14-0.05
				c-0.41-0.19-0.84-0.05-1,0.35c-0.16,0.39,0.05,0.8,0.48,0.95c0.05,0.02,0.09,0.03,0.15,0.06
				C205.46,154.42,204.46,154.35,203.91,153.73z"/>
			<path id="petit_fond_blanc" class="st8" d="M205.04,152.6c-0.03-0.13-0.14-0.19-0.27-0.16c-0.14,0.04-0.21,0.14-0.16,0.29
				c0.04,0.13,0.14,0.17,0.28,0.15C205.02,152.82,205.08,152.73,205.04,152.6z"/>
		</g>
		<path id="iris_noir_1_" class="st6" d="M205.99,153.86c-0.53,0.56-1.53,0.49-2.08-0.13c-0.42-0.47-0.51-1.16-0.22-1.72
			c0.29-0.56,0.91-0.88,1.53-0.8c0.63,0.08,1.15,0.54,1.29,1.15c0.01,0.06,0.07,0.14,0,0.19c-0.05,0.04-0.09-0.03-0.14-0.05
			c-0.41-0.19-0.84-0.05-1,0.35c-0.16,0.39,0.05,0.8,0.48,0.95C205.89,153.82,205.94,153.84,205.99,153.86z M204.89,152.87
			c0.13-0.05,0.19-0.15,0.15-0.28c-0.03-0.13-0.14-0.19-0.27-0.16c-0.14,0.04-0.21,0.14-0.16,0.29
			C204.66,152.86,204.76,152.9,204.89,152.87z"/>
	</g>
</g>
<path id="contour_2_" class="st6" d="M60.63,137.18c-3.19-5.71-13.06-8.28-19-5.47c-0.18,0.08-0.33,0.17-0.47,0.26
	c-0.08-0.2-0.2-0.41-0.36-0.62c-3.79-5.35-13.37-8.26-18.97-4.96c-5.81,3.42-8.04,10.64-4.87,16.52c4.25,7.89,8.7,15.66,13.07,23.48
	c0.63,1.13,1.57,1.43,2.68,0.81c7.93-4.41,15.92-8.72,23.73-13.32C62.19,150.51,63.9,143.04,60.63,137.18z"/>
<path id="coeur_rouge_2_" class="st7" d="M56.72,134.4c-3.6-2.86-9.13-3.58-13.35-1.78c-0.36,0.13-0.67,0.25-0.94,0.35c0,0,0,0,0,0
	c-1.37,0.77-2.34-0.61-2.34-0.62l0,0c-0.09-0.13-0.17-0.26-0.28-0.41c-3.45-4.89-12.05-8.46-17.62-4.47
	c-5.12,3.13-7.03,9.66-4.16,14.96c4.2,7.74,8.57,15.39,12.84,23.09c0.43,0.78,0.89,0.86,1.64,0.44c7.68-4.31,15.38-8.58,23.04-12.92
	c2.58-1.46,4.21-3.73,5.25-7.24C61.75,141.65,60.64,137.52,56.72,134.4z"/>
<g id="YEUX_2_">
	<path id="contour_noir_4_" class="st6" d="M35.99,150.29c-3.96-1.15-6.3-5.41-5.13-9.36c1.19-4,5.34-6.26,9.36-5.09
		c4,1.16,6.33,5.39,5.14,9.34C44.16,149.16,39.98,151.44,35.99,150.29z M39.93,136.71c-3.51-1-7.15,1-8.17,4.49
		c-1.03,3.5,1.04,7.22,4.58,8.21c3.48,0.98,7.16-1.08,8.15-4.56C45.47,141.37,43.43,137.71,39.93,136.71z"/>
	<g id="fond_blanc_4_">
		<path id="grand_fond_blanc_2_" class="st8" d="M39.93,136.71c-3.51-1-7.15,1-8.17,4.49c-1.03,3.5,1.04,7.22,4.58,8.21
			c3.48,0.98,7.16-1.08,8.15-4.56C45.47,141.37,43.43,137.71,39.93,136.71z M39.18,148.19c-2.14,0.45-4.35-0.48-5.52-2.33
			c-1.17-1.85-1.06-4.25,0.26-5.99c1.33-1.76,3.61-2.5,5.69-1.85c0.21,0.07,0.55,0.02,0.58,0.35c0.02,0.22-0.25,0.24-0.39,0.34
			c-1.3,0.91-1.6,2.45-0.7,3.61c0.9,1.16,2.48,1.25,3.66,0.21c0.13-0.11,0.27-0.22,0.42-0.34C43.93,144.72,41.98,147.6,39.18,148.19
			z"/>
		<path id="petit_fond_blanc_2_" class="st8" d="M37.75,142.83c-0.45-0.12-0.81,0.07-0.94,0.52c-0.13,0.49,0.07,0.87,0.58,0.98
			c0.46,0.1,0.76-0.14,0.92-0.57C38.38,143.28,38.2,142.95,37.75,142.83z"/>
	</g>
	<path id="iris_noir_2_" class="st6" d="M43.18,142.17c0.75,2.55-1.2,5.43-4,6.03c-2.14,0.45-4.35-0.48-5.52-2.33
		c-1.17-1.85-1.06-4.25,0.26-5.99c1.33-1.76,3.61-2.5,5.69-1.85c0.21,0.07,0.55,0.02,0.58,0.35c0.02,0.22-0.25,0.24-0.39,0.34
		c-1.3,0.91-1.6,2.45-0.7,3.61c0.9,1.16,2.48,1.25,3.66,0.21C42.89,142.4,43.02,142.29,43.18,142.17z M38.31,143.76
		c0.07-0.47-0.12-0.81-0.56-0.93c-0.45-0.12-0.81,0.07-0.94,0.52c-0.13,0.49,0.07,0.87,0.58,0.98
		C37.86,144.43,38.16,144.19,38.31,143.76z"/>
</g>
<path id="contour_noir_3_" class="st9" d="M52.46,135.34c2.46-0.9,4.26,1.21,3.68,3.18c-0.39,1.31-1.93,2.13-3.25,1.73
	C50.94,139.66,50.15,136.83,52.46,135.34z M55.07,138.16c0.22-0.75-0.23-1.6-0.97-1.84c-0.77-0.25-1.68,0.26-1.88,1.05
	c-0.2,0.75,0.28,1.59,1.04,1.8C54.01,139.38,54.85,138.91,55.07,138.16z"/>
<path id="fond_blanc_3_" class="st10" d="M55.07,138.16c-0.22,0.75-1.06,1.21-1.82,1c-0.75-0.21-1.23-1.04-1.04-1.8
	c0.2-0.79,1.12-1.3,1.88-1.05C54.84,136.56,55.29,137.42,55.07,138.16z"/>
<g>
	<path class="st5" d="M220.72,158.78c0.37-0.06,0.87,0.03,1.04-0.63c-1.32-1.42-3.17-2.3-4.56-3.65c-3.16-3.05-6.58-3.48-10.46-1.82
		c-0.94,0.18-1.88,0.37-2.83,0.53c-0.42,0.07-0.88,0.06-0.93-0.5c-0.04-0.46,0.41-0.47,0.71-0.56c0.85-0.25,1.71-0.47,2.57-0.71
		c1.55-0.14,3.06-0.42,4.8-1.16c-5.72-4.02-11.19-7.86-17.18-12.07c0.96,5.01,1.82,9.48,2.67,13.95c0.03,1.41,0.17,2.8,0.79,4.1
		c0.26,1.55,0.59,3.1,0.74,4.66c0.12,1.3,0.56,1.65,1.9,1.4C206.9,161.09,213.82,159.97,220.72,158.78z"/>
	<path class="st5" d="M195.58,172.34c-0.02-0.05-0.1-0.07-0.16-0.11c0.01,0.11,0.02,0.22,0.03,0.33
		C195.6,172.58,195.65,172.5,195.58,172.34z"/>
	<path class="st5" d="M194.34,179.28c2.45-1.48,2.97-4.73,1.09-6.68c-2.18,3.21-4.01,3.71-7.67,2.11c-0.44-0.19-0.88-0.39-1.3-0.63
		c-1.23-0.7-2.53-1.15-3.44,0.33c-0.89,1.46-0.68,2.85,0.75,4.02C186.36,180.53,191.52,180.99,194.34,179.28z"/>
	<path class="st5" d="M195.45,172.57c-0.02,0-0.04,0-0.06-0.01c0.01,0.01,0.02,0.03,0.04,0.04
		C195.44,172.6,195.45,172.58,195.45,172.57C195.45,172.57,195.45,172.57,195.45,172.57z"/>
	<path class="st5" d="M36.4,158.91c-1.18-3.66-2.5-7.25-4.81-9.87c-1.35-1.23-1.99-1.49-2.68-1.2c-1.01,0.42-1.1,1.38-1.11,2.25
		c-0.04,4.07,1.38,7.8,2.76,11.53c0.16,0.44,0.41,0.69,0.92,0.44c1.53-0.76,3.08-1.5,4.61-2.27
		C36.45,159.6,36.51,159.26,36.4,158.91z"/>
	<path class="st5" d="M42.87,150.4c-1-3-2.14-5.95-3.96-8.04c-1-0.95-1.71-1.52-2.71-1.25c-1.05,0.29-1.27,1.21-1.39,2.09
		c-0.12,0.88-0.14,1.79-0.08,2.67c0.26,3.73,1.25,7.3,2.27,10.88c0.51,1.79,1.02,2.19,2.79,1.26
		C44.54,155.52,44.61,155.59,42.87,150.4z"/>
	<path class="st5" d="M79.95,190.33c1.73-3.38,3.78-6.1,6.06-8.67c2.27-2.56,5.03-4.54,7.96-6.64c-8.83-4.92-17.35-9.76-27.24-13.14
		C70.32,172,74.98,181.04,79.95,190.33z"/>
	<path class="st5" d="M187.21,189.33c0.29-0.43,0.84-1.03,0.64-1.72c-0.21-0.72-1.04-0.42-1.6-0.52c-1.36-0.24-2.69-0.57-3.9-1.27
		c-0.78-0.45-1.47-1.5-2.42-0.28c-0.8,1.02-0.94,2.11-0.23,3.25C180.97,190.84,185.49,191.25,187.21,189.33z"/>
	<path class="st5" d="M245.21,243.1c-0.16-0.62-0.33-1.23-0.49-1.85c-2.43-8.53-6.53-16.17-12.45-22.77
		c-2.23-2.49-4.45-5.06-7.54-6.59c-0.88-0.98-1.95-1.68-3.15-2.2c-7.53-5.76-18.92-6.2-26.8-1.03c-0.33,0.2-0.66,0.4-0.99,0.6
		c-6.23,3.69-10.5,9.22-14.24,15.22c-3.04,4.87-5.04,10.24-7.14,15.55c-2.62,6.64-5.28,13.27-7.5,20.06
		c-0.27,0.83-0.2,1.41,0.55,1.96c5.19,3.74,10.4,7.46,15.87,10.79c0.88,1.01,2.12,1.52,3.21,2.22c4.41,2.8,8.85,5.53,13.27,8.3
		c0.68,0.43,1.29,0.87,1.82-0.19c1.42-2.82,3.1-5.5,4.09-8.53c0.16-0.3,0.34-0.59,0.47-0.91c4.89-11.34,7.91-23.22,10.37-35.28
		c0.12-0.58-0.09-1.37,0.8-1.67c0.39,0.85,0.02,1.58-0.11,2.29c-1.46,7.78-3.38,15.44-5.78,22.99c-0.23,0.73-0.77,1.45,0.04,2.27
		c2.22,2.24,4.25,4.68,6.68,6.71c0.29,0.27,0.58,0.54,0.88,0.8c3.91,3.65,8.15,6.82,13.37,8.34c4.76,1.38,9.35,1.18,13.1-2.55
		c2.58-2.57,3.72-5.88,4.09-9.46C248.94,259.61,247.49,251.31,245.21,243.1z"/>
	<path class="st5" d="M187.33,186.04c3.64,0.3,5.34-1.11,5.92-4.92c-3.19,0.63-6.11,0.5-8.85-0.94c-1.11-0.58-2.25-1.1-3.07,0.19
		c-0.79,1.23-0.48,2.5,0.55,3.57C183.36,185.5,185.32,185.87,187.33,186.04z"/>
	<path class="st5" d="M139.68,242.34c0.88,0.86,1.73,1.77,2.91,2.24c3.54,3.2,7.35,6.07,11.19,8.89c0.81,0.73,1.61,1.49,2.65,1.9
		c2.2,1.95,4.61,3.62,7.05,5.24c1.62-2.05,1.24-4.62,1.64-6.8c0.78-4.28,3.16-8.03,3.51-12.36c0.23,0.06,0.51,0.28,0.65-0.06
		c0.04-0.1-0.19-0.31-0.29-0.47c0.11-0.07,0.2-0.16,0.27-0.27c0.75-0.48-0.12-0.56-0.2-0.83c0.27-0.35,0.54-0.69,0.81-1.04
		c0.85-1.02,1.81-2,1.37-3.52c0.18-0.21,0.36-0.43,0.54-0.64c1.69-1.97,2.02-4.63,3.45-6.76c0.66-0.98,1.21-2.23,0.26-3.46
		c-0.64-1.59-1.17-3.24-1.94-4.76c-2.68-5.3-5.68-10.37-10.96-13.58c-0.37-0.33-0.7-0.74-1.25-0.78c-4.4-2.57-9.06-2.9-13.92-1.69
		c-0.41,0.1-0.81,0.19-1.22,0.29c-1.87,0.3-3.53,1.15-5.09,2.13c-8.55,5.34-12.86,13.66-15.91,22.84c-0.23,0.69-0.08,1.17,0.46,1.63
		C130.31,234.46,134.83,238.6,139.68,242.34z"/>
	<path class="st5" d="M197.11,284.39c-2.84-1.68-5.63-3.44-8.43-5.2c-3.83-2.4-7.65-4.83-11.47-7.24c-3.26-2.29-6.51-4.57-9.77-6.86
		c-0.95-0.67-1.83-1.76-2.86-1.93c-1.51-0.25-0.6,2.05-1.89,2.43c-0.54-0.77,0.01-1.46,0.2-2.13c0.22-0.81,0.26-1.43-0.52-1.97
		c-2.52-1.78-5.01-3.6-7.52-5.4c-0.92-0.74-1.85-1.48-2.77-2.22c-3.11-2.42-6.22-4.85-9.33-7.27c-0.99-0.78-1.98-1.56-2.97-2.34
		c-4.69-4.03-9.39-8.05-14.06-12.11c-0.88-0.76-1.36-0.79-1.61,0.47c-0.49,2.49-1.11,4.96-1.52,7.47
		c-1.55,9.54-1.21,19.01,1.33,28.37c1.37,6.69,4,12.91,7.61,18.64c4.22,6.69,9.61,12.15,17.24,15.1
		c18.74,7.25,38.54,0.89,48.82-15.74C198.22,285.41,198.11,284.98,197.11,284.39z"/>
</g>
<g>
	<path class="st5" d="M39.79,158.02c4.76-2.5,4.82-2.43,3.09-7.62c-1-3-2.14-5.95-3.96-8.04c-1-0.95-1.71-1.52-2.71-1.25
		c-1.05,0.29-1.27,1.21-1.39,2.09c-0.12,0.88-0.14,1.79-0.08,2.67c0.26,3.73,1.25,7.3,2.27,10.88
		C37.51,158.54,38.02,158.94,39.79,158.02z"/>
	<path class="st5" d="M36.4,158.91c-1.18-3.66-2.5-7.25-4.81-9.87c-1.35-1.23-1.99-1.49-2.68-1.2c-1.01,0.42-1.1,1.38-1.11,2.25
		c-0.04,4.07,1.38,7.8,2.76,11.53c0.16,0.44,0.41,0.69,0.92,0.44c1.53-0.76,3.08-1.5,4.61-2.27
		C36.45,159.6,36.51,159.26,36.4,158.91z"/>
	<path class="st0" d="M100.08,224.2c1.25-2.13,2.43-4.31,3.71-6.65c0,0,1.11-2.11,2.07-4.14c0.03-0.2,0.11-0.42,0.25-0.66
		c0.13-0.23,0.25-0.46,0.37-0.69c0.04-0.08,0.08-0.16,0.11-0.24c0.08-0.15,0.15-0.31,0.22-0.46c0.08-0.18,0.16-0.36,0.24-0.54
		c0.04-0.09,0.08-0.17,0.11-0.26c0.11-0.27,0.22-0.54,0.32-0.81c0.24-0.63,1.19-1.53,0.22-1.92c-0.84-0.34-0.95,0.93-1.25,1.56
		c-2.18,4.6-4.38,9.2-6.97,13.59c-1.94,3.3-4.2,6.32-7.3,8.63c-5.29,3.94-12.07,4.03-18.25,0.32c-5.59-3.35-9.63-8.15-12.98-13.63
		c-7.19-11.75-13.38-24.03-19.46-36.37c-2.29-4.64-5.11-8.96-7.71-13.41c-0.31-0.53-0.59-1-0.83-1.43c-0.18,0.11-0.62,0.36-0.85,0.4
		c7.37,12.47,13.42,25.62,20.35,38.31c0,0,0.82,1.43,2.45,4.36c0.06,0.1,0.13,0.22,0.19,0.34c3.09,5.67,6.2,11.37,10.63,16.17
		c4.07,4.4,8.73,7.84,14.75,8.89c4.02,0.72,6.85-0.28,6.85-0.28c0.23-0.13,0.53-0.24,0.91-0.37C93.71,233.07,97.27,229,100.08,224.2
		z"/>
	<path class="st0" d="M33.04,167.03l-0.08,0.04c0,0,0,0.01,0.01,0.01C33.01,167.05,33.04,167.03,33.04,167.03z"/>
	<path class="st0" d="M32.04,167.48c0.02,0,0.05,0,0.07,0c0-0.01-0.01-0.02-0.01-0.02L32.04,167.48z"/>
	<path class="st0" d="M32.96,167.07l-0.86,0.39c0,0.01,0.01,0.02,0.01,0.02C32.34,167.44,32.79,167.18,32.96,167.07
		C32.96,167.07,32.96,167.07,32.96,167.07z"/>
</g>
<g>
	<path class="st5" d="M187.33,186.04c3.64,0.3,5.34-1.11,5.92-4.92c-3.19,0.63-6.11,0.5-8.85-0.94c-1.11-0.58-2.25-1.1-3.07,0.19
		c-0.79,1.23-0.48,2.5,0.55,3.57C183.36,185.5,185.32,185.87,187.33,186.04z"/>
	<path class="st5" d="M195.45,172.57c-0.02,0-0.04,0-0.06-0.01c0.01,0.01,0.02,0.03,0.04,0.04
		C195.44,172.6,195.45,172.58,195.45,172.57C195.45,172.57,195.45,172.57,195.45,172.57z"/>
	<path class="st5" d="M194.34,179.28c2.45-1.48,2.97-4.73,1.09-6.68c-2.18,3.21-4.01,3.71-7.67,2.11c-0.44-0.19-0.88-0.39-1.3-0.63
		c-1.23-0.7-2.53-1.15-3.44,0.33c-0.89,1.46-0.68,2.85,0.75,4.02C186.36,180.53,191.52,180.99,194.34,179.28z"/>
	<path class="st5" d="M79.95,190.33c1.73-3.38,3.78-6.1,6.06-8.67c2.27-2.56,5.03-4.54,7.96-6.64c-8.83-4.92-17.35-9.76-27.24-13.14
		C70.32,172,74.98,181.04,79.95,190.33z"/>
	<path class="st5" d="M195.58,172.34c-0.02-0.05-0.1-0.07-0.16-0.11c0.01,0.11,0.02,0.22,0.03,0.33
		C195.6,172.58,195.65,172.5,195.58,172.34z"/>
	<path class="st5" d="M200,162.34c6.9-1.24,13.81-2.37,20.72-3.55c0.37-0.06,0.87,0.03,1.04-0.63c-1.32-1.42-3.17-2.3-4.56-3.65
		c-3.16-3.05-6.58-3.48-10.46-1.82c-0.94,0.18-1.88,0.37-2.83,0.53c-0.42,0.07-0.88,0.06-0.93-0.5c-0.04-0.46,0.41-0.47,0.71-0.56
		c0.85-0.25,1.71-0.47,2.57-0.71c1.55-0.14,3.06-0.42,4.8-1.16c-5.72-4.02-11.19-7.86-17.18-12.07c0.96,5.01,1.82,9.48,2.67,13.95
		c0.03,1.41,0.17,2.8,0.79,4.1c0.26,1.55,0.59,3.1,0.74,4.66C198.22,162.24,198.66,162.58,200,162.34z"/>
	<path class="st5" d="M245.21,243.1c-0.16-0.62-0.33-1.23-0.49-1.85c-2.43-8.53-6.53-16.17-12.45-22.77
		c-2.23-2.49-4.45-5.06-7.54-6.59c-0.88-0.98-1.95-1.68-3.15-2.2c-7.53-5.76-18.92-6.2-26.8-1.03c-0.33,0.2-0.66,0.4-0.99,0.6
		c-6.23,3.69-10.5,9.22-14.24,15.22c-3.04,4.87-5.04,10.24-7.14,15.55c-2.62,6.64-5.28,13.27-7.5,20.06
		c-0.27,0.83-0.2,1.41,0.55,1.96c5.19,3.74,10.4,7.46,15.87,10.79c0.88,1.01,2.12,1.52,3.21,2.22c4.41,2.8,8.85,5.53,13.27,8.3
		c0.68,0.43,1.29,0.87,1.82-0.19c1.42-2.82,3.1-5.5,4.09-8.53c0.16-0.3,0.34-0.59,0.47-0.91c4.89-11.34,7.91-23.22,10.37-35.28
		c0.12-0.58-0.09-1.37,0.8-1.67c0.39,0.85,0.02,1.58-0.11,2.29c-1.46,7.78-3.38,15.44-5.78,22.99c-0.23,0.73-0.77,1.45,0.04,2.27
		c2.22,2.24,4.25,4.68,6.68,6.71c0.29,0.27,0.58,0.54,0.88,0.8c3.91,3.65,8.15,6.82,13.37,8.34c4.76,1.38,9.35,1.18,13.1-2.55
		c2.58-2.57,3.72-5.88,4.09-9.46C248.94,259.61,247.49,251.31,245.21,243.1z"/>
	<path class="st5" d="M197.11,284.39c-2.84-1.68-5.63-3.44-8.43-5.2c-3.83-2.4-7.65-4.83-11.47-7.24c-3.26-2.29-6.51-4.57-9.77-6.86
		c-0.95-0.67-1.83-1.76-2.86-1.93c-1.51-0.25-0.6,2.05-1.89,2.43c-0.54-0.77,0.01-1.46,0.2-2.13c0.22-0.81,0.26-1.43-0.52-1.97
		c-2.52-1.78-5.01-3.6-7.52-5.4c-0.92-0.74-1.85-1.48-2.77-2.22c-3.11-2.42-6.22-4.85-9.33-7.27c-0.99-0.78-1.98-1.56-2.97-2.34
		c-4.69-4.03-9.39-8.05-14.06-12.11c-0.88-0.76-1.36-0.79-1.61,0.47c-0.49,2.49-1.11,4.96-1.52,7.47
		c-1.55,9.54-1.21,19.01,1.33,28.37c1.37,6.69,4,12.91,7.61,18.64c4.22,6.69,9.61,12.15,17.24,15.1
		c18.74,7.25,38.54,0.89,48.82-15.74C198.22,285.41,198.11,284.98,197.11,284.39z"/>
	<path class="st5" d="M139.68,242.34c0.88,0.86,1.73,1.77,2.91,2.24c3.54,3.2,7.35,6.07,11.19,8.89c0.81,0.73,1.61,1.49,2.65,1.9
		c2.2,1.95,4.61,3.62,7.05,5.24c1.62-2.05,1.24-4.62,1.64-6.8c0.78-4.28,3.16-8.03,3.51-12.36c0.23,0.06,0.51,0.28,0.65-0.06
		c0.04-0.1-0.19-0.31-0.29-0.47c0.11-0.07,0.2-0.16,0.27-0.27c0.75-0.48-0.12-0.56-0.2-0.83c0.27-0.35,0.54-0.69,0.81-1.04
		c0.85-1.02,1.81-2,1.37-3.52c0.18-0.21,0.36-0.43,0.54-0.64c1.69-1.97,2.02-4.63,3.45-6.76c0.66-0.98,1.21-2.23,0.26-3.46
		c-0.64-1.59-1.17-3.24-1.94-4.76c-2.68-5.3-5.68-10.37-10.96-13.58c-0.37-0.33-0.7-0.74-1.25-0.78c-4.4-2.57-9.06-2.9-13.92-1.69
		c-0.41,0.1-0.81,0.19-1.22,0.29c-1.87,0.3-3.53,1.15-5.09,2.13c-8.55,5.34-12.86,13.66-15.91,22.84c-0.23,0.69-0.08,1.17,0.46,1.63
		C130.31,234.46,134.83,238.6,139.68,242.34z"/>
	<path class="st5" d="M187.21,189.33c0.29-0.43,0.84-1.03,0.64-1.72c-0.21-0.72-1.04-0.42-1.6-0.52c-1.36-0.24-2.69-0.57-3.9-1.27
		c-0.78-0.45-1.47-1.5-2.42-0.28c-0.8,1.02-0.94,2.11-0.23,3.25C180.97,190.84,185.49,191.25,187.21,189.33z"/>
	<path class="st0" d="M248.75,266.77c0.71-6.24-0.08-12.4-1.36-18.49c-3.34-15.93-10.48-29.52-24.33-38.88
		c-8.78-5.93-17.95-6.9-27.55-2.11c-5.48,2.73-9.88,6.74-13.42,11.69c-1.67,2.34-3.18,4.79-4.87,7.36
		c-3.65-9.54-7.88-18.51-17.87-23.14c1.09-1.09,2.1-2.11,3.11-3.13c4.02-4.07,8.57-7.32,14.03-9.2c1.47-0.5,2.76-0.63,4.31,0.17
		c3.62,1.86,6.64,0.61,8.23-3.16c0.22-0.53,0.54-0.72,1.03-0.85c2.67-0.73,3.89-2.66,4.31-5.24c0.1-0.6,0.12-1.15,0.67-1.64
		c3.53-3.16,3.65-6.1,0.44-9.73c-0.37-0.42-0.77-0.81-0.72-1.42c0.07-0.74,1.11-2.16,2.29-3.38l-0.9-0.77
		c-0.38,0.76-0.87,1.49-1.49,2.22c-0.62,0.73-0.92,0.92-1.74,0.23c-2.08-1.75-4.46-3.04-7.2-3.37c-10.18-1.24-19.78,0.37-28.5,6.05
		c-5.49,3.58-10.1,8.1-13.8,13.51c-0.8,1.16-1.32,1.48-2.4,0.25c-1.18-1.34-2.56-2.51-3.93-3.66
		c-12.27-10.31-25.78-12.68-40.61-6.18c-1.05,0.46-1.77,0.28-2.66-0.24c-8.48-4.87-17.03-9.61-26.37-12.68
		c-1.71-0.56-1.61-1.84-1.46-3.14c0.07-0.6,0.43-1.16,0.63-1.74c1.01-3.01,2.02-6.02,1.89-9.25c-0.07-1.76-1-2.99-2.57-3.69
		c-1.43-0.63-2.67-0.08-3.82,0.81c-0.89,0.69-1.56,1.53-2.2,2.44c-1.65,2.36-2.66,5.06-4.05,7.84l-1.04,0.58
		c0.14,0.54-0.02,1.08-1.1,1.63c-3.83,1.95-5.45,5.47-5.71,9.66c-0.03,0.45-0.19,1.1,0.49,1.15c0.7,0.05,0.6-0.63,0.63-1.08
		c0.32-4.61,2.38-8,6.87-9.59c0.82-0.29,0.7-0.95,0.9-1.46c1.23-3.22,2.55-6.41,4.75-9.11c1.01-1.24,2.17-2.52,4.02-1.71
		c1.78,0.77,1.83,2.39,1.67,4.05c-0.26,2.7-0.98,5.3-2.01,7.77c-0.67,1.59-0.64,2.99-0.15,4.57c2.97,9.44,7.48,18.19,12.02,26.92
		c2.45,4.7,5.1,9.28,7.68,13.9c0.28,0.5,0.49,1.5,1.18,1.12c0.91-0.49,0.01-1.19-0.25-1.74c-0.44-0.93-0.97-1.82-1.47-2.72
		c-0.61-1.08-1.06-2.29-1.85-3.2c-2.16-2.49-1.49-4.7,0.14-7.17c7.77-11.77,18.74-17.07,32.7-16.19c3.73,0.23,7.42,1.07,10.8,2.86
		c0.09,0,0.15,0.04,0.18,0.13l0.17,0.09c1.64,0.43,3.08,1.23,4.38,2.3c0.63,0.78,1.52,1.17,2.33,1.7
		c5.86,3.8,10.31,8.99,14.11,14.79c0.08,0.12,0.15,0.23,0.21,0.35c0.23,0.42,0.47,1,1.05,0.67c0.59-0.34,0.16-0.82-0.08-1.22
		c-1.27-2.14-2.69-4.17-4.35-6.01c-0.87-0.97-0.91-1.68-0.11-2.79c9.69-13.52,22.38-20.95,39.44-19.68
		c3.49,0.26,6.61,1.35,9.16,3.78c1.25,1.19,2.21,2.62,1.18,4.39c-1.03,1.77-2.69,1.64-4.38,1.12c-1.94-0.59-3.64-1.63-5.23-2.86
		c-0.33-0.26-0.73-0.57-1.12-0.32c-0.48,0.31-0.22,0.7,0.12,0.99c0.51,0.43,0.2,0.65-0.19,0.91c-0.29,0.18-0.58,0.4-0.78,0.66
		c-1.19,1.54-0.1,3.5-0.62,4.84c-0.53,1.38-2.19,2.36-1.75,4.26c0.08,0.33,0.37,0.85,0.25,0.96c-1.56,1.53-2.39,3.26-1.87,5.5
		c0.01,0.05-0.55,0.26-0.86,0.35c-6.56,1.87-11.83,5.76-16.47,10.61c-0.29,0.3-0.58,0.59-0.85,0.91c-1.21,1.38-2.51,1.8-4.49,1.49
		c-7.76-1.21-14.4,1.37-19.96,6.78c-5.2,5.07-8.52,11.3-10.74,18.13c-0.11,0.35-0.22,0.64-0.34,0.87l-1.18,4.05
		c-2.88,10.9-3.36,21.89-1.13,32.97c1.57,7.82,4.31,15.19,8.4,22.07c6.71,11.27,16.62,17.36,29.56,18.53
		c16.3,1.47,28.77-5.11,37.8-18.51c0.11-0.16,0.21-0.29,0.31-0.42c1.11-1.64,1.88-3.03,1.88-3.03c3.47-6.04,6.1-12.46,8.47-19.22
		c2.84,3.04,5.54,5.97,8.59,8.55c5.02,4.26,10.26,8.03,17.12,8.56c1.55,0.12,2.49,0.02,2.94-0.06c0.11-0.02,0.22-0.05,0.33-0.07
		c2.07-0.48,3.88-1.14,5.43-2.42C246.98,275.97,248.21,271.5,248.75,266.77z M86.02,181.65c-2.28,2.57-4.33,5.29-6.06,8.67
		c-4.97-9.28-9.63-18.33-13.22-28.46c9.89,3.38,18.41,8.22,27.24,13.14C91.04,177.12,88.29,179.09,86.02,181.65z M183.03,174.41
		c0.9-1.47,2.2-1.03,3.44-0.33c0.42,0.24,0.86,0.44,1.3,0.63c3.66,1.6,5.48,1.1,7.67-2.11c-0.01-0.01-0.02-0.03-0.04-0.04
		c0.02,0,0.04,0.01,0.06,0.01c-0.01-0.11-0.02-0.22-0.03-0.33c0.05,0.03,0.13,0.06,0.16,0.11c0.07,0.16,0.02,0.23-0.12,0.23
		c0,0,0,0,0,0c-0.01,0.01-0.02,0.02-0.02,0.03c1.88,1.95,1.36,5.2-1.09,6.68c-2.82,1.7-7.98,1.25-10.57-0.85
		C182.35,177.26,182.13,175.87,183.03,174.41z M181.32,180.36c0.83-1.29,1.97-0.77,3.07-0.19c2.74,1.44,5.66,1.57,8.85,0.94
		c-0.57,3.82-2.28,5.23-5.92,4.92c-2.01-0.17-3.97-0.54-5.46-2.1C180.84,182.86,180.53,181.6,181.32,180.36z M179.93,185.55
		c0.95-1.22,1.64-0.17,2.42,0.28c1.2,0.69,2.54,1.02,3.9,1.27c0.55,0.1,1.39-0.2,1.6,0.52c0.2,0.68-0.36,1.29-0.64,1.72
		c-1.72,1.91-6.25,1.51-7.51-0.53C178.99,187.66,179.14,186.57,179.93,185.55z M125.19,228.85c3.06-9.18,7.37-17.5,15.91-22.84
		c1.57-0.98,3.23-1.83,5.09-2.13c0.41-0.1,0.81-0.19,1.22-0.29c4.85-1.21,9.52-0.88,13.92,1.69c0.55,0.04,0.88,0.45,1.25,0.78
		c5.27,3.22,8.28,8.28,10.96,13.58c0.77,1.52,1.3,3.17,1.94,4.76c0.95,1.23,0.4,2.48-0.26,3.46c-1.43,2.13-1.75,4.79-3.45,6.76
		c-0.18,0.21-0.36,0.43-0.54,0.64c0.44,1.52-0.53,2.5-1.37,3.52c-0.27,0.35-0.54,0.69-0.81,1.04c0.08,0.27,0.95,0.36,0.2,0.83
		c-0.07,0.11-0.16,0.2-0.27,0.27c0.11,0.16,0.34,0.37,0.29,0.47c-0.14,0.34-0.42,0.12-0.65,0.06c-0.35,4.33-2.72,8.09-3.51,12.36
		c-0.4,2.18-0.01,4.75-1.64,6.8c-2.44-1.62-4.85-3.28-7.05-5.24c-1.04-0.41-1.84-1.17-2.65-1.9c-3.84-2.82-7.65-5.69-11.19-8.89
		c-1.18-0.47-2.03-1.38-2.91-2.24c-4.85-3.74-9.37-7.88-14.03-11.85C125.12,230.02,124.96,229.54,125.19,228.85z M197.58,286.45
		c-10.27,16.63-30.07,22.98-48.82,15.74c-7.63-2.95-13.03-8.41-17.24-15.1c-3.61-5.73-6.24-11.95-7.61-18.64
		c-2.54-9.36-2.88-18.83-1.33-28.37c0.41-2.51,1.03-4.98,1.52-7.47c0.25-1.26,0.73-1.23,1.61-0.47c4.67,4.05,9.37,8.08,14.06,12.11
		c0.99,0.78,1.98,1.56,2.97,2.34c3.11,2.42,6.22,4.85,9.33,7.27c0.92,0.74,1.85,1.48,2.77,2.22c2.5,1.8,5,3.62,7.52,5.4
		c0.77,0.55,0.74,1.16,0.52,1.97c-0.18,0.67-0.74,1.36-0.2,2.13c1.29-0.38,0.38-2.68,1.89-2.43c1.03,0.17,1.91,1.26,2.86,1.93
		c3.25,2.29,6.51,4.58,9.77,6.86c3.82,2.41,7.64,4.84,11.47,7.24c2.8,1.75,5.59,3.52,8.43,5.2
		C198.11,284.98,198.22,285.41,197.58,286.45z M243.54,277.63c-3.75,3.74-8.34,3.93-13.1,2.55c-5.22-1.51-9.46-4.68-13.37-8.34
		c-0.29-0.27-0.58-0.54-0.88-0.8c-2.44-2.03-4.46-4.47-6.68-6.71c-0.81-0.82-0.27-1.54-0.04-2.27c2.4-7.54,4.32-15.21,5.78-22.99
		c0.13-0.71,0.5-1.44,0.11-2.29c-0.89,0.3-0.68,1.09-0.8,1.67c-2.46,12.05-5.48,23.94-10.37,35.28c-0.13,0.31-0.31,0.6-0.47,0.91
		c-0.99,3.02-2.67,5.71-4.09,8.53c-0.53,1.06-1.15,0.61-1.82,0.19c-4.42-2.77-8.87-5.5-13.27-8.3c-1.1-0.7-2.33-1.2-3.21-2.22
		c-5.47-3.33-10.68-7.05-15.87-10.79c-0.76-0.54-0.83-1.13-0.55-1.96c2.23-6.79,4.88-13.42,7.5-20.06c2.1-5.31,4.1-10.67,7.14-15.55
		c3.74-6,8.01-11.53,14.24-15.22c0.33-0.2,0.66-0.4,0.99-0.6c7.88-5.17,19.27-4.74,26.8,1.03c1.2,0.51,2.28,1.22,3.15,2.2
		c3.09,1.53,5.31,4.1,7.54,6.59c5.92,6.61,10.02,14.24,12.45,22.77c0.16,0.62,0.33,1.23,0.49,1.85c2.29,8.21,3.74,16.51,2.43,25.07
		C247.26,271.75,246.12,275.06,243.54,277.63z"/>
</g>
</svg>
