<?xml version="1.0" encoding="utf-8"?>
<!-- Generator: Adobe Illustrator 23.1.1, SVG Export Plug-In . SVG Version: 6.00 Build 0)  -->
<svg version="1.1" id="Calque_1" xmlns="http://www.w3.org/2000/svg" xmlns:xlink="http://www.w3.org/1999/xlink" x="0px" y="0px"
	 viewBox="0 0 53.24 53" style="enable-background:new 0 0 53.24 53;" xml:space="preserve">
<style type="text/css">
	.st0{opacity:0.5;fill:#EFEFEF;}
	.st1{fill:#93A6AF;}
	.st2{fill:#0D0E0E;}
	.st3{fill:#F3F3F1;}
	.st4{fill:#D3D9DE;}
	.st5{fill:#EE3355;}
	.st6{fill:#CC3256;}
</style>
<g>
	<g>
		<path class="st0" d="M22.38,52.45c-3.53,0.05-6.83-0.37-10-1.53c-1.57-0.57-3.06-1.32-4.29-2.47c-0.94-0.88-1.67-1.96-2.33-3.06
			c-1.1-1.84-1.99-3.77-2.49-5.87c-0.71-2.94-0.25-5.66,1.35-8.23c1.57-2.52,3.44-4.82,5.19-7.2c1.51-2.06,2.93-4.19,3.71-6.65
			c0.47-1.48,0.64-2.99,0.41-4.56c-0.3-2.06,0.29-3.89,1.62-5.49c2.36-2.86,5.53-4.34,9.04-5.19c2.5-0.6,5.03-0.64,7.58-0.27
			c3.6,0.53,6.71,2.08,9.55,4.3c2.51,1.96,4.6,4.28,6.23,6.99c1.37,2.29,2.29,4.77,2.76,7.41c0.29,1.64,0.49,3.28,0.46,4.94
			c-0.06,2.85-0.5,5.65-1.28,8.39c-0.62,2.19-1.4,4.33-2.39,6.38c-1.04,2.14-2.55,3.93-4.36,5.48c-2.01,1.71-4.29,2.97-6.71,3.98
			c-2.32,0.97-4.74,1.62-7.22,2.05C26.89,52.27,24.56,52.5,22.38,52.45z M26.64,44.47c4.46,0,8.93,0.01,13.39,0
			c1.84,0,3.13-1.26,3.15-3.07c0.02-2,0.02-4.01,0-6.01c-0.01-1.21-0.56-2.11-1.65-2.68c-3.87-2.02-7.97-3.23-12.32-3.56
			c-6.1-0.47-11.87,0.71-17.32,3.5c-1.21,0.62-1.78,1.57-1.77,2.9c0.01,1.84,0,3.69,0,5.53c0,2.18,1.21,3.39,3.37,3.39
			C17.87,44.47,22.25,44.47,26.64,44.47z M26.66,26.67c4.93-0.03,8.93-4.05,8.89-8.95c-0.05-4.92-4.06-8.87-8.99-8.85
			c-4.85,0.02-8.86,4.08-8.83,8.95C17.76,22.71,21.79,26.7,26.66,26.67z"/>
		<path class="st1" d="M11.41,3.28c0.03,0.18-0.01,0.31-0.21,0.36c-0.06,0.01-0.11,0.03-0.17,0.05C9.88,4.06,9.88,4.06,9.56,2.92
			C9.39,2.32,9.24,1.7,9.07,1.1C8.99,0.84,9.01,0.67,9.31,0.63C9.35,0.62,9.39,0.6,9.43,0.59c1.19-0.37,1.19-0.36,1.51,0.86
			c0.15,0.57,0.31,1.14,0.46,1.71C11.4,3.2,11.4,3.24,11.41,3.28z"/>
		<path class="st1" d="M6.13,8.5c-0.28,0.04-0.37-0.06-0.41-0.2C5.63,7.93,5.54,7.57,5.45,7.2C5.4,6.99,5.51,6.9,5.72,6.84
			C6.56,6.62,7.4,6.39,8.23,6.16c0.3-0.08,0.46,0.01,0.55,0.33c0.34,1.19,0.36,1.19-0.81,1.52C7.33,8.19,6.68,8.35,6.13,8.5z"/>
		<path class="st2" d="M26.64,44.47c-4.38,0-8.77,0-13.15,0c-2.17,0-3.37-1.21-3.37-3.39c0-1.84,0-3.69,0-5.53
			c0-1.33,0.57-2.28,1.77-2.9c5.45-2.8,11.22-3.98,17.32-3.5c4.34,0.34,8.45,1.54,12.32,3.56c1.09,0.57,1.64,1.47,1.65,2.68
			c0.02,2,0.02,4.01,0,6.01c-0.02,1.82-1.31,3.07-3.15,3.07C35.56,44.47,31.1,44.47,26.64,44.47z M14.38,41.86
			c0.08,0.01,0.16,0.03,0.23,0.03c8.43,0,16.86,0,25.29,0.01c0.56,0,0.71-0.22,0.71-0.74c-0.02-1.82-0.02-3.65,0-5.47
			c0.01-0.43-0.12-0.66-0.52-0.86c-6.04-3.04-12.39-3.92-19.02-2.7c-2.27,0.42-4.48,1.09-6.56,2.12c-0.46,0.21-0.92,0.44-1.39,0.63
			c-0.32,0.13-0.43,0.33-0.42,0.68c0.02,1.6,0.01,3.21,0.01,4.81C12.69,42,12.69,42,14.38,41.86z"/>
		<path class="st3" d="M14.5,34.25c2.08-1.03,4.29-1.7,6.56-2.12c6.64-1.22,12.98-0.34,19.02,2.7c0.4,0.2,0.53,0.43,0.52,0.86
			c-0.02,1.82-0.03,3.65,0,5.47c0.01,0.53-0.15,0.75-0.71,0.74c-8.43-0.01-16.86-0.01-25.29-0.01c-0.08,0-0.16-0.02-0.23-0.03
			c0-1.42-0.02-2.84,0-4.26C14.4,36.48,14.26,35.36,14.5,34.25z"/>
		<path class="st2" d="M26.66,26.67c-4.88,0.03-8.9-3.96-8.93-8.84c-0.03-4.87,3.98-8.93,8.83-8.95c4.93-0.02,8.95,3.93,8.99,8.85
			C35.6,22.62,31.6,26.64,26.66,26.67z M23.91,12.1c-2.04,0.81-3.54,3.11-3.59,5.5c-0.05,2.57,1.36,4.88,3.59,5.87
			c0.69,0.38,1.44,0.58,2.2,0.62c2.7,0.14,4.81-0.94,6.09-3.32c1.27-2.37,1.04-4.74-0.58-6.91C29.88,11.52,26.29,10.72,23.91,12.1z"
			/>
		<path class="st4" d="M14.5,34.25c-0.24,1.11-0.1,2.24-0.12,3.36c-0.02,1.42,0,2.84,0,4.26C12.69,42,12.69,42,12.69,40.37
			c0-1.6,0.01-3.21-0.01-4.81c0-0.35,0.1-0.55,0.42-0.68C13.58,34.69,14.04,34.46,14.5,34.25z"/>
		<path class="st5" d="M23.91,12.1c2.38-1.39,5.97-0.58,7.72,1.77c1.61,2.17,1.85,4.53,0.58,6.91c-1.28,2.38-3.39,3.46-6.09,3.32
			c-0.77-0.04-1.52-0.24-2.2-0.62c0.02-0.2-0.11-0.32-0.21-0.47c-1.71-2.43-2.13-5.06-1.3-7.91C22.72,14,23.38,13.09,23.91,12.1z"/>
		<path class="st6" d="M23.91,12.1c-0.53,0.99-1.19,1.9-1.51,2.99c-0.83,2.85-0.41,5.49,1.3,7.91c0.1,0.15,0.23,0.27,0.21,0.47
			c-2.23-0.99-3.64-3.3-3.59-5.87C20.37,15.21,21.87,12.91,23.91,12.1z"/>
	</g>
</g>
</svg>
