<?xml version="1.0" encoding="utf-8"?>
<!-- Generator: Adobe Illustrator 23.1.1, SVG Export Plug-In . SVG Version: 6.00 Build 0)  -->
<svg version="1.1" id="Calque_1" xmlns="http://www.w3.org/2000/svg" xmlns:xlink="http://www.w3.org/1999/xlink" x="0px" y="0px"
	 viewBox="0 0 46 53" style="enable-background:new 0 0 46 53;" xml:space="preserve">
<style type="text/css">
	.st0{opacity:0.5;fill:#EEEDEE;}
	.st1{fill:#090909;}
	.st2{fill:#D4DAE0;}
	.st3{fill:#F2F2F0;}
	.st4{fill:#EEEDEE;}
	.st5{fill:#EE3355;}
</style>
<g>
	<g>
		<path class="st0" d="M8.9,4.09c0.61-0.62,1.41-0.89,2.18-1.21c1.38-0.57,2.83-0.83,4.31-0.83c1.52-0.01,2.97,0.43,4.39,0.93
			c2.81,0.99,5.57,2.14,8.45,2.93c1.65,0.45,3.33,0.79,5.04,0.98c1.16,0.13,2.32,0.15,3.48,0.19c2.05,0.07,3.9,0.71,5.34,2.23
			c1.27,1.35,2,3.01,2.46,4.8c0.58,2.25,0.62,4.55,0.47,6.84c-0.26,3.86-1.24,7.57-2.68,11.16c-0.58,1.44-1.25,2.85-2,4.22
			c-0.1,0.18-0.17,0.4-0.41,0.45c-0.01-0.18-0.03-0.36-0.03-0.54c0-7.48,0-14.97,0-22.45c0-2.5-1.64-4.14-4.14-4.14
			c-8.49,0-16.98,0-25.46,0c-2.47,0-4.11,1.65-4.11,4.11c0,8.5,0,17.01,0,25.51c0,0.4,0.03,0.79,0.13,1.17
			c0.48,1.82,1.99,2.92,4,2.92c8.09,0,16.19,0,24.28,0c0.2,0,0.39,0.02,0.59,0.03c-0.35,0.67-0.95,1.12-1.49,1.61
			c-1.05,0.96-2.17,1.84-3.37,2.62c-2.52,1.65-5.27,2.7-8.24,3.16c-3.46,0.54-6.79-0.01-9.94-1.51c-3.3-1.57-5.82-4.03-7.65-7.2
			c-1.54-2.68-2.42-5.58-2.96-8.59c-0.22-1.25-0.34-2.52-0.44-3.79c-0.16-2.14-0.14-4.27-0.06-6.4c0.16-3.78,0.65-7.52,1.94-11.11
			c0.68-1.9,1.59-3.67,2.81-5.27c0.1-0.13,0.24-0.22,0.35-0.34C6.28,6.84,6.4,7.11,6.56,7.35c0.61,0.93,1.82,1.2,2.81,0.63
			c0.92-0.53,1.28-1.72,0.83-2.7C9.93,4.7,9.45,4.37,8.9,4.09z"/>
		<path class="st1" d="M35.17,43.41c-0.2-0.01-0.39-0.03-0.59-0.03c-8.09,0-16.19,0-24.28,0c-2.02,0-3.53-1.11-4-2.92
			c-0.1-0.38-0.13-0.78-0.13-1.17c0-8.5,0-17.01,0-25.51c0-2.46,1.65-4.11,4.11-4.11c8.49,0,16.98,0,25.46,0
			c2.5,0,4.14,1.64,4.14,4.14c0,7.48,0,14.97,0,22.45c0,0.18,0.02,0.36,0.03,0.54c-0.01,0.88-0.01,1.77-0.03,2.65
			c-0.05,2.26-1.67,3.88-3.93,3.94C35.7,43.39,35.43,43.4,35.17,43.41z M10.88,41.23c0.08,0.01,0.16,0.03,0.24,0.03
			c8.27,0,16.55,0,24.82,0c0.35,0,0.69-0.06,0.99-0.25c0.65-0.42,0.84-1.03,0.84-1.78c-0.01-8.44-0.02-16.87,0.01-25.31
			c0.01-1.38-0.81-2.15-2.13-2.15c-8.06,0.04-16.12,0.02-24.18,0.02c-0.2,0-0.39,0.02-0.59,0.03c-0.54-0.03-1.09-0.11-1.6,0.14
			c-0.75,0.37-1,1.01-1,1.82c0.01,8.5,0.01,16.99,0.01,25.49c0,0.15,0,0.3,0.01,0.44c0.07,0.8,0.74,1.47,1.55,1.53
			C10.19,41.27,10.54,41.24,10.88,41.23z"/>
		<path class="st2" d="M8.9,4.09c0.54,0.28,1.03,0.61,1.3,1.19c0.45,0.98,0.09,2.17-0.83,2.7c-0.99,0.57-2.2,0.3-2.81-0.63
			C6.4,7.11,6.28,6.84,6.14,6.58C6.1,5.61,6.41,4.81,7.29,4.3C7.79,4.01,8.35,4.02,8.9,4.09z M8.25,6.87
			c0.36,0.01,0.73-0.31,0.75-0.65c0.02-0.34-0.32-0.7-0.67-0.71C7.89,5.48,7.63,5.71,7.63,6.13C7.62,6.58,7.86,6.85,8.25,6.87z"/>
		<path class="st3" d="M10.88,11.82c0.2-0.01,0.39-0.03,0.59-0.03c8.06,0,16.12,0.02,24.18-0.02c1.32-0.01,2.14,0.77,2.13,2.15
			c-0.04,8.44-0.02,16.87-0.01,25.31c0,0.74-0.19,1.36-0.84,1.78c-0.3,0.19-0.63,0.25-0.99,0.25c-8.27,0-16.55,0-24.82,0
			c-0.08,0-0.16-0.02-0.24-0.03c-0.59-0.97-0.5-2.04-0.5-3.11c0-7.73,0-15.46,0-23.19C10.39,13.86,10.29,12.79,10.88,11.82z
			 M19.51,30.68c0,1.25-0.01,2.5,0,3.75c0.01,1.22,0.72,1.92,1.94,1.92c0.99,0.01,1.97,0,2.96,0c1.48,0,2.13-0.65,2.13-2.13
			c0-2.43,0.01-4.87-0.01-7.3c0-0.32,0.09-0.41,0.41-0.4c1.12,0.02,2.24,0,3.35,0.01c0.49,0,0.87-0.19,1.06-0.65
			c0.19-0.45,0.07-0.86-0.27-1.22c-2.4-2.51-4.79-5.02-7.19-7.52c-0.56-0.59-1.19-0.58-1.75,0.01c-2.39,2.49-4.77,4.99-7.16,7.49
			c-0.35,0.37-0.49,0.78-0.29,1.26c0.21,0.48,0.61,0.64,1.12,0.64c1.09-0.01,2.17,0.02,3.26-0.01c0.39-0.01,0.45,0.12,0.45,0.47
			C19.5,28.22,19.51,29.45,19.51,30.68z"/>
		<path class="st2" d="M10.88,11.82c-0.59,0.97-0.5,2.04-0.5,3.11c0,7.73,0,15.46,0,23.19c0,1.06-0.1,2.14,0.5,3.11
			c-0.34,0.01-0.69,0.04-1.03,0.01c-0.81-0.06-1.47-0.72-1.55-1.53c-0.01-0.15-0.01-0.3-0.01-0.44c0-8.5,0-16.99-0.01-25.49
			c0-0.81,0.25-1.45,1-1.82C9.8,11.71,10.35,11.79,10.88,11.82z"/>
		<path class="st4" d="M8.25,6.87C7.86,6.85,7.62,6.58,7.63,6.13C7.63,5.71,7.89,5.48,8.32,5.5c0.35,0.02,0.69,0.38,0.67,0.71
			C8.97,6.56,8.61,6.88,8.25,6.87z"/>
		<path class="st1" d="M19.51,30.68c0-1.23-0.01-2.47,0.01-3.7c0.01-0.35-0.05-0.48-0.45-0.47c-1.08,0.03-2.17,0-3.26,0.01
			c-0.51,0.01-0.91-0.16-1.12-0.64c-0.2-0.48-0.06-0.89,0.29-1.26c2.39-2.49,4.77-4.99,7.16-7.49c0.57-0.59,1.19-0.6,1.75-0.01
			c2.4,2.51,4.79,5.02,7.19,7.52c0.34,0.36,0.46,0.76,0.27,1.22c-0.19,0.46-0.57,0.65-1.06,0.65c-1.12-0.01-2.24,0.01-3.35-0.01
			c-0.32-0.01-0.41,0.08-0.41,0.4c0.01,2.43,0.01,4.87,0.01,7.3c0,1.48-0.65,2.13-2.13,2.13c-0.99,0-1.97,0-2.96,0
			c-1.23-0.01-1.93-0.7-1.94-1.92C19.5,33.18,19.51,31.93,19.51,30.68z M18.14,24.43c0.88,0,1.62,0,2.37,0
			c0.37,0,0.68,0.12,0.9,0.42c0.22,0.29,0.24,0.64,0.24,0.99c0,2.63,0.01,5.26-0.01,7.9c0,0.37,0.06,0.53,0.48,0.5
			c0.61-0.04,1.22-0.03,1.82,0.01c0.39,0.02,0.49-0.1,0.49-0.49c-0.02-2.66-0.01-5.33-0.01-7.99c0-0.98,0.36-1.33,1.34-1.33
			c0.68,0,1.37,0,2.09,0c-0.05-0.1-0.06-0.15-0.08-0.19c-1.51-1.58-3.03-3.16-4.53-4.74c-0.22-0.23-0.32-0.09-0.46,0.06
			c-0.9,0.94-1.79,1.88-2.69,2.82C19.46,23.03,18.85,23.68,18.14,24.43z"/>
		<path class="st5" d="M18.14,24.43c0.71-0.75,1.33-1.4,1.94-2.05c0.9-0.94,1.8-1.88,2.69-2.82c0.14-0.15,0.24-0.29,0.46-0.06
			c1.5,1.59,3.02,3.16,4.53,4.74c0.03,0.03,0.04,0.08,0.08,0.19c-0.72,0-1.4,0-2.09,0c-0.99,0-1.34,0.36-1.34,1.33
			c0,2.66-0.01,5.33,0.01,7.99c0,0.39-0.1,0.51-0.49,0.49c-0.61-0.04-1.22-0.05-1.82-0.01c-0.41,0.02-0.48-0.13-0.48-0.5
			c0.01-2.63,0.01-5.26,0.01-7.9c0-0.35-0.02-0.69-0.24-0.99c-0.22-0.3-0.53-0.42-0.9-0.42C19.76,24.43,19.01,24.43,18.14,24.43z"/>
	</g>
</g>
</svg>
