<?xml version="1.0" encoding="utf-8"?>
<!-- Generator: Adobe Illustrator 23.1.1, SVG Export Plug-In . SVG Version: 6.00 Build 0)  -->
<svg version="1.1" id="Calque_1" xmlns="http://www.w3.org/2000/svg" xmlns:xlink="http://www.w3.org/1999/xlink" x="0px" y="0px"
	 viewBox="0 0 53.24 53" style="enable-background:new 0 0 53.24 53;" xml:space="preserve">
<style type="text/css">
	.st0{opacity:0.5;fill:#F0EFEE;}
	.st1{fill:#F2F2F0;}
	.st2{fill:#040404;}
	.st3{fill:#D3D9DF;}
	.st4{fill:#EE3355;}
	.st5{fill:#CC3256;}
</style>
<g>
	<g>
		<path class="st0" d="M10.07,7.03C9.89,7.07,9.7,7.08,9.53,7.14c-1.38,0.49-2.5,1.33-3.38,2.5c-1.66,2.2-2.24,4.77-2.41,7.44
			c-0.09,1.42-0.07,2.85,0.06,4.28c0.15,1.67,0.42,3.31,0.8,4.94c0.53,2.29,1.27,4.51,2.19,6.68c0.55,1.3,1.18,2.56,1.84,3.8
			c0.07,0.14,0.14,0.27,0.32,0.27c0.1,0.88,0.51,1.58,1.24,2.1c-0.02,0.16,0.07,0.29,0.15,0.42c1.01,1.53,2.14,2.97,3.39,4.3
			c1.13,1.2,2.34,2.3,3.66,3.29c1.83,1.37,3.78,2.49,5.94,3.24c1.8,0.62,3.63,0.99,5.54,1.13c1.24,0.09,2.45,0.01,3.65-0.17
			c2.05-0.31,3.99-1,5.82-2.01c2.08-1.14,3.82-2.67,5.28-4.52c1.72-2.15,2.86-4.6,3.68-7.22c0.89-2.83,1.35-5.74,1.45-8.68
			c0.11-3.3,0.09-6.61-0.36-9.9c-0.34-2.46-0.82-4.88-1.65-7.23c-0.77-2.17-1.84-4.18-3.35-5.93c-1.66-1.93-3.72-3.3-6.2-3.94
			c-1.51-0.39-3.04-0.58-4.62-0.29c-2.21,0.4-4.26,1.29-6.36,2.04c-2.57,0.92-5.14,1.84-7.84,2.38C18.12,6.11,17.76,6,17.56,6.31
			c-0.07,0-0.13,0-0.2,0c-0.07-0.06-0.14-0.08-0.23-0.06c-1.32,0.24-2.64,0.38-3.98,0.38c-0.59,0-1.17-0.04-1.75,0.1
			c-0.53-0.43-0.53-0.43-1.06,0.08C10.25,6.89,10.16,6.96,10.07,7.03z"/>
		<path class="st1" d="M23.22,15.18c0,0-7.27,1.32-6.24,8.14s-0.77,9.8-2.11,10.76c-1.35,0.96-4.79,4.02,0.38,4.61
			s22.1-0.45,22.1-0.45s3.52-0.51,1.15-3.08s-3.31-6.11-3.13-7.51c0,0-0.26-10.49-5.89-12.48c0.69-1.7,1.24-0.78-2.22-0.52
			C23.81,14.92,26.99,14.62,23.22,15.18z"/>
		<path class="st2" d="M15.86,37.26c0.18,0.01,0.37,0.03,0.55,0.03c6.97,0,13.93,0,20.9,0c0.05,0,0.1,0,0.15,0
			c0.22-0.02,0.5,0.07,0.61-0.22c0.11-0.28-0.14-0.42-0.31-0.57c-1.11-0.98-1.98-2.14-2.67-3.45c-0.13-0.25-0.11-0.36,0.16-0.47
			c0.46-0.19,0.92-0.41,1.36-0.64c0.22-0.12,0.34-0.1,0.46,0.14c0.59,1.17,1.4,2.16,2.4,3.01c0.79,0.68,1.03,1.78,0.65,2.76
			c-0.38,0.99-1.27,1.61-2.32,1.62c-2.05,0-4.11,0.01-6.16-0.01c-0.32,0-0.46,0.07-0.55,0.4c-0.63,2.31-2.79,3.94-5.18,3.94
			c-2.36,0-4.55-1.62-5.18-3.88c-0.1-0.37-0.24-0.47-0.6-0.46c-1.88,0.02-3.77,0-5.65,0.02c-0.61,0.01-1.2-0.05-1.75-0.33
			c-0.73-0.51-1.13-1.22-1.24-2.1c0.05-0.88,0.42-1.57,1.09-2.17c2.17-1.94,3.21-4.41,3.26-7.3c0.02-1.41,0-2.83,0-4.24
			c0.01-4.27,3.26-8.39,7.4-9.39c0.24-0.06,0.37-0.04,0.4,0.25c0.03,0.25,0.13,0.48,0.2,0.72c0.03,0.13,0.05,0.26,0.08,0.39
			c0.15,0.67,0.15,0.68-0.52,0.9c-3.11,1-5.29,3.93-5.35,7.13c-0.02,1.34-0.01,2.69-0.02,4.04c-0.01,0.99-0.07,1.98-0.31,2.95
			c-0.59,2.47-1.82,4.56-3.73,6.24c-0.15,0.13-0.34,0.25-0.26,0.5c0.09,0.27,0.34,0.23,0.55,0.23
			C14.82,37.28,15.34,37.27,15.86,37.26z M22.93,39.47c0.43,1.23,1.57,2.08,2.76,2.12c1.39,0.05,2.63-0.67,3.12-1.8
			c0.1-0.23,0.11-0.33-0.19-0.32C26.74,39.48,24.86,39.47,22.93,39.47z"/>
		<path class="st3" d="M20.07,3.8c0.39,0.41,0.78,0.83,1.19,1.23c0.24,0.23,0.29,0.4,0.02,0.66c-0.91,0.87-0.64,0.83-1.47,0.02
			c-0.34-0.33-0.65-0.68-1-0.99c-0.23-0.21-0.29-0.39-0.07-0.62c0.09-0.07,0.18-0.14,0.27-0.22C19.53,3.37,19.53,3.37,20.07,3.8z"/>
		<path class="st3" d="M26.23,3.38c0.17,0.3,0.45,0.5,0.68,0.73c0.18,0.18,0.21,0.29,0.01,0.48c-0.52,0.5-1.04,1.01-1.54,1.53
			c-0.2,0.2-0.33,0.21-0.53,0c-0.89-0.92-0.83-0.65-0.04-1.48c0.41-0.43,0.87-0.8,1.22-1.27C26.1,3.38,26.16,3.38,26.23,3.38z"/>
		<path class="st3" d="M15.86,37.26c-0.52,0.01-1.04,0.03-1.56,0.03c-0.21,0-0.46,0.04-0.55-0.23c-0.08-0.24,0.11-0.36,0.26-0.5
			c1.91-1.68,3.14-3.77,3.73-6.24c0.23-0.97,0.3-1.96,0.31-2.95c0.01-1.35,0-2.69,0.02-4.04c0.06-3.2,2.24-6.13,5.35-7.13
			c0.67-0.22,0.67-0.23,0.52-0.9c-0.03-0.13-0.05-0.26-0.08-0.39c1.14-0.24,2.28-0.28,3.55-0.09c-3.6,0.94-5.91,3.06-6.93,6.53
			c-0.17,0.59-0.29,1.2-0.28,1.83c0.02,1.31,0,2.62,0.01,3.94c0.01,2.33-0.54,4.51-1.82,6.48c-0.52,0.81-1.19,1.5-1.89,2.14
			C16.04,36.16,15.78,36.63,15.86,37.26z"/>
		<path class="st3" d="M21.33,10.14c-0.14,0.16-0.2,0.24-0.27,0.31c-0.51,0.51-1.03,1.02-1.53,1.54c-0.2,0.21-0.34,0.2-0.53,0
			c-0.89-0.92-0.83-0.65-0.03-1.48c0.35-0.36,0.72-0.71,1.07-1.07c0.18-0.19,0.31-0.18,0.5,0C20.77,9.69,21.05,9.91,21.33,10.14z"/>
		<path class="st4" d="M22.93,39.47c1.93,0,3.81,0,5.69,0c0.29,0,0.29,0.09,0.19,0.32c-0.5,1.13-1.74,1.85-3.12,1.8
			C24.5,41.55,23.37,40.7,22.93,39.47z"/>
	</g>
</g>
<g>
	<g>
		<g>
			<path class="st2" d="M31.98,11.59c1.27,0.01,2.37,0.44,3.29,1.31c0.27,0.25,0.53,0.52,0.78,0.79c0.11,0.12,0.18,0.13,0.31,0.01
				c0.38-0.39,0.75-0.8,1.19-1.14c2.85-2.17,7.06-0.49,7.64,3.05c0.27,1.68-0.17,3.14-1.35,4.36c-2.37,2.42-4.76,4.83-7.14,7.24
				c-0.33,0.34-0.63,0.34-0.96,0c-2.39-2.42-4.79-4.83-7.16-7.26c-2.45-2.51-1.63-6.63,1.57-7.99
				C30.73,11.71,31.34,11.59,31.98,11.59z M36.7,25.58c0.03-0.02,0.06-0.04,0.08-0.06c2.09-2.12,4.19-4.24,6.28-6.37
				c0.78-0.8,1.13-1.77,1.08-2.89c-0.1-2.2-2.14-3.85-4.31-3.47c-0.98,0.14-1.72,0.67-2.34,1.41c-0.26,0.26-0.53,0.52-0.79,0.78
				c-0.33,0.32-0.64,0.32-0.96,0c-0.39-0.39-0.77-0.8-1.17-1.18c-0.89-0.85-1.95-1.2-3.17-1c-0.12,0.02-0.24,0.04-0.36,0.07
				c-2.77,0.77-3.66,4.24-1.62,6.32c2.11,2.15,4.24,4.3,6.36,6.44c0.48,0.48,0.48,0.48,0.94-0.02C36.69,25.6,36.7,25.59,36.7,25.58z
				"/>
			<path d="M46.08,15.46c-0.32-1.97-1.64-3.6-3.52-4.35c-1.88-0.75-3.96-0.48-5.55,0.73c-0.3,0.23-0.57,0.48-0.8,0.71
				c-0.11-0.11-0.22-0.21-0.33-0.32c-1.09-1.02-2.4-1.54-3.9-1.55c-0.78,0-1.52,0.15-2.19,0.44c-1.77,0.75-3.05,2.32-3.43,4.19
				c-0.38,1.89,0.21,3.85,1.57,5.25c1.72,1.76,3.48,3.54,5.18,5.26l1.98,2c0.34,0.34,0.71,0.52,1.12,0.52h0
				c0.4,0,0.78-0.18,1.12-0.52l2.01-2.03c1.72-1.74,3.43-3.47,5.14-5.21C45.87,19.18,46.41,17.45,46.08,15.46z M42.42,18.52
				c-1.42,1.45-2.85,2.89-4.27,4.34l-1.92,1.95L34.43,23c-1.46-1.48-2.93-2.97-4.39-4.45c-0.74-0.76-1.03-1.81-0.76-2.82
				c0.26-0.98,1-1.73,1.98-2c0.04-0.01,0.08-0.02,0.15-0.03l0.11-0.02c0.18-0.03,0.35-0.04,0.51-0.04c0.71,0,1.33,0.26,1.9,0.81
				c0.24,0.23,0.46,0.46,0.69,0.69l0.14,0.14c0.11,0.11,0.22,0.22,0.33,0.34c0.67,0.68,1.55,0.68,2.23,0.01l0.85-0.84
				c0.55-0.66,1.11-1,1.81-1.1c0.77-0.14,1.58,0.07,2.21,0.58c0.63,0.51,1.01,1.25,1.05,2.05C43.28,17.19,43.01,17.91,42.42,18.52z"
				/>
		</g>
		<g>
			<path class="st4" d="M39.83,12.79c2.17-0.38,4.21,1.27,4.31,3.47c0.05,1.12-0.29,2.09-1.08,2.89c-2.09,2.13-4.18,4.24-6.28,6.37
				c-0.02,0.02-0.05,0.04-0.08,0.06c-0.12,0-0.18-0.1-0.26-0.17c-0.52-0.53-1.04-1.06-1.55-1.59c-1.16-1.19-2.35-2.36-3.52-3.54
				c-0.35-0.36-0.73-0.71-1.03-1.1c-0.74-0.98-1.06-2.07-0.87-3.3c0.14-0.9,0.49-1.69,1.14-2.34c0.25-0.25,0.52-0.49,0.78-0.74
				c1.23-0.2,2.28,0.15,3.17,1c0.4,0.38,0.78,0.79,1.17,1.18c0.33,0.33,0.64,0.33,0.96,0c0.26-0.26,0.53-0.52,0.79-0.78
				c0.07,0.08,0.14,0.16,0.2,0.24c0.15,0.21,0.26,0.2,0.45,0.01c0.54-0.53,1.02-1.12,1.65-1.56C39.81,12.86,39.82,12.82,39.83,12.79
				z"/>
		</g>
		<g>
			<path class="st5" d="M31.38,12.79c-0.26,0.25-0.53,0.49-0.78,0.74c-0.65,0.65-1,1.44-1.14,2.34c-0.19,1.23,0.14,2.33,0.87,3.3
				c0.3,0.4,0.67,0.75,1.03,1.1c1.17,1.18,2.36,2.34,3.52,3.54c0.52,0.53,1.03,1.07,1.55,1.59c0.07,0.07,0.13,0.17,0.26,0.17
				c0,0.01,0,0.02-0.01,0.02c-0.46,0.5-0.46,0.5-0.94,0.02c-2.12-2.15-4.24-4.29-6.36-6.44c-2.04-2.08-1.15-5.54,1.62-6.32
				C31.14,12.82,31.26,12.81,31.38,12.79z"/>
		</g>
		<g>
			<path class="st5" d="M39.83,12.79c-0.01,0.03-0.02,0.08-0.04,0.09c-0.63,0.44-1.11,1.03-1.65,1.56c-0.19,0.18-0.3,0.2-0.45-0.01
				c-0.06-0.08-0.14-0.16-0.2-0.24C38.11,13.46,38.85,12.93,39.83,12.79z"/>
		</g>
	</g>
</g>
</svg>
