<?xml version="1.0" encoding="utf-8"?>
<!-- Generator: Adobe Illustrator 23.1.1, SVG Export Plug-In . SVG Version: 6.00 Build 0)  -->
<svg version="1.1" id="Calque_1" xmlns="http://www.w3.org/2000/svg" xmlns:xlink="http://www.w3.org/1999/xlink" x="0px" y="0px"
	 viewBox="0 0 147 57" style="enable-background:new 0 0 147 57;" xml:space="preserve">
<style type="text/css">
	.st0{fill:#FFFFFF;}
	.st1{fill:#110F0E;}
	.st2{fill:#EF4439;}
	.st3{fill:#EDEDEE;}
	.st4{fill:#131010;}
	.st5{fill:#F2F2F2;}
</style>
<g>
	<g>
		<path d="M79.83,54.88c-0.01-0.09-0.02-0.18-0.03-0.31c-0.55,0.38-0.96,0.16-1.14-0.36c-0.26-0.73-0.59-1.5-0.59-2.25
			c-0.02-5.36,0.7-10.64,1.96-15.85c0.09-0.35,0.13-0.71,0.09-1.12c-0.69,1.05-1.36,2.12-2.07,3.16c-1.56,2.31-3.1,4.65-5.22,6.51
			c-1.16,1.02-2.57,1.61-4.08,1.92c-0.14,0.03-0.36,0.02-0.45-0.07c-0.45-0.44-1-0.48-1.58-0.55c-1.7-0.2-2.52-1.42-3.24-2.78
			c-1.49-2.8-0.97-5.65-0.16-8.47c1.22-4.22,3.11-8.16,5.11-12.06c2.01-3.92,4.44-7.54,7.38-10.82c0.42-0.47,0.98-0.81,1.45-1.24
			c0.24-0.22,0.41-0.52,0.65-0.74c0.52-0.48,0.8-0.53,1.77-0.33c-0.03,0.19-0.06,0.37-0.09,0.55c0.07,0.04,0.11,0.08,0.15,0.07
			c0.55-0.06,1.11-0.25,1.64-0.17c1.42,0.21,2.78,0.64,3.94,1.51c0.25,0.19,0.4,0.52,0.54,0.82c0.21,0.45-0.14,0.58-0.47,0.73
			c-0.12,0.05-0.18,0.25-0.26,0.38c-1.94-0.55-3.22,0.59-4.58,1.68c0.26-0.34,0.51-0.67,0.77-1.01c-0.03-0.04-0.06-0.08-0.09-0.12
			c-0.34,0.27-0.73,0.49-1,0.81c-1.19,1.43-2.43,2.83-3.5,4.36c-2.36,3.39-4.48,6.93-6.08,10.75c-1.26,3.02-2.55,6.03-3.03,9.3
			c-0.17,1.15-0.2,2.32-0.31,3.73c0.41-0.23,0.74-0.33,0.94-0.54c1.14-1.2,2.35-2.35,3.34-3.67c3.05-4.05,6-8.18,8.99-12.27
			c0.04-0.05,0.06-0.12,0.05-0.1c-0.85-0.61-1.69-1.21-2.52-1.81c0.02-0.08,0.04-0.16,0.07-0.24c0.29-0.08,0.58-0.2,0.87-0.23
			c1.17-0.12,2.34-0.19,3.51-0.3c0.17-0.02,0.39-0.08,0.48-0.2c0.63-0.82,1.47-0.57,2.27-0.47c0.84,0.1,1.67,0.23,2.5,0.38
			c1.38,0.24,2.77,0.43,4.12,0.78c0.69,0.18,1.17,0.02,1.73-0.3c1.18-0.67,2.34-1.4,3.58-1.92c1.7-0.71,3.5-0.96,5.35-0.63
			c0.76,0.14,1.38,0.44,1.61,1.29c0.08,0.3,0.33,0.57,0.54,0.81c0.56,0.63,1,1.3,0.88,2.22c0.12-0.33,0.23-0.66,0.39-1.11
			c0.52,0.96-0.17,1.72-0.17,2.51c0.09,0,0.18,0,0.29,0c-0.01,0.07-0.01,0.14-0.03,0.2c-0.47,1.66-1.67,2.83-2.7,4.12
			c-0.62,0.77-1.18,1.6-1.88,2.29c-1.08,1.06-2.26,2.02-3.4,3.03c-0.45,0.4-0.89,0.8-1.39,1.26c3.26,2.18,6.82,3.68,10.19,5.55
			c-0.39,0.83-1.33,1.25-2.44,1.05c-2.25-0.41-4.3-1.32-6.24-2.5c-1.41-0.86-2.94-1.51-4.57-1.65c-1.05-0.09-2.13,0.14-3.19,0.32
			c-0.58,0.1-0.82,0.88-0.66,1.5c0.08,0.32,0.01,0.68-0.03,1.02c-0.02,0.21-0.1,0.42-0.2,0.8c0.28-0.18,0.41-0.26,0.54-0.34
			c0.1-0.07,0.2-0.15,0.39-0.14c-0.43,0.66-0.81,1.36-1.3,1.97c-0.15,0.19-0.63,0.26-0.91,0.18c-1.2-0.32-1.78-1.17-1.95-2.38
			c-0.24-1.64,0.09-3.22,0.4-4.79c0.61-3.1,2.13-5.87,3.28-8.77c0.1-0.26,0.18-0.52,0.3-0.77c0.43-0.91,0.87-1.82-0.58-2.48
			c1.12,0.29,1.33-0.41,1.52-1.11c-0.66,0.11-1.38,0.13-2.03,0.35c-0.8,0.27-1.55,0.68-2.3,1.07c-0.16,0.08-0.29,0.3-0.36,0.48
			c-0.67,1.81-1.36,3.61-1.99,5.43c-0.72,2.06-1.5,4.11-2.05,6.22c-0.71,2.66-1.28,5.37-1.79,8.07c-0.41,2.16-0.64,4.35-0.94,6.53
			c0.07,0.02,0.15,0.04,0.22,0.07c0.1-0.12,0.19-0.25,0.29-0.37c0.04,0.01,0.09,0.01,0.13,0.02c-0.1,0.53-0.2,1.06-0.3,1.59
			C80.01,54.88,79.92,54.88,79.83,54.88z M93.38,36.18c0.05,0,0.09,0,0.14,0c0.09,0.59,0.43,0.79,0.9,0.49
			c0.83-0.53,1.72-0.99,2.43-1.65c1.77-1.68,3.86-3.03,5.18-5.19c0.81-1.33,1.78-2.56,2.69-3.83c-0.08-0.01-0.17-0.01-0.25-0.02
			c-0.27-0.35-0.53-0.71-0.91-1.21c-1.55,2.72-3.45,5.17-5.94,7.15c0.21,0.29,0.37,0.49,0.52,0.7c-0.19,0.18-0.4,0.36-0.6,0.54
			c0.02-0.19,0.04-0.37,0.08-0.78c-0.93,0.67-1.72,1.22-2.48,1.81c-0.1,0.07-0.07,0.31-0.09,0.48c-0.93,0.49-1.87,0.97-2.8,1.46
			c0.03,0.07,0.06,0.15,0.09,0.22C92.68,36.29,93.03,36.24,93.38,36.18z M79.78,31.92c0.2,0.29,0.39,0.36,0.6-0.01
			c0.16-0.3,0.38-0.56,0.53-0.87c0.09-0.18,0.09-0.41,0.11-0.62c0,0-0.22-0.06-0.23-0.04c-0.1,0.19-0.18,0.38-0.27,0.61
			c-0.51,0.02-0.65,0.46-0.76,0.93c-0.36,0.48-0.74,0.94-1.06,1.45c-0.22,0.35-0.34,0.75-0.52,1.16c0.02,0.02,0.14,0.18,0.27,0.34
			c-0.27,0.08-0.68,0.31-0.77,0.22c-0.45-0.45-0.37,0.09-0.49,0.22c-0.45,0.53-0.9,1.06-1.43,1.69c-0.12,0.19-0.28,0.55-0.52,0.84
			c-0.36,0.44-0.8,0.83-1.18,1.25c-1.01,1.12-1.56,2.61-2.73,3.58c0.03,0.02,0.12,0.08,0.32,0.23c-0.35,0.05-0.56,0.07-0.78,0.1
			c0.05,0.18,0.1,0.35,0.13,0.43c0.33,0.09,0.61,0.16,1.01,0.27c0.23-0.87,1.29-1.2,1.48-2.27c0.09-0.52,0.77-0.93,1.14-1.42
			c0.67-0.89,1.31-1.81,1.97-2.71c0.6-0.82,1.23-1.62,1.84-2.43c0.12-0.21,0.24-0.42,0.38-0.62C79.3,33.55,79.8,32.84,79.78,31.92z
			 M92.31,35.3c0.04,0.04,0.08,0.08,0.12,0.12c0.35-0.2,0.72-0.36,1.04-0.59c2.4-1.72,4.77-3.49,6.63-5.8
			c0.92-1.14,1.67-2.42,2.44-3.67c0.38-0.62,0.14-0.85-0.54-0.86c-1.38-0.02-2.58,0.61-3.84,1c-0.1,0.03-0.15,0.25-0.22,0.38
			c-0.28,0.27-0.66,0.5-1.06,0.66c-1.17,0.45-1.88,1.22-2.26,2.46c-0.26,0.83-0.28,1.83-1.1,2.43c-0.05,0.04-0.07,0.2-0.03,0.26
			c0.3,0.46-0.12,0.8-0.23,1.16C93.02,33.68,92.64,34.48,92.31,35.3z M83.32,30.21c-0.05-0.01-0.1-0.03-0.16-0.04
			c-0.6,1-1.36,1.93-1.75,3c-0.57,1.57-0.94,3.22-1.28,4.87c-0.41,2.02-0.72,4.07-1.03,6.11c-0.38,2.48-0.66,4.98-0.48,7.5
			c0.05,0.67,0.24,1.32,0.36,1.98c0.06-0.01,0.12-0.02,0.18-0.04c-0.04-0.48-0.14-0.95-0.13-1.43c0.06-2.69,0.16-5.37,0.86-7.99
			c0.53-1.97,0.91-3.98,1.37-5.98c0.28-1.23,0.58-2.45,0.9-3.67C82.55,33.08,82.94,31.64,83.32,30.21z M67.69,26.24
			c-0.1-0.03-0.2-0.07-0.3-0.1c-1.04,2.48-2.07,4.96-3.11,7.43c0.07,0.03,0.14,0.06,0.21,0.09C65.57,31.19,66.63,28.71,67.69,26.24z
			 M89.65,31.22c0.06,0.03,0.11,0.06,0.17,0.08c0.41-0.97,0.82-1.95,1.23-2.92c-0.08-0.03-0.15-0.06-0.23-0.09
			C90.43,29.27,90.04,30.24,89.65,31.22z M64.39,34.02c-0.06-0.01-0.12-0.03-0.17-0.04c-0.26,1.12-0.52,2.24-0.78,3.35
			c0.05,0.01,0.1,0.02,0.14,0.03C63.85,36.25,64.12,35.14,64.39,34.02z M91.65,31.74c-0.06-0.03-0.13-0.05-0.19-0.08
			c-0.38,0.91-0.75,1.83-1.13,2.74c0.05,0.02,0.11,0.04,0.16,0.06C90.88,33.55,91.26,32.65,91.65,31.74z M89.05,40.75
			c-0.49,0.7-0.55,1.19,0,1.65C89.05,41.9,89.05,41.41,89.05,40.75z"/>
		<path d="M130.75,30.57c0.33-0.38,0.52-0.59,0.7-0.8c1.47-1.74,2.91-3.51,4.42-5.22c0.43-0.49,1.06-0.81,1.61-1.17
			c0.88-0.57,2.08-0.1,2.62,0.62c0.14,0.19,0.11,0.5,0.27,0.67c0.07,0.12,0.21,0.24,0.2,0.35c-0.02,0.4-0.07,0.8-0.13,1.2
			c-0.12,0.76-0.24,1.51-0.4,2.26c-0.49,2.32-0.96,4.63-0.44,7.01c0.12,0.55,0.21,1.1,0.43,1.63c-0.05-0.8-0.11-1.59-0.15-2.39
			c-0.02-0.38,0.07-0.77,0.03-1.15c-0.2-1.74,0.39-3.38,0.64-5.06c0.18-1.21,0.41-2.41,0.59-3.62c0.02-0.16-0.09-0.34-0.02-0.58
			c0.12,0.26,0.36,0.52,0.35,0.77c-0.04,1.08,0.17,2.15-0.35,3.24c-0.23,0.48-0.23,1.29-0.24,1.97c-0.01,0.91-0.41,1.82-0.54,2.74
			c-0.09,0.67-0.03,1.36,0.01,2.04c0.06,1.14,0.27,2.29,0.18,3.41c-0.06,0.69,0.38,1.03,0.55,1.54c0.06,0.18,0.19,0.44,0.12,0.53
			c-0.1,0.13-0.4,0.22-0.55,0.17c-0.44-0.17-0.92-0.35-1.25-0.66c-1.5-1.43-2.09-3.27-2.23-5.28c-0.17-2.35,0.37-4.63,0.76-6.92
			c0.08-0.46,0.12-0.93,0.17-1.39c-0.07-0.03-0.14-0.06-0.21-0.09c-0.53,0.58-1.09,1.14-1.58,1.75c-0.93,1.17-1.83,2.36-2.73,3.56
			c-0.33,0.44-0.63,0.91-0.89,1.39c-0.09,0.16,0.05,0.44-0.03,0.61c-0.15,0.32-0.34,0.79-0.59,0.85c-0.47,0.11-0.32,0.29-0.27,0.57
			c0.06,0.28,0.14,0.6,0.06,0.86c-0.16,0.54-0.32,1.11-0.65,1.55c-0.85,1.16-0.91,1.14-2.31,0.58c0.04-0.09,0.09-0.18,0.17-0.34
			c-0.49-0.21-0.97-0.44-1.46-0.61c-0.41-0.15-0.48-0.39-0.43-0.8c0.34-3.04,0.66-6.08,0.95-9.13c0.05-0.47-0.09-0.96-0.14-1.44
			c-0.08-0.01-0.15-0.01-0.23-0.02c-0.14,0.33-0.31,0.65-0.42,0.99c-0.35,1.14-0.7,2.28-1,3.44c-0.14,0.54-0.18,1.11-0.27,1.67
			c-0.45,2.75-0.88,5.5-1.35,8.24c-0.25,1.43-0.58,2.84-0.88,4.26c-0.18,0.84-0.3,1.71-0.6,2.51c-0.18,0.5-0.57,1.15-1,1.28
			c-0.56,0.16-1.29,0.69-1.92-0.1c-0.21-0.26-0.65-0.42-1.01-0.47c-0.64-0.1-0.74-0.53-0.68-1c0.21-1.64,0.42-3.28,0.72-4.9
			c1.22-6.56,3.3-12.88,5.38-19.2c0.22-0.66,0.48-1.3,0.7-1.95c0.23-0.69,0.74-0.99,1.62-0.8c0.62,0.14,1.21,0.39,1.8,0.63
			c0.15,0.06,0.35,0.28,0.33,0.39c-0.14,0.91-0.22,1.84-0.53,2.69c-0.17,0.47-0.09,0.8,0.23,0.92c1.66,0.65,1.63,2.1,1.73,3.49
			C130.68,28.68,130.7,29.51,130.75,30.57z M122.67,35.23c-0.07,0.35-0.14,0.71-0.21,1.06c0.21,0.06,0.37,0.1,0.58,0.16
			c-0.08-0.23,0.39-0.5-0.11-0.69c-0.04-0.02-0.01-0.3,0.04-0.45c0.43-1.4,0.86-2.79,1.29-4.19c0.08-0.27,0.11-0.56,0.17-0.85
			c-0.03-0.01-0.06-0.01-0.09-0.02c-0.25,0.6-0.5,1.2-0.75,1.8c-0.12,0.03-0.32,0.03-0.34,0.09c-0.37,1.17-0.72,2.35-1.07,3.53
			c0.05,0.02,0.09,0.03,0.14,0.05C122.43,35.55,122.55,35.39,122.67,35.23z M129.22,32.37c0.08,0.02,0.16,0.03,0.23,0.05
			c0.35-0.72,0.91-1.3,0.84-2.26c-0.06-0.88,0.13-1.78,0.21-2.67c-0.06-0.01-0.12-0.02-0.18-0.04c-0.08,0.13-0.16,0.26-0.3,0.49
			c-0.06-0.4-0.11-0.69-0.15-0.97c-0.08,0-0.15,0.01-0.23,0.01C129.51,28.79,129.36,30.58,129.22,32.37z M140.24,25.59
			c-0.7,0.75-1.5,6.19-1.19,7.52C139.45,30.61,139.84,28.1,140.24,25.59z M130.93,34.27c0.46-0.77,0.82-1.44,1.24-2.06
			c0.42-0.62,0.89-1.2,1.34-1.8c-0.05-0.04-0.09-0.07-0.14-0.11c-0.42,0.37-0.85,0.73-1.26,1.11c-0.4,0.37-0.93,0.7-1.14,1.16
			C130.78,33.01,130.93,33.6,130.93,34.27z M123.55,36.58c-0.28,0.1-1.02,2.75-0.93,3.58c0.9-2.07,2.09-5.62,1.44-6.68
			c0,0.69,0,1.22,0,1.75c-0.04,0-0.08,0.01-0.12,0.01c-0.05-0.09-0.1-0.19-0.23-0.46C123.65,35.47,123.6,35.98,123.55,36.58z
			 M122.81,36.92c-0.08-0.03-0.16-0.06-0.25-0.08c-0.33,1.54-0.67,3.07-1,4.61c0.07,0.02,0.14,0.03,0.21,0.05
			C122.12,39.97,122.47,38.45,122.81,36.92z"/>
		<path d="M117.18,40.67c0.74-0.23,0.49,0.34,0.51,0.66c0.02,0.29-0.03,0.58-0.03,0.67c-0.25,0.76-0.45,1.34-0.64,1.93
			c-0.03-0.01-0.06-0.01-0.09-0.02c0-0.14,0-0.28,0-0.42c-0.04-0.01-0.08-0.03-0.13-0.04c-0.18,0.53-0.48,1.05-0.52,1.59
			c-0.04,0.58-0.44,0.87-0.79,0.99c-0.22,0.08-0.63-0.34-0.95-0.54c0.02-0.07,0.04-0.14,0.06-0.21c0.24,0.02,0.48,0.03,0.71,0.05
			c0.03-0.03,0.05-0.06,0.08-0.09c-0.15-0.05-0.34-0.19-0.46-0.15c-0.45,0.16-0.66-0.09-0.89-0.41c-0.69-0.97-0.67-2.09-0.65-3.19
			c0.04-2.34,0.14-4.68,0.22-7.06c-0.53,0.41-1.01,0.78-1.57,1.21c-0.05-0.29-0.09-0.48-0.14-0.77c-0.35,0.33-0.61,0.65-0.94,0.85
			c-0.27,0.17-0.62,0.25-0.95,0.29c-0.39,0.05-0.8,0.01-1.19,0.05c-0.14,0.01-0.34,0.13-0.39,0.25c-0.33,0.9-0.56,1.84-0.95,2.71
			c-0.16,0.36-0.6,0.66-0.98,0.84c-0.21,0.1-0.64,0.01-0.61-0.47c0-0.04-0.22-0.16-0.27-0.13c-0.46,0.32-0.59-0.02-0.83-0.32
			c-0.16-0.2-0.49-0.24-0.72-0.39c-0.29-0.19-0.57-0.42-0.84-0.64c-0.35-0.28-0.24-0.52-0.07-0.92c0.56-1.31,0.98-2.68,1.5-4
			c1.22-3.11,2.67-6.08,5.15-8.41c0.78-0.73,1.7-1.31,2.6-1.88c0.49-0.31,1.03-0.33,1.49,0.19c0.15,0.17,0.47,0.21,0.7,0.31
			c0.15,0.07,0.4,0.13,0.43,0.24c0.1,0.37,0.23,0.46,0.64,0.39c0.13-0.02,0.39,0.53,0.56,0.84c0.17,0.32,0.3,0.66,0.46,1.01
			c0.05,0.8,0.1,1.65,0.15,2.5c0.06,0,0.11,0.01,0.17,0.01c0-0.55,0-1.1,0-1.65c0.1,0,0.2,0,0.3,0.01
			C117.45,31.24,116.81,35.92,117.18,40.67z M113.79,26.86c-0.08-0.02-0.15-0.05-0.23-0.07c-1.73,1.9-2.73,4.25-4.06,6.63
			c1.54-0.23,2.88-0.43,4.29-0.64C113.79,30.76,113.79,28.81,113.79,26.86z M115.51,42.72c0.05-0.14,0.14-0.29,0.14-0.43
			c0.01-1.49-0.03-2.99,0.01-4.48c0.05-2.07,0.16-4.13,0.22-6.2c0.01-0.17-0.15-0.35-0.21-0.47c0.08-0.15,0.22-0.3,0.24-0.46
			c0.06-0.86,0.09-1.72,0.1-2.58c0-0.13-0.17-0.25-0.25-0.38c-0.2,0.25-0.53,0.48-0.57,0.75c-0.08,0.67-0.03,1.36-0.03,2.04
			c0.02,0,0.03,0,0.05,0c0.04-0.33,0.07-0.67,0.1-0.93c0.66,0.77-0.3,1.57,0.02,2.47c0.29,0.79-0.45,1.58-0.2,2.51
			c0.22,0.82,0.05,1.74,0.05,2.62C115.14,39.01,114.75,40.86,115.51,42.72z M116.87,28.48c-1.03,0.53-0.31,1.41-0.37,2.13
			c0.05-0.56,0.09-1.12,0.14-1.68c0.04,0,0.08,0.01,0.11,0.01c0,0.67,0,1.33,0,1.98c-0.73-0.16-0.49,0.43-0.5,0.61
			c-0.11,2.87-0.17,5.74-0.24,8.6c-0.01,0.54,0,1.09,0,1.63c0.09,0,0.19,0,0.28,0c0-1.63,0-3.26,0-4.89c0.06,0,0.11-0.01,0.17-0.01
			c0.05,0.44,0.1,0.88,0.15,1.32c0.05-0.01,0.1-0.01,0.16-0.02c0-1.05,0-2.1,0-3.15c-0.03,0-0.07,0-0.1,0
			c-0.07,0.48-0.15,0.96-0.22,1.44c-0.06-0.01-0.12-0.01-0.17-0.02c0.07-1.7,0.15-3.4,0.22-5.1c0.06,0,0.12,0,0.18,0.01
			c0,0.74,0,1.47,0,2.21c0.07,0,0.13,0,0.2,0C116.87,31.86,116.87,30.19,116.87,28.48z M116.53,41.17c0.03,0,0.05,0,0.08,0
			c0.05-0.9,0.1-1.8,0.15-2.7c-0.08,0-0.15,0-0.23,0C116.53,39.36,116.53,40.26,116.53,41.17z"/>
		<path d="M117.66,25.83c0.09,0.72,0.17,1.43,0.26,2.15c0.04,0,0.09-0.01,0.13-0.01c-0.05-0.45-0.1-0.9-0.16-1.34
			c0.04-0.01,0.08-0.03,0.12-0.04c0.08,0.23,0.15,0.46,0.24,0.71c0.06-0.11,0.1-0.19,0.13-0.25c0,1.11-0.01,2.23,0.01,3.35
			c0,0.13,0.14,0.25,0.2,0.38c0.05,0.11,0.12,0.32,0.1,0.33c-0.76,0.42-0.37,1.18-0.45,1.74c-0.16,1.15-0.07,2.33-0.09,3.5
			c-0.02,1.16-0.05,2.32-0.1,3.48c-0.01,0.23-0.1,0.46-0.17,0.72c-0.2-0.04-0.36-0.08-0.61-0.14c0.11-4.84,0.21-9.68,0.32-14.51
			C117.62,25.87,117.64,25.85,117.66,25.83z M117.74,35.68c0.04,0,0.08,0,0.11,0c0.07-1.14,0.14-2.28,0.21-3.43
			c-0.05,0-0.09,0-0.14-0.01C117.86,33.39,117.8,34.53,117.74,35.68z"/>
		<path d="M141.63,28.62c-0.15,0.76-0.29,1.52-0.44,2.28c-0.05-0.01-0.11-0.02-0.16-0.03c0.15-0.76,0.3-1.52,0.45-2.28
			C141.53,28.6,141.58,28.61,141.63,28.62z"/>
		<path d="M93.38,36c0.39-0.33,0.67-0.95,1.34-0.5c-0.21,0.09-0.43,0.19-0.64,0.28c0-0.02,0-0.04,0-0.06
			c-0.01,0.01-0.03,0.03-0.04,0.04c0.02,0,0.04,0.01,0.06,0.01c-0.19,0.14-0.39,0.28-0.58,0.42c-0.05,0-0.09,0-0.14,0
			c0-0.07,0-0.14,0-0.21c0.01,0,0.02-0.01,0.03-0.01C93.4,35.98,93.39,35.99,93.38,36z"/>
		<path d="M96.02,34.61c-0.02-0.15-0.1-0.4-0.04-0.44c0.51-0.36,1.05-0.69,1.58-1.03C97.05,33.63,96.54,34.12,96.02,34.61z"/>
		<path d="M98.54,32.24c0.11-0.41,0.2-0.78,0.29-1.15c0.04,0.01,0.07,0.02,0.11,0.03c0.06,0.34,0.13,0.68,0.19,1.06
			C98.99,32.2,98.79,32.22,98.54,32.24z"/>
		<path d="M95.06,35.22c-0.04-0.02-0.07-0.04-0.11-0.05c0.04-0.02,0.07-0.04,0.11-0.06C95.05,35.14,95.05,35.18,95.06,35.22z"/>
		<path class="st0" d="M93.38,36c0.01-0.01,0.02-0.02,0.03-0.03c-0.01,0-0.02,0.01-0.03,0.01C93.38,35.98,93.38,36,93.38,36z"/>
		<path class="st0" d="M94.1,35.77c-0.02,0-0.04-0.01-0.06-0.01c0.01-0.01,0.03-0.03,0.04-0.04c0,0.02,0,0.04,0,0.06
			C94.08,35.78,94.1,35.77,94.1,35.77z"/>
	</g>
</g>
<path id="contour_1_" class="st1" d="M60.6,6.51C54.5,0.4,41.04,0.7,34.51,6.4c-0.19,0.17-0.36,0.34-0.5,0.5
	c-0.18-0.22-0.4-0.44-0.68-0.66C26.6,0.82,13.39,0.56,7.47,6.77C1.33,13.2,1.08,23.16,7.23,29.5c8.23,8.48,16.68,16.76,25.05,25.11
	c1.21,1.21,2.51,1.25,3.69,0.07c8.48-8.45,17.07-16.8,25.34-25.45C67.38,22.86,66.86,12.77,60.6,6.51z"/>
<path id="coeur_rouge_1_" class="st2" d="M54.67,4.42c-5.6-2.34-12.88-1.26-17.59,2.54c-0.41,0.29-0.76,0.55-1.07,0.79c0,0,0,0,0,0
	c-1.47,1.47-3.19,0.06-3.19,0.06l0,0c-0.16-0.13-0.31-0.26-0.51-0.42C26.18,2.42,13.98,0.97,8.34,8.04
	c-5.38,5.81-5.45,14.8,0.1,20.49c8.12,8.31,16.41,16.46,24.61,24.69c0.83,0.84,1.44,0.77,2.24-0.03
	c8.19-8.24,16.44-16.43,24.61-24.7c2.75-2.78,4-6.26,4.06-11.07C63.67,11.81,60.77,6.96,54.67,4.42z"/>
<g id="YEUX_2_">
	<path id="contour_noir_4_" class="st1" d="M34.07,32.04c-5.45-0.03-9.95-4.61-9.88-10.04c0.07-5.5,4.53-9.87,10.06-9.83
		c5.49,0.04,9.97,4.57,9.89,10.01C44.04,27.67,39.55,32.07,34.07,32.04z M34.18,13.39c-4.81-0.01-8.72,3.84-8.76,8.64
		c-0.04,4.82,3.92,8.79,8.76,8.78c4.78-0.01,8.7-3.94,8.71-8.72C42.9,17.31,38.99,13.4,34.18,13.39z"/>
	<g id="fond_blanc_4_">
		<path id="grand_fond_blanc_2_" class="st3" d="M34.18,13.39c-4.81-0.01-8.72,3.84-8.76,8.64c-0.04,4.82,3.92,8.79,8.76,8.78
			c4.78-0.01,8.7-3.94,8.71-8.72C42.9,17.31,38.99,13.4,34.18,13.39z M37.36,28.24c-2.55,1.34-5.7,0.95-7.85-0.98
			c-2.15-1.93-2.88-5.02-1.83-7.7c1.06-2.71,3.68-4.48,6.56-4.4c0.29,0.01,0.7-0.17,0.86,0.23c0.1,0.27-0.23,0.39-0.37,0.57
			c-1.33,1.62-1.15,3.69,0.41,4.83c1.56,1.15,3.59,0.69,4.73-1.06c0.12-0.19,0.26-0.37,0.41-0.58
			C42.14,22.11,40.7,26.48,37.36,28.24z"/>
		<path id="petit_fond_blanc_2_" class="st3" d="M33.61,21.94c-0.62,0.01-1.01,0.38-1,1c0.01,0.67,0.4,1.07,1.09,1.03
			c0.62-0.04,0.92-0.45,0.96-1.05C34.58,22.29,34.23,21.93,33.61,21.94z"/>
	</g>
	<path id="iris_noir_2_" class="st1" d="M40.27,19.15c1.87,2.97,0.43,7.33-2.91,9.09c-2.55,1.34-5.7,0.95-7.85-0.98
		c-2.15-1.93-2.88-5.02-1.83-7.7c1.06-2.71,3.68-4.48,6.56-4.4c0.29,0.01,0.7-0.17,0.86,0.23c0.1,0.27-0.23,0.39-0.37,0.57
		c-1.33,1.62-1.15,3.69,0.41,4.83c1.56,1.15,3.59,0.69,4.73-1.06C39.98,19.54,40.12,19.36,40.27,19.15z M34.66,22.92
		c-0.08-0.63-0.44-0.99-1.05-0.98c-0.62,0.01-1.01,0.38-1,1c0.01,0.67,0.4,1.07,1.09,1.03C34.33,23.93,34.63,23.52,34.66,22.92z"/>
</g>
<path id="contour_noir_3_" class="st4" d="M49.6,7.14c2.8-2.03,5.85,0.01,5.82,2.71c-0.02,1.8-1.69,3.4-3.51,3.37
	C49.23,13.17,47.2,9.86,49.6,7.14z M53.93,9.78c0.01-1.03-0.87-1.95-1.89-1.99C50.97,7.75,50,8.73,50.02,9.8
	c0.02,1.03,0.93,1.91,1.96,1.91C53.01,11.71,53.92,10.81,53.93,9.78z"/>
<path id="fond_blanc_3_" class="st5" d="M53.93,9.78c-0.01,1.03-0.91,1.92-1.94,1.92c-1.03,0-1.94-0.88-1.96-1.91
	C50,8.73,50.97,7.75,52.04,7.79C53.06,7.83,53.93,8.76,53.93,9.78z"/>
<g id="YEUX_1_">
	<path id="contour_noir_2_" class="st1" d="M34.07,32.03c-5.43-0.03-9.92-4.59-9.85-10.01c0.07-5.49,4.52-9.84,10.03-9.8
		c5.48,0.04,9.94,4.55,9.86,9.98C44.01,27.67,39.53,32.06,34.07,32.03z M34.18,13.43c-4.8-0.01-8.69,3.83-8.73,8.62
		c-0.04,4.8,3.91,8.76,8.74,8.75c4.76-0.01,8.67-3.93,8.68-8.7C42.87,17.34,38.97,13.44,34.18,13.43z"/>
	<g id="fond_blanc_2_">
		<path id="grand_fond_blanc_1_" class="st3" d="M34.18,13.43c-4.8-0.01-8.69,3.83-8.73,8.62c-0.04,4.8,3.91,8.76,8.74,8.75
			c4.76-0.01,8.67-3.93,8.68-8.7C42.87,17.34,38.97,13.44,34.18,13.43z M37.35,28.24c-2.54,1.34-5.68,0.95-7.82-0.97
			c-2.14-1.92-2.87-5-1.83-7.68c1.06-2.7,3.67-4.47,6.54-4.39c0.29,0.01,0.7-0.17,0.85,0.23c0.1,0.27-0.23,0.39-0.37,0.57
			c-1.32,1.61-1.15,3.67,0.41,4.82c1.56,1.14,3.58,0.69,4.71-1.05c0.12-0.19,0.26-0.37,0.41-0.58
			C42.11,22.13,40.68,26.49,37.35,28.24z"/>
		<path id="petit_fond_blanc_1_" class="st3" d="M33.61,21.96c-0.62,0.01-1,0.38-1,1c0.01,0.67,0.4,1.07,1.09,1.03
			c0.62-0.04,0.92-0.45,0.96-1.05C34.58,22.31,34.23,21.95,33.61,21.96z"/>
	</g>
	<path id="iris_noir_1_" class="st1" d="M40.25,19.18c1.86,2.96,0.43,7.31-2.9,9.06c-2.54,1.34-5.68,0.95-7.82-0.97
		c-2.14-1.92-2.87-5-1.83-7.68c1.06-2.7,3.67-4.47,6.54-4.39c0.29,0.01,0.7-0.17,0.85,0.23c0.1,0.27-0.23,0.39-0.37,0.57
		c-1.32,1.61-1.15,3.67,0.41,4.82c1.56,1.14,3.58,0.69,4.71-1.05C39.97,19.57,40.1,19.39,40.25,19.18z M34.66,22.94
		c-0.08-0.62-0.44-0.98-1.05-0.98c-0.62,0.01-1,0.38-1,1c0.01,0.67,0.4,1.07,1.09,1.03C34.33,23.95,34.62,23.54,34.66,22.94z"/>
</g>
<path id="contour_noir_1_" class="st4" d="M49.55,7.21c2.79-2.02,5.83,0.01,5.8,2.7c-0.02,1.79-1.68,3.39-3.5,3.35
	C49.18,13.22,47.16,9.92,49.55,7.21z M53.87,9.84C53.87,8.82,53,7.9,51.98,7.86c-1.06-0.04-2.03,0.93-2.01,2
	c0.02,1.03,0.93,1.91,1.96,1.9C52.96,11.76,53.86,10.87,53.87,9.84z"/>
<path id="fond_blanc_1_" class="st5" d="M53.87,9.84c-0.01,1.02-0.91,1.92-1.94,1.92c-1.03,0-1.93-0.88-1.96-1.9
	c-0.02-1.07,0.95-2.04,2.01-2C53,7.9,53.87,8.82,53.87,9.84z"/>
</svg>
