<?xml version="1.0" encoding="utf-8"?>
<!-- Generator: Adobe Illustrator 23.1.1, SVG Export Plug-In . SVG Version: 6.00 Build 0)  -->
<svg version="1.1" id="Calque_1" xmlns="http://www.w3.org/2000/svg" xmlns:xlink="http://www.w3.org/1999/xlink" x="0px" y="0px"
	 viewBox="0 0 335 375" style="enable-background:new 0 0 335 375;" xml:space="preserve">
<style type="text/css">
	.st0{fill:#ECECEC;}
	.st1{fill:#121010;}
	.st2{fill:#FFFFFF;}
	.st3{fill:#EE3455;}
	.st4{fill:#CD7461;}
	.st5{fill:#EF453A;}
	.st6{fill:#F26C46;}
	.st7{fill:#F26843;}
	.st8{fill:none;}
	.st9{fill:#EE4439;}
	.st10{fill:#141112;}
	.st11{fill:#F2F2F2;}
</style>
<g id="YEUX_1_">
	<g id="fond_blanc_1_">
		<path id="petit_fond_blanc_1_" class="st0" d="M220.32,103.47c-0.64,0.03-1.03,0.43-1.01,1.08c0.03,0.7,0.45,1.1,1.17,1.03
			c0.65-0.06,0.94-0.5,0.96-1.13C221.35,103.8,220.96,103.44,220.32,103.47z"/>
	</g>
	<path id="iris_noir" class="st1" d="M221.45,104.45c-0.11-0.65-0.49-1.01-1.13-0.98c-0.64,0.03-1.03,0.43-1.01,1.08
		c0.03,0.7,0.45,1.1,1.17,1.03C221.13,105.51,221.43,105.08,221.45,104.45z"/>
</g>
<g>
	<g>
		<path class="st2" d="M185.56,146.38c-7.22,0.7-14.03-0.73-20.47-4.02c-0.32-0.16-0.7-0.62-0.93,0.19
			c-1.5,5.28-4.9,9.27-8.89,12.81c-6.73,5.98-14.66,9.91-22.98,13.12c-7.63,2.94-15.46,5.03-23.71,4.91
			c-5.89-0.08-11.51-1.24-16.34-4.89c-8.33-6.3-7.64-15.99-2.82-21.55c2.8-3.23,6.57-4.59,10.67-5.16c1.25-0.17,2.53-0.22,3.8-0.18
			c0.88,0.03,0.83-0.28,0.69-0.95c-1.46-7.04-1.24-13.96,1.7-20.62c3.12-7.07,8.67-11.61,15.68-14.44
			c11.57-4.66,22.11-2.38,31.81,5.03c0.36,0.28,0.71,0.58,1.23,1c-0.07-2.13-0.29-4.05-0.05-5.97c0.86-6.97,4.37-10.92,11.19-12.53
			c0.06-0.01,0.1-0.11,0.15-0.17c0.95-0.03,1.9-0.06,2.86-0.09c0.8,0.37,1.68,0.28,2.51,0.49c7.48,1.81,11.36,7.98,11,15.52
			c-0.1,2.02-0.42,4-0.96,6.03c0.66-0.16,0.91-0.64,1.27-0.97c7.42-6.96,15.81-12.29,25.67-15.03c6.3-1.75,12.61-1.69,18.79,0.7
			c1.37,0.53,2.66,1.22,3.88,2.04c6.15,4.19,7.94,10.78,4.46,17.36c-3.85,7.27-10.01,11.48-18.1,12.83
			c-5.48,0.92-10.62-0.27-15.54-2.67c-1.19-0.58-1.16-0.59-1.27,0.76c-0.1,1.22-0.27,2.43-0.41,3.65c-1.24,4.3-3.4,7.96-7.27,10.43
			c-1.75,0.86-3.56,1.55-5.45,2C186.99,146.15,186.28,146.27,185.56,146.38z"/>
		<path class="st3" d="M91.36,208.76c-0.28,0.83,0.47,1.6,0.12,2.43c-0.28-0.14-0.39-0.41-0.37-0.68c0.12-1.18-0.57-0.64-1.16-0.61
			c0.17,0.45,0.66,0.52,0.61,1.09c-0.05,0.5,0.49,0.59,0.9,0.18c0.94,0.93,2.04,1.52,3.39,1.57c0.08,0,0.2,0.01,0.22,0.06
			c0.7,1.27,1.8,0.56,2.91,0.49c-0.74,0.93-0.28,1.28,0.47,1.74c10.08,6.13,16.32,14.94,18.41,26.6c0.88,4.93,0.7,9.87-0.2,14.79
			c-0.07,0.41-0.13,0.98-0.75,0.85c-0.53-0.11-0.39-0.61-0.35-1c0.07-0.73,0.64-1.64,0.14-2.11c-0.34-0.33-1.34,0.02-2.04,0.09
			c-11.33,1.06-22.66,2.14-33.99,3.2c-4.54,0.42-9.08,0.82-13.63,1.24c-0.3,0.03-0.71-0.12-0.86,0.21
			c-0.15,0.33,0.21,0.56,0.38,0.81c7.86,11.05,15.73,22.09,23.57,33.15c0.49,0.69,0.83,0.72,1.48,0.24
			c2.52-1.87,4.97-3.82,7.25-5.98c0.2-0.19,0.4-0.39,0.6-0.57c0.3-0.27,0.65-0.6,1.01-0.18c0.33,0.4,0,0.74-0.3,1.01
			c-1.12,1.01-2.21,2.05-3.36,3.02c-9.78,8.17-20.89,13.61-33.42,15.94c-12.2,2.27-24.13,1.41-35.37-4.22
			c-11.95-5.98-19.21-15.61-21.49-28.87c-0.04-0.26,0.04-0.57-0.27-0.73c-0.08-2.62-0.17-5.24-0.25-7.85
			c0.44-1.52,0.4-3.1,0.67-4.64c1.65-9.43,5.75-17.72,11.6-25.21c0.4-0.52,0.91-0.96,0.04-1.51c-0.31-0.19-0.23-0.62-0.04-0.71
			c0.5-0.22,0.49-0.98,1.18-0.99c0.3-0.01,0.39,0.84,0.78,0.16c0.19-0.32,0.62-0.09,0.87-0.39c-0.44-0.49-1.03-0.48-1.62-0.51
			c-0.34-0.02-0.97,0.26-0.94-0.34c0.02-0.57,0.24-1.38,0.89-1.46c1.11-0.13,1.53-0.79,1.92-1.86c-0.77,0.26-1.63-0.03-1.78,1.04
			c-0.02,0.16-0.09,0.37-0.26,0.26c-0.88-0.6-0.7,0.25-0.88,0.62c-0.1,0.21-0.34,0.55-0.46,0.34c-0.25-0.48-0.98-0.25-1.05-0.75
			c-0.05-0.35,0.56-0.28,0.58-0.32c0.48-1.22,2.46-0.82,2.63-2.5c0.25,0.9,1.23,0.67,1.67,1.25c0.11,0.14,0.3,0.06,0.42-0.06
			c0.24-0.25,0.24-0.54,0.19-0.88c-0.05-0.35-1.1-1.23,0.42-0.95c0.32,0.06,0.29-0.33,0.25-0.54c-0.04-0.2,0.14-0.67-0.37-0.48
			c-0.29,0.11-0.46,0.06-0.56-0.21c-0.13-0.35,0.18-0.36,0.38-0.47c0.13-0.08,0.23-0.22,0.36-0.31c0.34-0.21,0.51-0.77,1.03-0.62
			c0.58,0.17,0.17,0.79,0.47,1.21c0.67-0.6,0.58-1.49,0.89-2.19c0.11-0.25-0.3-0.27-0.53-0.25c-0.47,0.03-0.65-0.25-0.66-0.65
			c-0.01-0.17,0.1-0.43,0.23-0.49c0.42-0.18,0.52,0.17,0.64,0.47c0.04,0.1,0.18,0.24,0.25,0.23c0.86-0.13,1.58-0.18,1.4,1.09
			c-0.03,0.2,0.41,0.16,0.56-0.2c0.38-0.95-0.16-1.69-0.62-2.37c-0.32-0.48-0.3-0.66,0.18-0.82c0.66-0.21,0.97-0.74,1.32-1.25
			c-0.25-0.25-0.49-0.18-0.71-0.14c-0.73,0.15-1.09,0.02-0.54-0.73c0.33-0.45-0.16-1.19,0.54-1.46c0.27-0.1,0.1-0.78,0.59-0.46
			c0.24,0.16,0.45,0.49,0.24,0.83c-0.19,0.31-0.26,0.55,0.14,0.76c0.51,0.27,0.44-0.21,0.6-0.42c0.25-0.31,0.52-0.6,0.81-0.87
			c0.17-0.16,0.37-0.57,0.64-0.23c0.19,0.24,0.29,0.57-0.2,0.84c-0.72,0.41-1.13,1.08-0.89,1.99c0.08,0.31,0.13,0.66,0.54,0.67
			c0.45,0,0.27-0.49,0.33-0.55c0.56-0.61,1.2-1.17,1.88-1.63c0.2-0.14,0.64,0.1,0.48,0.56c-0.07,0.23-0.18,0.44-0.26,0.67
			c-0.08,0.23-0.17,0.5,0.12,0.6c0.24,0.08,0.48-0.07,0.53-0.34c0.08-0.42,0.39-1.06,0.31-1.2c-0.55-0.97,0.01-1.45,0.64-1.99
			c0.14-0.12-0.04-0.46,0.25-0.69c0.22,0.49,0.83,0.73,0.75,1.39c-0.24,0.13-0.85,0.15-0.56,0.5c0.39,0.47-0.19,1.31,0.61,1.49
			c0.37,0.08,0.92,0.39,1.15-0.18c0.25-0.64-0.42-0.53-0.71-0.63c-0.63-0.21-0.74-0.5-0.32-1.01c0.46-0.01,1.05,0.22,1.25-0.37
			c0.18-0.53,0.36-1.13-0.25-1.62c-0.58-0.47-0.8-1.01,0.11-1.44c0.65-0.31,0.06-0.74,0.04-1.1c-0.01-0.28-0.58-0.26-0.59-0.76
			c0.5-0.06,1.08-0.47,1.12,0.52c0.01,0.22-0.09,0.52,0.26,0.55c0.26,0.02,0.47-0.2,0.53-0.42c0.2-0.76,0.55-0.78,1-0.23
			c0.32,0.39,0.9,0.25,1.2,0.7c0.24,0.35,0.57,0.23,0.77-0.08c0.25-0.4,0.01-0.54-0.37-0.62c-0.19-0.04-0.32-0.22-0.21-0.56
			c0.42,0.17,0.85,0.3,1.24,0.52c0.27,0.16,0.51,0.47,0.15,0.76c-0.19,0.15-0.46,0.2-0.18,0.48c0.2,0.2,0.56,0.46,0.72,0.29
			c0.34-0.37,0.81-0.47,1.18-0.74c0.23-0.17,0.25-0.46-0.09-0.51c-0.61-0.09-0.78-0.6-1.1-0.99c-0.72-0.86-1.8-1.15-2.83-1.63
			c0.3-0.45,0.55-0.48,0.97-0.18c0.61,0.43,0.98,0.37,1.02-0.55c0.04-0.85,0.77-0.83,1.4-0.75c1.6,0.22,2.59,1.1,2.87,2.73
			c0.04,0.26,0.06,0.65,0.45,0.56c0.44-0.1,0.26-0.48,0.25-0.79c-0.04-0.83-0.56-1.43-1.03-2.11c0.49-0.01,0.79,0.37,1.22,0.28
			c0.35-0.07,0.73,0.19,0.59-0.59c-0.18-0.98,0.54-1.46,1.6-1.31c0.44,0.06,0.83-0.15,0.63-0.55c-0.35-0.69,0.1-1.1,0.36-1.73
			c0.44,0.56,1.03,1.03,1.31,1.44c0.38,0.56,0.54,1.47,0.7,2.24c0.07,0.33-0.35,0.34-0.64,0.33c-0.05-0.41-0.33-0.7-0.67-0.74
			c-0.55-0.07-1.11,0.16-1.63-0.31c-0.17-0.16-0.52,0.13-0.6,0.42c-0.09,0.32,0.07,0.61,0.37,0.64c1.22,0.09,1.08,0.92,1.14,1.78
			c0.04,0.59-0.11,1.15-0.13,1.74c0.53-0.09,0.51-0.57,0.81-0.76c0.78-0.49,0.85-1.04,0.09-1.51c-0.33-0.2-0.38-0.36-0.28-0.63
			c0.13-0.33,0.28-0.7,0.77-0.46c0.61,0.7,1.02,0.89,1.51-0.2c0.28-0.62,1.38-0.74,1.28-1.76c-0.03-0.32,0.08-0.69-0.41-0.65
			c-0.52,0.04-0.95-0.22-1-0.64c-0.06-0.65,0.71-0.35,1.04-0.66c-0.25,0.3-0.58,0.74-0.09,0.89c0.64,0.19,1.29,0.98,2.02,0.19
			c0.15-0.16-0.04-0.65,0.43-0.5c0.41,0.13,0.23,0.54,0.27,0.82c0.04,0.27,0.27,0.61-0.25,0.76c-0.88,0.26-0.8,1.35-1.49,1.83
			c-0.17,0.12,0.17,0.55,0.34,0.39c0.57-0.51,1.08,0.36,1.61-0.02c0.26-0.19,0.35,0.02,0.36,0.23c0,0.17-0.57,0.44,0.06,0.48
			c0.18,0.01,0.68,0.13,0.65-0.29c-0.04-0.55,0.61-0.58,0.68-1c-0.34-0.43-0.61-0.03-0.82,0.08c-0.89,0.49-1.19-0.26-1.57-0.74
			c-0.26-0.32,0.08-0.5,0.35-0.57c0.13-0.04,0.34,0.02,0.44,0.12c0.8,0.81,1.3-0.92,1.73-0.32c0.37,0.51,0.19,1.39,1.24,1.22
			c0.15-0.03,0.38,0.17,0.49-0.06c0.06-0.12,0.02-0.41-0.04-0.43c-1.05-0.32-0.7-1.6-1.47-2.11c-0.15-0.1-0.21-0.33-0.45-0.27
			c-0.24,0.06-0.28,0.27-0.24,0.47c0.14,0.79-0.34,0.72-0.91,0.69c0.15-0.44,0.29-0.8,0.38-1.18c0.1-0.4,0.03-1.12,0.59-0.9
			c0.49,0.2,1.34-0.36,1.63,0.83c0.12,0.48,0.76,1.06,0.72,1.81c0,0.07,0.17,0.22,0.24,0.21c0.38-0.06,0.53-0.43,0.77-0.67
			c0.16-0.15,0.16-0.44-0.05-0.5c-0.76-0.18-0.67-0.92-0.94-1.4c-0.22-0.39-1.01-0.86-0.4-1.23c0.36-0.22,1.3-0.98,1.8,0.2
			c0.09,0.22,0.63,0.25,0.96,0.37c0.44,0.17,0.85-0.01,1.26-0.13c0.04-0.01,0.08-0.27,0.04-0.29c-0.42-0.26-0.69-0.79-1.24-0.8
			c-0.35,0-1.02,0.69-0.75-0.44c0.02-0.09-0.49-0.01-0.75,0.07c-0.51,0.16-1.14,0.45-0.76-0.57c0.12-0.32-0.5-0.55-0.09-0.82
			c0.43-0.28,0.56,0.42,0.67,0.39c1.3-0.37,2.05,1.31,3.37,0.91c-0.21,0.59,0.13,1.17,0.16,1.79c0.03,0.68,0.61,0.48,0.95,0.2
			c0.29-0.24,0.47-0.62,0.67-0.89c0.59-0.1,0.25,0.96,0.92,0.62c0.2-0.1,0.45-0.28,0.49-0.47c0.17-0.78,0.16-0.81,0.9-0.58
			c0.37,0.12,0.92-0.06,1.05,0.53c0.06,0.25-0.06,0.38-0.8,1.04c0.87,0.16,1.55-0.27,2.26-0.44c0.42-0.1,0.13-0.42,0.02-0.66
			c-0.29-0.62,0.13-0.93,0.59-0.74c0.85,0.36,1.53-0.02,2.26-0.27c0.1,1.29,0.74,1.76,2.28,1.7c0.19-0.33-0.11-0.48-0.26-0.68
			c-0.34-0.43-0.34-0.67,0.31-0.75c0.78-0.09,1.51-0.61,2.34-0.25l-0.02-0.02c0.13,0.61-0.17,0.9-0.75,0.91
			c-0.45,0.01-0.37,0.32-0.36,0.57c0.01,0.35,0.13,0.46,0.52,0.29c0.49-0.22,0.99,0.14,1.5,0.19c0.18,0.02,0.58,0.11,0.39,0.41
			c-0.66,1.01,0.15,0.67,0.59,0.69c0.29,0.02,0.65-0.22,0.85,0.13c0.07,0.12-0.04,0.47-0.15,0.52c-0.33,0.13-0.65,0.09-0.99-0.14
			c-0.56-0.39-0.93-1.08-1.73-1.11c-0.23-0.01-0.51-0.15-0.68-0.07c-0.92,0.45-1.83,0.92-2.7,1.46c-0.21,0.13-0.46,0.46-0.33,0.82
			c0.03,0.09,0.17,0.19,0.26,0.19c0.38,0,0.52-0.24,0.6-0.59c0.13-0.59,0.47-0.47,1-0.49c0.92-0.04,1.66,0.26,2.46,0.52
			c0.31,0.1,0.66,0.07,0.63,0.51c-0.03,0.43-0.41,0.41-0.71,0.46c-0.16,0.03-0.32,0.03-0.47,0.07c-0.18,0.06-0.39,0.14-0.34,0.39
			c0.05,0.22,0.35,0.38,0.44,0.31c0.53-0.43,1.44,0,1.8-0.82c0.19-0.44,0.48-0.6,0.9-0.19c0.43,0.43,0.88,0.01,1.37,0
			c-0.47,0.32,0.13,1.73-1.28,1.1c-0.2-0.09-0.74,0.56-1.1,0.9c-0.13,0.12-0.08,0.32,0.12,0.36c0.24,0.05,0.59,0.31,0.69-0.11
			c0.26-1.2,0.59-0.66,1.04-0.1c0.49,0.61,1.63,0.34,1.85-0.46c0.22-0.8,0.28-1.39,1.46-0.93c0.73,0.29,0.97-0.61,0.9-1.65
			c0.57,0.57,1.35,0.68,0.49,1.43c-0.16,0.14-0.52,0.16-0.4,0.48c0.11,0.31,0.45,0.35,0.71,0.28c0.63-0.17,0.76,0.09,0.68,0.65
			c-0.03,0.23-0.11,0.55,0,0.69c0.31,0.37-0.52,1.06,0.4,1.22c0.89,0.16,0.02-0.93,0.75-0.88c0.03,0.1,0.1,0.23,0.1,0.36
			c0,0.62,0.3,1.09,0.89,0.92c0.31-0.09,0.62-0.54,0.26-1.2c-0.2-0.37-0.16-1.22-0.2-1.94c0.62,0.1,0.7,0.37,0.69,0.89
			c-0.02,0.64,0.37,1.02,0.94,0.47c0.64-0.63,0.93,0.65,1.48,0.19L91.36,208.76z M94.9,214.4c-0.14-0.11-0.25-0.22-0.38-0.28
			c-0.61-0.29-1.21-0.59-1.83-0.85c-11.18-4.67-22.69-5.07-34.4-2.59c-7.3,1.55-14.14,4.3-20.61,8.02c-0.7,0.4-0.89,0.64-0.36,1.38
			c8.73,12.22,17.44,24.46,26.14,36.71c0.51,0.72,0.74,0.77,1.28,0.01c3.4-4.83,6.84-9.63,10.27-14.44
			c6.44-9.04,12.89-18.07,19.33-27.11C94.53,214.99,94.7,214.72,94.9,214.4z M7.44,263.1c6.97-0.66,13.91-1.33,20.86-1.98
			c11.05-1.03,22.11-2.05,33.16-3.08c0.41-0.04,0.99,0.09,1.18-0.34c0.15-0.36-0.31-0.69-0.54-1
			c-8.29-11.66-16.59-23.31-24.89-34.97c-0.41-0.58-0.72-1.41-1.28-1.67c-0.8-0.36-1.14,0.73-1.76,1.08
			c-5.72,3.24-10.35,7.8-14.6,12.67c-7.08,8.11-11.66,17.49-13.09,28.27C6.34,263.06,6.56,263.33,7.44,263.1z M63.16,258.97
			c-5.97,0.55-11.61,1.06-17.26,1.58c-8.6,0.8-17.21,1.62-25.81,2.43c-4.26,0.4-8.53,0.79-12.79,1.17c-0.64,0.06-1.08,0.17-1.1,1.02
			c-0.21,6.4,0.82,12.55,3.63,18.35c4.42,9.1,11.56,15.22,20.8,19.09c0.87,0.36,1.29,0.22,1.83-0.54
			c8.7-12.25,17.43-24.48,26.16-36.71C60.08,263.31,61.53,261.25,63.16,258.97z M52.6,306.28c2.58-0.06,5.14-0.32,7.69-0.72
			c10.07-1.56,19.28-5.3,27.83-10.78c0.62-0.39,0.68-0.64,0.25-1.24c-7.91-11.06-15.8-22.14-23.66-33.23
			c-0.51-0.72-0.73-0.65-1.21,0.02c-10,14.06-20.01,28.11-30.05,42.14c-0.64,0.9-0.41,1.05,0.51,1.33
			C40.03,305.71,46.25,306.49,52.6,306.28z M65.45,257.64c4.15-0.38,8.02-0.72,11.88-1.08c8.6-0.81,17.21-1.63,25.81-2.44
			c4.03-0.38,8.05-0.76,12.08-1.11c0.62-0.05,0.92-0.24,0.92-0.91c0.01-1.15,0.15-2.3,0.14-3.44c-0.11-14.7-6.63-25.7-19.19-33.21
			c-0.83-0.5-1.26-0.49-1.88,0.38c-8.39,11.84-16.83,23.65-25.25,35.47C68.5,253.35,67.04,255.4,65.45,257.64z M41.09,207.87
			c0.4,0.23,0.88-0.57,1.12,0.12c0.27,0.77-0.45,0.37-0.7,0.55c-0.43,0.32-0.13,0.65,0.12,0.72c0.52,0.15,0.91,0.45,1.31,0.77
			c0.1,0.08,0.29,0.06,0.43,0.04c0.05-0.01,0.1-0.27,0.09-0.28c-0.87-0.42-0.29-1.13-0.26-1.65c0.06-1.1-0.98-0.68-1.41-1.1
			C41.54,206.81,41.17,207.42,41.09,207.87z M70.57,201.77c-0.3,0.03-0.49,0.08-0.56,0.3c-0.07,0.23-0.11,0.53,0.11,0.66
			c0.84,0.48,1.05,0.84-0.11,1.1c-0.16,0.04-0.23,0.2-0.21,0.37c0.02,0.18,0.1,0.28,0.29,0.29c0.5,0.05,2-1.27,1.92-1.86
			C71.88,201.83,70.86,202.31,70.57,201.77z M63.75,205.59c0.82-0.13,0.39-1.45,1.52-1.11c-0.95-0.96-3.12-0.6-3.59,0.46
			c-0.12,0.27-0.47,0.7,0.07,0.89c0.42,0.14,0.53-0.3,0.53-0.59c0.01-0.74,0.46-0.62,0.97-0.63
			C64.06,204.6,63.64,205.17,63.75,205.59z M23.36,227.82c0.73-0.76-0.56-0.76-0.13-1.34c0.12-0.16,0.18-0.39-0.08-0.46
			c-0.13-0.04-0.32,0.04-0.45,0.11c-0.35,0.2-1.08,2.34-0.97,2.75c0.07,0.25,0.13,0.5,0.45,0.34c0.18-0.09,0.27-0.26,0.08-0.47
			c-0.47-0.52,0.13-0.74,0.32-1.07C22.94,227.06,23.21,227.88,23.36,227.82z M46.56,208.99c0.11-0.42,0.78,0.06,0.71-0.39
			c-0.08-0.56-0.76-0.55-1.17-0.77c-0.19-0.1-0.53,0.11-0.48,0.37C45.72,208.65,46.04,208.92,46.56,208.99z M67.8,204.73
			c0.23,0.52-0.65,0.85-0.17,1.33c0.39-0.47,1.29-0.16,1.31-0.25C69.15,204.97,68.05,205.34,67.8,204.73z M35.54,217.4
			c1.12-0.36,0.44-1.33,0.8-1.92C35.38,215.81,35.31,216.51,35.54,217.4z M85.16,208.57c0.04-0.39-0.11-0.66-0.47-0.72
			c-0.48-0.08-0.58,0.34-0.66,0.67c-0.1,0.39,0.17,0.45,0.48,0.46C84.84,208.99,85.16,209.03,85.16,208.57z M25.14,223.87
			c-0.03,0.09-0.06,0.18-0.09,0.28c0.28,0.29,0.56,0.57,0.84,0.86c-0.06-0.69,0.83-1.11,0.57-1.4
			C26.07,223.18,25.67,224.01,25.14,223.87z M32.72,218.32c-0.03,0.09-0.06,0.18-0.09,0.27c0.14,0.07,0.3,0.12,0.43,0.21
			c0.49,0.35,0.89,0.03,1.29-0.17c0.2-0.1,0.1-0.26,0-0.38c-0.33-0.4-0.7-0.15-1.07-0.05C33.1,218.26,32.91,218.29,32.72,218.32z
			 M72.66,206.32c-0.41,0.12-0.72,0.4-0.78,0.8c-0.04,0.29,0.28,0.31,0.52,0.28c0.39-0.05,0.65-0.28,0.7-0.67
			C73.14,206.42,72.91,206.34,72.66,206.32z M28.25,218.16c-0.22,0.79-0.25,1.25,0.02,1.72c0.15,0.25,0.27,0.54,0.59,0.33
			c0.26-0.17,0.29-0.53,0.03-0.7C28.48,219.26,28.57,218.79,28.25,218.16z M60.28,207.34c0.34-0.38,0.04-0.57-0.28-0.65
			c-0.42-0.1-0.57,0.29-0.6,0.58c-0.05,0.52,0.61,0.74,0.79,0.73C61.01,207.96,59.99,207.56,60.28,207.34z M29.82,221.22
			c-0.04-0.32-0.18-0.6-0.47-0.61c-0.42-0.01-0.48,0.35-0.43,0.68c0.04,0.26,0.11,0.62,0.43,0.62
			C29.74,221.89,29.78,221.52,29.82,221.22z M61.22,207.51c0.35-0.12,0.71-0.26,0.73-0.76c0.01-0.24-0.11-0.39-0.33-0.39
			c-0.49,0-0.65,0.38-0.76,0.77C60.8,207.36,60.93,207.5,61.22,207.51z M37.61,211.68c-0.11-0.35-0.36-0.52-0.7-0.51
			c-0.29,0.01-0.54,0.14-0.51,0.49c0.03,0.33,0.19,0.65,0.52,0.68C37.35,212.39,37.4,211.93,37.61,211.68z M65.28,207.81
			c-0.48-0.21-0.91-0.24-1.19,0.27c-0.08,0.14-0.1,0.36,0.07,0.41C64.76,208.66,64.82,207.92,65.28,207.81z M57.43,209.61
			c0.62-0.16,1.43,0.2,1.76-0.74C58.65,209.28,57.83,208.81,57.43,209.61z M43.28,211.92c0.06-0.27-0.02-0.45-0.27-0.42
			c-0.43,0.07-0.5,0.45-0.56,0.8c-0.04,0.23,0.1,0.4,0.33,0.39C43.31,212.66,43.1,212.14,43.28,211.92z M37.14,214.64
			c-0.06-0.32-0.33-0.41-0.58-0.49c-0.21-0.06-0.42,0.02-0.37,0.28c0.06,0.29,0.15,0.63,0.57,0.6
			C36.97,215.01,37.06,214.83,37.14,214.64z M52.82,209.04c-0.08-0.45-0.09-0.74-0.42-0.66c-0.3,0.08-0.31,0.42-0.35,0.68
			c-0.04,0.22,0.07,0.38,0.32,0.34C52.68,209.34,52.84,209.15,52.82,209.04z"/>
		<path class="st4" d="M215.11,308.67c0.03-0.05,0.06-0.1,0.08-0.15c0.01-0.02-0.02-0.06-0.03-0.09c2.42-0.08,4.84-0.16,7.26-0.23
			c0.02,0.08,0.05,0.16,0.07,0.24C220.03,308.52,217.57,308.6,215.11,308.67z"/>
		<path class="st2" d="M132.1,229.31c-1.71-0.64-3.4-1.28-5.02-2.1c-3.41-1.72-6.38-3.99-8.82-6.93c-0.38-0.46-0.78-0.66-1.39-0.72
			c-3.72-0.34-7.4-0.89-10.76-2.67c-3.56-1.88-4.25-4.58-3.02-7.54c0.59-1.41,1.77-2.3,3.08-3.02c1.77-0.97,3.68-1.42,5.66-1.69
			c0.4-0.06,0.81,0,0.85-0.69c0.36-7.48,3.02-14.14,7.44-20.08c6.22-8.35,14.2-14.34,24.32-17.13c6.95-1.92,13.75-1.43,20.09,2.32
			c3.27,1.94,5.81,4.65,7.61,8.01c0.4,0.74,0.8,0.94,1.64,0.87c9.97-0.82,19.07,1.63,26.97,7.81c7.95,6.22,10.21,14.46,7.76,24.11
			c-1.23,4.85-3.43,9.28-6.19,13.42c-10.36,15.57-22.92,29.06-38.31,39.78c-5.94,4.14-12.31,7.49-19.44,9.14
			c-3.71,0.86-7.45,1.12-11.2,0.29c-0.65-0.14-1.1-0.02-1.56,0.48c-2.1,2.27-4.25,4.5-6.37,6.76c-2.22,2.36-3.17,5.15-2.79,8.39
			c0.38,3.26-0.55,6.1-2.79,8.52c-0.36,0.39-0.58,0.61-1.09,0.12c-3.7-3.54-7.41-7.06-11.16-10.55c-0.58-0.54-0.32-0.8,0.07-1.21
			c2.08-2.18,4.14-4.38,6.21-6.57c0.69-0.73,0.91-1.56,0.59-2.52c-0.29-0.87-0.94-1.37-1.81-1.54c-1-0.19-1.74,0.3-2.4,1.01
			c-1.98,2.11-4,4.19-5.95,6.33c-0.58,0.64-0.91,0.63-1.46,0.02c-0.58-0.65-1.21-1.26-1.9-1.79c-0.79-0.61-0.86-1-0.1-1.8
			c5.57-5.81,11.07-11.7,16.63-17.52c0.71-0.75,0.95-1.41,0.81-2.49c-0.54-4.29,0.5-8.35,2.17-12.26
			c2.52-5.91,6.13-11.08,10.75-15.54C131.53,230.05,131.93,229.84,132.1,229.31z M154.99,229.21c0.37-0.06,0.74-0.11,1.11-0.17
			c3.17-0.54,6.23-1.48,9.29-2.45c0.44-0.14,1.02-0.48,1.21,0.18c0.18,0.62-0.48,0.69-0.92,0.84c-3.64,1.25-7.34,2.21-11.14,2.86
			c-6.51,1.1-13.01,1.23-19.46-0.37c-1.27-0.31-2.12-0.12-2.92,0.79c-0.18,0.21-0.37,0.41-0.55,0.61
			c-3.37,3.19-6.12,6.85-8.26,10.96c-0.31,0.25-0.4,0.62-0.55,0.96c-2.41,4.59-4.01,9.39-3.42,14.67c0.32,2.88,1.28,5.52,3.53,7.53
			c0.14,0.54,0.49,0.86,1.03,0.97c0.81,1.18,2.04,1.81,3.24,2.45c3.42,1.83,7.02,3.03,10.98,2.73c0.42,0.15,0.83,0.17,1.25,0
			c5.01-0.13,9.6-1.78,14.07-3.86c3.11-1.45,6.05-3.22,8.93-5.11c3.17-2.09,6.25-4.28,9.11-6.77c0.38-0.14,0.67-0.39,0.88-0.73
			c1.51-1.1,2.89-2.34,4.2-3.66c1.02-0.96,2.17-1.78,3.06-2.87c0.34-0.22,0.64-0.48,0.84-0.84c3.83-3.51,7.26-7.4,10.6-11.36
			c2.12-2.51,4.2-5.05,6.04-7.77c2.69-3.55,5.22-7.21,7.15-11.24c0.24-0.27,0.41-0.58,0.46-0.94c1.65-3.1,2.73-6.39,3.27-9.85
			c0.33-2.11,0.59-4.23,0.07-6.35c0.02-0.5,0.03-1-0.24-1.45c-0.14-1.85-0.8-3.55-1.7-5.13c-4.99-8.76-13.19-12.53-22.58-14.42
			c-0.39-0.06-0.78-0.13-1.18-0.19c-0.43-0.07-0.86-0.17-1.29-0.21c-7.69-0.64-15.07,0.65-22.15,3.68
			c-0.29,0.12-0.58,0.25-0.87,0.38c-0.31,0.14-0.63,0.24-0.83-0.13c-0.22-0.42,0.05-0.66,0.41-0.83c0.25-0.12,0.5-0.24,0.75-0.35
			c3.75-1.66,7.66-2.76,11.71-3.39c1.4-0.22,1.44-0.26,0.7-1.49c-3.3-5.44-8.11-8.65-14.38-9.69c-0.37-0.06-0.75-0.12-1.12-0.18
			c-2.72-0.37-5.44-0.32-8.13,0.18c-4.83,0.89-9.29,2.71-13.36,5.45c-0.41,0.07-0.68,0.35-0.99,0.6c-3.3,2.09-6.24,4.59-8.81,7.54
			c-0.36,0.26-0.67,0.56-0.87,0.97c-2.62,2.9-4.73,6.13-6.3,9.71c-2.21,4.67-3.41,9.58-3.15,14.76c0.11,2.16,0.46,4.32,1.36,6.33
			c0.06,0.46,0.2,0.89,0.51,1.25c0.07,0.22,0.12,0.46,0.22,0.67c3.9,8.03,10.61,12.35,19.04,14.4c0.34,0.24,0.73,0.3,1.14,0.3
			C142.33,230.61,148.66,230.44,154.99,229.21z"/>
		<path class="st3" d="M222.41,308.2c-2.42,0.08-4.84,0.16-7.26,0.23c-15.24-0.56-28.34-5.55-37.43-18.45
			c-5.17-7.34-7.06-15.67-6.45-24.58c0.09-1.3,0.25-2.6,0.42-3.9c0.06-0.47-0.02-1.24,0.7-1.15c0.74,0.09,0.43,0.79,0.38,1.27
			c-0.06,0.59-0.14,1.18-0.27,1.76c-0.17,0.78,0.13,0.95,0.87,0.88c5.29-0.52,10.58-1,15.87-1.5c5.88-0.56,11.76-1.14,17.65-1.69
			c6.87-0.64,13.74-1.26,20.61-1.9c1.21-0.11,1.23-0.2,0.5-1.21c-7.38-10.27-14.77-20.54-22.13-30.82
			c-0.31-0.43-1.25-0.99-0.45-1.54c0.75-0.51,1,0.53,1.32,0.97c7.52,10.42,15.01,20.85,22.5,31.28c0.23,0.32,0.47,0.63,0.8,1.06
			c1.28-1.78,2.52-3.5,3.74-5.22c8.86-12.43,17.71-24.87,26.61-37.28c0.62-0.86,0.52-1.13-0.41-1.55
			c-9.09-4.14-18.62-5.26-28.46-4.25c-6.95,0.71-13.61,2.57-20.02,5.31c-0.25,0.11-0.52,0.2-0.79,0.25
			c-0.27,0.05-0.48-0.09-0.53-0.36c-0.09-0.47,0.27-0.61,0.6-0.75c2.51-1.1,5.06-2.06,7.68-2.86c6.37-1.95,12.88-3.07,19.55-3.04
			c9.23,0.05,17.99,1.99,26.09,6.6c0.75,0.43,1.39,1.43,2.52,1.07c0.08,1.35,1.57,1.28,2.16,2.15c0.55,0.82,1.09,0.43,1.44-0.28
			c0.08-0.17,0.05-0.41,0.32-0.39c0.24,0.02,0.21,0.27,0.3,0.43c0.48,0.79,1.18,1.43,1.32,2.43c0.04,0.3,0.57,0.12,0.98,0.26
			c-0.74,0.44-0.79,0.87-0.18,1.44c0.36,0.33,0.83,0.55,1.06,1.06c0.19,0.43,0.27,0.38,0.6-0.15c0.07-0.11,0.25-0.23,0.38-0.23
			c0.47,0.02,1.28,1.78,0.93,2.06c-0.42,0.34-0.2,0.65,0.04,0.71c0.42,0.09,1.18,0.66,1.21,0.25c0.11-1.47,1.26-0.66,1.88-1.13
			c0.04,0.57-0.74,0.44-0.59,0.93l0.02-0.01c-1.5,0.01-0.26,1.47-1,1.9c-0.13,0.07-0.02,0.34,0.12,0.39
			c0.56,0.22,0.86-0.38,1.36-0.46c0.43-0.07,0.44-0.43,0.1-0.67c-0.36-0.25-0.37-0.57-0.33-0.93l-0.01,0.02
			c0.45,0.12,0.91,0.24,1.37,0.36c-0.6,1.25-0.38,1.89,0.94,2.79c0.29-0.26,0.11-0.59,0.12-0.88c0.02-0.42,0.18-0.63,0.58-0.37
			c0.39,0.26,0.76,0.51,1.24,0.64c0.37,0.1,0.66,0.5,1.01,0.78c-0.72,0.52-1.23,0.53-1.41-0.48c-1.09,1.03-0.03,1.53,0.53,2.15
			c0.55,0.6,0.64,1.01-0.37,1.04l0.02,0.01c-0.49-1.37-1.07-1.8-2.17-1.62c-0.37,0.06-0.74,0.13-0.71,0.61
			c0.03,0.58,0.35,0.32,0.65,0.21c0.31-0.12,0.24,0.19,0.31,0.34c0.17,0.35,0.36,0.7,0.52,1.05c0.15,0.32,0.75,0.49,0.39,0.97
			c-0.36,0.47-0.7-0.12-1.06-0.1c-0.05-0.05-0.14-0.15-0.16-0.14c-0.14,0.1-0.07,0.19,0.02,0.28c0.33,0.66,0.77,1.07,1.58,0.7
			c0.24-0.11,0.61-0.21,0.63,0.23c0.03,0.69,0.51,0.91,1.31,1.04c-0.56,0.3-0.86,0.59-1.18,0.61c-0.86,0.06-1.16,0.59-0.83,1.21
			c0.28,0.53,0.95,0.81,1.64,0.42c0.24-0.14,0.48-0.29,0.73-0.38c0.22-0.08,0.53-0.12,0.61,0.17c0.43,1.58,1.26,0.86,2.12,0.22
			c0.12,0.86,0.16,1.46-0.88,1.13c-0.58-0.19-0.6,0.31-0.39,0.46c1.37,0.98-0.09,1.38-0.37,2.02c-0.16,0.37-1.11,0.27-0.63,1
			c0.54,0.83,0.72-0.54,1.27-0.18c-0.08,0.46-0.47,0.74-0.77,1.06c-0.23,0.26-0.74,0.27-0.76-0.09c-0.02-0.73-0.34-0.35-0.55-0.21
			c-0.93,0.61-0.06,1.36,0.1,1.81c0.25,0.66,0.44-0.3,0.76-0.35c1.53-0.28,2.42-1.43,3.33-2.6c0.4,0.54,0.23,0.77-0.19,1.1
			c-0.4,0.31-0.53,0.88,0.12,1.08c1.1,0.35,0.71,1.05,0.43,1.64c-0.68,1.41-1.8,2.04-3.39,1.77c-0.25-0.04-0.74-0.21-0.78,0.24
			c-0.04,0.52,0.48,0.34,0.78,0.47c0.76,0.33,1.43-0.11,2.12-0.31c0.15,0.59-0.42,0.48-0.48,0.81c-0.08,0.45-0.73,0.89,0.34,1.15
			c0.94,0.23,1.05,1.03,0.5,1.82c-0.34,0.48-0.27,0.92,0.35,0.88c0.74-0.04,0.88,0.54,1.33,0.93c-0.6,0.28-1.22,0.35-1.77,0.61
			c-0.62,0.29-1.56-0.02-2.34-0.16c-0.34-0.06-0.19-0.46-0.16-0.73c1.35,0.17,1.16-1.32,1.93-1.81c0.16-0.1-0.03-0.47-0.23-0.6
			c-0.2-0.13-0.53-0.12-0.64,0.1c-0.3,0.65-1.72,0.75-0.95,1.93c0.01,0.02-0.16,0.16-0.24,0.24c-0.71,0.22-1.26,0.51-0.36,1.2
			c0.51,0.39,0.01,1.11,0.55,1.5c0.42,0.3,0.82,0.6,1.48,0.72c-0.54,0.33-0.93,0.69-0.71,1.3c0.09,0.24,0.67,0.36,0.24,0.71
			c-0.27,0.22-0.59-0.09-0.89-0.15c-0.28-0.06-0.68-0.14-0.42-0.62c0.1-0.18,0.16-0.39-0.11-0.47c-0.25-0.07-0.28,0.13-0.36,0.33
			c-0.24,0.65-1.1,1.1-0.48,2.03c0.15,0.22-0.32,0.27-0.61,0.15c-0.36-0.15-0.82-0.33-0.97,0.24c-0.08,0.29-0.55,0.49-0.27,0.81
			c0.27,0.31,0.61,0.09,0.83-0.13c0.58-0.58,1.29,0.54,1.87-0.17c0.09-0.11,0.49,0.11,0.55-0.24c0.05-0.29-0.15-0.41-0.41-0.46
			c-0.56-0.09-0.48-0.55-0.29-0.8c0.26-0.34,0.45,0.1,0.64,0.24c1.02,0.78,1.2,1.96,0.33,2.09c-0.7,0.1-1.46,0.88-2.25,0.19
			c-0.19-0.16-0.45-0.29-0.62-0.05c-0.26,0.35,0.1,0.65,0.2,0.96c0.05,0.17,0.32,0.37,0.58,0.14c0.74-0.66,1.67-0.09,2.48-0.4
			c0.24-0.09,0.56,0.1,0.5,0.34c-0.13,0.51-0.07,1.33-0.57,1.43c-1.18,0.22-1.32,1.07-1.67,2.16c0.78-0.45,1.72-0.32,1.69-1.44
			c0-0.2,0.12-0.32,0.28-0.19c0.75,0.6,0.5-0.19,0.6-0.43c0.11-0.26-0.11-0.81,0.31-0.74c0.41,0.07,0.81,0.35,1.24,0.45
			c0.01,0-0.02,0.3-0.05,0.31c-1.03,0.17-0.92,1.66-2.1,1.73c-0.66,0.04-0.33,0.78-0.48,1.18l0.01-0.02
			c-0.44-0.68-1.35-0.3-1.87-0.83c-0.03-0.03-0.3,0.09-0.37,0.19c-0.2,0.29-0.13,0.57,0.04,0.88c0.21,0.37,1.16,0.99-0.26,0.96
			c-0.22,0-0.19,0.31-0.14,0.49c0.07,0.25,0.08,0.62,0.5,0.38c0.22-0.13,0.37-0.08,0.48,0.12c0.12,0.22-0.01,0.36-0.19,0.48
			c-0.1,0.06-0.17,0.16-0.25,0.25c-1.04,1.27-1.04,1.27-1.71-0.26c-0.32,0.67-0.31,1.32-0.38,1.94c-0.04,0.35,0.03,0.56,0.41,0.51
			c0.99-0.14,0.82,0.59,0.86,1.15l0.02-0.02c-0.3-0.03-0.61,0.06-0.78-0.35c-0.13-0.32-0.46-0.46-0.79-0.27
			c-0.65,0.37-1.07,0.43-0.93-0.54c0.03-0.23-0.1-0.39-0.33-0.4c-0.36-0.02-0.26,0.27-0.32,0.48c-0.29,1.02,0.63,1.43,1.03,2.09
			c0.15,0.25,0.43,0.07,0.55-0.17c0.14-0.3,0.35-0.65,0.68-0.5c0.33,0.14,0.06,0.56,0.12,0.86c0.03,0.15,0.01,0.31,0.02,0.48
			c-1.35-0.33-1.92,0.02-2.45,1.45c0.43,0.43,0.96-0.52,1.37,0.11c0.05,0.08,0.04,0.25-0.01,0.34c-0.38,0.71,0.2,1.74-0.8,2.26
			c-0.59-0.55-0.71-1,0.27-1.28c-0.04-0.22-0.22-0.13-0.33-0.15c-0.11-0.02-0.25,0.02-0.35-0.03c-0.51-0.26-0.84-0.32-0.83,0.45
			c0,0.23-0.3,0.45-0.44,0.69c-0.31,0.52-0.59,0.88-1.01,0.07c-0.15-0.29-0.31,0.06-0.47,0.1l0.02,0.02c0.26-0.55,1-0.48,1.28-1.11
			c0.31-0.68,0.15-1.21-0.13-1.79c-0.12-0.25-0.35-0.32-0.6-0.23c-0.33,0.12-0.08,0.37-0.11,0.52c-0.22,0.84-1.08,1.18-1.59,1.81
			c-0.18,0.23-0.57-0.2-0.48-0.65c0.07-0.37,0.42-1-0.2-1.02c-0.58-0.02-0.28,0.67-0.36,1.06c-0.09,0.45-0.12,0.82,0.25,1.17
			c0.19,0.18,0.36,0.5-0.05,0.65c-0.63,0.23-0.55,0.75-0.51,1.6c-0.45-0.72-1.17-0.84-1.01-1.6c0.17-0.05,0.38-0.06,0.39-0.31
			c0.01-0.17-0.14-0.32-0.26-0.27c-0.14,0.06-0.23,0.25-0.34,0.38c-1.47,0.58-1.6,1.26-0.47,2.31c0.31,0.29,0.77,0.62,0.19,1.04
			c-0.79,0.58-0.25,0.98,0.14,1.41c0.14,0.16,0.52,0.15,0.41,0.46c-0.05,0.13-0.31,0.22-0.49,0.27c-0.29,0.1-0.4-0.13-0.54-0.34
			c-0.16-0.23,0.08-0.74-0.4-0.71c-0.37,0.02-0.44,0.4-0.47,0.73c-0.03,0.47-0.32,0.39-0.57,0.22c-0.37-0.26-0.77-0.35-1.19-0.47
			c-0.37-0.11-0.7-0.69-1.03,0.01c-0.35,0.73,0.63,0.37,0.7,0.83c-0.28,0.27-0.57,0-0.83-0.03c-0.38-0.05-0.77-0.09-0.9,0.32
			c-0.14,0.46,0.34,0.66,0.61,0.7c0.68,0.1,1.16,0.71,1.89,0.67c0.19-0.01,0.55,0.04,0.41,0.39c-0.08,0.21-0.31,0.29-0.6,0.2
			c-0.91-0.27-0.92-0.25-0.94,0.65c-0.01,0.45-0.37,0.55-0.67,0.72c-0.27,0.16-0.54,0.13-0.78-0.03c-0.39-0.26,0.06-0.46,0.09-0.69
			c0.02-0.19,0.2-0.38,0.05-0.55c-0.3-0.33-0.33,0.14-0.49,0.2c-0.7,0.24-0.53-0.65-0.99-0.78c-0.49,0.32-0.62,0.78-0.2,1.18
			c0.27,0.26,1-0.23,1.1,0.75c-0.91-0.72-1.72,0.03-2.6-0.08c-0.43-0.05-0.7,0.35-0.72,0.9c-0.03,0.78,0,1.68-1.31,1.31
			c-0.38-0.11-0.74,0.33-0.37,0.68c0.6,0.59,0,1.08,0.12,1.73c-1.52-1.58-2.44-1.43-3.41,0.41c-0.07,0.13-0.2,0.28-0.32,0.31
			c-2.29,0.55-3.86,2.3-5.78,3.46c-8.98,5.41-18.62,8.9-29.04,10.16C223.45,308.17,222.93,308.17,222.41,308.2z M279.57,270.8
			c0.16-0.28,0.83-0.08,0.68-0.43c-0.12-0.29-0.53-0.66-1.09-0.71c0.08,0.38,0.14,0.66,0.2,0.95c-0.17,0.05-0.35,0.09-0.52,0.14
			c0.04,0.09,0.04,0.23,0.11,0.27C279.24,271.2,279.45,271.1,279.57,270.8z M229.17,260.13c-0.49,0.02-0.75,0.01-1.01,0.03
			c-5.29,0.49-10.58,0.99-15.87,1.48c-10.18,0.95-20.37,1.91-30.55,2.86c-2.76,0.26-5.53,0.51-8.29,0.78
			c-0.56,0.05-1.15-0.02-1.19,0.92c-0.18,4.48,0.24,8.87,1.57,13.16c3.67,11.83,11.64,19.62,22.87,24.36
			c0.86,0.36,1.28,0.21,1.82-0.54c9.14-12.86,18.31-25.7,27.47-38.55C227.02,263.18,228.03,261.74,229.17,260.13z M219.51,307.37
			c2.06,0.01,4.94-0.35,7.79-0.84c9.57-1.66,18.41-5.21,26.6-10.43c0.86-0.55,0.89-0.9,0.31-1.7
			c-7.85-10.86-15.67-21.75-23.47-32.65c-0.52-0.72-0.76-0.91-1.37-0.05c-9.92,13.97-19.87,27.92-29.85,41.85
			c-0.63,0.88-0.38,1.08,0.5,1.36C206.09,306.83,212.31,307.59,219.51,307.37z M231.5,258.75c2.84-0.25,5.41-0.45,7.97-0.7
			c8.73-0.82,17.45-1.65,26.18-2.47c5.21-0.49,10.42-0.98,15.64-1.45c0.64-0.06,0.85-0.29,0.91-0.94
			c0.62-6.56-0.46-12.84-2.97-18.89c-1.95-4.71-4.86-8.75-8.68-12.14c-2.34-2.08-4.65-4.16-7.42-5.68
			c-0.79-0.44-1.18-0.48-1.77,0.35c-7.96,11.23-15.96,22.43-23.95,33.63C235.48,253.16,233.56,255.87,231.5,258.75z M281.88,255.71
			c0.16-0.85-0.44-0.54-0.8-0.5c-6.87,0.65-13.73,1.31-20.6,1.95c-9.55,0.89-19.11,1.78-28.66,2.63c-0.98,0.09-0.93,0.34-0.44,1.02
			c7.97,11.07,15.93,22.14,23.87,33.23c0.38,0.54,0.62,0.74,1.27,0.27c9.61-6.94,17.13-15.6,21.9-26.53
			C280.1,263.92,281.26,259.89,281.88,255.71z M281.3,266.58c-0.3-0.03-0.39,0.25-0.26,0.34c0.46,0.31,0.48,1.14,0.91,1.18
			c0.77,0.08,0.38-0.77,0.62-1.17c0.1-0.16,0.11-0.38,0.19-0.56c0.31-0.73-0.09-1.19-0.6-1.62c-0.21-0.17-0.44-0.26-0.61-0.03
			c-0.18,0.24,0.03,0.43,0.21,0.58c0.27,0.22,0.86,0.23,0.56,0.82C282.11,266.55,281.92,267.09,281.3,266.58z M286.5,246.16
			c0.08-0.31,0.03-0.71-0.33-0.51c-0.59,0.33-1.09,0.83-1.6,1.28c-0.1,0.09,0.07,0.41,0.15,0.34c0.79-0.68,1.31,0.23,1.96,0.33
			c0.43,0.07,0.57-0.11,0.67-0.44c0.13-0.47-0.21-0.39-0.48-0.41C286.48,246.72,286.25,246.57,286.5,246.16z M282.65,258.37
			c0.42-0.16,0.81-0.34,1.22-0.46c0.27-0.08,0.45-0.18,0.27-0.48c-0.19-0.32-0.06-0.83-0.55-0.98c-0.16-0.05-0.43,0.01-0.41,0.1
			C283.4,257.28,282.28,257.61,282.65,258.37z M284.84,251.29c0.04-0.57,0.88-0.49,0.92-1.13c0.02-0.25-0.14-0.46-0.45-0.41
			c-0.65,0.1-0.83,0.6-0.95,1.14C284.29,251.17,284.5,251.21,284.84,251.29z M271.69,283.61c-0.14-0.33-0.37-0.69-0.73-0.63
			c-0.21,0.03-0.5,0.46-0.49,0.7c0.02,0.29,0.38,0.51,0.71,0.49C271.46,284.15,271.7,283.97,271.69,283.61z M278.19,276.3
			c0.28-0.71,0.12-1.15-0.25-1.58c-0.19-0.22-0.35-0.47-0.63-0.17c-0.18,0.19-0.17,0.52,0.06,0.6
			C277.87,275.31,277.85,275.85,278.19,276.3z M285.41,240.6c-0.04-0.27-0.07-0.59-0.44-0.56c-0.34,0.03-0.78,0.12-0.75,0.55
			c0.02,0.27,0.3,0.6,0.61,0.62C285.16,241.22,285.39,240.97,285.41,240.6z M284.79,252.28c-0.48-0.02-0.8-0.84-1.34-0.32
			c-0.21,0.2-0.24,0.66,0,0.87C284.09,253.39,284.32,252.52,284.79,252.28z M287.24,245.6c0.05,0.5,0.05,0.89,0.34,1.18
			c0.04,0.04,0.36-0.08,0.38-0.16C288.05,246.14,287.77,245.86,287.24,245.6z M282.2,236.54c-0.01-0.19-0.11-0.28-0.28-0.25
			c-0.09,0.02-0.21,0.11-0.22,0.18c-0.03,0.17,0.1,0.26,0.25,0.31C282.17,236.84,282.17,236.68,282.2,236.54z M270.19,283.94
			c-0.01-0.03,0-0.07-0.02-0.08c-0.03-0.01-0.07-0.02-0.1,0c-0.09,0.05-0.08,0.1,0.03,0.12
			C270.13,283.98,270.16,283.95,270.19,283.94z M265.48,288.3c-0.02,0.12-0.06,0.21-0.05,0.31c0,0.04,0.1,0.07,0.16,0.1
			c0.03-0.09,0.07-0.18,0.07-0.28C265.67,288.4,265.57,288.36,265.48,288.3z M284.77,241.8l0.04-0.07l-0.06-0.01L284.77,241.8z"/>
		<path class="st2" d="M209.79,143.98c0.47,0.72,1.1,0.22,1.59,0.13c4.56-0.82,9.11-1.7,13.66-2.56c0.44-0.08,1.04-0.4,1.17,0.3
			c0.13,0.69-0.54,0.64-0.98,0.72c-2.02,0.39-4.04,0.8-6.07,1.14c-0.89,0.15-1.27,0.47-1.43,1.45c-0.72,4.44-2.83,8.19-5.97,11.37
			c-0.7,0.71-1.52,1.27-2.48,1.64c0.2,0.59,0.8,0.73,1.19,1.09c0.69,0.63,0.64,0.99-0.3,1.26c-2.55,0.73-5.11,1.41-7.66,2.11
			c-0.36,0.1-0.75,0.22-0.89-0.24c-0.17-0.53,0.25-0.66,0.66-0.77c2.25-0.62,4.5-1.25,6.96-1.93c-1.56-1.16-2.95-2.29-4.45-3.28
			c-0.48-0.32-0.61-1.15-1.4-1c-0.16,0.01-0.3,0.04-0.33,0.23c0,0,0.02-0.01,0.02-0.01c-2.9,0.3-3.67-0.4-3.68-3.31
			c0-0.74,0-1.48,0.24-2.19c1.18-3.76,2.86-7.25,5.73-10.05c0.5-0.49,0.29-0.87,0.01-1.35c-0.93-1.65-2.04-3.19-2.8-4.93
			c0.38-0.59,0.75-0.57,1.14,0c0.17,0.25,0.39,0.46,0.59,0.69C205.92,137.76,207.9,140.84,209.79,143.98z M203.86,149.49
			c0.57-0.7,1.03-1.49,1.73-2.08c1.09-0.92,1.66-0.95,2.79-0.04c0.32-0.82,1.17-1.48,0.6-2.48c-0.7-1.23-1.45-2.44-2.16-3.67
			c-0.29-0.5-0.59-0.6-0.99-0.14c-1.79,2.02-3.35,4.18-4.19,6.78c-0.75,1.5-1.13,3.11-1.21,4.77c-0.04,0.73,0.02,1.57,0.76,1.99
			c0.68,0.39,1.29-0.05,1.87-0.39c0.58-0.34,1.12-0.72,1.54-1.35c-1.35-0.3-1.34-1.23-1.09-2.26
			C203.6,150.23,203.74,149.86,203.86,149.49z M214.69,150.74c1-1.79,1.66-3.67,2.06-5.66c0.17-0.85-0.19-0.92-0.89-0.77
			c-1.39,0.3-2.79,0.57-4.2,0.8c-0.44,0.07-0.71,0.28-0.94,0.63c-1.65,2.58-3.1,5.25-3.55,8.34c-0.15,1.04-0.44,2.34,0.62,2.96
			c1.14,0.66,2.04-0.37,3.01-1.08c-1.25-0.48-1.23-1.37-0.93-2.37c0.4-1.33,1.15-2.43,2.26-3.26
			C213.24,149.51,213.87,149.62,214.69,150.74z M206.08,154.05c-0.33,0.55-1.52,1.09-0.05,1.82
			C206.05,155.16,206.07,154.61,206.08,154.05z"/>
		<path class="st3" d="M234.9,215.14c6.1-0.17,11.02,0.32,15.87,1.41c1.33,0.3,1.42,0.48,0.71,1.63
			c-6.54,10.73-13.08,21.46-19.63,32.19c-0.73,1.19-0.96,1.21-1.72,0.11c-6.34-9.07-12.66-18.15-19.01-27.2
			c-0.59-0.84-0.48-1.26,0.4-1.74c5.43-2.93,11.22-4.76,17.28-5.74C231.2,215.43,233.6,215.17,234.9,215.14z M231.04,249.61
			c0.23-0.36,0.47-0.72,0.69-1.09c6.03-9.88,12.05-19.77,18.08-29.65c0.77-1.27,0.77-1.27-0.65-1.56
			c-6.28-1.26-12.59-1.48-18.93-0.62c-6.05,0.82-11.84,2.53-17.29,5.31c-0.79,0.4-0.93,0.67-0.38,1.46
			c5.91,8.4,11.77,16.83,17.65,25.25C230.43,249.03,230.58,249.42,231.04,249.61z"/>
		<path class="st3" d="M71.77,261.83c0,0.42,0.3,0.65,0.5,0.92c5.74,7.88,11.5,15.75,17.23,23.64c0.47,0.64,0.77,0.83,1.46,0.29
			c1.28-1,2.62-1.92,3.94-2.86c0.36-0.26,0.76-0.83,1.18-0.25c0.4,0.54-0.2,0.83-0.56,1.12c-1.5,1.24-3.12,2.31-4.74,3.39
			c-0.82,0.55-1.23,0.23-1.73-0.46c-3.32-4.59-6.67-9.16-10.02-13.74c-2.87-3.94-5.75-7.87-8.61-11.82
			c-0.22-0.3-0.63-0.58-0.38-1.04c0.23-0.42,0.68-0.35,1.07-0.37c12.87-0.74,25.73-1.48,38.6-2.22c1.56-0.09,1.66,0.03,1.31,1.57
			c-0.38,1.7-0.86,3.38-1.46,5.01c-0.14,0.37-0.28,0.84-0.8,0.66c-0.53-0.18-0.35-0.61-0.23-1c0.43-1.4,0.83-2.81,1.27-4.2
			c0.2-0.63,0.14-0.96-0.66-0.92c-12.35,0.73-24.7,1.45-37.05,2.18C71.99,261.74,71.88,261.79,71.77,261.83z"/>
		<path class="st3" d="M202.57,133.78c0.76,1.74,1.87,3.29,2.8,4.93c0.27,0.48,0.49,0.86-0.01,1.35c-2.86,2.8-4.54,6.29-5.73,10.05
			c-0.43-0.63-1.01-1.12-1.6-1.58c-1.77-1.35-3.34-2.9-4.86-4.51c3.87-2.47,6.03-6.13,7.27-10.43
			C201.16,133.48,201.86,133.68,202.57,133.78z"/>
		<path class="st3" d="M218.88,254.64c-0.46-0.6-0.88-1.16-1.31-1.72c-4.97-6.43-9.95-12.86-14.92-19.28
			c-0.12-0.16-0.25-0.31-0.37-0.47c-0.21-0.31-0.4-0.65,0-0.93c0.4-0.28,0.66,0.03,0.89,0.31c0.1,0.12,0.19,0.25,0.29,0.38
			c5.51,7.12,11.02,14.23,16.53,21.35c0.26,0.33,0.72,0.63,0.51,1.12c-0.23,0.54-0.8,0.42-1.26,0.46
			c-13.15,1.25-26.29,2.5-39.44,3.75c-1.24,0.12-1.42-0.05-1.09-1.3c0.37-1.38,0.81-2.73,1.23-4.09c0.12-0.4,0.28-0.83,0.8-0.64
			c0.53,0.19,0.31,0.65,0.2,1.02c-0.32,1.06-0.67,2.11-1,3.17c-0.18,0.56-0.03,0.77,0.62,0.7c8.88-0.87,17.76-1.73,26.64-2.58
			c3.2-0.31,6.4-0.59,9.6-0.89C217.47,254.95,218.15,254.97,218.88,254.64z"/>
		<path class="st5" d="M193.16,144.03c1.52,1.61,3.09,3.16,4.86,4.51c0.6,0.45,1.17,0.95,1.6,1.58c-0.24,0.71-0.24,1.45-0.24,2.19
			c0.01,2.92,0.78,3.61,3.68,3.31c-2.85,2.3-6.11,3.22-9.74,2.86c-0.35-0.03-0.7-0.1-1.06-0.16c-0.21-0.65,0.28-0.51,0.6-0.51
			c0.88,0.01,1.74-0.1,2.55-0.45c1.87-0.81,2.24-2.97,0.72-4.34c-0.4-0.36-0.89-0.7-1.4-0.85c-1-0.31-0.8-0.71-0.22-1.24
			c0.15-0.13,0.3-0.26,0.43-0.4c0.24-0.24,0.4-0.51,0.11-0.82c-0.28-0.3-0.57-0.2-0.83,0.04c-0.43,0.41-0.84,0.83-1.26,1.25
			c-1.88-1.52-3.66-3.15-5.27-4.96C189.61,145.58,191.42,144.89,193.16,144.03z"/>
		<path class="st5" d="M187.71,146.03c1.6,1.82,3.39,3.44,5.27,4.96c-1.51,2.01-2.23,4.25-2,6.78c-3.43-1.27-5.81-5.02-5.64-8.91
			c0.04-0.83,0.15-1.65,0.23-2.47C186.28,146.27,186.99,146.15,187.71,146.03z"/>
		<path class="st2" d="M190.97,157.76c-0.22-2.52,0.5-4.77,2-6.78c0.42-0.42,0.83-0.84,1.26-1.25c0.25-0.24,0.54-0.34,0.83-0.04
			c0.29,0.31,0.13,0.58-0.11,0.82c-0.14,0.14-0.29,0.27-0.43,0.4c-0.58,0.53-0.78,0.93,0.22,1.24c0.51,0.16,1,0.49,1.4,0.85
			c1.52,1.37,1.15,3.53-0.72,4.34c-0.81,0.35-1.67,0.46-2.55,0.45c-0.32,0-0.81-0.14-0.6,0.51c0.42,1.79,1.48,3.2,2.69,4.52
			c0.28,0.31,0.75,0.65,0.24,1.07c-0.41,0.34-0.71-0.05-0.99-0.34C192.59,161.94,191.49,160.01,190.97,157.76z M193.36,156.69
			c1.81-0.08,2.61-0.62,2.6-1.71c-0.01-0.95-1.45-2.17-2.49-2.13c-0.59,0.02-1.41,1.93-1.39,3.14
			C192.09,157.16,192.96,156.51,193.36,156.69z"/>
		<path class="st3" d="M83.91,266.41c-2.11-0.21-4.23-0.78-6.14-2.01c-0.32-0.21-0.74-0.46-0.61-0.92c0.13-0.47,0.61-0.45,1-0.45
			c2.27,0.02,4.36,0.7,6.31,1.82c0.42,0.24,1.05,0.53,0.83,1.14C85.12,266.51,84.5,266.37,83.91,266.41z"/>
		<path class="st4" d="M209.79,143.98c-1.9-3.13-3.88-6.22-5.49-9.51c2.26,0.73,3.65,2.38,4.62,4.44
			C209.68,140.5,209.92,142.21,209.79,143.98z"/>
		<path class="st3" d="M204.96,251.07c1.85,0.09,3.64,0.56,5.29,1.47c0.4,0.22,0.99,0.46,0.83,1.01c-0.15,0.51-0.77,0.49-1.24,0.48
			c-1.89-0.04-3.69-0.49-5.36-1.36c-0.47-0.24-1.21-0.49-1.03-1.13C203.63,250.9,204.4,251.17,204.96,251.07z"/>
		<path class="st3" d="M208.99,246.24c0.3,0.19,0.69,0.38,1.02,0.66c0.83,0.69,1.52,1.5,1.97,2.5c0.11,0.25,0.2,0.55,0,0.79
			c-0.24,0.28-0.54,0.09-0.75-0.04c-1.27-0.74-2.19-1.81-2.76-3.16C208.3,246.61,208.35,246.26,208.99,246.24z"/>
		<path class="st3" d="M82.39,270c-0.85-0.1-1.62-0.36-2.28-0.89c-0.28-0.23-0.55-0.51-0.38-0.91c0.16-0.38,0.56-0.42,0.91-0.39
			c0.84,0.07,1.62,0.33,2.27,0.87c0.28,0.23,0.54,0.52,0.38,0.91C83.13,269.97,82.74,269.98,82.39,270z"/>
		<path class="st3" d="M203.49,246.79c0.98,0.18,1.81,0.66,2.32,1.58c0.28,0.51,0.06,0.88-0.54,0.83c-1.05-0.09-1.84-0.66-2.36-1.56
			C202.61,247.12,202.87,246.82,203.49,246.79z"/>
		<path class="st3" d="M44.43,202.65c0.76,0.05,0.96,1.01,1.75,0.45c-0.8,0.77-0.27,2.12-1.7,2.74
			C45.34,204.63,45.42,203.67,44.43,202.65z"/>
		<path class="st3" d="M265.33,293.04c-0.67,0.07-1.18,0.03-0.76-0.87c0.24-0.51-0.42-1.29,0.52-1.65c0.03,0.82-0.36,1.69,0.37,2.36
			C265.42,292.93,265.37,292.99,265.33,293.04z"/>
		<path class="st3" d="M285.66,275.36c-0.65-0.25-1.11-0.43-1.63-0.64C285.16,274,285.16,274,285.66,275.36z"/>
		<path class="st3" d="M276.33,220.97c0.31,0.09,0.5,0.31,0.51,0.58c0.02,0.44-0.32,0.62-0.7,0.58c-0.22-0.02-0.63-0.08-0.53-0.45
			C275.71,221.36,275.99,221.11,276.33,220.97z"/>
		<path class="st3" d="M285.81,270.72c0.05-0.23-0.02-0.58,0.29-0.57c0.35,0.01,0.74,0.19,0.85,0.53c0.11,0.36-0.23,0.61-0.54,0.63
			C286.06,271.35,285.87,271.06,285.81,270.72z"/>
		<path class="st3" d="M282.9,233.12c0.44,0.4,1.06,0.39,1.14,0.99c0.01,0.09-0.41,0.36-0.55,0.31
			C282.96,234.23,282.71,233.83,282.9,233.12z"/>
		<path class="st3" d="M19.26,223.43c-0.3-0.16-0.67-0.33-0.73-0.68c-0.07-0.36,0.29-0.54,0.59-0.57c0.38-0.03,0.52,0.29,0.54,0.61
			C19.67,223.06,19.58,223.32,19.26,223.43z"/>
		<path class="st3" d="M41.45,205.1c0.01,0.6-0.35,0.95-0.87,0.71c-0.72-0.34-0.11-0.86-0.09-1.32c0.49,0.06,0.44,0.78,0.98,0.64
			L41.45,205.1z"/>
		<path class="st3" d="M22.22,219.09c-1.09,0.66-1.56,0.5-1.45-0.76C21.25,218.58,21.66,218.8,22.22,219.09z"/>
		<path class="st3" d="M24.18,218.31c0.62,0.41,1.04,0.63,0.68,1.25c-0.16,0.28-0.43,0.53-0.62,0.37
			C23.76,219.49,24.38,219.01,24.18,218.31z"/>
		<path class="st3" d="M269.26,291.26c-0.37-0.65-1.08-0.5-1-1.15c0.03-0.25,0.3-0.48,0.64-0.37
			C269.6,289.98,269.23,290.48,269.26,291.26z"/>
		<path class="st3" d="M17.65,220.49c0.25,0.61,0.88,0.64,0.77,1.19c-0.02,0.08-0.38,0.18-0.53,0.13
			C17.35,221.62,17.4,221.22,17.65,220.49z"/>
		<path class="st3" d="M280.51,223.57c-0.4,0.28-0.28,0.94-0.8,1.05c-0.06,0.01-0.36-0.54-0.32-0.78
			C279.51,223.21,280.05,223.56,280.51,223.57z"/>
		<path class="st3" d="M30.1,215.01c0.05-0.15,0.07-0.31,0.15-0.44c0.16-0.27,0.08-0.78,0.6-0.7c0.14,0.02,0.35,0.3,0.34,0.44
			c-0.03,0.36-0.23,0.66-0.64,0.71c-0.15,0.02-0.31-0.01-0.46-0.02C30.09,215,30.1,215.01,30.1,215.01z"/>
		<path class="st3" d="M288.25,272.56c-0.42-0.26-0.71-0.45-1.01-0.64c-0.06-0.5,0.44-0.49,0.6-0.45
			C288.29,271.59,288.3,272.01,288.25,272.56z"/>
		<path class="st3" d="M15.69,232.52c-0.54,0.96-0.54,0.96-1.51,0.33C14.76,232.79,15.27,232.92,15.69,232.52z"/>
		<path class="st3" d="M41.47,205.13c-0.02-0.54,0.32-0.87,0.71-1.13c0.15-0.1,0.28,0.15,0.28,0.28c-0.04,0.62-0.49,0.77-1.01,0.82
			C41.45,205.1,41.47,205.13,41.47,205.13z"/>
		<path class="st3" d="M55.6,201.76c-1.36,0.04-1.36,0.04-1.24-1.27C54.6,201.16,54.98,201.44,55.6,201.76z"/>
		<path class="st3" d="M268.18,291.02c-0.06,0.03-0.12,0.07-0.18,0.09c-0.01,0.01-0.04-0.02-0.06-0.03
			c0.06-0.04,0.11-0.09,0.17-0.12C268.13,290.95,268.16,291,268.18,291.02z"/>
		<path class="st6" d="M285.72,267.61c0.03,0,0.05,0,0.08,0c-0.02-0.01-0.04-0.01-0.07-0.02
			C285.73,267.6,285.72,267.61,285.72,267.61z"/>
		<path class="st6" d="M30.09,215c-0.02,0.04-0.04,0.08-0.06,0.13c0-0.02,0-0.04,0.01-0.05c0.02-0.02,0.05-0.04,0.07-0.06
			C30.1,215.01,30.09,215,30.09,215z"/>
		<path class="st6" d="M76.83,201.14c0.02-0.03,0.03-0.06,0.05-0.09c0.01-0.01,0.04,0,0.06,0c-0.04,0.02-0.09,0.04-0.13,0.06
			C76.81,201.12,76.83,201.14,76.83,201.14z"/>
		<path class="st7" d="M203.04,155.63c0.03-0.19,0.17-0.22,0.33-0.23C203.26,155.48,203.15,155.56,203.04,155.63z"/>
		<path class="st6" d="M278.46,226.37c0.08,0.08,0.17,0.16,0.25,0.24c0,0,0.01-0.02,0.01-0.02c-0.15-0.01-0.23-0.08-0.25-0.23
			L278.46,226.37z"/>
		<path class="st6" d="M282.72,232.66c-0.02,0.03-0.03,0.06-0.05,0.1c0.02-0.03,0.04-0.05,0.07-0.08
			C282.74,232.67,282.72,232.66,282.72,232.66z"/>
		<path class="st2" d="M323.98,152.48c-2.31,0.08-4.1-1.25-4.16-2.92c-0.01-0.4-0.09-0.81,0.56-0.75c1.71,0.17,3.37,0.46,4.72,1.64
			c0.35,0.3,0.87,0.62,0.75,1.12c-0.12,0.47-0.68,0.61-1.14,0.74C324.41,152.41,324.1,152.46,323.98,152.48z"/>
		<path class="st2" d="M290.4,185.51c-1.36-0.92-2.03-2.3-2.59-3.74c-0.11-0.29-0.22-0.61,0.16-0.82c0.8-0.43,1.62-0.65,2.47-0.17
			c0.84,0.47,1.25,1.21,1.1,2.17C291.39,183.87,291.07,184.76,290.4,185.51z"/>
		<path class="st3" d="M124.07,180.79c2.57-2.95,5.51-5.45,8.81-7.54c0.16,0.31,0.33,0.62,0.49,0.94c2.79,5.68,9.31,8.27,15.25,6.1
			c4.32-1.58,8.62-6.25,7.87-13.09c6.27,1.03,11.08,4.25,14.38,9.69c0.75,1.23,0.7,1.27-0.7,1.49c-4.05,0.64-7.96,1.74-11.71,3.39
			c-0.25,0.11-0.5,0.23-0.75,0.35c-0.36,0.17-0.63,0.41-0.41,0.83c0.19,0.37,0.52,0.27,0.83,0.13c0.29-0.13,0.58-0.26,0.87-0.38
			c7.09-3.03,14.46-4.32,22.15-3.68c0.43,0.04,0.86,0.14,1.29,0.21c-1.94,2.94-3.07,6.11-3.17,9.69
			c-0.23,8.92,7.48,16.82,16.4,16.78c4.91-0.02,9.02-1.83,12.45-5.28c0.51,2.12,0.25,4.24-0.07,6.35c-0.54,3.46-1.62,6.75-3.27,9.85
			c-4.43-3.02-9.28-4.31-14.63-3.59c-4.2,0.56-7.82,2.4-11.03,5.11c-0.55,0.06-0.98-0.23-1.45-0.43c-3.4-1.45-6.83-2.84-10.2-4.38
			c-1.73-0.79-3.63-1.27-5.13-2.55c0.21-0.18,0.41-0.37,0.62-0.55c4.25-3.64,4.52-10.09,0.58-14.07c-3.87-3.91-10.35-3.7-13.99,0.49
			c-1.93,2.22-2.58,4.86-2.32,7.75c-2.56-0.77-4.95-1.94-7.37-3.04c-0.53-0.24-1.04-0.56-1.67-0.51c0.41-2.77,0.36-5.52-0.54-8.2
			C135.43,186.03,130.81,182.19,124.07,180.79z"/>
		<path class="st3" d="M138.18,200.81c0.62-0.05,1.14,0.27,1.67,0.51c2.42,1.1,4.82,2.27,7.37,3.04c0.63,2.68,1.86,4.99,4.24,6.5
			c3.63,2.29,7.27,2.07,10.87-0.11c1.49,1.28,3.39,1.76,5.13,2.55c3.36,1.54,6.8,2.93,10.2,4.38c0.47,0.2,0.91,0.49,1.45,0.43
			c-0.15,0.18-0.3,0.36-0.47,0.53c-5.09,5.23-6.97,11.44-5.64,18.61c0.86,4.61,3.26,8.35,6.67,11.5c-0.89,1.09-2.04,1.91-3.06,2.87
			c-0.19-0.52-0.69-0.63-1.11-0.81c-1.93-0.82-3.87-1.61-5.79-2.44c-5.45-2.34-10.89-4.7-16.33-7.05
			c-6.86-2.96-13.72-5.93-20.58-8.89c-0.47-0.21-0.95-0.42-1.19-0.93c0.18-0.2,0.37-0.41,0.55-0.61c0.8-0.92,1.65-1.11,2.92-0.79
			c6.44,1.59,12.95,1.47,19.46,0.37c3.79-0.64,7.5-1.61,11.14-2.86c0.44-0.15,1.1-0.22,0.92-0.84c-0.19-0.65-0.76-0.32-1.21-0.18
			c-3.06,0.96-6.12,1.9-9.29,2.45c-1.86-4.89-6.57-7.94-11.67-7.38c-4.57,0.5-7.74,3.01-9.57,7.21c-8.42-2.06-15.14-6.37-19.04-14.4
			c-0.1-0.21-0.15-0.44-0.22-0.67c4.57,1.48,9.04,1.34,13.36-0.84C134.02,210.43,136.93,206.24,138.18,200.81z"/>
		<path class="st3" d="M131.62,231.5c0.24,0.51,0.72,0.72,1.19,0.93c6.86,2.97,13.72,5.93,20.58,8.89
			c5.44,2.35,10.89,4.71,16.33,7.05c1.92,0.83,3.86,1.62,5.79,2.44c0.43,0.18,0.93,0.29,1.11,0.81c-1.31,1.32-2.7,2.56-4.2,3.66
			c-0.26-0.3-0.52-0.59-0.78-0.89c-7.53-8.82-21.13-9.08-28.91-0.51c-3.13,3.45-4.83,7.52-5.03,12.21
			c-0.09,1.93,0.29,3.78,0.49,5.66c-3.96,0.3-7.55-0.89-10.98-2.73c-1.2-0.64-2.44-1.27-3.24-2.45c0.15-0.41,0.57-0.52,0.87-0.74
			c2.23-1.58,3.82-3.67,4.82-6.18c2.61-6.55,0.05-13.47-6.3-17.21C125.5,238.35,128.25,234.7,131.62,231.5z"/>
		<path class="st3" d="M171.54,256.02c-2.86,2.49-5.94,4.68-9.11,6.77c-2.88,1.9-5.82,3.66-8.93,5.11
			c-4.46,2.08-9.06,3.74-14.07,3.86c-0.04-0.19-0.07-0.39-0.12-0.58c-1.8-7.2,1.07-14.92,7.12-19.16
			C154.56,246.34,165.94,248.15,171.54,256.02z"/>
		<path class="st3" d="M183.61,179.4c9.39,1.89,17.59,5.66,22.58,14.42c0.9,1.58,1.56,3.28,1.7,5.13
			c-3.98,4.91-10.77,6.88-16.88,4.88c-5.99-1.96-10.32-7.6-10.66-13.86C180.14,186.05,181.37,182.57,183.61,179.4z M191.08,189.13
			c-2.85,0.09-5.07,2.44-4.99,5.28c0.08,2.83,2.46,5.07,5.28,4.99c2.91-0.09,5.16-2.47,5.05-5.35
			C196.31,191.21,193.94,189.03,191.08,189.13z"/>
		<path class="st3" d="M197.17,228.78c-1.84,2.72-3.93,5.26-6.04,7.77c-3.34,3.96-6.77,7.85-10.6,11.36
			c-8.12-6.24-9.24-19.71-2.27-27.25c0.23,0.07,0.46,0.11,0.68,0.2C185.02,223.5,191.1,226.14,197.17,228.78z"/>
		<path class="st3" d="M115.1,212.56c-0.89-2.02-1.25-4.17-1.36-6.33c-0.26-5.18,0.95-10.09,3.15-14.76
			c0.81,0.66,1.8,0.96,2.73,1.36c5.1,2.24,10.21,4.48,15.32,6.68c0.67,0.29,1.35,0.68,2.13,0.65c-0.29,3.19-1.8,5.87-3.84,8.18
			c-3.47,3.92-7.91,5.65-13.17,5.3C118.35,213.52,116.76,212.92,115.1,212.56z"/>
		<path class="st3" d="M197.17,228.78c-6.08-2.64-12.16-5.28-18.24-7.92c-0.22-0.09-0.45-0.14-0.68-0.2
			c0.87-1.14,1.92-2.11,3.08-2.95c6.97-5.1,15.47-5.15,22.99-0.17C202.4,221.58,199.87,225.23,197.17,228.78z"/>
		<path class="st3" d="M137.09,200.16c-0.78,0.03-1.46-0.36-2.13-0.65c-5.12-2.2-10.22-4.45-15.32-6.68
			c-0.93-0.41-1.92-0.7-2.73-1.36c1.57-3.58,3.68-6.81,6.3-9.71c3.85,0.57,7.23,2.11,9.86,5.03
			C136.5,190.59,137.94,195.04,137.09,200.16z"/>
		<path class="st3" d="M133.86,172.65c4.07-2.75,8.53-4.57,13.36-5.45c2.7-0.5,5.41-0.55,8.13-0.18c0.21,1.62,0.19,3.23-0.27,4.82
			c-1.3,4.59-5.3,7.83-10.02,8.11C140.04,180.24,135.88,177.54,133.86,172.65z"/>
		<path class="st3" d="M122.93,265.63c-2.25-2.01-3.21-4.65-3.53-7.53c-0.59-5.28,1-10.07,3.42-14.67c1.44,0.71,2.67,1.69,3.7,2.93
			c2.93,3.52,3.74,7.53,2.47,11.89C128.02,261.52,126.08,264.1,122.93,265.63z"/>
		<path class="st3" d="M154.99,229.21c-6.33,1.23-12.66,1.4-18.99-0.04c1.41-3.89,5.21-6.46,9.56-6.46
			C149.76,222.71,153.63,225.38,154.99,229.21z"/>
		<path class="st2" d="M204.33,217.54c-7.52-4.98-16.02-4.92-22.99,0.17c-1.15,0.84-2.2,1.81-3.08,2.95
			c-6.97,7.55-5.85,21.01,2.27,27.25c-0.2,0.36-0.5,0.62-0.84,0.84c-3.41-3.15-5.81-6.89-6.67-11.5
			c-1.33-7.16,0.55-13.38,5.64-18.61c0.16-0.17,0.31-0.35,0.47-0.53c3.21-2.72,6.83-4.55,11.03-5.11c5.34-0.72,10.2,0.58,14.63,3.59
			C204.73,216.96,204.56,217.27,204.33,217.54z"/>
		<path class="st2" d="M137.09,200.16c0.85-5.12-0.59-9.57-4.03-13.38c-2.63-2.92-6.01-4.46-9.86-5.03
			c0.19-0.41,0.51-0.71,0.87-0.97c6.74,1.4,11.36,5.24,13.58,11.83c0.9,2.68,0.95,5.43,0.54,8.2c-1.25,5.43-4.17,9.61-9.2,12.15
			c-4.32,2.18-8.8,2.31-13.36,0.84c-0.31-0.36-0.45-0.79-0.51-1.25c1.66,0.36,3.25,0.97,4.97,1.08c5.26,0.35,9.71-1.38,13.17-5.3
			C135.29,206.03,136.8,203.35,137.09,200.16z"/>
		<path class="st2" d="M171.54,256.02c-5.59-7.88-16.97-9.69-25.1-3.99c-6.05,4.24-8.92,11.96-7.12,19.16
			c0.05,0.19,0.08,0.39,0.12,0.58c-0.42,0.16-0.83,0.14-1.25,0c-0.19-1.88-0.57-3.74-0.49-5.66c0.21-4.7,1.9-8.77,5.03-12.21
			c7.79-8.57,21.38-8.31,28.91,0.51c0.26,0.3,0.52,0.59,0.78,0.89C172.21,255.64,171.91,255.88,171.54,256.02z"/>
		<path class="st2" d="M183.61,179.4c-2.24,3.17-3.47,6.64-3.26,10.57c0.34,6.26,4.67,11.9,10.66,13.86c6.11,2,12.9,0.03,16.88-4.88
			c0.27,0.45,0.26,0.95,0.24,1.44c-3.43,3.45-7.55,5.26-12.45,5.28c-8.93,0.04-16.64-7.86-16.4-16.78c0.09-3.57,1.23-6.74,3.17-9.69
			C182.83,179.28,183.22,179.34,183.61,179.4z"/>
		<path class="st2" d="M133.86,172.65c2.02,4.89,6.17,7.6,11.2,7.3c4.72-0.28,8.72-3.52,10.02-8.11c0.45-1.59,0.47-3.2,0.27-4.82
			c0.37,0.06,0.75,0.12,1.12,0.18c0.75,6.84-3.54,11.52-7.87,13.09c-5.94,2.17-12.47-0.41-15.25-6.1c-0.16-0.32-0.32-0.63-0.49-0.94
			C133.18,173,133.45,172.71,133.86,172.65z"/>
		<path class="st2" d="M122.93,265.63c3.15-1.53,5.09-4.11,6.05-7.39c1.28-4.36,0.46-8.36-2.47-11.89c-1.03-1.23-2.26-2.21-3.7-2.93
			c0.15-0.34,0.24-0.71,0.55-0.96c6.35,3.73,8.9,10.66,6.3,17.21c-1,2.51-2.59,4.6-4.82,6.18c-0.31,0.22-0.72,0.34-0.87,0.74
			C123.42,266.49,123.07,266.17,122.93,265.63z"/>
		<path class="st2" d="M154.99,229.21c-1.37-3.84-5.23-6.51-9.42-6.5c-4.35,0.01-8.16,2.58-9.56,6.46c-0.41,0-0.8-0.06-1.14-0.3
			c1.83-4.21,5-6.71,9.57-7.21c5.1-0.56,9.81,2.49,11.67,7.38C155.74,229.1,155.36,229.16,154.99,229.21z"/>
		<path class="st2" d="M280.52,234.27c-0.09-0.09-0.16-0.19-0.02-0.28c0.01-0.01,0.1,0.09,0.16,0.14
			C280.62,234.17,280.57,234.22,280.52,234.27z"/>
		<polygon class="st2" points="284.77,241.8 284.75,241.72 284.82,241.73 		"/>
		<path class="st3" d="M201.64,147.85c0.85-2.6,2.4-4.76,4.19-6.78c0.41-0.46,0.7-0.36,0.99,0.14c0.71,1.23,1.46,2.44,2.16,3.67
			c0.57,1.01-0.27,1.67-0.6,2.48c-1.13-0.91-1.71-0.88-2.79,0.04c-0.7,0.59-1.17,1.38-1.73,2.08
			C203.07,149.01,202.61,148.08,201.64,147.85z"/>
		<path class="st5" d="M201.64,147.85c0.97,0.23,1.43,1.16,2.22,1.64c-0.12,0.38-0.26,0.74-0.35,1.13
			c-0.25,1.03-0.26,1.96,1.09,2.26c-0.42,0.63-0.96,1.01-1.54,1.35c-0.58,0.34-1.19,0.77-1.87,0.39c-0.75-0.43-0.8-1.26-0.76-1.99
			C200.51,150.95,200.89,149.34,201.64,147.85z"/>
		<path class="st7" d="M193.36,156.69c-0.4-0.18-1.27,0.47-1.29-0.7c-0.02-1.21,0.8-3.12,1.39-3.14c1.05-0.04,2.48,1.19,2.49,2.13
			C195.97,156.07,195.17,156.61,193.36,156.69z"/>
		<path class="st3" d="M85.9,216.22c-0.12,0.22-0.24,0.46-0.38,0.7c-6.6,10.84-13.2,21.67-19.81,32.5c-0.59,0.97-0.9,0.98-1.54,0.07
			c-6.38-9.13-12.74-18.28-19.14-27.4c-0.58-0.83-0.4-1.2,0.4-1.64c4.81-2.63,9.94-4.35,15.29-5.41c8.01-1.58,16-1.41,23.96,0.39
			C85.15,215.54,85.76,215.49,85.9,216.22z M64.86,248.58c0.19-0.24,0.3-0.35,0.38-0.48c6.26-10.25,12.51-20.51,18.78-30.75
			c0.49-0.8,0.17-0.96-0.56-1.1c-3.86-0.75-7.75-1.2-11.69-1.18c-8.7,0.05-16.98,1.87-24.78,5.77c-0.9,0.45-1.02,0.77-0.42,1.61
			c3.69,5.21,7.33,10.45,10.98,15.69C59.96,241.57,62.37,245.02,64.86,248.58z"/>
		<path class="st3" d="M17.03,258.21c-1.15,0.1-2.3,0.16-3.44,0.31c-0.97,0.12-1.21-0.23-0.98-1.14c0.85-3.52,2.18-6.87,3.81-10.09
			c3.92-7.75,9.41-14.17,16.52-19.18c0.8-0.56,1.23-0.53,1.83,0.25c6.41,8.33,12.85,16.63,19.27,24.94c0.24,0.31,0.6,0.61,0.39,1.04
			c-0.2,0.42-0.66,0.37-1.05,0.41c-9.28,0.87-18.55,1.74-27.83,2.62c-2.84,0.27-5.68,0.56-8.52,0.84
			C17.03,258.2,17.03,258.21,17.03,258.21z M52.86,253.66c-0.21-0.35-0.28-0.49-0.37-0.61c-6.06-7.84-12.14-15.67-18.18-23.53
			c-0.47-0.61-0.76-0.54-1.32-0.14c-3.78,2.74-7.15,5.92-10.02,9.6c-4.09,5.24-7.17,11.01-8.98,17.43c-0.16,0.56-0.46,1.06,0.6,0.95
			c11.01-1.07,22.02-2.11,33.04-3.16C49.32,254.04,51.01,253.85,52.86,253.66z"/>
		<path class="st3" d="M11.35,270.11c-0.12-1.71-0.12-1.71,1.57-1.94c11-1.46,22-2.92,32.99-4.38c2.44-0.32,4.87-0.65,7.31-0.96
			c0.48-0.06,1.09-0.43,1.41,0.16c0.31,0.57-0.3,0.93-0.59,1.31c-5.8,7.64-11.62,15.27-17.44,22.9c-2.04,2.68-4.11,5.34-6.11,8.05
			c-0.53,0.71-0.98,0.85-1.77,0.43c-8.93-4.61-14.52-11.8-16.75-21.59c-0.22-0.96-0.37-1.95-0.53-2.92
			C11.39,270.82,11.38,270.46,11.35,270.11z M52.7,264.29c-0.04-0.09-0.09-0.19-0.13-0.28c-1.45,0.18-2.89,0.36-4.34,0.55
			c-6.76,0.9-13.51,1.8-20.27,2.69c-4.95,0.65-9.9,1.3-14.85,1.93c-0.61,0.08-0.78,0.32-0.69,0.94c0.22,1.53,0.41,3.06,0.79,4.56
			c2.22,8.73,7.28,15.26,15.16,19.63c0.82,0.45,1.24,0.34,1.82-0.42c5.83-7.72,11.71-15.4,17.58-23.09
			C49.41,268.63,51.06,266.46,52.7,264.29z"/>
		<path class="st3" d="M54.16,300.62c-3.85,0.1-7.69-0.09-11.49-0.74c-1.46-0.25-1.56-0.46-0.76-1.73
			c6.78-10.77,13.57-21.54,20.35-32.3c0.77-1.22,0.98-1.22,1.79-0.01c5.52,8.23,11.02,16.47,16.58,24.68
			c0.63,0.94,0.58,1.41-0.37,2.07c-6.56,4.51-13.86,6.89-21.71,7.75c-0.75,0.08-1.5,0.16-2.25,0.21
			C55.59,300.59,54.88,300.6,54.16,300.62z M63.17,266.46c-1.47,2.34-2.83,4.48-4.18,6.62c-5.18,8.21-10.34,16.43-15.53,24.63
			c-0.47,0.75-0.73,1.1,0.51,1.28c5.13,0.72,10.26,0.78,15.4,0.15c7.1-0.87,13.72-3.07,19.72-7.06c0.76-0.5,0.76-0.82,0.28-1.52
			c-3.5-5.14-6.95-10.32-10.41-15.48C67.06,272.26,65.17,269.44,63.17,266.46z"/>
		<path class="st3" d="M110.92,245.53c0.01,3.68,0.54,3.25-2.74,3.66c-6.64,0.84-13.29,1.66-19.94,2.47
			c-4.88,0.6-9.76,1.18-14.64,1.74c-0.44,0.05-1,0.34-1.32-0.16c-0.34-0.53,0.21-0.87,0.47-1.23c7.46-10.21,14.93-20.41,22.38-30.63
			c0.54-0.74,0.96-0.97,1.79-0.33c6.52,5.01,11.2,11.26,13.19,19.35c0.17,0.69,0.32,1.39,0.44,2.09
			C110.74,243.67,110.94,244.84,110.92,245.53z M73.93,252.25c0.9-0.08,1.52-0.11,2.13-0.19c4.05-0.5,8.1-1,12.15-1.5
			c6.96-0.86,13.92-1.72,20.88-2.55c0.65-0.08,0.76-0.37,0.76-0.92c-0.02-1.39-0.1-2.78-0.34-4.14
			c-1.47-8.39-5.79-15.04-12.36-20.35c-0.85-0.69-1.19-0.54-1.78,0.28c-6.22,8.56-12.48,17.09-18.73,25.63
			C75.79,249.67,74.95,250.84,73.93,252.25z"/>
		<path class="st2" d="M162.34,210.75c-3.6,2.18-7.24,2.4-10.87,0.11c-2.38-1.51-3.61-3.82-4.24-6.5c-0.26-2.89,0.39-5.52,2.32-7.75
			c3.64-4.18,10.12-4.4,13.99-0.49c3.94,3.98,3.68,10.43-0.58,14.07C162.75,210.38,162.55,210.57,162.34,210.75z M165.26,202.63
			c-0.15-4.73-4.08-8.39-8.82-8.22c-4.68,0.16-8.31,4.06-8.16,8.75c0.16,4.75,4.08,8.43,8.8,8.25
			C161.73,211.23,165.41,207.28,165.26,202.63z"/>
		<path class="st2" d="M191.08,189.13c2.86-0.09,5.22,2.08,5.34,4.92c0.12,2.87-2.14,5.26-5.05,5.35c-2.83,0.08-5.2-2.16-5.28-4.99
			C186.02,191.57,188.24,189.22,191.08,189.13z M195.32,194.08c-0.1-2.25-2.02-4.04-4.22-3.93c-2.24,0.11-4.01,2.01-3.95,4.23
			c0.07,2.27,2.06,4.11,4.31,3.99C193.7,198.24,195.42,196.33,195.32,194.08z"/>
		<path class="st3" d="M177.38,271.37c-0.13-1.82-0.14-1.84,1.68-2.08c9.35-1.25,18.7-2.49,28.05-3.73
			c4.16-0.55,8.33-1.1,12.49-1.66c0.39-0.05,0.81-0.23,1.08,0.2c0.29,0.45-0.13,0.73-0.35,1.03c-7.92,10.41-15.86,20.82-23.77,31.24
			c-0.58,0.76-1.07,0.83-1.88,0.41c-9.3-4.84-14.9-12.43-16.89-22.7C177.62,273.18,177.52,272.27,177.38,271.37z M218.85,265.27
			c-0.78-0.17-1.36-0.02-1.93,0.06c-6.13,0.81-12.26,1.63-18.39,2.44c-6.44,0.85-12.89,1.71-19.33,2.53
			c-0.7,0.09-0.84,0.4-0.73,1.02c0.2,1.09,0.31,2.2,0.54,3.28c1.94,9.18,7.01,16.06,15.17,20.7c0.96,0.54,1.48,0.51,2.2-0.45
			c6.39-8.49,12.86-16.92,19.3-25.38C216.72,268.11,217.75,266.73,218.85,265.27z"/>
		<path class="st3" d="M220.39,301.79c-4.01,0.05-7.84-0.13-11.65-0.78c-1.47-0.25-1.58-0.47-0.79-1.72
			c6.78-10.77,13.57-21.54,20.35-32.31c0.78-1.24,0.97-1.24,1.78-0.03c5.57,8.29,11.12,16.6,16.72,24.88
			c0.58,0.86,0.39,1.26-0.38,1.79c-5.8,4.05-12.26,6.4-19.2,7.5C224.91,301.49,222.58,301.69,220.39,301.79z M229.21,267.58
			c-6.71,10.66-13.3,21.13-19.9,31.58c-0.46,0.73-0.16,0.81,0.51,0.91c5.21,0.79,10.42,0.84,15.65,0.19
			c7.03-0.87,13.58-3.05,19.52-6.95c0.8-0.53,0.94-0.87,0.36-1.72c-3.62-5.3-7.17-10.65-10.75-15.98
			C232.84,272.98,231.07,270.35,229.21,267.58z"/>
		<path class="st3" d="M276.98,246.44c0.04,3.94,0.4,3.49-2.74,3.88c-8.45,1.06-16.91,2.09-25.36,3.13
			c-3.19,0.39-6.37,0.76-9.56,1.12c-0.34,0.04-0.74,0.18-0.99-0.19c-0.31-0.45,0.1-0.75,0.32-1.04
			c7.55-10.34,15.12-20.67,22.67-31.01c0.42-0.58,0.76-0.8,1.43-0.29C271.12,228.35,276.2,236.53,276.98,246.44z M239.95,253.39
			c0.85-0.07,1.43-0.11,2.02-0.18c5.98-0.73,11.95-1.47,17.93-2.2c5.07-0.63,10.14-1.27,15.22-1.87c0.61-0.07,0.83-0.29,0.78-0.88
			c-0.09-1.18-0.06-2.39-0.24-3.56c-1.33-8.69-5.74-15.55-12.51-21.03c-0.83-0.67-1.16-0.45-1.7,0.3
			c-3.27,4.53-6.58,9.03-9.88,13.54C247.75,242.72,243.94,247.93,239.95,253.39z"/>
		<path class="st3" d="M256.75,260.66c6.38-0.37,12.75-0.74,19.13-1.1c1.37-0.08,1.54,0.11,1.21,1.47
			c-2.98,12.07-9.72,21.45-20.22,28.13c-0.72,0.46-1.16,0.41-1.67-0.29c-6.25-8.59-12.52-17.17-18.77-25.76
			c-0.68-0.94-0.5-1.26,0.72-1.33C243.68,261.4,250.22,261.03,256.75,260.66z M237.62,262.92c1.59,2.18,3.08,4.21,4.56,6.25
			c4.44,6.08,8.87,12.17,13.31,18.25c0.34,0.46,0.55,1.03,1.36,0.5c9.67-6.34,15.98-15.08,18.98-26.24
			c0.26-0.97-0.07-1.03-0.89-0.98c-11.48,0.67-22.96,1.31-34.43,1.97C239.61,262.71,238.72,262.82,237.62,262.92z"/>
		<path class="st3" d="M235.73,235.39c-0.28,2.29-1.09,4.49-2.59,6.41c-0.23,0.3-0.52,0.7-0.97,0.49c-0.34-0.17-0.38-0.6-0.33-0.95
			c0.29-2.4,1.11-4.6,2.6-6.52c0.23-0.29,0.51-0.71,0.97-0.49C235.77,234.49,235.69,234.93,235.73,235.39z"/>
		<path class="st3" d="M228.75,236.81c0.06,0.64-0.06,1.27-0.23,1.88c-0.08,0.3-0.24,0.62-0.59,0.68c-0.37,0.07-0.59-0.21-0.75-0.48
			c-0.9-1.59-1.07-3.28-0.67-5.05c0.08-0.36,0.26-0.71,0.66-0.74c0.4-0.03,0.61,0.32,0.79,0.63
			C228.5,234.68,228.66,235.74,228.75,236.81z"/>
		<path class="st3" d="M165.26,202.63c0.15,4.65-3.53,8.6-8.17,8.78c-4.72,0.18-8.65-3.5-8.8-8.25c-0.15-4.69,3.48-8.59,8.16-8.75
			C161.19,194.24,165.11,197.91,165.26,202.63z"/>
		<path class="st3" d="M195.32,194.08c0.1,2.25-1.62,4.17-3.86,4.29c-2.25,0.12-4.24-1.71-4.31-3.99c-0.07-2.22,1.7-4.12,3.95-4.23
			C193.3,190.04,195.23,191.83,195.32,194.08z"/>
		<path class="st3" d="M65.79,240.09c0.29-2.28,1.1-4.4,2.49-6.28c0.25-0.33,0.56-0.82,1.03-0.63c0.45,0.18,0.42,0.72,0.36,1.16
			c-0.3,2.32-1.12,4.43-2.54,6.29c-0.23,0.3-0.52,0.72-0.96,0.54C65.76,241,65.81,240.52,65.79,240.09z"/>
		<path class="st3" d="M60.24,234.21c-0.04-0.37,0.01-1.04,0.28-1.67c0.29-0.68,0.72-0.8,1.24-0.19c0.85,0.99,1.25,4.21,0.65,5.37
			c-0.37,0.72-0.83,0.7-1.25,0.08C60.5,236.82,60.31,235.69,60.24,234.21z"/>
		<path class="st3" d="M38.94,249.94c1.81,0.1,3.57,0.53,5.19,1.41c0.43,0.23,1.1,0.47,0.9,1.07c-0.18,0.54-0.85,0.49-1.35,0.47
			c-1.8-0.08-3.52-0.48-5.12-1.3c-0.5-0.25-1.29-0.47-1.1-1.19C37.62,249.75,38.4,250.06,38.94,249.94z"/>
		<path class="st3" d="M42.73,245.12c1.02,0.06,3.32,2.64,3.31,3.58c-0.01,0.56-0.35,0.58-0.71,0.38c-1.37-0.72-2.33-1.84-2.93-3.26
			C42.23,245.43,42.33,245.12,42.73,245.12z"/>
		<path class="st3" d="M37.66,245.71c0.82,0.17,1.58,0.64,2.07,1.47c0.35,0.59,0.09,0.95-0.56,0.89c-1.01-0.1-1.79-0.67-2.28-1.53
			C36.55,245.95,36.89,245.65,37.66,245.71z"/>
		<path class="st3" d="M39.88,274.04c-0.79,0.04-0.77-0.4-0.51-0.9c0.54-1.08,1.43-1.88,2.33-2.65c1.02-0.87,2.11-1.66,3.4-2.09
			c0.29-0.1,0.66-0.19,0.9,0.08c0.26,0.28,0.07,0.61-0.1,0.87c-1.4,2.14-3.32,3.66-5.68,4.63
			C40.11,274.03,39.99,274.03,39.88,274.04z"/>
		<path class="st3" d="M36.26,270.55c-0.47-0.04-1.02,0.07-1.15-0.45c-0.1-0.43,0.35-0.67,0.68-0.88c1.26-0.79,2.65-1.23,4.13-1.31
			c0.33-0.02,0.78-0.03,0.91,0.38c0.14,0.42-0.24,0.64-0.52,0.83C39.07,269.97,37.68,270.37,36.26,270.55z"/>
		<path class="st3" d="M63.49,276.71c-0.03-1.18-0.1-2.05,0.19-2.9c0.09-0.27,0.19-0.55,0.52-0.58c0.32-0.03,0.51,0.21,0.63,0.46
			c1.12,2.37,1.42,4.84,0.94,7.41c-0.05,0.26-0.16,0.57-0.47,0.64c-0.39,0.08-0.56-0.24-0.71-0.51
			C63.78,279.72,63.56,278.08,63.49,276.71z"/>
		<path class="st3" d="M58.11,281.86c0.13-1.56,0.65-3.07,1.68-4.38c0.19-0.24,0.43-0.54,0.78-0.39c0.32,0.14,0.36,0.51,0.33,0.83
			c-0.16,1.6-0.64,3.08-1.64,4.37c-0.19,0.25-0.4,0.51-0.77,0.45C58.24,282.69,58.13,282.45,58.11,281.86z"/>
		<path class="st3" d="M81.86,247.46c-0.88,0.07-1.21-0.24-0.75-0.87c1.61-2.18,3.79-3.54,6.38-4.26c0.23-0.06,0.5-0.01,0.63,0.22
			c0.21,0.38-0.02,0.69-0.23,0.97c-1.01,1.31-2.34,2.23-3.77,3.03C83.37,246.98,82.59,247.37,81.86,247.46z"/>
		<path class="st3" d="M87.96,246.53c0.47-0.02,0.88,0.09,0.94,0.64c0.06,0.59-0.94,1.44-1.75,1.49c-0.47,0.03-0.88-0.07-0.94-0.63
			C86.16,247.43,87.17,246.58,87.96,246.53z"/>
		<path class="st3" d="M206.2,275.14c-0.88,0.07-1.16-0.21-0.8-0.81c1.39-2.31,3.39-3.91,5.91-4.83c0.47-0.17,1-0.12,0.76,0.69
			C211.62,271.71,207.55,275.05,206.2,275.14z"/>
		<path class="st3" d="M202.34,271.67c-0.48-0.03-1.03,0.1-1.19-0.41c-0.14-0.44,0.33-0.68,0.65-0.89c1.22-0.79,2.58-1.2,4.02-1.33
			c0.38-0.03,0.88-0.06,1.05,0.36c0.19,0.47-0.27,0.7-0.58,0.91C205.08,271.11,203.72,271.51,202.34,271.67z"/>
		<path class="st3" d="M229.53,277.45c0.02-0.75-0.11-1.62,0.19-2.47c0.09-0.26,0.17-0.55,0.48-0.62c0.33-0.07,0.54,0.17,0.66,0.41
			c1.12,2.4,1.5,4.91,0.94,7.52c-0.06,0.26-0.18,0.57-0.51,0.59c-0.37,0.02-0.54-0.3-0.68-0.58
			C229.83,280.81,229.61,279.21,229.53,277.45z"/>
		<path class="st3" d="M224.12,282.96c0.2-1.57,0.68-3.09,1.73-4.39c0.17-0.21,0.39-0.46,0.69-0.36c0.36,0.11,0.41,0.48,0.38,0.79
			c-0.13,1.64-0.64,3.16-1.66,4.48c-0.19,0.25-0.43,0.49-0.8,0.39C224.26,283.8,224.13,283.45,224.12,282.96z"/>
		<path class="st3" d="M248.06,248.6c-0.52-0.01-0.84,0.1-1.01-0.2c-0.16-0.27-0.03-0.55,0.14-0.77c1.62-2.05,3.71-3.41,6.21-4.15
			c0.28-0.08,0.57-0.07,0.77,0.16c0.21,0.25,0.09,0.53-0.08,0.76C252.5,246.56,250.32,247.82,248.06,248.6z"/>
		<path class="st3" d="M254.92,248.21c-0.03,0.79-1.05,1.59-1.83,1.58c-0.44-0.01-0.79-0.13-0.81-0.65
			c-0.03-0.66,1.08-1.54,1.89-1.49C254.61,247.68,254.92,247.85,254.92,248.21z"/>
		<path class="st3" d="M244.56,264.13c2.14,0.2,4.26,0.78,6.18,1.99c0.35,0.22,0.84,0.51,0.64,1.01c-0.16,0.41-0.65,0.4-1.05,0.39
			c-2.26-0.07-4.36-0.71-6.3-1.86c-0.39-0.23-0.95-0.49-0.79-1.05C243.39,264.03,244.01,264.21,244.56,264.13z"/>
		<path class="st3" d="M246.58,268.94c0.99,0.08,1.79,0.35,2.46,0.96c0.24,0.22,0.46,0.48,0.31,0.82c-0.14,0.32-0.47,0.4-0.79,0.4
			c-0.89-0.01-1.69-0.33-2.39-0.87c-0.28-0.22-0.54-0.51-0.39-0.9C245.94,268.95,246.36,269.01,246.58,268.94z"/>
	</g>
</g>
<g>
	<g id="YEUX_4_">
		<path id="petit_fond_blanc_4_" class="st0" d="M257.34,174.55c-0.45-0.07-0.77,0.15-0.84,0.6c-0.08,0.49,0.16,0.82,0.66,0.87
			c0.45,0.05,0.72-0.21,0.82-0.64C258,174.92,257.78,174.62,257.34,174.55z"/>
		<g>
			<path class="st8" d="M290.44,180.77c-0.85-0.48-1.67-0.26-2.47,0.17c-0.39,0.21-0.28,0.54-0.16,0.82
				c0.57,1.44,1.23,2.81,2.59,3.74c0.66-0.75,0.99-1.63,1.14-2.57C291.7,181.98,291.28,181.24,290.44,180.77z"/>
			<path class="st8" d="M325.1,150.46c-1.35-1.18-3.01-1.46-4.72-1.64c-0.64-0.07-0.57,0.35-0.56,0.75
				c0.06,1.67,1.85,2.99,4.16,2.92c0.11-0.03,0.43-0.08,0.73-0.17c0.46-0.13,1.02-0.27,1.14-0.74
				C325.98,151.07,325.45,150.76,325.1,150.46z"/>
			<path class="st8" d="M273.73,189.55c0.61,0.57,0.85,0.45,1.16-0.19c0.67-1.39,0.54-2.77-0.06-4.13c-0.1-0.23-0.21-0.45-0.33-0.67
				c-1.28,0.95-2.57,1.89-3.87,2.83C271.75,187.96,272.79,188.67,273.73,189.55z"/>
			<path class="st8" d="M311.61,159.97c-1.4,0.19-2.81,0.34-4.44,0.53c1.78,2.27,2.08,4.56,1.26,7.03
				c-0.78,2.36-2.32,4.14-4.68,5.62c3.84-0.01,6.72-1.23,8.77-4.08c1.84-2.56,1.93-6.19,0.33-8.37
				C312.53,160.28,312.25,159.88,311.61,159.97z"/>
			<path class="st8" d="M307.63,166.37c0.4-1.83,0.12-3.54-1.15-5.01c-0.33-0.38-0.65-0.59-1.22-0.47
				c-1.98,0.41-3.93,0.93-5.69,1.95c-1.32,0.76-2.42,1.75-2.91,3.4c0.97-0.15,1.82-0.27,2.68-0.41c0.43-0.07,0.95-0.28,1.08,0.33
				c0.13,0.62-0.43,0.63-0.86,0.71c-3.53,0.63-3.53,0.63-3.13,4.24c0.01,0.08,0.03,0.16,0.02,0.24c-0.18,1.36,0.67,1.65,1.76,1.76
				C302.64,173.57,306.66,170.73,307.63,166.37z"/>
			<path class="st2" d="M274.84,185.22c0.6,1.36,0.73,2.74,0.06,4.13c-0.31,0.64-0.55,0.76-1.16,0.19
				c-0.95-0.88-1.99-1.59-3.09-2.17c-0.33,0.24-0.65,0.47-0.98,0.7c1.17,0.56,2.27,1.25,3.27,2.15c2.45,2.2,2.83,5.01,1.07,7.86
				c-2-2.47-4.72-3.67-7.71-4.35c-0.45-0.1-1.15-0.46-1.34,0.24c-0.22,0.79,0.62,0.68,1.04,0.77c1.95,0.46,3.8,1.12,5.42,2.33
				c2.22,1.66,3.3,3.84,2.77,6.63c-0.56,2.92-2,5.25-4.81,6.5c-1.03,0.46-2.07,0.31-2.8-0.61c-0.73-0.92-0.27-1.8,0.33-2.6
				c0.67-0.9,1.24-1.84,1.49-2.95c0.59-2.63-1.13-4.59-3.81-4.37c-3.03,0.25-6.04,3.11-6.45,6.12c-0.27,1.95,0.9,3.5,2.87,3.82
				c1.24,0.2,2.35-0.2,3.44-0.69c0.28-0.13,0.53-0.52,0.8,0.12c1.02,2.44,2.88,3.07,5.24,1.85c3.64-1.89,5.76-6.89,4.52-10.79
				c-0.2-0.63-0.15-1.09,0.14-1.66c1.16-2.26,1.5-4.58,0.21-6.93c-0.2-0.36-0.21-0.61,0.04-0.96c1.59-2.21,1.21-4.46,0.02-6.66
				c-0.29,0.22-0.58,0.43-0.88,0.65C274.63,184.77,274.74,184.99,274.84,185.22z"/>
			<path class="st2" d="M231.38,187.94c-0.23,0.25-0.34,0.65-0.8,0.68c-0.08-0.26-0.17-0.52-0.23-0.79
				c-2.04-9.37-7.92-14.98-17.42-16.6c-0.86-0.15-1.73-0.21-2.6-0.29c-0.35-0.04-0.66,0.1-0.7,0.48c-0.05,0.4,0.27,0.54,0.6,0.59
				c0.23,0.03,0.47,0.03,0.71,0.04c3.75,0.24,7.24,1.29,10.38,3.38c5.04,3.36,7.38,8.32,8.28,14.11c0.08,0.51-0.17,0.82-0.43,1.17
				c-1.88,2.62-3.45,5.41-4.57,8.44c-0.69,1.86-1.24,3.76-1.46,5.74c-0.04,0.36-0.09,0.77,0.41,0.83c0.48,0.06,0.56-0.31,0.62-0.69
				c0.16-0.89,0.3-1.8,0.55-2.67c2.56-9.08,8.09-15.95,15.85-20.98c-0.21-0.3-0.43-0.6-0.64-0.91
				C236.81,182.52,233.99,185.06,231.38,187.94z"/>
			<path class="st2" d="M321.39,147.87c-1.42-0.15-2.85-0.2-4.28-0.03c-4.17,0.5-8.35,1.03-12.53,1.46
				c-9.11,0.94-18.23,0.72-27.35,0.33c-12.47-0.53-24.91-0.51-37.27,1.52c-4.77,0.78-9.51,1.75-14.12,3.25
				c-0.41,0.13-0.98,0.21-0.8,0.8c0.18,0.6,0.69,0.33,1.1,0.2c9.5-2.91,19.26-4.21,29.15-4.78c10.36-0.6,20.7,0.14,31.05,0.33
				c7.35,0.14,14.67-0.08,21.98-0.98c3.15-0.39,6.28-0.93,9.45-1.11c0.64-0.04,0.97,0,1.02,0.82c0.09,1.72,1.11,2.8,2.69,3.43
				c1.58,0.63,3.12,0.55,4.73-0.2c-0.2,1.07-0.79,1.69-1.47,2.25c-1.11,0.92-2.4,1.51-3.75,2.01c-3.82,1.39-7.85,1.47-11.81,2.01
				c-3.34,0.45-6.68,0.96-9.72,2.54c-2.91,1.51-4.37,3.9-4.26,7.23c0.08,2.55,0.54,5.04,0.88,7.56c0.29,2.16,0.75,4.31,0.36,6.5
				c-0.38,2.16-1.86,3.31-4.01,3.21c-0.7-0.03-1.08-0.13-0.59-0.94c0.31-0.5,0.52-1.08,0.66-1.65c0.66-2.69-1.5-4.76-4.17-3.99
				c-0.34,0.1-0.66,0.23-1.02,0.36c-0.46-1.84-0.67-3.64-0.74-5.47c-0.01-0.36-0.03-0.76-0.51-0.81c-0.5-0.05-0.63,0.34-0.57,0.71
				c0.13,0.78-0.38,0.93-0.93,1.12c-1.27,0.44-2.56,0.75-3.87,0.97c-0.08,0.38-0.19,0.75-0.31,1.12c1.75-0.28,3.49-0.69,5.2-1.28
				c0.15,1,0.26,1.91,0.44,2.8c0.52,2.55,1.23,5.03,3.25,6.85c1.6,1.43,3.44,1.65,5.43,0.87c1.89-0.75,2.68-2.25,2.86-4.16
				c0.08-0.87,0.1-1.74,0-2.61c-0.25-2.04-0.49-4.07-0.74-6.18c1.57,0.38,3.05,0.46,4.54,0.06c0.43-0.11,0.86-0.07,1.3,0.02
				c3.1,0.61,5.88-0.15,8.44-1.93c3.77-2.62,5.29-8.48,2.53-12.09c-0.02-0.03,0.04-0.13,0.04-0.14c5.1-0.99,10.51-1.17,13.71-6.24
				c-0.02-0.71-0.05-1.43-0.07-2.14C325.93,149.25,323.91,148.13,321.39,147.87z M325.85,151.58c-0.12,0.47-0.68,0.61-1.14,0.74
				c-0.3,0.09-0.61,0.14-0.73,0.17c-2.31,0.08-4.1-1.25-4.16-2.92c-0.01-0.4-0.09-0.81,0.56-0.75c1.71,0.17,3.37,0.46,4.72,1.64
				C325.45,150.76,325.98,151.07,325.85,151.58z M287.81,181.77c-0.11-0.29-0.22-0.61,0.16-0.82c0.8-0.43,1.62-0.65,2.47-0.17
				c0.84,0.47,1.25,1.21,1.1,2.17c-0.15,0.94-0.48,1.82-1.14,2.57C289.04,184.58,288.38,183.21,287.81,181.77z M298.2,173.1
				c-1.09-0.12-1.94-0.41-1.76-1.76c0.01-0.08-0.01-0.16-0.02-0.24c-0.39-3.61-0.39-3.61,3.13-4.24c0.42-0.08,0.99-0.09,0.86-0.71
				c-0.13-0.61-0.65-0.4-1.08-0.33c-0.85,0.14-1.71,0.26-2.68,0.41c0.5-1.65,1.59-2.64,2.91-3.4c1.77-1.02,3.71-1.54,5.69-1.95
				c0.57-0.12,0.89,0.09,1.22,0.47c1.27,1.47,1.55,3.18,1.15,5.01C306.66,170.73,302.64,173.57,298.2,173.1z M312.51,169.07
				c-2.05,2.85-4.93,4.06-8.77,4.08c2.37-1.48,3.9-3.26,4.68-5.62c0.82-2.47,0.52-4.76-1.26-7.03c1.64-0.19,3.05-0.34,4.44-0.53
				c0.64-0.09,0.93,0.31,1.24,0.73C314.45,162.88,314.35,166.51,312.51,169.07z"/>
			<path class="st1" d="M275.5,182.44c-0.23,0.17-0.47,0.34-0.7,0.51c0.2,0.29,0.39,0.59,0.56,0.91c0.01,0.02,0.02,0.03,0.03,0.05
				c0.34-0.26,0.69-0.51,1.03-0.77c1.93-1.45,3.26-3.38,3.96-5.51c-0.46,0.07-0.93,0.14-1.39,0.19
				C278.24,179.78,277.11,181.27,275.5,182.44z"/>
			<path class="st1" d="M238.4,176.28c-3.32-4.77-2.19-11.24,2.39-14.78c4.92-4.42,13.54-1.91,17.37,2.41
				c0.12,0.14,0.22,0.25,0.31,0.36c0,0,1.07,1.22,2.31,0.34h0c0.25-0.13,0.53-0.28,0.86-0.44c3.85-2.17,9.22-2.07,12.98,0.29
				c4.09,2.57,5.6,6.41,5.13,10.49c-0.11,0.62-0.24,1.2-0.4,1.75c0.45-0.05,0.89-0.12,1.33-0.19c0.73-3.28,0.07-6.88-2.04-9.83
				c-3.67-5.14-13.4-6.54-18.8-3.22c-0.16,0.1-0.3,0.2-0.42,0.3c-0.1-0.18-0.24-0.37-0.41-0.56c-4.2-4.72-13.7-6.49-18.71-2.73
				c-5.2,3.9-6.58,11.05-2.91,16.36c0.84,1.22,1.69,2.43,2.55,3.65c0.32-0.21,0.64-0.41,0.97-0.61
				C240.08,178.67,239.24,177.48,238.4,176.28z"/>
			<path class="st0" d="M269.43,186.8c-0.34,0.24-0.68,0.49-1.03,0.73c0.43,0.17,0.85,0.35,1.26,0.55c0.33-0.23,0.65-0.47,0.98-0.7
				C270.25,187.17,269.84,186.98,269.43,186.8z"/>
			<path class="st1" d="M279.36,176.7c-0.11,0.39-0.23,0.76-0.37,1.12c0.47-0.06,0.93-0.12,1.39-0.19c0.12-0.37,0.22-0.74,0.31-1.12
				C280.25,176.58,279.8,176.64,279.36,176.7z"/>
			<path class="st0" d="M274.8,182.94c-0.29,0.21-0.58,0.42-0.87,0.63c0.21,0.31,0.41,0.64,0.59,0.98c0.29-0.22,0.58-0.43,0.88-0.65
				c-0.01-0.02-0.02-0.03-0.03-0.05C275.19,183.54,275,183.23,274.8,182.94z"/>
			<path class="st0" d="M241.56,180.77c-0.21-0.3-0.43-0.6-0.64-0.9c-0.33,0.2-0.65,0.4-0.97,0.61c0.21,0.3,0.42,0.6,0.64,0.91
				c0.19-0.13,0.39-0.25,0.58-0.37C241.3,180.93,241.43,180.85,241.56,180.77z"/>
			<path class="st9" d="M257.34,174.55c-0.45-0.07-0.77,0.15-0.84,0.6c-0.01,0.06-0.01,0.11-0.01,0.16c0.5,0,1,0.02,1.49,0.05
				C257.99,174.92,257.78,174.62,257.34,174.55z"/>
			<path class="st9" d="M258.78,169.76c-0.06,0-0.12-0.01-0.17-0.02c-0.39-0.08-0.77-0.1-1.16-0.09c0.38-0.02,0.77,0.01,1.16,0.09
				C258.66,169.75,258.72,169.76,258.78,169.76z"/>
			<path class="st9" d="M259.1,170.22c0.05-0.04,0.09-0.08,0.1-0.14C259.19,170.14,259.15,170.18,259.1,170.22z"/>
			<path class="st9" d="M258.87,169.76c0.06,0.01,0.12,0.02,0.17,0.04C258.99,169.78,258.93,169.77,258.87,169.76z"/>
			<path class="st9" d="M259.07,170.24c-0.02,0.01-0.04,0.02-0.06,0.03C259.03,170.27,259.05,170.26,259.07,170.24z"/>
			<path class="st9" d="M269.09,178.07c0.15,0.49,0.59,0.52,0.9,0.7c1.89,1.09,3.59,2.4,4.81,4.18c0.23-0.17,0.47-0.34,0.7-0.51
				c1.61-1.16,2.74-2.66,3.49-4.62C275.73,178.21,272.43,178.2,269.09,178.07z"/>
			<path class="st9" d="M258.09,171.44c-0.09,0.23-0.15,0.47-0.17,0.7C257.93,171.9,257.99,171.67,258.09,171.44z"/>
			<path class="st9" d="M252.87,173.19c0.12-0.37,0.27-0.72,0.48-1.06C253.15,172.47,252.99,172.82,252.87,173.19z"/>
			<path class="st9" d="M274.63,164.45c-3.76-2.36-9.13-2.46-12.98-0.29c-0.33,0.16-0.62,0.31-0.86,0.44h0
				c-1.23,0.88-2.31-0.34-2.31-0.34c-0.1-0.12-0.19-0.23-0.31-0.36c-3.83-4.32-12.45-6.83-17.37-2.41
				c-4.58,3.54-5.71,10.01-2.39,14.78c0.84,1.2,1.68,2.4,2.52,3.59c2.65-1.6,5.52-2.85,8.68-3.64c0.31-0.08,0.62-0.15,0.94-0.22
				c-0.15-0.82-0.16-1.68-0.01-2.54c0.71-3.96,4.45-6.57,8.43-5.88c3.96,0.69,6.64,4.49,5.92,8.4c-0.04,0.19-0.08,0.38-0.13,0.56
				c4.17,0.63,8.36,0.56,12.57,0.32c0.68-0.04,1.35-0.1,2.03-0.18c0.16-0.55,0.29-1.13,0.4-1.75
				C280.22,170.87,278.72,167.02,274.63,164.45z"/>
			<path class="st9" d="M255.97,169.96c0.24-0.09,0.48-0.16,0.73-0.21C256.45,169.8,256.2,169.87,255.97,169.96z"/>
			<path class="st0" d="M257.16,176.03c0.45,0.05,0.72-0.21,0.82-0.64c0-0.01,0-0.01,0-0.02c-0.5-0.03-1-0.05-1.49-0.05
				C256.48,175.71,256.72,175.98,257.16,176.03z"/>
			<path class="st0" d="M250.54,176c-0.31,0.07-0.63,0.14-0.94,0.22c-3.16,0.8-6.04,2.05-8.68,3.64c0.21,0.3,0.43,0.6,0.64,0.9
				c3.03-1.85,6.11-3.11,9.24-3.79C250.69,176.67,250.6,176.34,250.54,176z"/>
			<path class="st0" d="M264.05,185.64c-0.17,0.64,0.39,0.66,0.8,0.76c0.19,0.05,0.38,0.1,0.57,0.15c1.01,0.29,2.01,0.61,2.98,0.99
				c0.34-0.24,0.68-0.49,1.03-0.73c-1.4-0.61-2.87-1.05-4.38-1.43C264.71,185.29,264.2,185.08,264.05,185.64z"/>
			<path class="st1" d="M251.42,173.63c0.34-1.94,1.53-3.53,3.12-4.43c0.18-0.1,0.36-0.19,0.54-0.28c0.28-0.13,0.57-0.23,0.86-0.32
				c0.2-0.06,0.4-0.1,0.6-0.14s0.41-0.06,0.62-0.08c0.52-0.04,1.06-0.02,1.6,0.07c0.54,0.09,1.05,0.25,1.53,0.46
				c0.19,0.09,0.38,0.18,0.56,0.28c0.36,0.21,0.7,0.45,1.01,0.71c0.16,0.13,0.3,0.27,0.44,0.42c1.34,1.4,2.03,3.39,1.69,5.44
				c-0.04,0.21-0.08,0.43-0.14,0.63c0.3,0.05,0.59,0.1,0.89,0.15c0.05-0.19,0.09-0.37,0.13-0.56c0.72-3.91-1.97-7.72-5.92-8.4
				c-3.98-0.69-7.72,1.92-8.43,5.88c-0.15,0.86-0.14,1.72,0.01,2.54c0.29-0.07,0.59-0.13,0.88-0.18
				C251.3,175.11,251.29,174.38,251.42,173.63z"/>
			<path class="st0" d="M251.68,176.81c0-0.01-0.01-0.03-0.02-0.04c-0.11-0.31-0.19-0.62-0.24-0.95c-0.29,0.06-0.59,0.12-0.88,0.18
				c0.06,0.33,0.15,0.66,0.25,0.98C251.09,176.92,251.39,176.86,251.68,176.81z"/>
			<path class="st0" d="M252.87,173.19c0.12-0.37,0.27-0.72,0.48-1.06c0.61-1.03,1.55-1.78,2.61-2.17c0.24-0.09,0.48-0.16,0.73-0.21
				c0.25-0.05,0.5-0.08,0.76-0.09c0.38-0.02,0.77,0.01,1.16,0.09c0.05,0.01,0.11,0.01,0.17,0.02c0.03,0,0.06,0,0.09,0.01
				c0.06,0.01,0.12,0.02,0.17,0.04c0.08,0.03,0.13,0.09,0.16,0.21c0.01,0.03,0.01,0.05,0,0.07c-0.01,0.06-0.05,0.1-0.1,0.14
				c-0.01,0.01-0.02,0.02-0.04,0.02c-0.02,0.01-0.04,0.02-0.06,0.03c-0.03,0.02-0.07,0.04-0.1,0.06c-0.02,0.01-0.04,0.03-0.05,0.04
				c-0.36,0.31-0.62,0.68-0.77,1.06c-0.09,0.23-0.15,0.47-0.17,0.7c-0.05,0.63,0.16,1.26,0.66,1.77c0.99,1.02,2.51,0.93,3.53-0.19
				c0.11-0.12,0.23-0.24,0.36-0.37c0.25,0.59,0.34,1.22,0.29,1.84c-0.01,0.16-0.03,0.31-0.06,0.47c-0.03,0.15-0.07,0.31-0.11,0.46
				c0,0.01-0.01,0.03-0.01,0.04c0.43,0.09,0.86,0.17,1.29,0.25c0.06-0.21,0.1-0.42,0.14-0.63c0.34-2.05-0.34-4.04-1.69-5.44
				c-0.14-0.15-0.29-0.29-0.44-0.42c-0.31-0.27-0.65-0.51-1.01-0.71c-0.18-0.1-0.37-0.2-0.56-0.28c-0.48-0.21-0.99-0.37-1.53-0.46
				c-0.54-0.09-1.08-0.11-1.6-0.07c-0.21,0.02-0.42,0.04-0.62,0.08s-0.41,0.08-0.6,0.14c-0.3,0.08-0.59,0.19-0.86,0.32
				c-0.19,0.08-0.37,0.18-0.54,0.28c-1.59,0.91-2.78,2.49-3.12,4.43c-0.13,0.74-0.12,1.48,0,2.19c0.43-0.08,0.86-0.16,1.29-0.22
				C252.58,174.8,252.63,173.97,252.87,173.19z"/>
			<path class="st0" d="M253,176.6c-0.05-0.13-0.1-0.27-0.14-0.41c-0.06-0.2-0.1-0.39-0.14-0.59c-0.43,0.06-0.86,0.14-1.29,0.22
				c0.06,0.32,0.14,0.64,0.24,0.95c0,0.01,0.01,0.03,0.02,0.04C252.12,176.73,252.56,176.66,253,176.6z"/>
			<path class="st0" d="M262.34,176.79c-0.04,0.1-0.09,0.19-0.14,0.29c0.44,0.1,0.87,0.21,1.31,0.33c0.15-0.32,0.27-0.65,0.37-0.99
				c-0.43-0.08-0.86-0.16-1.29-0.25C262.51,176.37,262.43,176.58,262.34,176.79z"/>
			<path class="st0" d="M255.95,168.61c0.2-0.06,0.4-0.1,0.6-0.14C256.35,168.5,256.15,168.55,255.95,168.61z"/>
			<path class="st0" d="M260.87,169.2c0.36,0.21,0.7,0.45,1.01,0.71C261.57,169.65,261.23,169.41,260.87,169.2z"/>
			<path class="st0" d="M254.54,169.2c0.18-0.1,0.36-0.19,0.54-0.28C254.9,169.01,254.72,169.1,254.54,169.2z"/>
			<path class="st0" d="M260.31,168.92c0.19,0.09,0.38,0.18,0.56,0.28C260.69,169.1,260.5,169,260.31,168.92z"/>
			<path class="st0" d="M258.78,168.46c0.54,0.09,1.05,0.25,1.53,0.46C259.83,168.7,259.32,168.55,258.78,168.46
				c-0.54-0.09-1.08-0.11-1.6-0.07C257.7,168.34,258.23,168.36,258.78,168.46z"/>
			<path class="st0" d="M262.32,170.34c-0.14-0.15-0.29-0.29-0.44-0.42C262.03,170.05,262.18,170.19,262.32,170.34z"/>
			<path class="st0" d="M251.67,176.77c0,0.01,0.01,0.03,0.02,0.04l0,0C251.68,176.79,251.67,176.78,251.67,176.77z"/>
			<path class="st1" d="M256.48,175.32c0-0.05,0-0.11,0.01-0.16c0.07-0.45,0.4-0.67,0.84-0.6c0.44,0.07,0.65,0.36,0.64,0.82
				c1.18,0.08,2.36,0.26,3.53,0.54c0.36,0.09,0.71,0.17,1.07,0.24c0-0.01,0.01-0.03,0.01-0.04c0.04-0.15,0.08-0.31,0.11-0.46
				c0.03-0.15,0.05-0.31,0.06-0.47c0.05-0.62-0.04-1.25-0.29-1.84c-0.13,0.14-0.25,0.25-0.36,0.37c-1.03,1.13-2.55,1.21-3.53,0.19
				c-0.49-0.51-0.71-1.14-0.66-1.77c0.02-0.24,0.08-0.47,0.17-0.7c0.16-0.38,0.42-0.75,0.77-1.06c0.02-0.01,0.03-0.03,0.05-0.04
				c0.03-0.02,0.07-0.04,0.1-0.06c0.02-0.01,0.04-0.02,0.06-0.03c0.01-0.01,0.02-0.02,0.04-0.02c0.05-0.04,0.09-0.08,0.1-0.14
				c0-0.02,0-0.04,0-0.07c-0.02-0.12-0.08-0.18-0.16-0.21c-0.05-0.02-0.11-0.03-0.17-0.04c-0.03,0-0.06,0-0.09-0.01
				c-0.06,0-0.12-0.01-0.17-0.02c-0.39-0.08-0.77-0.1-1.16-0.09c-0.26,0.01-0.51,0.04-0.76,0.09c-0.25,0.05-0.49,0.12-0.73,0.21
				c-1.07,0.39-2,1.14-2.61,2.17c-0.2,0.34-0.36,0.7-0.48,1.06c-0.25,0.78-0.3,1.61-0.16,2.41
				C253.97,175.41,255.23,175.31,256.48,175.32z"/>
			<path class="st0" d="M262.19,177.07c0.05-0.09,0.1-0.19,0.14-0.29c0.09-0.21,0.17-0.42,0.24-0.63c-0.36-0.08-0.71-0.16-1.07-0.24
				c-1.17-0.29-2.35-0.46-3.53-0.54c0,0.01,0,0.01,0,0.02c-0.1,0.43-0.36,0.69-0.82,0.64c-0.45-0.05-0.68-0.31-0.68-0.71
				c-1.26,0-2.51,0.1-3.77,0.28c0.03,0.2,0.08,0.4,0.14,0.59c0.04,0.14,0.09,0.27,0.14,0.41
				C256.03,176.21,259.1,176.37,262.19,177.07z"/>
			<path class="st1" d="M259.1,170.22c-0.01,0.01-0.02,0.02-0.04,0.02C259.08,170.24,259.09,170.23,259.1,170.22z"/>
			<path class="st1" d="M259.01,170.28c-0.03,0.02-0.07,0.04-0.1,0.06C258.94,170.32,258.98,170.3,259.01,170.28z"/>
			<path class="st1" d="M262.7,175.65c-0.03,0.15-0.07,0.31-0.11,0.46C262.63,175.96,262.67,175.81,262.7,175.65z"/>
			<path class="st1" d="M262.12,177.22c0.03-0.05,0.05-0.1,0.08-0.14l0,0C262.17,177.12,262.14,177.17,262.12,177.22z"/>
			<path class="st1" d="M262.76,175.19c-0.01,0.16-0.03,0.31-0.06,0.47C262.73,175.5,262.75,175.34,262.76,175.19z"/>
			<path class="st1" d="M252.85,176.19c0.04,0.14,0.09,0.27,0.14,0.41l0,0C252.94,176.47,252.9,176.33,252.85,176.19z"/>
			<path class="st1" d="M262.19,177.07c0.05-0.09,0.1-0.19,0.14-0.29C262.29,176.88,262.25,176.98,262.19,177.07L262.19,177.07z"/>
		</g>
	</g>
	<path id="contour_noir_7_" class="st10" d="M270.64,165.81c2.26-1.13,4.22,0.71,3.87,2.65c-0.23,1.29-1.62,2.25-2.93,2
		C269.65,170.11,268.59,167.48,270.64,165.81z M273.44,168.23c0.13-0.74-0.39-1.51-1.12-1.66c-0.76-0.16-1.58,0.43-1.69,1.2
		c-0.11,0.74,0.44,1.49,1.19,1.61S273.32,168.97,273.44,168.23z"/>
	<path id="fond_blanc_7_" class="st11" d="M273.44,168.23c-0.13,0.74-0.89,1.28-1.63,1.15s-1.29-0.87-1.19-1.61
		c0.11-0.78,0.93-1.36,1.69-1.2C273.05,166.72,273.57,167.49,273.44,168.23z"/>
</g>
<g>
	<path class="st0" d="M264.37,177.65c1.44,0.44,2.89,1,4.35,1.68c2.11,0.98,3.93,2.34,5.21,4.24c0.29-0.21,0.58-0.42,0.87-0.63
		c-1.22-1.78-2.92-3.09-4.81-4.18l-5.35-1.82C264.56,177.19,264.47,177.42,264.37,177.65z"/>
	<path class="st9" d="M277.33,176.88c-4.21,0.24-8.4,0.3-12.57-0.32c-0.03,0.13-0.08,0.25-0.12,0.38c0.83,0.23,3.56,1.02,5.34,1.84
		c-0.3-0.17-0.75-0.2-0.9-0.7c3.34,0.13,6.65,0.14,9.9-0.26c0.14-0.36,0.26-0.73,0.37-1.12
		C278.69,176.78,278.01,176.84,277.33,176.88z"/>
	<path class="st0" d="M264.4,176.86l0.24,0.08c0,0,0-0.01,0-0.01C264.49,176.89,264.4,176.86,264.4,176.86z"/>
	<path class="st0" d="M264.64,176.94l5.35,1.82c-1.79-0.82-4.49-1.68-5.31-1.91C264.67,176.86,264.64,176.94,264.64,176.94z"/>
</g>
<g>
	<path class="st0" d="M263.5,177.4c0.29,0.08,0.58,0.16,0.87,0.25c0.11-0.26,0.21-0.53,0.29-0.8l-0.87-0.22
		C263.71,176.89,263.62,177.15,263.5,177.4z"/>
	<path class="st1" d="M264.76,176.55c-0.3-0.04-0.59-0.09-0.89-0.15c-0.02,0.08-0.05,0.15-0.07,0.22c0.21,0.05,0.72,0.19,0.87,0.22
		C264.7,176.75,264.73,176.65,264.76,176.55z"/>
	<path class="st0" d="M263.73,176.61l0.07,0.02c0,0,0,0,0,0C263.76,176.62,263.74,176.61,263.73,176.61z"/>
	<path class="st0" d="M264.67,176.85C264.67,176.85,264.67,176.85,264.67,176.85l0.04,0.01
		C264.71,176.86,264.69,176.86,264.67,176.85z"/>
	<path class="st0" d="M263.8,176.63C263.8,176.63,263.8,176.63,263.8,176.63l0.87,0.22c0,0,0,0,0,0
		C264.52,176.81,264,176.68,263.8,176.63z"/>
</g>
</svg>
