<?xml version="1.0" encoding="utf-8"?>
<!-- Generator: Adobe Illustrator 23.1.1, SVG Export Plug-In . SVG Version: 6.00 Build 0)  -->
<svg version="1.1" id="Calque_1" xmlns="http://www.w3.org/2000/svg" xmlns:xlink="http://www.w3.org/1999/xlink" x="0px" y="0px"
	 viewBox="0 0 335 375" style="enable-background:new 0 0 335 375;" xml:space="preserve">
<style type="text/css">
	.st0{fill:#FFFFFF;}
	.st1{fill:#DF6D52;}
	.st2{fill:#F2653E;}
	.st3{fill:#C27768;}
	.st4{fill:#F37554;}
	.st5{fill:#EE3455;}
	.st6{fill:#D1715B;}
	.st7{fill:#EB6847;}
	.st8{fill:none;stroke:#FDFEFF;stroke-miterlimit:10;}
	.st9{fill:#FDFEFF;}
	.st10{fill:none;stroke:#FFFFFF;stroke-miterlimit:10;}
	.st11{fill:#ED6847;}
	.st12{fill:#121010;}
	.st13{fill:#EE4439;}
	.st14{fill:#ECECEC;}
	.st15{fill:#141112;}
	.st16{fill:#F2F2F2;}
</style>
<g>
	<g>
		<path class="st0" d="M181.53,85.01c0.52-9.81,4.15-14.65,13.43-17.86c10.15-3.5,20.03-2.4,29.71,1.87
			c6.49,2.86,12.29,6.86,18.18,10.74c0.56,0.37,1.15,0.68,1.67,1.09c1.49,1.18,2.79,1.21,4.63,0.3c12.06-5.98,27.21-3.18,35.27,6.33
			c3.03,3.58,4.84,7.75,5.89,12.29c0.16,0.71,0.19,1.35,1.21,1.52c10.91,1.82,16.57,9.06,19.35,19.07
			c1.91,6.87,2.04,13.82-0.25,20.65c-1.15,3.42-2.87,6.48-6.81,7.44c-2.85,0.7-4.91-0.15-6.38-2.73c-1.01-1.77-1.48-3.69-1.63-5.71
			c-0.06-0.86-0.28-1.23-1.34-1.1c-9.37,1.11-14.63-2.07-18.1-11.06c-1.05,0.88-2.03,1.72-3.02,2.53
			c-7.49,6.08-15.52,11.21-24.95,13.76c-5.09,1.38-10.23,1.71-15.37,0.27c-11.42-3.18-16.06-11.52-12.75-22.93
			c0.4-1.39,0.91-2.75,1.5-4.54c-1.02,0.52-1.74,0.87-2.46,1.25c-12.88,6.83-26.35,12.03-40.79,14.36
			c-9.53,1.54-19.13,2.14-28.45-1.03c-8.24-2.81-14.93-7.83-18.33-16.09c-4.96-12.07-0.6-23.4,11.17-29.37
			c11.76-5.97,23.93-5.84,36.24-1.76c0.69,0.23,1.37,0.5,2.06,0.75C181.25,85.07,181.32,85.04,181.53,85.01z"/>
		<path class="st0" d="M68.64,288.85c-0.47,0.12-0.94,0.24-1.41,0.36c-0.59,0.12-1.18,0.23-1.78,0.35
			c-5.52,1.95-13.11-0.32-15.89-7.37c-0.85-2.15-1.3-4.46-1.84-6.72C35.1,222.66,22.49,169.85,9.86,117.04
			c-2-8.36,1.88-14.74,10.31-16.76c24.5-5.87,48.99-11.75,73.5-17.55c6.81-1.61,13.26,2.33,15.18,9.04c0.35,1.21,0.6,2.45,0.9,3.68
			c0.43,1.81,0.53,3.69,3.21,3.88c1.41,0.1,2.28,1.56,2.63,2.99c1.35,5.49,2.65,10.98,3.97,16.48c0.13,0.52,0.22,1.06-0.3,1.46
			c-0.57,0.1-1.14,0.2-1.71,0.29c-1.56,0.25-1.96,1.02-1.08,2.37c-0.16,1.27,0.58,1.2,1.48,1.04c2.71-0.49,2.7-0.48,3.34,2.21
			c1.07,4.5,2.11,9,3.24,13.49c0.33,1.31,0.44,2.6,0.28,3.93c-0.55,0.71-0.92,1.62-1.75,2.05c-1.27,0.66-1.16,1.54-0.56,2.57
			c1.9,8.14,3.78,16.29,5.72,24.43c6.65,27.91,13.34,55.8,19.99,83.71c1.72,7.2-2.17,13.69-9.34,15.68
			c-1.5,0.41-2.93,1.11-4.53,1.11c-1.32,0.34-2.7,0.42-3.95,1.04c-0.14,0.01-0.26,0.06-0.37,0.14c-0.46,0.06-0.93,0.08-1.37,0.19
			C108.65,279.28,88.64,284.06,68.64,288.85z M71.67,93.21c-0.37-0.11-0.54,0.13-0.69,0.39c-0.8,0.61-1.7,1.02-2.68,1.26
			c-7.05,1.68-14.08,3.41-21.13,5.06c-2.54,0.6-4.58-0.17-5.87-2.31c-0.57-0.94-1.08-1.04-2.03-0.81
			c-6.52,1.59-13.06,3.09-19.57,4.71c-6.95,1.74-10.55,7.64-8.9,14.58c8.89,37.3,17.8,74.6,26.72,111.9
			c4.15,17.39,8.27,34.79,12.52,52.15c1.59,6.51,7.58,10.15,14.04,8.62c24.51-5.8,49.01-11.66,73.5-17.54
			c7.81-1.88,11.26-7.67,9.39-15.44c-4.07-17-8.11-34-12.17-51c-8.91-37.29-17.83-74.59-26.76-111.88
			c-1.56-6.53-7.05-10.46-13.52-9.19c-6.71,1.31-13.31,3.16-19.96,4.77c-0.79,0.1-1.93-0.11-1.93,1.06c0,1.36-0.69,2.46-0.97,3.69
			L71.67,93.21z M117.49,127.28c1.36,5.94,2.73,11.89,4.13,17.97c1.9-0.97,2.58-2.28,2.15-4.05c-1.15-4.85-2.35-9.68-3.53-14.53
			c-0.42-2.19-0.42-2.19-3.32-1.25C117.11,126.04,117.3,126.66,117.49,127.28z M114.49,102.94c-0.53-2.2-1.36-2.86-3.6-2.78
			c0.18,0.64,0.36,1.27,0.54,1.89c1.29,5.56,2.59,11.11,3.86,16.68c0.24,1.03,0.73,1.23,1.7,0.9c0.77-0.26,1.64-0.23,1.31-1.46
			C116.96,113.11,116.06,107.94,114.49,102.94z M46.53,98.81c7.49-1.51,14.89-3.4,22.3-5.26c1.48-0.37,2.26-1.57,2.66-3
			c0.31-1.11-0.07-1.47-1.21-1.19c-8.84,2.16-17.69,4.29-26.54,6.43c-0.6,0.19-1.57-0.02-1.72,0.57c-0.2,0.8,0.6,1.38,1.23,1.83
			C44.22,98.92,45.31,99.29,46.53,98.81z"/>
		<path class="st0" d="M295.45,204.34c-0.22,0-0.45,0-0.67,0c-0.23-1.03-0.43-2.08-0.69-3.1c-2.21-8.8-7.86-13.64-18.4-14.8
			c-3.2-0.35-6.57-0.89-9.68,0.82c-0.28,0.15-0.77-0.08-1.17-0.14c-0.66,0.08-1.32,0.1-1.97,0.23c-7.73,1.63-15.26,4.1-23.02,5.63
			c-6.4,1.26-12.85,2.14-19.38,2.02c-7.6-0.14-14.67-2.16-21.16-6.15c-2.08-1.02-3.99-2.37-6.26-3.02
			c-1.48-0.42-2.89-0.36-4.29,0.19c-3.75,1.5-7.08,6.89-6.76,10.93c0.19,2.47,1.87,3.69,4.27,3.05c2.62-0.7,4.47-2.55,6.32-4.38
			c0.82-0.81,1.59-1.66,2.41-2.53c0.46,0.67,0.13,0.96-0.13,1.25c-2.51,2.76-4.98,5.59-8.83,6.55c-0.63,0.16-0.86,0.41-0.79,1.09
			c0.19,1.83-0.45,3.29-2.19,4.08c-0.8,0.36-0.6,0.78-0.4,1.42c0.31,1.01,0.75,2.12,0.26,3.12c-0.68,1.38-0.03,1.94,1.06,2.58
			c6.81,4,14.32,5.53,22.05,6.35c0.79,0.08,1.59,0.14,2.38,0.24c0.25,0.03,0.48,0.18,0.71,0.46c-1.52,0.48-3.08,0.17-4.58-0.02
			c-7.83-1-15.48-2.58-22.19-7.1c-0.27-0.18-0.54-0.42-0.91-0.29c-3.21,1.15-5.31-0.85-7.41-2.7c-1.46-1.28-2.63-2.82-3.35-4.66
			c-0.83-2.14-0.52-3.76,1.32-5.11c0.86-0.63,0.59-1.09,0.37-1.79c-1.17-3.65-0.24-6.35,3.02-8.54c-2.43-1.35-4.91-2.47-7.03-4.18
			c-1.15-0.93-2.24-1.9-2.97-3.2c-1.65-2.94,0.15-6.15,3.51-6.28c2.05-0.08,3.92,0.63,5.74,1.47c4.23,1.95,8.29,4.23,12.27,6.64
			c0.91,0.55,1.7,0.79,2.78,0.45c1.8-0.55,3.58-0.02,5.23,0.74c1.81,0.83,3.61,1.7,5.3,2.75c9.12,5.65,19.1,6.41,29.44,5.34
			c10.64-1.1,20.81-4.29,31.14-6.79c6.2-1.5,12.44-2.27,18.76-0.71C289.06,188.6,294.26,194.52,295.45,204.34z M187.39,185.68
			c-4.97-2.91-9.78-5.84-15.05-7.9c-1.18-0.46-2.42-0.73-3.7-0.6c-2.47,0.26-3.76,2.59-2.66,4.83c0.6,1.22,1.55,2.16,2.59,2.98
			c3.76,2.97,8.09,4.74,12.63,6.09c0.77,0.23,1.32,0.22,1.78-0.65C183.98,188.52,185.47,187.01,187.39,185.68z M181.24,194.25
			c0.84-2.08,0.84-2.08-1.1-2.65c-0.44-0.13-0.89-0.27-1.32-0.42c-3.31-1.12-5.79,0.54-6.05,4.03c-0.31,4.25,3.89,9.55,8.15,10.26
			c0.39,0.06,0.8,0.09,1.19,0.03c1.25-0.21,2.03-1.01,2.26-2.21c0.21-1.1,0.37-2.21-1.13-2.76c-1.12-0.41-1.96-1.5-1.9-2.6
			c0.11-2.07-0.93-3.32-2.35-4.47c-0.09-0.07-0.03-0.32-0.05-0.61C179.96,192.96,180.32,193.92,181.24,194.25z M182.23,209.57
			c-0.24-1.64-0.37-3.16-2.55-3.68c-2.31-0.55-4.02-2.25-5.52-4.08c-1.09-1.33-2.09-1.2-2.81,0.4c-0.34,0.76-0.4,1.6-0.12,2.34
			c1.39,3.67,3.91,6.32,7.6,7.66C180.78,212.92,182.26,211.63,182.23,209.57z"/>
		<path class="st1" d="M199.3,188.86c6.49,3.99,13.57,6.02,21.16,6.15c6.54,0.12,12.98-0.76,19.38-2.02
			c7.76-1.53,15.29-4,23.02-5.63c0.64-0.14,1.31-0.16,1.97-0.23c-1.48,1.26-2.2,3.76-4.92,2.98c-0.06-0.02-0.16-0.04-0.2,0
			c-1.75,1.35-4.38,1-5.77,2.92c-0.35,0.48-0.76,0.77-1.14,0.75c-1.64-0.08-3.03,0.2-3.9,1.77c-0.09,0.16-0.54,0.28-0.7,0.19
			c-1.24-0.68-2.13,0.29-3.15,0.61c-0.89,0.28-1.67,1.35-2.71,0.11c-0.4-0.47-1.17,0.09-1.67,0.26c-0.98,0.33-1.75,0.85-2.97,0.72
			c-0.55-0.06-1.36,1.01-2.58,0.82c-0.67-0.11-1.59,0.39-2.42,0.12c-0.73-0.24-1.46,0-1.85,0.43c-0.72,0.79-1.43,1.06-2.45,0.8
			c-1.11-0.29-0.25,0.95-0.78,1.11c0.15-1.02-0.3-1.67-1.31-1.3c-1.65,0.6-2.97,0.21-4.44-0.63c-1.1-0.63-2.46-0.41-3.72-0.03
			c-0.55,0.16-1.41,1.46-1.56-0.34c-0.01-0.14-0.24-0.26-0.36-0.39c-0.4,1.15-1.27-0.27-1.77,0.32c0.11-1.9-1.67-1.32-2.54-1.93
			c-0.03-0.3-0.07-0.59-0.1-0.89c-0.05,0.04-0.13,0.06-0.15,0.11c-0.1,0.32-0.09,0.6,0.28,0.76c-0.32,0.66-1.37-0.04-1.58,0.83
			c-1.04-0.35-1.69-1.31-2.57-1.9c-0.69-0.46-0.94,0.32-1.21-0.04c-0.66-0.89-2.98-0.16-2.34-2.41c0.06-0.2-0.82-0.93-1.32-0.99
			c-1.18-0.15-1.99-1.07-3.01-1.32C198.6,190.2,199.18,189.53,199.3,188.86z M200.88,190.48c-0.02,0.04-0.08,0.1-0.06,0.13
			c0.07,0.18,0.17,0.18,0.25,0.01c0.01-0.03-0.03-0.1-0.06-0.13C200.98,190.47,200.92,190.49,200.88,190.48z"/>
		<path class="st2" d="M116.47,122.92c-0.88-1.36-0.47-2.13,1.08-2.37c0.57-0.09,1.14-0.19,1.71-0.29
			C119.87,122.34,119.87,122.34,116.47,122.92z"/>
		<path class="st2" d="M122.5,148.2c-0.6-1.03-0.7-1.91,0.56-2.57c0.83-0.43,1.19-1.34,1.75-2.05
			C125.22,145.97,124.66,147.08,122.5,148.2z"/>
		<path class="st3" d="M130.39,274.17c1.24-0.62,2.63-0.7,3.95-1.04"/>
		<path class="st3" d="M134.43,275.29c-0.06-0.02-0.12-0.06-0.17-0.05c-0.05,0.01-0.1,0.06-0.15,0.09c0.06,0,0.13,0.02,0.19,0.01
			C134.33,275.34,134.38,275.31,134.43,275.29z"/>
		<line class="st4" x1="123.24" y1="280.66" x2="123.22" y2="280.68"/>
		<path class="st3" d="M211.7,299.87"/>
		<path class="st3" d="M183.6,289.08c0,0-0.01,0-0.01,0c0,0.01-0.01,0.01-0.01,0.02C183.58,289.1,183.6,289.08,183.6,289.08z"/>
		<path class="st5" d="M299.92,281.9c-19.18-0.01-38.36-0.01-57.53-0.01c-1.31,0-2.62,0.53-3.93,0c-0.84,0.99-0.33,2.78-1.95,3.29
			c-1.21,0.38-0.76,1.13-0.44,1.84c0.36,0.83,1.35,1.37,1.12,2.46c0.95,2.85,2.27,5.5,4.22,7.82c1.21,2.2,2.94,3.91,4.95,5.37
			c2.11,1.77,4.49,3.11,7.1,3.93c5.77,1.82,11.71,2.4,17.7,1.57c5.31-0.73,10.37-2.29,14.78-5.49c2.55-1.52,4.83-3.35,6.76-5.61
			c2.17-2.15,4.05-4.52,5.54-7.2c1.54-2.36,2.88-4.81,3.72-7.51C301.41,281.64,300.61,281.9,299.92,281.9z"/>
		<path class="st5" d="M236.78,291.48c-6.69,0-13.38,0-20.06,0.01c-0.87,0-1.72-0.01-2.5-0.47c8.48-3.58,9.62-4.48,18.43-14.69
			C233.35,281.68,234.8,286.66,236.78,291.48z"/>
		<path class="st5" d="M304.26,259.01c-1.21-6.6-4.13-12.15-9.45-16.55c-2.39-1.97-3.44,1.21-5.23,0.49
			c-0.11-0.05-0.44,0.1-0.45,0.17c-0.12,1.76-0.76,3.19-2.42,4.02c0,0,0,0,0,0c-0.36,0.3-0.32,1.08-1.04,0.94
			c-0.86-0.17-0.88-0.2-0.73,0.55c0.09,0.44,0.25,0.87,0.37,1.3c0.1,0.03,0.17,0.07,0.23,0.13c-0.05-0.06-0.13-0.1-0.23-0.13
			c-1.15,0.78-1.24,0.87-1.02,1.09c1.17,1.15-0.04,1.59-0.64,2.47c-0.1-0.61-0.16-0.98-0.25-1.58c-0.77,1.18-1.74,1.58-2.95,1.31
			c2.12-0.93,2.12-0.93,2.1-2.52c-0.99,1.34-2.91,1.15-3.68,2.69c-0.18,0.36-0.64,0.64-0.88,0.04c-0.21-0.54-0.46-0.84-0.99-0.53
			c-0.41,0.24-0.55,0.67-0.53,1.19c0.05,1.41-0.59,2.12-1.85,2.16c-0.59,0.02-2.28-0.77-2.86-1.35c-0.31-0.3-0.6-0.12-0.9,0.01
			c-0.38,0.17-0.37,0.38-0.24,0.77c0.29,0.85,1.04,1.34,1.52,2.1c-1.55-0.12-1.9,0.69-1.89,2.02c0.01,1.07,0.49,2.28-0.77,3.64
			c0-1.1,0.02-1.75,0-2.4c-0.16-3.9-1.06-7.62-2.86-11.1c-0.51-0.99-1.21-1.64-2.28-2.06c-2.72-1.07-5.5-2.07-8.06-3.44
			c-7.08-3.79-14.5-4.44-22.27-3c-1.37,0.25-2.14,0.63-2.32,2.1c-0.22,1.76-1.02,3.3-2.39,4.48c-2.36,2.04-5.38,1.29-6.45-1.61
			c-0.23-0.62-0.39-1.28-0.44-1.93c-0.06-0.82-0.24-0.92-1.09-0.68c-2.28,0.65-3.45,0.01-4.42-2.16c-0.74-1.64-0.9-3.41-1.01-5.4
			c-1.74,1.1-3.24,2.25-5.14,2.43c-2.26,0.22-3.29-1.21-3.91-3.61c-10.94,10.36-15.41,22.76-14.72,37.22
			c0.39,3.71,1.14,7.31,3.29,10.47c3.01,5.09,7.54,7.79,13.38,7.89c6.92,0.12,12.38-3.25,17.13-7.97c3.33-2.94,5.83-6.51,7.93-10.38
			c3.3-5.53,4.89-11.69,6.43-17.89c0.16,1.09-0.03,2.09-0.14,3.11c-0.28,2.5-1.59,4.81-1.34,7.4c-0.36,0.56,0.89,1.27-0.17,1.76
			c-0.21,0.53-0.28,1.08-0.1,1.63c0,0,0.12-0.01,0.11-0.01c0.28,0.03,0.56,0.06,0.84,0.09c1.34,1.15-0.51,2.05-0.25,3.12
			c-0.75,0.44,0.07,1.95-1.32,1.96c-0.49,0.31,0.05,1.24-0.79,1.34c-0.11,0.09-0.22,0.19-0.32,0.28c-0.1,0.54-0.05,0.91,0.51,1.3
			c1.4,0.99,1.48,2.33,0.24,3.44c-0.61,0.55-1.11,1.24-0.94,1.79c0.28,0.9,1.27-0.15,1.86,0.29c1.31,0.53,2.62-0.01,3.93,0
			c19.18,0.01,38.36,0,57.53,0.01c0.7,0,1.49-0.26,2.04,0.47c0.6-0.45,0.33-1.2,0.63-1.79c1.36-2.72,1.99-5.64,2.06-8.68
			C305.12,267.58,305.04,263.27,304.26,259.01z M286.29,251.52L286.29,251.52"/>
		<path class="st6" d="M239.22,271.48c-0.75,0.44,0.07,1.95-1.32,1.96c-0.02-0.08-0.01-0.15,0.03-0.23c0.3-1.07,0.53-2.14,0.43-3.26
			c0.76-0.26,0.9-0.95,1.11-1.59C240.81,269.52,238.96,270.42,239.22,271.48z"/>
		<path class="st7" d="M238.36,269.96c0.1,1.12-0.14,2.19-0.43,3.26c-1.18-1.23-0.11-2.44,0.03-3.65
			C238.09,269.69,238.23,269.83,238.36,269.96z"/>
		<path class="st6" d="M237.11,274.79c-0.11,0.09-0.22,0.19-0.32,0.28c-0.05-0.18-0.08-0.53-0.14-0.53
			c-1.11-0.08-0.5,0.95-0.86,1.37c-0.94-0.8-0.52-1.63,0.22-2.09C236.92,273.26,237.03,274.12,237.11,274.79z"/>
		<path class="st6" d="M238.79,264.9c-0.36,0.56,0.89,1.27-0.17,1.76c-0.56-0.16-0.95-0.44-0.76-1.11
			C237.99,265.09,238.16,264.66,238.79,264.9z"/>
		<path class="st6" d="M276.33,252.32c0.07-2.14,1.21-0.58,1.91-0.55c-0.53,0.55-1.41-0.09-1.92,0.54L276.33,252.32z"/>
		<path class="st6" d="M288.32,242.32c0.3-0.45-0.58-0.94,0.03-1.34c0.11-0.07,0.58,0.14,0.62,0.28c0.13,0.52-0.02,0.97-0.66,1.05
			C288.31,242.31,288.32,242.32,288.32,242.32z"/>
		<path class="st6" d="M287.52,242.7c0.27-0.13,0.53-0.26,0.8-0.39c0,0-0.01-0.01-0.01-0.01c-0.02,0.5,0.22,1.21-0.42,1.34
			c-0.44,0.09-0.34-0.56-0.4-0.91L287.52,242.7z"/>
		<path class="st6" d="M238.52,268.3c0,0,0.12-0.01,0.11-0.01C238.62,268.53,238.59,268.55,238.52,268.3z"/>
		<path class="st6" d="M276.32,252.3c-0.06,0.05-0.11,0.1-0.17,0.15c0.01-0.03,0.02-0.08,0.04-0.1c0.04-0.02,0.09-0.03,0.14-0.04
			C276.33,252.32,276.32,252.3,276.32,252.3z"/>
		<path class="st6" d="M287.49,242.74c-0.05-0.06-0.1-0.12-0.15-0.18c0.06,0.05,0.12,0.1,0.19,0.14
			C287.52,242.7,287.49,242.74,287.49,242.74z"/>
		<path class="st8" d="M64.07,288.76c-6.46,1.53-12.45-2.11-14.04-8.62c-4.25-17.37-8.37-34.76-12.52-52.15
			c-8.91-37.3-17.82-74.6-26.72-111.9c-1.65-6.93,1.94-12.84,8.9-14.58c6.51-1.63,13.05-3.12,19.57-4.71
			c0.95-0.23,1.47-0.13,2.03,0.81c1.29,2.14,3.33,2.91,5.87,2.31c7.05-1.66,14.09-3.38,21.13-5.06c0.99-0.24,1.88-0.65,2.68-1.26
			c0.31,0,0.59-0.03,0.69-0.39l-0.02,0.01c2.18-0.82,2.86-1.92,2.9-4.75c6.65-1.61,13.25-3.45,19.96-4.77
			c6.47-1.27,11.96,2.66,13.52,9.19c8.93,37.29,17.84,74.59,26.76,111.88c4.06,17,8.1,34.01,12.17,51
			c1.86,7.77-1.58,13.57-9.39,15.44 M50.04,256.81c0.45-0.11,0.9-0.23,1.35-0.34c28.18-6.72,56.37-13.47,84.56-20.13
			c1.83-0.43,2.07-1.1,1.65-2.83c-11.34-47.18-22.63-94.37-33.86-141.57c-0.41-1.72-1.12-1.72-2.48-1.39
			c-28.31,6.79-56.62,13.55-84.95,20.29c-1.47,0.35-2.02,0.73-1.6,2.5c9.46,39.36,18.84,78.73,28.23,118.1
			c1.9,7.95,3.81,15.9,5.74,23.84C48.88,255.98,48.72,257.08,50.04,256.81z M87.62,261.35c-0.07,2.67,0.62,5.15,2.13,7.35
			c3.53,5.14,10.59,5.34,14.2,0.25c3.14-4.44,3.63-9.38,1.56-14.41c-1.32-3.2-3.87-4.76-7.41-4.67
			C91.95,250.02,87.64,254.71,87.62,261.35z"/>
		<path class="st2" d="M43.73,95.8c8.85-2.14,17.7-4.27,26.54-6.43c1.15-0.28,1.52,0.08,1.21,1.19c-0.4,1.43-1.18,2.63-2.66,3
			c-7.41,1.86-14.81,3.75-22.3,5.26C45.35,98.04,44.25,97.19,43.73,95.8z"/>
		<path class="st2" d="M114.49,102.94c1.56,5,2.46,10.17,3.81,15.23c0.33,1.23-0.54,1.21-1.31,1.46c-0.97,0.32-1.47,0.13-1.7-0.9
			c-1.27-5.56-2.57-11.12-3.86-16.68C112.61,101.82,113.57,102.3,114.49,102.94z"/>
		<path class="st2" d="M120.24,126.67c1.18,4.84,2.38,9.68,3.53,14.53c0.42,1.78-0.26,3.08-2.15,4.05
			c-1.4-6.08-2.76-12.03-4.12-17.97C118.4,127.08,119.32,126.88,120.24,126.67z"/>
		<path class="st2" d="M74.55,88.47c-0.05,2.83-0.72,3.93-2.9,4.75c0.28-1.24,0.97-2.33,0.97-3.69
			C72.62,88.36,73.76,88.57,74.55,88.47z"/>
		<path class="st9" d="M43.73,95.8c0.52,1.39,1.61,2.24,2.8,3.02c-1.22,0.47-2.31,0.1-3.29-0.61c-0.63-0.45-1.43-1.04-1.23-1.83
			C42.16,95.78,43.14,95.99,43.73,95.8z"/>
		<path class="st9" d="M120.24,126.67c-0.92,0.2-1.83,0.41-2.75,0.61c-0.19-0.62-0.38-1.24-0.57-1.86
			C119.82,124.48,119.82,124.48,120.24,126.67z"/>
		<path class="st9" d="M114.49,102.94c-0.92-0.63-1.89-1.12-3.06-0.89c-0.18-0.62-0.36-1.25-0.54-1.89
			C113.13,100.08,113.96,100.74,114.49,102.94z"/>
		<path class="st2" d="M71.67,93.21c-0.1,0.36-0.39,0.39-0.69,0.39C71.13,93.33,71.3,93.1,71.67,93.21z"/>
		<path class="st0" d="M200.88,190.49c0.04,0,0.1-0.02,0.13,0.01c0.03,0.03,0.07,0.1,0.06,0.13c-0.08,0.18-0.18,0.17-0.25-0.01
			C200.8,190.58,200.85,190.53,200.88,190.49z"/>
		<path class="st9" d="M157.35,285.22c-1.42-0.4-1.16-0.97-0.85-1.91c0.65-1.93,0.08-3.53-1.51-4.75c-1.7-1.29-3.45-1.17-5.16-0.02
			c-1.28,0.86-2.16,1.91-3.05,3.36c-1.97,3.08-2.58,6.6-3.02,10.19c-0.94-2.74-2.85-3.99-5.59-4.19c-1-0.07-1.4,0.19-1.39,1.29
			c0.05,5.72,0.05,11.45,0,17.17c-0.01,1.05,0.43,1.18,1.3,1.17c3.26-0.04,6.52-0.06,9.78,0.01c1.09,0.02,1.35-0.36,1.31-1.38
			c-0.11-2.66-0.12-5.32-0.17-7.98c-0.01-0.45,0.14-1.09-0.35-1.27c-1.72-0.63-0.94-1.51-0.33-2.4c1.18-1.13,2.63-1.73,4.14-2.26
			c1.99-0.71,4.03-1.4,5.55-2.98C159.38,287.82,159.13,285.72,157.35,285.22z M146.07,293.89c-0.21,0.24-0.46,0.7-0.62,0.67
			c-0.67-0.13-0.6-0.75-0.62-1.27c-0.16-3.44,0.44-6.73,1.94-9.84c0.17-0.36,0.33-0.73,0.54-1.05c1.14-1.75,1.75-2.46,3.08-3.27
			c1.46-0.89,2.88-0.91,4.22,0.19c1.27,1.03,1.61,2.34,1.08,3.91c-0.9,2.67-2.91,4.36-5.14,5.83
			C148.67,290.31,146.91,291.66,146.07,293.89 M157.28,288.85c-1.45,1.34-3.28,1.98-5.09,2.62c-1.63,0.58-3.28,1.11-4.38,2.57
			c-0.23,0.22-0.35,0.87-0.96,0.67c-0.01-0.01-0.01-0.01-0.02-0.02c0,0-0.01,0-0.01,0c0.19-1.97,1.61-3.1,3.02-4.14
			c1.76-1.3,3.61-2.46,5.05-4.17c0.77-0.91,1.83-0.87,2.65-0.13C158.47,287.12,158.11,288.08,157.28,288.85z"/>
		<path class="st0" d="M128.81,276.25"/>
		<path class="st0" d="M127.61,276.56"/>
		<path class="st0" d="M50.04,256.81c-1.33,0.26-1.17-0.83-1.33-1.52c-1.93-7.94-3.84-15.89-5.74-23.84
			c-9.4-39.37-18.77-78.75-28.23-118.1c-0.43-1.77,0.13-2.15,1.6-2.5c28.32-6.74,56.64-13.5,84.95-20.29
			c1.36-0.33,2.07-0.33,2.48,1.39c11.23,47.2,22.52,94.39,33.86,141.57c0.41,1.73,0.18,2.4-1.65,2.83
			c-28.2,6.67-56.38,13.41-84.56,20.13C50.95,256.59,50.5,256.7,50.04,256.81z M101.75,91.6c-3.43,0.82-6.79,1.63-10.15,2.43
			c-24.75,5.9-49.5,11.82-74.26,17.68c-1.4,0.33-1.7,0.74-1.34,2.24c11.18,46.59,22.29,93.19,33.38,139.8
			c0.37,1.54,0.83,1.96,2.51,1.55c27.45-6.63,54.92-13.18,82.39-19.75c2.5-0.6,2.49-0.59,1.89-3.11
			c-8.06-33.74-16.11-67.47-24.16-101.21c-3.04-12.73-6.1-25.46-9.15-38.19C102.7,92.39,102.86,91.45,101.75,91.6z"/>
		<path class="st2" d="M87.62,261.35c0.02-6.64,4.33-11.33,10.47-11.48c3.54-0.09,6.09,1.48,7.41,4.67
			c2.07,5.03,1.59,9.97-1.56,14.41c-3.6,5.08-10.66,4.88-14.2-0.25C88.23,266.49,87.55,264.02,87.62,261.35z"/>
		<g>
			<path class="st6" d="M183.58,289.1c0.01,0,0.01,0,0.02-0.01c0,0,0-0.01,0.01-0.01C183.6,289.08,183.58,289.1,183.58,289.1z"/>
			<path class="st6" d="M192.77,292.67C192.77,292.68,192.77,292.68,192.77,292.67c0.01,0.01,0.01,0.01,0.02,0.02L192.77,292.67z"/>
			<path class="st6" d="M192.77,292.67c0,0,0.02,0.02,0.02,0.02c0-0.01,0-0.01,0-0.02C192.78,292.67,192.77,292.67,192.77,292.67z"
				/>
		</g>
		<path class="st10" d="M101.75,91.6c1.1-0.15,0.94,0.79,1.1,1.44c3.06,12.73,6.11,25.46,9.15,38.19
			c8.06,33.74,16.11,67.47,24.16,101.21c0.6,2.52,0.61,2.51-1.89,3.11c-27.47,6.57-54.94,13.12-82.39,19.75
			c-1.68,0.41-2.14-0.01-2.51-1.55C38.3,207.14,27.18,160.53,16,113.95c-0.36-1.5-0.06-1.9,1.34-2.24
			c24.76-5.87,49.51-11.78,74.26-17.68C94.97,93.23,98.32,92.42,101.75,91.6z M49.49,175.95c0.3-0.09,0.55-0.18,0.81-0.24
			c15.7-3.75,31.39-7.53,47.1-11.22c1.43-0.34,1.63-0.84,1.31-2.15c-3.95-16.33-7.88-32.67-11.71-49.03
			c-0.37-1.56-0.87-1.66-2.23-1.33c-15.62,3.77-31.26,7.5-46.9,11.19c-1.22,0.29-1.39,0.67-1.09,1.87c2.29,9.35,4.5,18.73,6.72,28.1
			c1.68,7.04,3.34,14.09,5.05,21.12C48.68,174.87,48.48,175.81,49.49,175.95z"/>
	</g>
</g>
<path class="st5" d="M247.73,305.02c-1.3,0.37-2.62,0.45-3.94,0.46C245.11,305.47,246.43,305.39,247.73,305.02
	c-2.27-1.6-4.3-3.45-6.1-5.56c-1.86-2.52-3.35-5.25-4.86-7.98c-6.69,0-13.38,0-20.06,0.01c-0.87,0-1.72-0.01-2.5-0.47
	c-2.29,0.47-4.59,0.58-6.92,0.47c-2.16-0.1-4.02-1.28-6.11-1.63c-4.88-3.17-8-7.56-9.22-13.26c-0.19-0.9-0.65-1.18-1.52-1.17
	c-5.79,0.09-11.38,1.08-16.44,4.03c-4.3,2.51-7.61,5.93-9.16,10.81c-1.25,3.15-1.24,6.35-0.39,9.59c0.58,2.11,1.52,4.03,3.04,5.63
	c1.75,2.22,3.8,4.05,6.41,5.22h0c0.87,0.47,1.71,1.02,2.62,1.39c7.59,3.07,15.61,3.66,23.63,3.62c7.42-0.04,14.83-0.67,22.17-1.86
	c5.55-0.89,11.13-1.59,16.55-3.12c4.56-0.68,8.97-1.91,14.01-3.25C250.8,306.49,249.26,305.76,247.73,305.02z"/>
<path class="st9" d="M184.6,282.1c-0.79,1.24-1.26,0.83-2.07,0.26c-1.66-1.18-3.36-1.1-4.98,0.08c-1.73,1.25-2.12,2.97-1.51,4.94
	c0.45,1.47,1.21,2.62,2.34,3.89c2.38,2.78,5.57,4.37,8.89,5.82c-2.9,0.11-4.64,1.58-5.62,4.15c-0.36,0.94-0.22,1.4,0.83,1.7
	c5.49,1.6,10.97,3.25,16.44,4.94c1,0.31,1.25-0.07,1.49-0.91c0.9-3.13,1.82-6.26,2.82-9.36c0.33-1.03,0.05-1.4-0.95-1.65
	c-2.58-0.66-5.13-1.42-7.69-2.13c-0.44-0.12-1-0.45-1.32-0.03c-1.09,1.47-1.71,0.47-2.39-0.37c-0.74-1.45-0.9-3.01-0.98-4.62
	c-0.1-2.11-0.18-4.26-1.26-6.17C187.68,280.91,185.59,280.54,184.6,282.1z M189.66,295.41c0.17,0.27,0.53,0.64,0.46,0.78
	c-0.32,0.6-0.89,0.35-1.39,0.23c-3.34-0.84-6.32-2.36-8.87-4.7c-0.29-0.27-0.6-0.52-0.85-0.82c-1.35-1.59-1.85-2.38-2.24-3.89
	c-0.43-1.65-0.04-3.02,1.39-3.99c1.36-0.92,2.71-0.86,4.05,0.09c2.3,1.63,3.33,4.04,4.11,6.6
	C186.98,291.89,187.76,293.97,189.66,295.41 M188.06,283.22c0.86,1.78,0.95,3.71,1.04,5.63c0.08,1.73,0.12,3.46,1.2,4.94
	c0.14,0.28,0.73,0.59,0.37,1.11c-0.01,0-0.01,0.01-0.02,0.01c0,0,0,0.01,0,0.01c-1.84-0.75-2.5-2.43-3.09-4.08
	c-0.74-2.06-1.31-4.17-2.54-6.04c-0.65-1-0.3-2,0.64-2.57C186.74,281.58,187.56,282.2,188.06,283.22z"/>
<path class="st9" d="M299.56,289.63c5.18-8.4,7.22-17.99,5.84-28.71c-1.3-10.06-5.75-18.04-15.75-21.99
	c6.06-10.84,7.42-22.47,5.8-34.59c-0.22,0-0.45,0-0.67,0c0.71,6.45,0.75,12.89-0.46,19.28c-1.5,7.92-4.33,15.21-10.38,20.87
	c-4.3,4.02-9.24,5.49-15.06,3.95c-4.92-1.3-9.55-3.3-14.06-5.54c-6.45-3.21-13.14-3.56-20.03-2.38c-1.73,0.3-3.16,0.54-3.3-1.83
	c0-0.03-0.21-0.05-0.42-0.1c-0.43,0.55,0.02,1.13,0.05,1.67c0.14,2.62-0.23,5.08-2.19,7c-1.73,1.69-3.98,1.4-5.04-0.54
	c-2.49-4.55,0.96-12.38,5.98-13.58c0.97-0.23,1.96-0.4,3.4-0.69c-1.06-0.64-1.69-0.48-2.31-0.38c-4.95,0.83-7.09,2.96-8.21,8.4
	c-0.32,1.54-0.87,2.7-2.56,2.79c-1.66,0.09-2.22-1.21-2.7-2.48c-1.5-3.91-0.67-10.79,5.29-13.27c1.66-0.69,3.32-1.33,5.08-1.74
	c0.47-0.11,1.28,0.1,1.39-0.93c-2.06,0.01-3.9,0.71-5.71,1.44c-3.06,1.23-5.77,2.99-6.68,6.36c-0.79,2.91-2.89,4.18-5.41,5.02
	c-2.22,0.74-3.68-0.52-3.45-2.86c0.2-2.06,1.27-3.77,2.54-5.33c4.69-5.76,10.7-9.62,17.82-11.45c12.95-3.33,25.89-3.64,38.63,1.16
	c2.77,1.47,5.49,3.03,8.05,4.89c-1.9-2.62-4.69-4-7.47-5.4c0.3-5.37,1.97-10.44,3.8-15.5c-0.73-0.1-0.85,0.24-0.97,0.53
	c-1.91,4.64-3.11,9.46-3.69,14.52c-10.79-4.14-21.81-3.97-32.91-2.29c-2.99,0.45-5.85,1.05-8.97,0.41c-3.61-0.73-7.1,0.57-8.57,4.01
	c-1.39,3.24-3.63,5.57-5.89,8.03c-0.4,0.44-0.87,0.89-1.08,1.42c-1.36,3.43-4.21,5.6-6.54,8.26c-8.67,9.88-12.26,21.59-11.39,34.65
	c0.11,1.73-0.32,1.92-1.79,1.96c-6.08,0.16-11.87,1.47-17.07,4.78c-7.45,4.73-11.09,13.14-8.83,20.71c1.85,6.2,6.34,10,12.05,12.51
	c7.15,3.14,14.76,3.93,22.44,3.95c18.1,0.06,35.72-3.28,53.15-7.8c1.61-0.42,3.15-0.62,4.76-0.5c1.51,0.32,3.49,0.65,5.81,0.83
	c11.09,1.15,21.23-1.67,29.71-9.77c3.16-3.01,5.8-6.24,7.93-9.66c0.02-0.03,0.03-0.05,0.05-0.08
	C299.56,289.64,299.56,289.63,299.56,289.63z M226.77,217.56c-3.99,1.48-7.44,3.11-10.55,5.44
	C216.19,218.87,221.21,216.12,226.77,217.56z M276.19,252.36c0.03-0.02,0.07-0.02,0.11-0.03c-0.05,0.04-0.1,0.09-0.15,0.13
	C276.16,252.42,276.17,252.37,276.19,252.36z M206.82,235.07c0.62,2.39,1.65,3.83,3.91,3.61c1.9-0.19,3.4-1.33,5.14-2.43
	c0.11,1.99,0.27,3.76,1.01,5.4c0.97,2.16,2.15,2.81,4.42,2.16c0.84-0.24,1.02-0.14,1.09,0.68c0.05,0.65,0.22,1.32,0.44,1.93
	c1.07,2.91,4.09,3.65,6.45,1.61c1.37-1.18,2.18-2.71,2.39-4.48c0.18-1.47,0.95-1.85,2.32-2.1c7.77-1.44,15.19-0.79,22.27,3
	c2.57,1.37,5.34,2.37,8.06,3.44c1.07,0.42,1.77,1.07,2.28,2.06c1.81,3.49,2.7,7.2,2.86,11.1c0.03,0.65,0,1.3,0,2.4
	c1.26-1.36,0.77-2.57,0.77-3.64c-0.01-1.33,0.34-2.14,1.89-2.02c-0.48-0.75-1.23-1.24-1.52-2.1c-0.13-0.39-0.15-0.6,0.24-0.77
	c0.3-0.13,0.6-0.31,0.9-0.01c0.58,0.57,2.27,1.37,2.86,1.35c1.26-0.05,1.9-0.76,1.85-2.16c-0.02-0.53,0.12-0.95,0.53-1.19
	c0.53-0.32,0.78-0.01,0.99,0.53c0.24,0.6,0.69,0.32,0.88-0.04c0.77-1.53,2.68-1.35,3.68-2.69c0.02,1.59,0.02,1.59-2.1,2.52
	c1.21,0.27,2.18-0.13,2.95-1.31c0.09,0.6,0.15,0.97,0.25,1.58c0.6-0.88,1.81-1.32,0.64-2.47c-0.22-0.22-0.13-0.31,1.02-1.09
	c-0.13-0.43-0.29-0.86-0.38-1.3c-0.15-0.75-0.14-0.72,0.73-0.55c0.72,0.14,0.68-0.64,1.04-0.94c1.66-0.83,2.3-2.26,2.42-4.02
	c0-0.07,0.33-0.21,0.45-0.17c1.65,0.67,2.67-1.98,4.69-0.86c12.89,10.28,11.81,27.04,7.68,40.27c-3.8,8.74-8.51,14.67-13.5,18.64
	c-0.81,0.6-1.64,1.16-2.52,1.68c-4.42,3.2-9.48,4.76-14.78,5.49c-0.85,0.12-1.7,0.2-2.55,0.27c-7.33,0.39-13.23-1.35-15.15-1.84
	c-14.36-5-16.94-21.43-16.94-21.43c1.62-0.51,1.11-2.3,1.95-3.29c-0.6-0.44-1.58,0.61-1.86-0.29c-0.17-0.54,0.33-1.24,0.94-1.79
	c1.24-1.12,1.16-2.46-0.24-3.44c-0.56-0.4-0.61-0.76-0.51-1.3c-0.05-0.18-0.08-0.52-0.14-0.53c-1.11-0.08-0.5,0.95-0.86,1.37
	c-0.94-0.8-0.52-1.63,0.22-2.09c0.91-0.56,1.02,0.3,1.1,0.97c0.84-0.11,0.3-1.03,0.79-1.34c-0.02-0.08-0.01-0.15,0.03-0.23
	c-1.18-1.23-0.11-2.44,0.03-3.65c0.14,0.13,0.27,0.26,0.41,0.39c0.76-0.26,0.9-0.95,1.1-1.59c-0.28-0.03-0.56-0.05-0.84-0.08
	c-0.01,0.25-0.04,0.26-0.11,0.01c-0.18-0.56-0.11-1.1,0.1-1.63c-0.56-0.16-0.95-0.44-0.76-1.11c0.13-0.46,0.3-0.9,0.93-0.65
	c-0.25-2.59,1.06-4.9,1.34-7.4c0.11-1.01,0.3-2.02,0.14-3.11c-1.54,6.21-3.13,12.36-6.43,17.89c-2.1,3.88-4.6,7.45-7.93,10.38
	c-4.75,4.72-10.21,8.09-17.13,7.97c-5.84-0.1-10.37-2.8-13.38-7.89c-2.15-3.16-2.9-6.76-3.29-10.47
	C191.41,257.83,195.89,245.43,206.82,235.07z M238.89,310.75c-5.43,1.52-11.01,2.22-16.56,3.12c-7.34,1.18-14.76,1.82-22.17,1.86
	c-8.03,0.04-16.05-0.55-23.63-3.62c-0.91-0.37-1.75-0.92-2.62-1.39c-2.6-1.16-4.66-3-6.41-5.22c-1.53-1.6-2.47-3.52-3.04-5.63
	c-0.85-3.24-0.86-6.44,0.39-9.59c1.54-4.88,4.86-8.3,9.16-10.81c5.06-2.95,10.65-3.94,16.44-4.03c0.87-0.01,1.33,0.27,1.52,1.17
	c0.68,3.18,1.96,5.95,3.8,8.34c1.32,1.86,2.92,3.41,4.88,4.55c0.18,0.12,0.36,0.25,0.55,0.37c0.07,0.01,0.14,0.03,0.21,0.04
	c2.73,1.38,6.11,2.01,10.3,1.58c11.74-1.2,20.95-15.16,20.95-15.16c0.41,3.13,1.09,6.13,1.97,9.05c0,0,0,0,0,0.01
	c2.78,10.35,8.09,16.01,12.27,19.01c0.28,0.21,0.56,0.42,0.85,0.62c0.07,0.03,0.14,0.07,0.2,0.1c2.86,1.84,4.97,2.38,4.97,2.38
	C247.86,308.84,243.45,310.07,238.89,310.75z"/>
<g>
	<g>
		<path class="st0" d="M293.67,150.38c0.06,0.45,0.08,0.9,0.12,1.35c0.01,0.94-0.13,1.88-0.23,2.81c-0.21,0.81-0.43,1.62-0.64,2.43
			c-0.45,1.27-1,2.5-1.8,3.58c-0.85,1.15-1.85,2.17-3.39,2.38c-1.01,0.02-1.77-0.41-2.34-1.23c-0.35-0.51-0.58-1.08-0.74-1.67
			c-0.2-0.75-0.3-1.51-0.32-2.32c-1.69,1.34-3.35,2.65-5.03,3.98c0.17,0.09,0.31,0.17,0.45,0.24c1.44,0.77,2.88,1.53,4.32,2.3
			c0.23,0.12,0.45,0.27,0.29,0.56c-0.16,0.29-0.4,0.19-0.63,0.06c-1.69-0.9-3.39-1.8-5.09-2.7c-0.45-0.24-0.46-0.47-0.07-0.8
			c0.33-0.27,0.67-0.54,1.07-0.85c-0.82-0.11-1.41-0.48-1.86-1.06c-0.46-0.58-0.71-1.26-0.91-1.96c-0.11-0.4-0.08-0.83-0.29-1.19
			c0-0.91,0-1.81,0-2.72c0.15-0.06,0.09-0.19,0.1-0.29c0.26-1.99,0.81-3.89,1.76-5.66c0.65-1.21,1.43-2.31,2.59-3.09
			c1.63-1.1,3.27-0.68,4.2,1.05c0.28,0.53,0.46,1.1,0.59,1.68c0.21,0.96,0.21,1.94,0.2,3.06c0.56-1.02,1.11-1.87,1.83-2.59
			c1-1,2.12-1.64,3.6-1.25C293.02,147.31,293.44,148.79,293.67,150.38z M286.3,151.53c-0.39,0.73-0.63,1.52-0.79,2.33
			c-0.38,1.31-0.52,2.65-0.48,4.01c0.01,0.17-0.1,0.41,0.1,0.48c0.18,0.06,0.28-0.18,0.4-0.3c0.39-0.37,0.81-0.7,1.3-0.92
			c1.13-0.51,2.18-0.23,2.9,0.78c0.22,0.3,0.39,0.63,0.52,0.98c0.12,0.33,0.21,0.67,0.35,1.11c0.85-1.24,1.44-2.52,1.8-3.91
			c0.27-0.79,0.46-1.59,0.51-2.43c0.13-0.81,0.23-1.61,0.1-2.43c-0.01-1.13-0.23-2.21-0.84-3.18c-0.73-1.15-1.97-1.27-3.07-0.45
			c-0.67,0.51-1.22,1.08-1.66,1.77C286.95,150.04,286.55,150.75,286.3,151.53z M284.58,154.01c0.71-2.29,1.03-4.6,0.45-6.97
			c-0.12-0.5-0.32-0.98-0.6-1.42c-0.64-0.99-1.59-1.24-2.65-0.71c-0.83,0.42-1.45,1.09-1.97,1.84c-1.76,2.58-2.53,5.45-2.52,8.55
			c0,0.22,0.04,0.45,0.17,0.77c0.14-0.17,0.26-0.36,0.41-0.51c0.41-0.4,0.87-0.72,1.41-0.93c1.04-0.4,2.01-0.1,2.69,0.83
			c0.45,0.61,0.68,1.31,0.87,2.14C283.65,156.45,284.19,155.26,284.58,154.01z"/>
		<path class="st0" d="M396.04,172.84c0.03-0.03,0.03-0.05-0.02-0.06c-0.01,0-0.02,0.01-0.04,0.02c0.02,0.01,0.04,0.02,0.07,0.03
			C396.05,172.83,396.04,172.84,396.04,172.84z"/>
		<path class="st11" d="M292.92,156.97c-0.45,1.27-1,2.5-1.8,3.58c-0.85,1.15-1.85,2.17-3.39,2.38c1.09,1.07,2.37,1.81,3.83,2.23
			c0.4-0.31,0.5-0.28,0.72,0.18c4.07,0.76,8.19-1.23,10.21-4.93c0.02-0.04,0.02-0.09,0.02-0.14c-0.12-0.06-0.23-0.12-0.35-0.16
			C299.09,159.06,296,158.02,292.92,156.97z"/>
		<path class="st1" d="M303.75,155.03c-0.04-1.67-0.51-3.21-1.36-4.65c-0.1-0.17-0.19-0.33-0.28-0.5c-2.45-0.74-4.45-2.19-6.25-3.96
			c-0.15,0.1-0.31,0.02-0.47,0.01c-1.35-0.09-2.68,0.01-3.95,0.55c1.57,0.82,2,2.31,2.22,3.89c0.06,0.45,0.08,0.9,0.12,1.35
			c0.01,0.94-0.13,1.88-0.23,2.81c-0.21,0.81-0.43,1.62-0.64,2.43c3.09,1.05,6.17,2.09,9.26,3.14c0.12,0.04,0.23,0.11,0.35,0.16
			c0.48-0.78,0.79-1.63,0.96-2.53C303.74,156.86,303.81,155.95,303.75,155.03z"/>
		<path class="st0" d="M292.29,165.34c-0.22-0.46-0.32-0.49-0.72-0.18c0,0.16,0,0.32,0.01,0.48c0.04,1.83-0.89,2.84-2.71,2.96
			c-0.28,0.02-0.72-0.13-0.7,0.35c0.02,0.49,0.46,0.35,0.76,0.34c2.07-0.05,3.36-1.39,3.38-3.51
			C292.29,165.63,292.29,165.49,292.29,165.34z"/>
		<path class="st11" d="M285.52,153.86c-0.38,1.31-0.52,2.65-0.48,4.01c0.01,0.17-0.1,0.41,0.1,0.48c0.18,0.06,0.28-0.18,0.4-0.3
			c0.39-0.37,0.81-0.7,1.3-0.92c1.13-0.51,2.18-0.23,2.9,0.78c0.22,0.3,0.39,0.63,0.52,0.98c0.12,0.33,0.21,0.67,0.35,1.11
			c0.85-1.24,1.44-2.52,1.8-3.91c-1.3-0.44-2.59-0.89-3.89-1.31C287.52,154.47,286.56,154.04,285.52,153.86z"/>
		<path class="st1" d="M293.01,151.24c-0.01-1.13-0.23-2.21-0.84-3.18c-0.73-1.15-1.97-1.27-3.07-0.45
			c-0.67,0.51-1.22,1.08-1.66,1.77c-0.49,0.66-0.89,1.36-1.14,2.15c-0.39,0.73-0.63,1.52-0.78,2.33c1.04,0.17,2,0.61,2.99,0.92
			c1.3,0.42,2.59,0.87,3.89,1.31c0.27-0.79,0.46-1.59,0.51-2.43C293.04,152.86,293.14,152.06,293.01,151.24z"/>
	</g>
</g>
<path id="contour_3_" class="st12" d="M82.74,126.83c-5.21-3.18-14.41-0.73-17.95,4.27c-0.1,0.15-0.19,0.29-0.26,0.43
	c-0.16-0.12-0.35-0.24-0.58-0.34c-5.53-2.61-14.65-0.58-17.69,4.67c-3.15,5.45-1.66,12.33,3.62,15.66
	c7.07,4.46,14.25,8.74,21.39,13.08c1.03,0.63,1.93,0.44,2.55-0.57c4.42-7.22,8.93-14.38,13.17-21.71
	C90.12,136.94,88.08,130.09,82.74,126.83z"/>
<path id="coeur_rouge_3_" class="st13" d="M78.32,126.38c-4.24-0.67-9.06,1.28-11.66,4.67c-0.23,0.27-0.43,0.51-0.6,0.72
	c0,0,0,0,0,0c-0.76,1.25-2.18,0.57-2.18,0.57l0,0c-0.13-0.07-0.26-0.13-0.42-0.2c-5.05-2.39-13.67-1.35-16.37,4.45
	c-2.73,4.89-1.28,11.08,3.48,14.06c6.96,4.36,14.02,8.57,21.03,12.87c0.71,0.44,1.12,0.29,1.53-0.4c4.26-7.03,8.56-14.03,12.8-21.07
	c1.43-2.37,1.71-4.97,0.94-8.29C85.73,129.97,82.93,127.12,78.32,126.38z"/>
<g id="YEUX_3_">
	<path id="contour_noir_6_" class="st12" d="M68.76,148.8c-3.75,0.89-7.6-1.51-8.46-5.25c-0.87-3.79,1.47-7.54,5.27-8.43
		c3.78-0.89,7.61,1.48,8.46,5.23C74.88,144.13,72.53,147.91,68.76,148.8z M65.73,135.96c-3.31,0.79-5.35,4.09-4.58,7.4
		c0.77,3.32,4.16,5.39,7.48,4.57c3.28-0.8,5.32-4.16,4.53-7.44C72.37,137.2,69.03,135.17,65.73,135.96z"/>
	<g id="fond_blanc_6_">
		<path id="grand_fond_blanc_3_" class="st14" d="M65.73,135.96c-3.31,0.79-5.35,4.09-4.58,7.4c0.77,3.32,4.16,5.39,7.48,4.57
			c3.28-0.8,5.32-4.16,4.53-7.44C72.37,137.2,69.03,135.17,65.73,135.96z M70.39,145.64c-1.53,1.35-3.75,1.6-5.55,0.64
			c-1.8-0.97-2.82-2.97-2.54-4.99c0.28-2.04,1.79-3.69,3.77-4.12c0.2-0.04,0.45-0.23,0.63,0.02c0.12,0.17-0.09,0.31-0.16,0.45
			c-0.64,1.33-0.18,2.72,1.08,3.25c1.27,0.53,2.58-0.12,3.07-1.51c0.05-0.15,0.12-0.3,0.18-0.47
			C72.65,140.63,72.39,143.87,70.39,145.64z"/>
		<path id="petit_fond_blanc_3_" class="st14" d="M66.76,141.93c-0.42,0.11-0.63,0.43-0.52,0.86c0.12,0.46,0.46,0.67,0.92,0.52
			c0.42-0.13,0.56-0.46,0.48-0.88C67.49,142.01,67.19,141.82,66.76,141.93z"/>
	</g>
	<path id="iris_noir_3_" class="st12" d="M70.87,138.91c1.78,1.73,1.52,4.96-0.48,6.73c-1.53,1.35-3.75,1.6-5.55,0.64
		c-1.8-0.97-2.82-2.97-2.54-4.99c0.28-2.04,1.79-3.69,3.77-4.12c0.2-0.04,0.45-0.23,0.63,0.02c0.12,0.17-0.09,0.31-0.16,0.45
		c-0.64,1.33-0.18,2.72,1.08,3.25c1.27,0.53,2.58-0.12,3.07-1.51C70.74,139.22,70.81,139.08,70.87,138.91z M67.65,142.43
		c-0.16-0.42-0.47-0.6-0.89-0.5c-0.42,0.11-0.63,0.43-0.52,0.86c0.12,0.46,0.46,0.67,0.92,0.52
		C67.59,143.18,67.72,142.85,67.65,142.43z"/>
</g>
<path id="contour_noir_5_" class="st15" d="M75.29,129.1c1.58-1.86,4.02-0.97,4.45,0.89c0.29,1.24-0.59,2.61-1.85,2.9
	C76.03,133.31,74.09,131.37,75.29,129.1z M78.7,130.2c-0.17-0.71-0.92-1.2-1.63-1.05c-0.74,0.15-1.25,0.98-1.05,1.71
	c0.19,0.7,0.96,1.16,1.67,0.99C78.39,131.67,78.86,130.9,78.7,130.2z"/>
<path id="fond_blanc_5_" class="st16" d="M78.7,130.2c0.17,0.71-0.31,1.47-1.02,1.65c-0.71,0.17-1.48-0.28-1.67-0.99
	c-0.2-0.73,0.31-1.57,1.05-1.71C77.78,129,78.53,129.49,78.7,130.2z"/>
</svg>
