<?xml version="1.0" encoding="utf-8"?>
<!-- Generator: Adobe Illustrator 23.1.1, SVG Export Plug-In . SVG Version: 6.00 Build 0)  -->
<svg version="1.1" id="Calque_1" xmlns="http://www.w3.org/2000/svg" xmlns:xlink="http://www.w3.org/1999/xlink" x="0px" y="0px"
	 viewBox="0 0 53.24 53" style="enable-background:new 0 0 53.24 53;" xml:space="preserve">
<style type="text/css">
	.st0{fill:#D3D9DF;}
	.st1{opacity:0.5;fill:#EFEFEF;}
	.st2{fill:#F3F3F1;}
	.st3{fill:#040404;}
	.st4{fill:#EE3355;}
</style>
<path class="st0" d="M22.94,15.36c0,0-7.27,1.32-6.24,8.14c1.04,6.82-0.77,9.8-2.11,10.76c-1.35,0.96-4.79,4.02,0.38,4.61
	c5.18,0.59,22.1-0.45,22.1-0.45s3.52-0.51,1.15-3.08s-3.31-6.11-3.13-7.51c0,0-0.26-10.49-5.89-12.48c0.69-1.7,2-5.61-1.46-5.35
	S24.78,10.11,22.94,15.36z"/>
<g>
	<g>
		<path class="st1" d="M10.07,7.03C9.89,7.07,9.7,7.08,9.53,7.14c-1.38,0.49-2.5,1.33-3.38,2.5c-1.66,2.2-2.24,4.77-2.41,7.44
			c-0.09,1.42-0.07,2.85,0.06,4.28c0.15,1.67,0.42,3.31,0.8,4.94c0.53,2.29,1.27,4.51,2.19,6.68c0.55,1.3,1.18,2.56,1.84,3.8
			c0.07,0.14,0.14,0.27,0.32,0.27c0.1,0.88,0.51,1.58,1.24,2.1c-0.02,0.16,0.07,0.29,0.15,0.42c1.01,1.53,2.14,2.97,3.39,4.3
			c1.13,1.2,2.34,2.3,3.66,3.29c1.83,1.37,3.78,2.49,5.94,3.24c1.8,0.62,3.63,0.99,5.54,1.13c1.24,0.09,2.45,0.01,3.65-0.17
			c2.05-0.31,3.99-1,5.82-2.01c2.08-1.14,3.82-2.67,5.28-4.52c1.72-2.15,2.86-4.6,3.68-7.22c0.89-2.83,1.35-5.74,1.45-8.68
			c0.11-3.3,0.09-6.61-0.36-9.9c-0.34-2.46-0.82-4.88-1.65-7.23c-0.77-2.17-1.84-4.18-3.35-5.93c-1.66-1.93-3.72-3.3-6.2-3.94
			c-1.51-0.39-3.04-0.58-4.62-0.29c-2.21,0.4-4.26,1.29-6.36,2.04c-2.57,0.92-5.14,1.84-7.84,2.38C18.12,6.11,17.76,6,17.56,6.31
			c-0.07,0-0.13,0-0.2,0c-0.07-0.06-0.14-0.08-0.23-0.06c-1.32,0.24-2.64,0.38-3.98,0.38c-0.59,0-1.17-0.04-1.75,0.1
			c-0.53-0.43-0.53-0.43-1.06,0.08C10.25,6.89,10.16,6.96,10.07,7.03z"/>
		<path class="st2" d="M23.22,15.18c0,0-7.27,1.32-6.24,8.14s-0.77,9.8-2.11,10.76c-1.35,0.96-4.79,4.02,0.38,4.61
			s22.1-0.45,22.1-0.45s3.52-0.51,1.15-3.08s-3.31-6.11-3.13-7.51c0,0-0.26-10.49-5.89-12.48c0.69-1.7,1.24-0.78-2.22-0.52
			C23.81,14.92,26.99,14.62,23.22,15.18z"/>
		<path class="st3" d="M15.86,37.26c0.18,0.01,0.37,0.03,0.55,0.03c6.97,0,13.93,0,20.9,0c0.05,0,0.1,0,0.15,0
			c0.22-0.02,0.5,0.07,0.61-0.22c0.11-0.28-0.14-0.42-0.31-0.57c-1.11-0.98-1.98-2.14-2.67-3.45c-0.13-0.25-0.11-0.36,0.16-0.47
			c0.46-0.19,0.92-0.41,1.36-0.64c0.22-0.12,0.34-0.1,0.46,0.14c0.59,1.17,1.4,2.16,2.4,3.01c0.79,0.68,1.03,1.78,0.65,2.76
			c-0.38,0.99-1.27,1.61-2.32,1.62c-2.05,0-4.11,0.01-6.16-0.01c-0.32,0-0.46,0.07-0.55,0.4c-0.63,2.31-2.79,3.94-5.18,3.94
			c-2.36,0-4.55-1.62-5.18-3.88c-0.1-0.37-0.24-0.47-0.6-0.46c-1.88,0.02-3.77,0-5.65,0.02c-0.61,0.01-1.2-0.05-1.75-0.33
			c-0.73-0.51-1.13-1.22-1.24-2.1c0.05-0.88,0.42-1.57,1.09-2.17c2.17-1.94,3.21-4.41,3.26-7.3c0.02-1.41,0-2.83,0-4.24
			c0.01-4.27,3.26-8.39,7.4-9.39c0.24-0.06,0.37-0.04,0.4,0.25c0.03,0.25,0.13,0.48,0.2,0.72c0.03,0.13,0.05,0.26,0.08,0.39
			c0.15,0.67,0.15,0.68-0.52,0.9c-3.11,1-5.29,3.93-5.35,7.13c-0.02,1.34-0.01,2.69-0.02,4.04c-0.01,0.99-0.07,1.98-0.31,2.95
			c-0.59,2.47-1.82,4.56-3.73,6.24c-0.15,0.13-0.34,0.25-0.26,0.5c0.09,0.27,0.34,0.23,0.55,0.23
			C14.82,37.28,15.34,37.27,15.86,37.26z M22.93,39.47c0.43,1.23,1.57,2.08,2.76,2.12c1.39,0.05,2.63-0.67,3.12-1.8
			c0.1-0.23,0.11-0.33-0.19-0.32C26.74,39.48,24.86,39.47,22.93,39.47z"/>
		<path class="st0" d="M20.07,3.8c0.39,0.41,0.78,0.83,1.19,1.23c0.24,0.23,0.29,0.4,0.02,0.66c-0.91,0.87-0.64,0.83-1.47,0.02
			c-0.34-0.33-0.65-0.68-1-0.99c-0.23-0.21-0.29-0.39-0.07-0.62c0.09-0.07,0.18-0.14,0.27-0.22C19.53,3.37,19.53,3.37,20.07,3.8z"/>
		<path class="st0" d="M26.23,3.38c0.17,0.3,0.45,0.5,0.68,0.73c0.18,0.18,0.21,0.29,0.01,0.48c-0.52,0.5-1.04,1.01-1.54,1.53
			c-0.2,0.2-0.33,0.21-0.53,0c-0.89-0.92-0.83-0.65-0.04-1.48c0.41-0.43,0.87-0.8,1.22-1.27C26.1,3.38,26.16,3.38,26.23,3.38z"/>
		<path class="st0" d="M15.86,37.26c-0.52,0.01-1.04,0.03-1.56,0.03c-0.21,0-0.46,0.04-0.55-0.23c-0.08-0.24,0.11-0.36,0.26-0.5
			c1.91-1.68,3.14-3.77,3.73-6.24c0.23-0.97,0.3-1.96,0.31-2.95c0.01-1.35,0-2.69,0.02-4.04c0.06-3.2,2.24-6.13,5.35-7.13
			c0.67-0.22,0.67-0.23,0.52-0.9c-0.03-0.13-0.05-0.26-0.08-0.39c1.14-0.24,2.28-0.28,3.55-0.09c-3.6,0.94-5.91,3.06-6.93,6.53
			c-0.17,0.59-0.29,1.2-0.28,1.83c0.02,1.31,0,2.62,0.01,3.94c0.01,2.33-0.54,4.51-1.82,6.48c-0.52,0.81-1.19,1.5-1.89,2.14
			C16.04,36.16,15.78,36.63,15.86,37.26z"/>
		<path class="st0" d="M21.33,10.14c-0.14,0.16-0.2,0.24-0.27,0.31c-0.51,0.51-1.03,1.02-1.53,1.54c-0.2,0.21-0.34,0.2-0.53,0
			c-0.89-0.92-0.83-0.65-0.03-1.48c0.35-0.36,0.72-0.71,1.07-1.07c0.18-0.19,0.31-0.18,0.5,0C20.77,9.69,21.05,9.91,21.33,10.14z"/>
		<path class="st4" d="M22.93,39.47c1.93,0,3.81,0,5.69,0c0.29,0,0.29,0.09,0.19,0.32c-0.5,1.13-1.74,1.85-3.12,1.8
			C24.5,41.55,23.37,40.7,22.93,39.47z"/>
	</g>
</g>
<g>
	<path class="st3" d="M26.78,17.17c-2.45,0-4.44-1.99-4.44-4.44s1.99-4.44,4.44-4.44s4.44,1.99,4.44,4.44S29.23,17.17,26.78,17.17z
		 M26.78,10.67c-1.14,0-2.06,0.93-2.06,2.06s0.93,2.06,2.06,2.06s2.06-0.93,2.06-2.06S27.92,10.67,26.78,10.67z"/>
</g>
<path class="st3" d="M37.51,37.28c0.21,0,0.46,0.04,0.55-0.23c0.08-0.24-0.11-0.36-0.26-0.5c-1.91-1.68-3.14-3.77-3.73-6.24
	c-0.23-0.97-0.3-1.96-0.31-2.95c-0.01-1.35,0-2.69-0.02-4.04c-0.06-3.2-2.24-6.13-5.35-7.13c-0.67-0.22-0.67-0.23-0.52-0.9
	c0.03-0.13,0.05-0.26,0.08-0.39c0.07-0.24,0.17-0.48,0.2-0.72c0.03-0.29,0.16-0.31,0.4-0.25c4.14,1,7.39,5.12,7.4,9.39
	c0,1.41-0.02,2.83,0,4.24c0.05,2.89,1.09,5.36,3.26,7.3c0.67,0.6,1.04,1.29,1.09,2.17c-0.1,0.88-0.51,1.58-1.24,2.1
	c-0.55,0.28-1.14,0.34-1.75,0.33c-1.88-0.02-3.77,0-5.65-0.02c-0.36,0-0.5,0.09-0.6,0.46c-0.63,2.26-2.82,3.88-5.18,3.88
	c-2.39,0-4.55-1.64-5.18-3.94c-0.09-0.33-0.23-0.4-0.55-0.4c-2.05,0.01-4.11,0.01-6.16,0.01c-1.05,0-1.94-0.62-2.32-1.62
	c-0.38-0.98-0.14-2.08,0.65-2.76c1-0.85,1.81-1.84,2.4-3.01c0.12-0.24,0.23-0.26,0.46-0.14c0.44,0.23,0.9,0.45,1.36,0.64
	c0.27,0.11,0.3,0.22,0.16,0.47c-0.68,1.31-1.56,2.47-2.67,3.45c-0.17,0.15-0.42,0.29-0.31,0.57c0.11,0.29,0.39,0.2,0.61,0.22
	c0.05,0,0.1,0,0.15,0c6.97,0,13.93,0,20.9,0c0.18,0,0.37-0.02,0.55-0.03C36.47,37.27,36.99,37.28,37.51,37.28z M23.19,39.47
	c-0.29,0-0.29,0.09-0.19,0.32c0.5,1.13,1.74,1.85,3.12,1.8c1.19-0.04,2.32-0.9,2.76-2.12C26.95,39.47,25.07,39.48,23.19,39.47z"/>
</svg>
