<?xml version="1.0" encoding="utf-8"?>
<!-- Generator: Adobe Illustrator 23.1.1, SVG Export Plug-In . SVG Version: 6.00 Build 0)  -->
<svg version="1.1" id="Calque_1" xmlns="http://www.w3.org/2000/svg" xmlns:xlink="http://www.w3.org/1999/xlink" x="0px" y="0px"
	 viewBox="0 0 58 65" style="enable-background:new 0 0 58 65;" xml:space="preserve">
<style type="text/css">
	.st0{opacity:0.5;fill:#EFEFEF;}
	.st1{fill:#040404;}
	.st2{fill:#A5AFC1;}
	.st3{fill:#F2F2F0;}
	.st4{fill:#D2D8DE;}
	.st5{fill:#EEEDEE;}
</style>
<g>
	<g>
		<path class="st0" d="M57.14,32.88c0.06-2.18-0.06-4.61-0.36-7.04c-0.32-2.66-0.84-5.26-1.7-7.79c-1.35-4.01-3.37-7.62-6.47-10.58
			c-2.02-1.93-4.3-3.44-6.89-4.45c-3.05-1.2-6.21-1.83-9.53-1.54c-1.37,0.12-2.74,0.28-4.07,0.59c-5,1.2-9.24,3.76-12.94,7.27
			c-1.15,1.09-2.23,2.25-3.25,3.48c-2.3,2.78-4.2,5.82-5.81,9.04c-1.37,2.75-2.46,5.62-3.32,8.57c-0.88,3.05-1.52,6.15-1.7,9.31
			c-0.1,1.81-0.12,3.63,0.08,5.45c0.28,2.6,0.87,5.09,2.23,7.35c1.46,2.43,3.54,3.96,6.36,4.53c1.66,0.34,3.32,0.16,4.98,0.32
			c2.1,0.2,4.17,0.51,6.21,0.99c4.03,0.96,7.86,2.52,11.74,3.92c2.74,0.99,5.5,1.71,8.48,1.17c2.85-0.52,5.38-1.64,7.55-3.54
			c2.42-2.12,4.09-4.78,5.32-7.73c1.8-4.34,2.51-8.91,2.93-13.55C57.18,36.83,57.16,34.99,57.14,32.88z"/>
		<path class="st1" d="M19.1,14.67c3,0.02,5.6,1.04,7.79,3.09c0.64,0.6,1.26,1.23,1.86,1.87c0.27,0.29,0.43,0.32,0.73,0.01
			c0.9-0.93,1.77-1.9,2.81-2.69c6.75-5.13,16.71-1.16,18.08,7.21c0.65,3.96-0.39,7.44-3.2,10.31c-5.61,5.73-11.26,11.42-16.9,17.13
			c-0.79,0.8-1.49,0.8-2.27,0.01c-5.65-5.72-11.33-11.42-16.94-17.18c-5.79-5.94-3.85-15.7,3.72-18.9
			C16.15,14.95,17.6,14.66,19.1,14.67z M30.27,47.75c0.06-0.05,0.14-0.1,0.19-0.15c4.95-5.02,9.91-10.03,14.85-15.06
			c1.86-1.89,2.67-4.19,2.55-6.84c-0.23-5.21-5.06-9.11-10.19-8.21c-2.31,0.34-4.08,1.58-5.55,3.33c-0.62,0.61-1.25,1.23-1.87,1.84
			c-0.77,0.76-1.51,0.76-2.28-0.01c-0.93-0.93-1.83-1.89-2.78-2.8c-2.11-2.01-4.61-2.84-7.51-2.36c-0.29,0.05-0.58,0.09-0.85,0.17
			c-6.55,1.83-8.67,10.02-3.84,14.94c5,5.1,10.02,10.17,15.04,15.25c1.12,1.14,1.13,1.14,2.21-0.04
			C30.26,47.8,30.26,47.77,30.27,47.75z"/>
		<path class="st2" d="M11.39,46.01c0-1.49,1.18-2.66,2.66-2.65c1.45,0,2.65,1.22,2.64,2.69c-0.01,1.49-1.19,2.73-2.65,2.69
			C12.43,48.7,11.25,47.37,11.39,46.01z M14.91,46.03c-0.01-0.48-0.46-0.91-0.94-0.89c-0.43,0.02-0.82,0.47-0.82,0.93
			c0.01,0.5,0.44,0.91,0.92,0.88C14.54,46.92,14.93,46.49,14.91,46.03z"/>
		<path class="st2" d="M30.49,6.19c0,0.46-0.01,0.92,0,1.38C30.5,7.89,30.35,8,30.04,8.02c-1.39,0.12-1.41,0.11-1.41-1.25
			c0-0.65,0.01-1.29,0-1.94c-0.01-0.31,0.09-0.43,0.43-0.45c1.44-0.08,1.44-0.09,1.44,1.31C30.49,5.86,30.49,6.03,30.49,6.19z"/>
		<path class="st2" d="M34.47,11.95c-0.46,0-0.92-0.01-1.38,0c-0.33,0.01-0.44-0.12-0.44-0.44c0.01-1.6-0.11-1.31,1.21-1.33
			c0.67-0.01,1.34,0.01,2.01,0c0.29,0,0.4,0.09,0.42,0.39c0.11,1.38,0.12,1.38-1.26,1.38C34.84,11.95,34.66,11.95,34.47,11.95z"/>
		<path class="st2" d="M24.23,11.95c-0.19,0-0.38,0-0.56,0c-1.33,0-1.37-0.06-1.22-1.41c0.03-0.27,0.13-0.36,0.39-0.36
			c0.92,0.01,1.83,0.01,2.75,0c0.3,0,0.38,0.12,0.4,0.41c0.1,1.36,0.11,1.36-1.26,1.36C24.56,11.95,24.39,11.95,24.23,11.95z"/>
		<path class="st3" d="M37.67,17.49c5.13-0.9,9.96,3,10.19,8.21c0.12,2.65-0.69,4.95-2.55,6.84c-4.94,5.03-9.9,10.04-14.85,15.06
			c-0.06,0.06-0.13,0.1-0.19,0.15c-0.29-0.01-0.43-0.24-0.6-0.41c-1.24-1.24-2.45-2.51-3.68-3.77c-2.74-2.82-5.56-5.57-8.33-8.37
			c-0.84-0.84-1.72-1.67-2.43-2.61c-1.74-2.31-2.51-4.91-2.07-7.82c0.32-2.13,1.16-4,2.69-5.53c0.6-0.6,1.23-1.17,1.85-1.75
			c2.9-0.48,5.4,0.35,7.51,2.36c0.95,0.91,1.85,1.87,2.78,2.8c0.77,0.77,1.51,0.77,2.28,0.01c0.62-0.61,1.25-1.23,1.87-1.84
			c0.16,0.19,0.34,0.37,0.48,0.57c0.35,0.49,0.62,0.46,1.07,0.03c1.27-1.26,2.42-2.66,3.9-3.7C37.63,17.68,37.64,17.57,37.67,17.49z
			"/>
		<path class="st4" d="M17.69,17.49c-0.62,0.58-1.25,1.15-1.85,1.75c-1.53,1.53-2.36,3.4-2.69,5.53c-0.44,2.91,0.32,5.51,2.07,7.82
			c0.71,0.94,1.59,1.77,2.43,2.61c2.77,2.79,5.59,5.55,8.33,8.37c1.22,1.26,2.44,2.53,3.68,3.77c0.17,0.17,0.31,0.4,0.6,0.41
			c-0.01,0.02-0.01,0.04-0.02,0.06c-1.09,1.17-1.09,1.17-2.21,0.04C23.02,42.77,17.99,37.7,12.99,32.6
			c-4.83-4.92-2.71-13.11,3.84-14.94C17.11,17.58,17.4,17.55,17.69,17.49z"/>
		<path class="st4" d="M37.67,17.49c-0.03,0.08-0.04,0.18-0.1,0.22c-1.48,1.04-2.63,2.44-3.9,3.7c-0.44,0.44-0.71,0.46-1.07-0.03
			c-0.14-0.2-0.32-0.38-0.48-0.57C33.59,19.08,35.36,17.83,37.67,17.49z"/>
		<path class="st5" d="M14.91,46.03c0.01,0.47-0.38,0.89-0.84,0.92c-0.49,0.03-0.91-0.38-0.92-0.88c-0.01-0.46,0.39-0.91,0.82-0.93
			C14.45,45.11,14.9,45.54,14.91,46.03z"/>
	</g>
</g>
</svg>
